<?xml version="1.0" encoding="UTF-8" standalone="no"?>
<!DOCTYPE svg PUBLIC "-//W3C//DTD SVG 1.1//EN"
 "http://www.w3.org/Graphics/SVG/1.1/DTD/svg11.dtd">
<!-- Generated by graphviz version 2.38.0 (20140413.2041)
 -->
<!-- Title: controllers_diagram Pages: 1 -->
<svg width="958pt" height="979pt"
 viewBox="0.00 0.00 958.43 979.00" xmlns="http://www.w3.org/2000/svg" xmlns:xlink="http://www.w3.org/1999/xlink">
<g id="graph0" class="graph" transform="scale(1 1) rotate(0) translate(400.166 543.5)">
<title>controllers_diagram</title>
<polygon fill="none" stroke="none" points="-400.166,435.5 -400.166,-543.5 558.262,-543.5 558.262,435.5 -400.166,435.5"/>
<!-- _diagram_info -->
<g id="node1" class="node"><title>_diagram_info</title>
<text text-anchor="start" x="-315.688" y="264.9" font-family="Times,serif" font-size="13.00">Controllers diagram</text>
<text text-anchor="start" x="-315.688" y="277.9" font-family="Times,serif" font-size="13.00">Date: Jan 08 2016 &#45; 14:22</text>
<text text-anchor="start" x="-315.688" y="290.9" font-family="Times,serif" font-size="13.00">Migration version: 20160108121704</text>
<text text-anchor="start" x="-315.688" y="303.9" font-family="Times,serif" font-size="13.00">Generated by RailRoady 1.4.2</text>
<text text-anchor="start" x="-315.688" y="316.9" font-family="Times,serif" font-size="13.00">http://railroady.prestonlee.com</text>
</g>
<!-- AllocationitemsController -->
<g id="node2" class="node"><title>AllocationitemsController</title>
<path fill="none" stroke="black" d="M-258.486,-271C-258.486,-271 -119.514,-271 -119.514,-271 -113.514,-271 -107.514,-277 -107.514,-283 -107.514,-283 -107.514,-433 -107.514,-433 -107.514,-439 -113.514,-445 -119.514,-445 -119.514,-445 -258.486,-445 -258.486,-445 -264.486,-445 -270.486,-439 -270.486,-433 -270.486,-433 -270.486,-283 -270.486,-283 -270.486,-277 -264.486,-271 -258.486,-271"/>
<text text-anchor="middle" x="-189" y="-429.8" font-family="Times,serif" font-size="14.00">AllocationitemsController</text>
<polyline fill="none" stroke="black" points="-270.486,-423 -107.514,-423 "/>
<text text-anchor="start" x="-262.486" y="-407.8" font-family="Times,serif" font-size="14.00">create</text>
<text text-anchor="start" x="-262.486" y="-393.8" font-family="Times,serif" font-size="14.00">destroy</text>
<text text-anchor="start" x="-262.486" y="-379.8" font-family="Times,serif" font-size="14.00">index</text>
<text text-anchor="start" x="-262.486" y="-365.8" font-family="Times,serif" font-size="14.00">new</text>
<text text-anchor="start" x="-262.486" y="-351.8" font-family="Times,serif" font-size="14.00">show</text>
<polyline fill="none" stroke="black" points="-270.486,-345 -107.514,-345 "/>
<polyline fill="none" stroke="black" points="-270.486,-321 -107.514,-321 "/>
<text text-anchor="start" x="-262.486" y="-305.8" font-family="Times,serif" font-size="14.00">_layout</text>
<text text-anchor="start" x="-262.486" y="-291.8" font-family="Times,serif" font-size="14.00">allocation_params</text>
<text text-anchor="start" x="-262.486" y="-277.8" font-family="Times,serif" font-size="14.00">find_role</text>
</g>
<!-- ApplicationController -->
<g id="node3" class="node"><title>ApplicationController</title>
<path fill="none" stroke="black" d="M318.179,-127C318.179,-127 433.821,-127 433.821,-127 439.821,-127 445.821,-133 445.821,-139 445.821,-139 445.821,-261 445.821,-261 445.821,-267 439.821,-273 433.821,-273 433.821,-273 318.179,-273 318.179,-273 312.179,-273 306.179,-267 306.179,-261 306.179,-261 306.179,-139 306.179,-139 306.179,-133 312.179,-127 318.179,-127"/>
<text text-anchor="middle" x="376" y="-257.8" font-family="Times,serif" font-size="14.00">ApplicationController</text>
<polyline fill="none" stroke="black" points="306.179,-251 445.821,-251 "/>
<text text-anchor="start" x="314.179" y="-235.8" font-family="Times,serif" font-size="14.00">danger</text>
<text text-anchor="start" x="314.179" y="-221.8" font-family="Times,serif" font-size="14.00">find_projects</text>
<text text-anchor="start" x="314.179" y="-207.8" font-family="Times,serif" font-size="14.00">info</text>
<text text-anchor="start" x="314.179" y="-193.8" font-family="Times,serif" font-size="14.00">success</text>
<text text-anchor="start" x="314.179" y="-179.8" font-family="Times,serif" font-size="14.00">warning</text>
<polyline fill="none" stroke="black" points="306.179,-173 445.821,-173 "/>
<polyline fill="none" stroke="black" points="306.179,-149 445.821,-149 "/>
<text text-anchor="start" x="314.179" y="-133.8" font-family="Times,serif" font-size="14.00">_layout</text>
</g>
<!-- ComponentsController -->
<g id="node4" class="node"><title>ComponentsController</title>
<path fill="none" stroke="black" d="M-24.1621,-379C-24.1621,-379 96.1621,-379 96.1621,-379 102.162,-379 108.162,-385 108.162,-391 108.162,-391 108.162,-527 108.162,-527 108.162,-533 102.162,-539 96.1621,-539 96.1621,-539 -24.1621,-539 -24.1621,-539 -30.1621,-539 -36.1621,-533 -36.1621,-527 -36.1621,-527 -36.1621,-391 -36.1621,-391 -36.1621,-385 -30.1621,-379 -24.1621,-379"/>
<text text-anchor="middle" x="36" y="-523.8" font-family="Times,serif" font-size="14.00">ComponentsController</text>
<polyline fill="none" stroke="black" points="-36.1621,-517 108.162,-517 "/>
<text text-anchor="start" x="-28.1621" y="-501.8" font-family="Times,serif" font-size="14.00">component_params</text>
<text text-anchor="start" x="-28.1621" y="-487.8" font-family="Times,serif" font-size="14.00">create</text>
<text text-anchor="start" x="-28.1621" y="-473.8" font-family="Times,serif" font-size="14.00">destroy</text>
<text text-anchor="start" x="-28.1621" y="-459.8" font-family="Times,serif" font-size="14.00">find_component</text>
<text text-anchor="start" x="-28.1621" y="-445.8" font-family="Times,serif" font-size="14.00">new</text>
<text text-anchor="start" x="-28.1621" y="-431.8" font-family="Times,serif" font-size="14.00">show</text>
<polyline fill="none" stroke="black" points="-36.1621,-425 108.162,-425 "/>
<polyline fill="none" stroke="black" points="-36.1621,-401 108.162,-401 "/>
<text text-anchor="start" x="-28.1621" y="-385.8" font-family="Times,serif" font-size="14.00">_layout</text>
</g>
<!-- DelphiController -->
<g id="node5" class="node"><title>DelphiController</title>
<path fill="none" stroke="black" d="M-59.8242,359C-59.8242,359 27.8242,359 27.8242,359 33.8242,359 39.8242,353 39.8242,347 39.8242,347 39.8242,197 39.8242,197 39.8242,191 33.8242,185 27.8242,185 27.8242,185 -59.8242,185 -59.8242,185 -65.8242,185 -71.8242,191 -71.8242,197 -71.8242,197 -71.8242,347 -71.8242,347 -71.8242,353 -65.8242,359 -59.8242,359"/>
<text text-anchor="middle" x="-16" y="200.2" font-family="Times,serif" font-size="14.00">DelphiController</text>
<polyline fill="none" stroke="black" points="-71.8242,207 39.8242,207 "/>
<text text-anchor="start" x="-63.8242" y="222.2" font-family="Times,serif" font-size="14.00">create</text>
<text text-anchor="start" x="-63.8242" y="236.2" font-family="Times,serif" font-size="14.00">destroy</text>
<text text-anchor="start" x="-63.8242" y="250.2" font-family="Times,serif" font-size="14.00">index</text>
<text text-anchor="start" x="-63.8242" y="264.2" font-family="Times,serif" font-size="14.00">new</text>
<text text-anchor="start" x="-63.8242" y="278.2" font-family="Times,serif" font-size="14.00">show</text>
<polyline fill="none" stroke="black" points="-71.8242,285 39.8242,285 "/>
<polyline fill="none" stroke="black" points="-71.8242,309 39.8242,309 "/>
<text text-anchor="start" x="-63.8242" y="324.2" font-family="Times,serif" font-size="14.00">_layout</text>
<text text-anchor="start" x="-63.8242" y="338.2" font-family="Times,serif" font-size="14.00">find_quest</text>
<text text-anchor="start" x="-63.8242" y="352.2" font-family="Times,serif" font-size="14.00">quest_params</text>
</g>
<!-- EventsController -->
<g id="node6" class="node"><title>EventsController</title>
<path fill="none" stroke="black" d="M-60.2725,143C-60.2725,143 38.2725,143 38.2725,143 44.2725,143 50.2725,137 50.2725,131 50.2725,131 50.2725,-117 50.2725,-117 50.2725,-123 44.2725,-129 38.2725,-129 38.2725,-129 -60.2725,-129 -60.2725,-129 -66.2725,-129 -72.2725,-123 -72.2725,-117 -72.2725,-117 -72.2725,131 -72.2725,131 -72.2725,137 -66.2725,143 -60.2725,143"/>
<text text-anchor="middle" x="-11" y="-113.8" font-family="Times,serif" font-size="14.00">EventsController</text>
<polyline fill="none" stroke="black" points="-72.2725,-107 50.2725,-107 "/>
<text text-anchor="start" x="-64.2725" y="-91.8" font-family="Times,serif" font-size="14.00">create</text>
<text text-anchor="start" x="-64.2725" y="-77.8" font-family="Times,serif" font-size="14.00">destroy</text>
<text text-anchor="start" x="-64.2725" y="-63.8" font-family="Times,serif" font-size="14.00">edit</text>
<text text-anchor="start" x="-64.2725" y="-49.8" font-family="Times,serif" font-size="14.00">index</text>
<text text-anchor="start" x="-64.2725" y="-35.8" font-family="Times,serif" font-size="14.00">new</text>
<text text-anchor="start" x="-64.2725" y="-21.8" font-family="Times,serif" font-size="14.00">show</text>
<text text-anchor="start" x="-64.2725" y="-7.8" font-family="Times,serif" font-size="14.00">update</text>
<polyline fill="none" stroke="black" points="-72.2725,-1 50.2725,-1 "/>
<polyline fill="none" stroke="black" points="-72.2725,23 50.2725,23 "/>
<text text-anchor="start" x="-64.2725" y="38.2" font-family="Times,serif" font-size="14.00">_layout</text>
<text text-anchor="start" x="-64.2725" y="52.2" font-family="Times,serif" font-size="14.00">event_chart</text>
<text text-anchor="start" x="-64.2725" y="66.2" font-family="Times,serif" font-size="14.00">event_params</text>
<text text-anchor="start" x="-64.2725" y="80.2" font-family="Times,serif" font-size="14.00">find_event</text>
<text text-anchor="start" x="-64.2725" y="94.2" font-family="Times,serif" font-size="14.00">find_project</text>
<text text-anchor="start" x="-64.2725" y="108.2" font-family="Times,serif" font-size="14.00">find_project_by_id</text>
<text text-anchor="start" x="-64.2725" y="122.2" font-family="Times,serif" font-size="14.00">get_project</text>
<text text-anchor="start" x="-64.2725" y="136.2" font-family="Times,serif" font-size="14.00">set_project</text>
</g>
<!-- ModulsController -->
<g id="node7" class="node"><title>ModulsController</title>
<path fill="none" stroke="black" d="M-384.166,-1C-384.166,-1 -291.834,-1 -291.834,-1 -285.834,-1 -279.834,-7 -279.834,-13 -279.834,-13 -279.834,-149 -279.834,-149 -279.834,-155 -285.834,-161 -291.834,-161 -291.834,-161 -384.166,-161 -384.166,-161 -390.166,-161 -396.166,-155 -396.166,-149 -396.166,-149 -396.166,-13 -396.166,-13 -396.166,-7 -390.166,-1 -384.166,-1"/>
<text text-anchor="middle" x="-338" y="-145.8" font-family="Times,serif" font-size="14.00">ModulsController</text>
<polyline fill="none" stroke="black" points="-396.166,-139 -279.834,-139 "/>
<text text-anchor="start" x="-388.166" y="-123.8" font-family="Times,serif" font-size="14.00">create</text>
<text text-anchor="start" x="-388.166" y="-109.8" font-family="Times,serif" font-size="14.00">destroy</text>
<text text-anchor="start" x="-388.166" y="-95.8" font-family="Times,serif" font-size="14.00">find_modul</text>
<text text-anchor="start" x="-388.166" y="-81.8" font-family="Times,serif" font-size="14.00">modul_params</text>
<text text-anchor="start" x="-388.166" y="-67.8" font-family="Times,serif" font-size="14.00">new</text>
<text text-anchor="start" x="-388.166" y="-53.8" font-family="Times,serif" font-size="14.00">show</text>
<polyline fill="none" stroke="black" points="-396.166,-47 -279.834,-47 "/>
<polyline fill="none" stroke="black" points="-396.166,-23 -279.834,-23 "/>
<text text-anchor="start" x="-388.166" y="-7.8" font-family="Times,serif" font-size="14.00">_layout</text>
</g>
<!-- PbsController -->
<g id="node8" class="node"><title>PbsController</title>
<path fill="none" stroke="black" d="M-60.4727,-163C-60.4727,-163 78.4727,-163 78.4727,-163 84.4727,-163 90.4727,-169 90.4727,-175 90.4727,-175 90.4727,-339 90.4727,-339 90.4727,-345 84.4727,-351 78.4727,-351 78.4727,-351 -60.4727,-351 -60.4727,-351 -66.4727,-351 -72.4727,-345 -72.4727,-339 -72.4727,-339 -72.4727,-175 -72.4727,-175 -72.4727,-169 -66.4727,-163 -60.4727,-163"/>
<text text-anchor="middle" x="9" y="-335.8" font-family="Times,serif" font-size="14.00">PbsController</text>
<polyline fill="none" stroke="black" points="-72.4727,-329 90.4727,-329 "/>
<text text-anchor="start" x="-64.4727" y="-313.8" font-family="Times,serif" font-size="14.00">create</text>
<text text-anchor="start" x="-64.4727" y="-299.8" font-family="Times,serif" font-size="14.00">destroy</text>
<text text-anchor="start" x="-64.4727" y="-285.8" font-family="Times,serif" font-size="14.00">index</text>
<text text-anchor="start" x="-64.4727" y="-271.8" font-family="Times,serif" font-size="14.00">new</text>
<text text-anchor="start" x="-64.4727" y="-257.8" font-family="Times,serif" font-size="14.00">show</text>
<polyline fill="none" stroke="black" points="-72.4727,-251 90.4727,-251 "/>
<polyline fill="none" stroke="black" points="-72.4727,-227 90.4727,-227 "/>
<text text-anchor="start" x="-64.4727" y="-211.8" font-family="Times,serif" font-size="14.00">_layout</text>
<text text-anchor="start" x="-64.4727" y="-197.8" font-family="Times,serif" font-size="14.00">find_project</text>
<text text-anchor="start" x="-64.4727" y="-183.8" font-family="Times,serif" font-size="14.00">product_breakdown_chart</text>
<text text-anchor="start" x="-64.4727" y="-169.8" font-family="Times,serif" font-size="14.00">project_params</text>
</g>
<!-- ProjectsController -->
<g id="node9" class="node"><title>ProjectsController</title>
<path fill="none" stroke="black" d="M155.676,-343C155.676,-343 250.324,-343 250.324,-343 256.324,-343 262.324,-349 262.324,-355 262.324,-355 262.324,-505 262.324,-505 262.324,-511 256.324,-517 250.324,-517 250.324,-517 155.676,-517 155.676,-517 149.676,-517 143.676,-511 143.676,-505 143.676,-505 143.676,-355 143.676,-355 143.676,-349 149.676,-343 155.676,-343"/>
<text text-anchor="middle" x="203" y="-501.8" font-family="Times,serif" font-size="14.00">ProjectsController</text>
<polyline fill="none" stroke="black" points="143.676,-495 262.324,-495 "/>
<text text-anchor="start" x="151.676" y="-479.8" font-family="Times,serif" font-size="14.00">create</text>
<text text-anchor="start" x="151.676" y="-465.8" font-family="Times,serif" font-size="14.00">destroy</text>
<text text-anchor="start" x="151.676" y="-451.8" font-family="Times,serif" font-size="14.00">index</text>
<text text-anchor="start" x="151.676" y="-437.8" font-family="Times,serif" font-size="14.00">new</text>
<text text-anchor="start" x="151.676" y="-423.8" font-family="Times,serif" font-size="14.00">show</text>
<polyline fill="none" stroke="black" points="143.676,-417 262.324,-417 "/>
<polyline fill="none" stroke="black" points="143.676,-393 262.324,-393 "/>
<text text-anchor="start" x="151.676" y="-377.8" font-family="Times,serif" font-size="14.00">_layout</text>
<text text-anchor="start" x="151.676" y="-363.8" font-family="Times,serif" font-size="14.00">find_project</text>
<text text-anchor="start" x="151.676" y="-349.8" font-family="Times,serif" font-size="14.00">project_params</text>
</g>
<!-- QuestionController -->
<g id="node10" class="node"><title>QuestionController</title>
<path fill="none" stroke="black" d="M-240.08,-1C-240.08,-1 -115.92,-1 -115.92,-1 -109.92,-1 -103.92,-7 -103.92,-13 -103.92,-13 -103.92,-177 -103.92,-177 -103.92,-183 -109.92,-189 -115.92,-189 -115.92,-189 -240.08,-189 -240.08,-189 -246.08,-189 -252.08,-183 -252.08,-177 -252.08,-177 -252.08,-13 -252.08,-13 -252.08,-7 -246.08,-1 -240.08,-1"/>
<text text-anchor="middle" x="-178" y="-173.8" font-family="Times,serif" font-size="14.00">QuestionController</text>
<polyline fill="none" stroke="black" points="-252.08,-167 -103.92,-167 "/>
<text text-anchor="start" x="-244.08" y="-151.8" font-family="Times,serif" font-size="14.00">create</text>
<text text-anchor="start" x="-244.08" y="-137.8" font-family="Times,serif" font-size="14.00">destroy</text>
<text text-anchor="start" x="-244.08" y="-123.8" font-family="Times,serif" font-size="14.00">index</text>
<text text-anchor="start" x="-244.08" y="-109.8" font-family="Times,serif" font-size="14.00">new</text>
<text text-anchor="start" x="-244.08" y="-95.8" font-family="Times,serif" font-size="14.00">show</text>
<polyline fill="none" stroke="black" points="-252.08,-89 -103.92,-89 "/>
<polyline fill="none" stroke="black" points="-252.08,-65 -103.92,-65 "/>
<text text-anchor="start" x="-244.08" y="-49.8" font-family="Times,serif" font-size="14.00">_layout</text>
<text text-anchor="start" x="-244.08" y="-35.8" font-family="Times,serif" font-size="14.00">find_quest</text>
<text text-anchor="start" x="-244.08" y="-21.8" font-family="Times,serif" font-size="14.00">quest_params</text>
<text text-anchor="start" x="-244.08" y="-7.8" font-family="Times,serif" font-size="14.00">selected_workpackages</text>
</g>
<!-- RamController -->
<g id="node11" class="node"><title>RamController</title>
<path fill="none" stroke="black" d="M443.738,431C443.738,431 542.262,431 542.262,431 548.262,431 554.262,425 554.262,419 554.262,419 554.262,325 554.262,325 554.262,319 548.262,313 542.262,313 542.262,313 443.738,313 443.738,313 437.738,313 431.738,319 431.738,325 431.738,325 431.738,419 431.738,419 431.738,425 437.738,431 443.738,431"/>
<text text-anchor="middle" x="493" y="328.2" font-family="Times,serif" font-size="14.00">RamController</text>
<polyline fill="none" stroke="black" points="431.738,335 554.262,335 "/>
<text text-anchor="start" x="439.738" y="350.2" font-family="Times,serif" font-size="14.00">index</text>
<polyline fill="none" stroke="black" points="431.738,357 554.262,357 "/>
<polyline fill="none" stroke="black" points="431.738,381 554.262,381 "/>
<text text-anchor="start" x="439.738" y="396.2" font-family="Times,serif" font-size="14.00">_layout</text>
<text text-anchor="start" x="439.738" y="410.2" font-family="Times,serif" font-size="14.00">components_select</text>
<text text-anchor="start" x="439.738" y="424.2" font-family="Times,serif" font-size="14.00">roles_select</text>
</g>
<!-- RbsController -->
<g id="node12" class="node"><title>RbsController</title>
<path fill="none" stroke="black" d="M102.479,89C102.479,89 251.521,89 251.521,89 257.521,89 263.521,83 263.521,77 263.521,77 263.521,-87 263.521,-87 263.521,-93 257.521,-99 251.521,-99 251.521,-99 102.479,-99 102.479,-99 96.479,-99 90.479,-93 90.479,-87 90.479,-87 90.479,77 90.479,77 90.479,83 96.479,89 102.479,89"/>
<text text-anchor="middle" x="177" y="-83.8" font-family="Times,serif" font-size="14.00">RbsController</text>
<polyline fill="none" stroke="black" points="90.479,-77 263.521,-77 "/>
<text text-anchor="start" x="98.479" y="-61.8" font-family="Times,serif" font-size="14.00">create</text>
<text text-anchor="start" x="98.479" y="-47.8" font-family="Times,serif" font-size="14.00">destroy</text>
<text text-anchor="start" x="98.479" y="-33.8" font-family="Times,serif" font-size="14.00">index</text>
<text text-anchor="start" x="98.479" y="-19.8" font-family="Times,serif" font-size="14.00">new</text>
<text text-anchor="start" x="98.479" y="-5.8" font-family="Times,serif" font-size="14.00">show</text>
<polyline fill="none" stroke="black" points="90.479,1 263.521,1 "/>
<polyline fill="none" stroke="black" points="90.479,25 263.521,25 "/>
<text text-anchor="start" x="98.479" y="40.2" font-family="Times,serif" font-size="14.00">_layout</text>
<text text-anchor="start" x="98.479" y="54.2" font-family="Times,serif" font-size="14.00">find_kind</text>
<text text-anchor="start" x="98.479" y="68.2" font-family="Times,serif" font-size="14.00">kind_params</text>
<text text-anchor="start" x="98.479" y="82.2" font-family="Times,serif" font-size="14.00">ressource_breakdown_chart</text>
</g>
<!-- RequirmentController -->
<g id="node13" class="node"><title>RequirmentController</title>
<path fill="none" stroke="black" d="M264.179,305C264.179,305 379.821,305 379.821,305 385.821,305 391.821,299 391.821,293 391.821,293 391.821,143 391.821,143 391.821,137 385.821,131 379.821,131 379.821,131 264.179,131 264.179,131 258.179,131 252.179,137 252.179,143 252.179,143 252.179,293 252.179,293 252.179,299 258.179,305 264.179,305"/>
<text text-anchor="middle" x="322" y="146.2" font-family="Times,serif" font-size="14.00">RequirmentController</text>
<polyline fill="none" stroke="black" points="252.179,153 391.821,153 "/>
<text text-anchor="start" x="260.179" y="168.2" font-family="Times,serif" font-size="14.00">create</text>
<text text-anchor="start" x="260.179" y="182.2" font-family="Times,serif" font-size="14.00">destroy</text>
<text text-anchor="start" x="260.179" y="196.2" font-family="Times,serif" font-size="14.00">index</text>
<text text-anchor="start" x="260.179" y="210.2" font-family="Times,serif" font-size="14.00">new</text>
<text text-anchor="start" x="260.179" y="224.2" font-family="Times,serif" font-size="14.00">show</text>
<polyline fill="none" stroke="black" points="252.179,231 391.821,231 "/>
<polyline fill="none" stroke="black" points="252.179,255 391.821,255 "/>
<text text-anchor="start" x="260.179" y="270.2" font-family="Times,serif" font-size="14.00">_layout</text>
<text text-anchor="start" x="260.179" y="284.2" font-family="Times,serif" font-size="14.00">find_req</text>
<text text-anchor="start" x="260.179" y="298.2" font-family="Times,serif" font-size="14.00">req_params</text>
</g>
<!-- ResponseController -->
<g id="node14" class="node"><title>ResponseController</title>
<path fill="none" stroke="black" d="M102.396,305C102.396,305 205.604,305 205.604,305 211.604,305 217.604,299 217.604,293 217.604,293 217.604,129 217.604,129 217.604,123 211.604,117 205.604,117 205.604,117 102.396,117 102.396,117 96.3965,117 90.3965,123 90.3965,129 90.3965,129 90.3965,293 90.3965,293 90.3965,299 96.3965,305 102.396,305"/>
<text text-anchor="middle" x="154" y="132.2" font-family="Times,serif" font-size="14.00">ResponseController</text>
<polyline fill="none" stroke="black" points="90.3965,139 217.604,139 "/>
<text text-anchor="start" x="98.3965" y="154.2" font-family="Times,serif" font-size="14.00">create</text>
<text text-anchor="start" x="98.3965" y="168.2" font-family="Times,serif" font-size="14.00">destroy</text>
<text text-anchor="start" x="98.3965" y="182.2" font-family="Times,serif" font-size="14.00">index</text>
<text text-anchor="start" x="98.3965" y="196.2" font-family="Times,serif" font-size="14.00">new</text>
<text text-anchor="start" x="98.3965" y="210.2" font-family="Times,serif" font-size="14.00">show</text>
<polyline fill="none" stroke="black" points="90.3965,217 217.604,217 "/>
<polyline fill="none" stroke="black" points="90.3965,241 217.604,241 "/>
<text text-anchor="start" x="98.3965" y="256.2" font-family="Times,serif" font-size="14.00">_layout</text>
<text text-anchor="start" x="98.3965" y="270.2" font-family="Times,serif" font-size="14.00">calculate_average</text>
<text text-anchor="start" x="98.3965" y="284.2" font-family="Times,serif" font-size="14.00">find_response</text>
<text text-anchor="start" x="98.3965" y="298.2" font-family="Times,serif" font-size="14.00">resp_params</text>
</g>
<!-- RoleController -->
<g id="node15" class="node"><title>RoleController</title>
<path fill="none" stroke="black" d="M-365.993,215C-365.993,215 -290.007,215 -290.007,215 -284.007,215 -278.007,209 -278.007,203 -278.007,203 -278.007,53 -278.007,53 -278.007,47 -284.007,41 -290.007,41 -290.007,41 -365.993,41 -365.993,41 -371.993,41 -377.993,47 -377.993,53 -377.993,53 -377.993,203 -377.993,203 -377.993,209 -371.993,215 -365.993,215"/>
<text text-anchor="middle" x="-328" y="56.2" font-family="Times,serif" font-size="14.00">RoleController</text>
<polyline fill="none" stroke="black" points="-377.993,63 -278.007,63 "/>
<text text-anchor="start" x="-369.993" y="78.2" font-family="Times,serif" font-size="14.00">create</text>
<text text-anchor="start" x="-369.993" y="92.2" font-family="Times,serif" font-size="14.00">destroy</text>
<text text-anchor="start" x="-369.993" y="106.2" font-family="Times,serif" font-size="14.00">index</text>
<text text-anchor="start" x="-369.993" y="120.2" font-family="Times,serif" font-size="14.00">new</text>
<text text-anchor="start" x="-369.993" y="134.2" font-family="Times,serif" font-size="14.00">show</text>
<polyline fill="none" stroke="black" points="-377.993,141 -278.007,141 "/>
<polyline fill="none" stroke="black" points="-377.993,165 -278.007,165 "/>
<text text-anchor="start" x="-369.993" y="180.2" font-family="Times,serif" font-size="14.00">_layout</text>
<text text-anchor="start" x="-369.993" y="194.2" font-family="Times,serif" font-size="14.00">find_role</text>
<text text-anchor="start" x="-369.993" y="208.2" font-family="Times,serif" font-size="14.00">role_params</text>
</g>
<!-- SubproductsController -->
<g id="node16" class="node"><title>SubproductsController</title>
<path fill="none" stroke="black" d="M318.228,89C318.228,89 437.772,89 437.772,89 443.772,89 449.772,83 449.772,77 449.772,77 449.772,-73 449.772,-73 449.772,-79 443.772,-85 437.772,-85 437.772,-85 318.228,-85 318.228,-85 312.228,-85 306.228,-79 306.228,-73 306.228,-73 306.228,77 306.228,77 306.228,83 312.228,89 318.228,89"/>
<text text-anchor="middle" x="378" y="-69.8" font-family="Times,serif" font-size="14.00">SubproductsController</text>
<polyline fill="none" stroke="black" points="306.228,-63 449.772,-63 "/>
<text text-anchor="start" x="314.228" y="-47.8" font-family="Times,serif" font-size="14.00">create</text>
<text text-anchor="start" x="314.228" y="-33.8" font-family="Times,serif" font-size="14.00">destroy</text>
<text text-anchor="start" x="314.228" y="-19.8" font-family="Times,serif" font-size="14.00">index</text>
<text text-anchor="start" x="314.228" y="-5.8" font-family="Times,serif" font-size="14.00">new</text>
<text text-anchor="start" x="314.228" y="8.2" font-family="Times,serif" font-size="14.00">show</text>
<polyline fill="none" stroke="black" points="306.228,15 449.772,15 "/>
<polyline fill="none" stroke="black" points="306.228,39 449.772,39 "/>
<text text-anchor="start" x="314.228" y="54.2" font-family="Times,serif" font-size="14.00">_layout</text>
<text text-anchor="start" x="314.228" y="68.2" font-family="Times,serif" font-size="14.00">find_product</text>
<text text-anchor="start" x="314.228" y="82.2" font-family="Times,serif" font-size="14.00">product_params</text>
</g>
<!-- SubtaskController -->
<g id="node17" class="node"><title>SubtaskController</title>
<path fill="none" stroke="black" d="M318.059,-307C318.059,-307 411.941,-307 411.941,-307 417.941,-307 423.941,-313 423.941,-319 423.941,-319 423.941,-469 423.941,-469 423.941,-475 417.941,-481 411.941,-481 411.941,-481 318.059,-481 318.059,-481 312.059,-481 306.059,-475 306.059,-469 306.059,-469 306.059,-319 306.059,-319 306.059,-313 312.059,-307 318.059,-307"/>
<text text-anchor="middle" x="365" y="-465.8" font-family="Times,serif" font-size="14.00">SubtaskController</text>
<polyline fill="none" stroke="black" points="306.059,-459 423.941,-459 "/>
<text text-anchor="start" x="314.059" y="-443.8" font-family="Times,serif" font-size="14.00">create</text>
<text text-anchor="start" x="314.059" y="-429.8" font-family="Times,serif" font-size="14.00">destroy</text>
<text text-anchor="start" x="314.059" y="-415.8" font-family="Times,serif" font-size="14.00">index</text>
<text text-anchor="start" x="314.059" y="-401.8" font-family="Times,serif" font-size="14.00">new</text>
<text text-anchor="start" x="314.059" y="-387.8" font-family="Times,serif" font-size="14.00">show</text>
<polyline fill="none" stroke="black" points="306.059,-381 423.941,-381 "/>
<polyline fill="none" stroke="black" points="306.059,-357 423.941,-357 "/>
<text text-anchor="start" x="314.059" y="-341.8" font-family="Times,serif" font-size="14.00">_layout</text>
<text text-anchor="start" x="314.059" y="-327.8" font-family="Times,serif" font-size="14.00">find_subtask</text>
<text text-anchor="start" x="314.059" y="-313.8" font-family="Times,serif" font-size="14.00">sub_params</text>
</g>
<!-- WbsController -->
<g id="node18" class="node"><title>WbsController</title>
<path fill="none" stroke="black" d="M-240.476,215C-240.476,215 -115.524,215 -115.524,215 -109.524,215 -103.524,209 -103.524,203 -103.524,203 -103.524,39 -103.524,39 -103.524,33 -109.524,27 -115.524,27 -115.524,27 -240.476,27 -240.476,27 -246.476,27 -252.476,33 -252.476,39 -252.476,39 -252.476,203 -252.476,203 -252.476,209 -246.476,215 -240.476,215"/>
<text text-anchor="middle" x="-178" y="42.2" font-family="Times,serif" font-size="14.00">WbsController</text>
<polyline fill="none" stroke="black" points="-252.476,49 -103.524,49 "/>
<text text-anchor="start" x="-244.476" y="64.2" font-family="Times,serif" font-size="14.00">create</text>
<text text-anchor="start" x="-244.476" y="78.2" font-family="Times,serif" font-size="14.00">destroy</text>
<text text-anchor="start" x="-244.476" y="92.2" font-family="Times,serif" font-size="14.00">index</text>
<text text-anchor="start" x="-244.476" y="106.2" font-family="Times,serif" font-size="14.00">new</text>
<text text-anchor="start" x="-244.476" y="120.2" font-family="Times,serif" font-size="14.00">show</text>
<polyline fill="none" stroke="black" points="-252.476,127 -103.524,127 "/>
<polyline fill="none" stroke="black" points="-252.476,151 -103.524,151 "/>
<text text-anchor="start" x="-244.476" y="166.2" font-family="Times,serif" font-size="14.00">_layout</text>
<text text-anchor="start" x="-244.476" y="180.2" font-family="Times,serif" font-size="14.00">find_kind</text>
<text text-anchor="start" x="-244.476" y="194.2" font-family="Times,serif" font-size="14.00">task_params</text>
<text text-anchor="start" x="-244.476" y="208.2" font-family="Times,serif" font-size="14.00">work_breakdown_chart</text>
</g>
<!-- WorkpackageController -->
<g id="node19" class="node"><title>WorkpackageController</title>
<path fill="none" stroke="black" d="M137.919,-127C137.919,-127 264.081,-127 264.081,-127 270.081,-127 276.081,-133 276.081,-139 276.081,-139 276.081,-303 276.081,-303 276.081,-309 270.081,-315 264.081,-315 264.081,-315 137.919,-315 137.919,-315 131.919,-315 125.919,-309 125.919,-303 125.919,-303 125.919,-139 125.919,-139 125.919,-133 131.919,-127 137.919,-127"/>
<text text-anchor="middle" x="201" y="-299.8" font-family="Times,serif" font-size="14.00">WorkpackageController</text>
<polyline fill="none" stroke="black" points="125.919,-293 276.081,-293 "/>
<text text-anchor="start" x="133.919" y="-277.8" font-family="Times,serif" font-size="14.00">create</text>
<text text-anchor="start" x="133.919" y="-263.8" font-family="Times,serif" font-size="14.00">destroy</text>
<text text-anchor="start" x="133.919" y="-249.8" font-family="Times,serif" font-size="14.00">index</text>
<text text-anchor="start" x="133.919" y="-235.8" font-family="Times,serif" font-size="14.00">new</text>
<text text-anchor="start" x="133.919" y="-221.8" font-family="Times,serif" font-size="14.00">show</text>
<polyline fill="none" stroke="black" points="125.919,-215 276.081,-215 "/>
<polyline fill="none" stroke="black" points="125.919,-191 276.081,-191 "/>
<text text-anchor="start" x="133.919" y="-175.8" font-family="Times,serif" font-size="14.00">_layout</text>
<text text-anchor="start" x="133.919" y="-161.8" font-family="Times,serif" font-size="14.00">find_workpackage</text>
<text text-anchor="start" x="133.919" y="-147.8" font-family="Times,serif" font-size="14.00">successor</text>
<text text-anchor="start" x="133.919" y="-133.8" font-family="Times,serif" font-size="14.00">work_params</text>
</g>
</g>
</svg>
