<?xml version="1.0" encoding="UTF-8" standalone="no"?>
<!DOCTYPE svg PUBLIC "-//W3C//DTD SVG 1.1//EN"
 "http://www.w3.org/Graphics/SVG/1.1/DTD/svg11.dtd">
<!-- Generated by graphviz version 2.38.0 (20140413.2041)
 -->
<!-- Title: controllers_diagram Pages: 1 -->
<svg width="818pt" height="907pt"
 viewBox="0.00 0.00 818.16 907.00" xmlns="http://www.w3.org/2000/svg" xmlns:xlink="http://www.w3.org/1999/xlink">
<g id="graph0" class="graph" transform="scale(1 1) rotate(0) translate(363.993 543.5)">
<title>controllers_diagram</title>
<polygon fill="none" stroke="none" points="-363.993,363.5 -363.993,-543.5 454.162,-543.5 454.162,363.5 -363.993,363.5"/>
<!-- _diagram_info -->
<g id="node1" class="node"><title>_diagram_info</title>
<text text-anchor="start" x="-315.688" y="264.9" font-family="Times,serif" font-size="13.00">Controllers diagram</text>
<text text-anchor="start" x="-315.688" y="277.9" font-family="Times,serif" font-size="13.00">Date: Jan 08 2016 &#45; 13:10</text>
<text text-anchor="start" x="-315.688" y="290.9" font-family="Times,serif" font-size="13.00">Migration version: 20151223074143</text>
<text text-anchor="start" x="-315.688" y="303.9" font-family="Times,serif" font-size="13.00">Generated by RailRoady 1.4.2</text>
<text text-anchor="start" x="-315.688" y="316.9" font-family="Times,serif" font-size="13.00">http://railroady.prestonlee.com</text>
</g>
<!-- ApplicationController -->
<g id="node2" class="node"><title>ApplicationController</title>
<path fill="none" stroke="black" d="M156.179,-343C156.179,-343 271.821,-343 271.821,-343 277.821,-343 283.821,-349 283.821,-355 283.821,-355 283.821,-477 283.821,-477 283.821,-483 277.821,-489 271.821,-489 271.821,-489 156.179,-489 156.179,-489 150.179,-489 144.179,-483 144.179,-477 144.179,-477 144.179,-355 144.179,-355 144.179,-349 150.179,-343 156.179,-343"/>
<text text-anchor="middle" x="214" y="-473.8" font-family="Times,serif" font-size="14.00">ApplicationController</text>
<polyline fill="none" stroke="black" points="144.179,-467 283.821,-467 "/>
<text text-anchor="start" x="152.179" y="-451.8" font-family="Times,serif" font-size="14.00">danger</text>
<text text-anchor="start" x="152.179" y="-437.8" font-family="Times,serif" font-size="14.00">find_projects</text>
<text text-anchor="start" x="152.179" y="-423.8" font-family="Times,serif" font-size="14.00">info</text>
<text text-anchor="start" x="152.179" y="-409.8" font-family="Times,serif" font-size="14.00">success</text>
<text text-anchor="start" x="152.179" y="-395.8" font-family="Times,serif" font-size="14.00">warning</text>
<polyline fill="none" stroke="black" points="144.179,-389 283.821,-389 "/>
<polyline fill="none" stroke="black" points="144.179,-365 283.821,-365 "/>
<text text-anchor="start" x="152.179" y="-349.8" font-family="Times,serif" font-size="14.00">_layout</text>
</g>
<!-- ComponentsController -->
<g id="node3" class="node"><title>ComponentsController</title>
<path fill="none" stroke="black" d="M317.838,89C317.838,89 438.162,89 438.162,89 444.162,89 450.162,83 450.162,77 450.162,77 450.162,-59 450.162,-59 450.162,-65 444.162,-71 438.162,-71 438.162,-71 317.838,-71 317.838,-71 311.838,-71 305.838,-65 305.838,-59 305.838,-59 305.838,77 305.838,77 305.838,83 311.838,89 317.838,89"/>
<text text-anchor="middle" x="378" y="-55.8" font-family="Times,serif" font-size="14.00">ComponentsController</text>
<polyline fill="none" stroke="black" points="305.838,-49 450.162,-49 "/>
<text text-anchor="start" x="313.838" y="-33.8" font-family="Times,serif" font-size="14.00">component_params</text>
<text text-anchor="start" x="313.838" y="-19.8" font-family="Times,serif" font-size="14.00">create</text>
<text text-anchor="start" x="313.838" y="-5.8" font-family="Times,serif" font-size="14.00">destroy</text>
<text text-anchor="start" x="313.838" y="8.2" font-family="Times,serif" font-size="14.00">find_component</text>
<text text-anchor="start" x="313.838" y="22.2" font-family="Times,serif" font-size="14.00">new</text>
<text text-anchor="start" x="313.838" y="36.2" font-family="Times,serif" font-size="14.00">show</text>
<polyline fill="none" stroke="black" points="305.838,43 450.162,43 "/>
<polyline fill="none" stroke="black" points="305.838,67 450.162,67 "/>
<text text-anchor="start" x="313.838" y="82.2" font-family="Times,serif" font-size="14.00">_layout</text>
</g>
<!-- DelphiController -->
<g id="node4" class="node"><title>DelphiController</title>
<path fill="none" stroke="black" d="M-59.8242,359C-59.8242,359 27.8242,359 27.8242,359 33.8242,359 39.8242,353 39.8242,347 39.8242,347 39.8242,197 39.8242,197 39.8242,191 33.8242,185 27.8242,185 27.8242,185 -59.8242,185 -59.8242,185 -65.8242,185 -71.8242,191 -71.8242,197 -71.8242,197 -71.8242,347 -71.8242,347 -71.8242,353 -65.8242,359 -59.8242,359"/>
<text text-anchor="middle" x="-16" y="200.2" font-family="Times,serif" font-size="14.00">DelphiController</text>
<polyline fill="none" stroke="black" points="-71.8242,207 39.8242,207 "/>
<text text-anchor="start" x="-63.8242" y="222.2" font-family="Times,serif" font-size="14.00">create</text>
<text text-anchor="start" x="-63.8242" y="236.2" font-family="Times,serif" font-size="14.00">destroy</text>
<text text-anchor="start" x="-63.8242" y="250.2" font-family="Times,serif" font-size="14.00">index</text>
<text text-anchor="start" x="-63.8242" y="264.2" font-family="Times,serif" font-size="14.00">new</text>
<text text-anchor="start" x="-63.8242" y="278.2" font-family="Times,serif" font-size="14.00">show</text>
<polyline fill="none" stroke="black" points="-71.8242,285 39.8242,285 "/>
<polyline fill="none" stroke="black" points="-71.8242,309 39.8242,309 "/>
<text text-anchor="start" x="-63.8242" y="324.2" font-family="Times,serif" font-size="14.00">_layout</text>
<text text-anchor="start" x="-63.8242" y="338.2" font-family="Times,serif" font-size="14.00">find_quest</text>
<text text-anchor="start" x="-63.8242" y="352.2" font-family="Times,serif" font-size="14.00">quest_params</text>
</g>
<!-- EventsController -->
<g id="node5" class="node"><title>EventsController</title>
<path fill="none" stroke="black" d="M-60.2725,143C-60.2725,143 38.2725,143 38.2725,143 44.2725,143 50.2725,137 50.2725,131 50.2725,131 50.2725,-117 50.2725,-117 50.2725,-123 44.2725,-129 38.2725,-129 38.2725,-129 -60.2725,-129 -60.2725,-129 -66.2725,-129 -72.2725,-123 -72.2725,-117 -72.2725,-117 -72.2725,131 -72.2725,131 -72.2725,137 -66.2725,143 -60.2725,143"/>
<text text-anchor="middle" x="-11" y="-113.8" font-family="Times,serif" font-size="14.00">EventsController</text>
<polyline fill="none" stroke="black" points="-72.2725,-107 50.2725,-107 "/>
<text text-anchor="start" x="-64.2725" y="-91.8" font-family="Times,serif" font-size="14.00">create</text>
<text text-anchor="start" x="-64.2725" y="-77.8" font-family="Times,serif" font-size="14.00">destroy</text>
<text text-anchor="start" x="-64.2725" y="-63.8" font-family="Times,serif" font-size="14.00">edit</text>
<text text-anchor="start" x="-64.2725" y="-49.8" font-family="Times,serif" font-size="14.00">index</text>
<text text-anchor="start" x="-64.2725" y="-35.8" font-family="Times,serif" font-size="14.00">new</text>
<text text-anchor="start" x="-64.2725" y="-21.8" font-family="Times,serif" font-size="14.00">show</text>
<text text-anchor="start" x="-64.2725" y="-7.8" font-family="Times,serif" font-size="14.00">update</text>
<polyline fill="none" stroke="black" points="-72.2725,-1 50.2725,-1 "/>
<polyline fill="none" stroke="black" points="-72.2725,23 50.2725,23 "/>
<text text-anchor="start" x="-64.2725" y="38.2" font-family="Times,serif" font-size="14.00">_layout</text>
<text text-anchor="start" x="-64.2725" y="52.2" font-family="Times,serif" font-size="14.00">event_chart</text>
<text text-anchor="start" x="-64.2725" y="66.2" font-family="Times,serif" font-size="14.00">event_params</text>
<text text-anchor="start" x="-64.2725" y="80.2" font-family="Times,serif" font-size="14.00">find_event</text>
<text text-anchor="start" x="-64.2725" y="94.2" font-family="Times,serif" font-size="14.00">find_project</text>
<text text-anchor="start" x="-64.2725" y="108.2" font-family="Times,serif" font-size="14.00">find_project_by_id</text>
<text text-anchor="start" x="-64.2725" y="122.2" font-family="Times,serif" font-size="14.00">get_project</text>
<text text-anchor="start" x="-64.2725" y="136.2" font-family="Times,serif" font-size="14.00">set_project</text>
</g>
<!-- ModulsController -->
<g id="node6" class="node"><title>ModulsController</title>
<path fill="none" stroke="black" d="M11.8345,-379C11.8345,-379 104.166,-379 104.166,-379 110.166,-379 116.166,-385 116.166,-391 116.166,-391 116.166,-527 116.166,-527 116.166,-533 110.166,-539 104.166,-539 104.166,-539 11.8345,-539 11.8345,-539 5.83447,-539 -0.165527,-533 -0.165527,-527 -0.165527,-527 -0.165527,-391 -0.165527,-391 -0.165527,-385 5.83447,-379 11.8345,-379"/>
<text text-anchor="middle" x="58" y="-523.8" font-family="Times,serif" font-size="14.00">ModulsController</text>
<polyline fill="none" stroke="black" points="-0.165527,-517 116.166,-517 "/>
<text text-anchor="start" x="7.83447" y="-501.8" font-family="Times,serif" font-size="14.00">create</text>
<text text-anchor="start" x="7.83447" y="-487.8" font-family="Times,serif" font-size="14.00">destroy</text>
<text text-anchor="start" x="7.83447" y="-473.8" font-family="Times,serif" font-size="14.00">find_modul</text>
<text text-anchor="start" x="7.83447" y="-459.8" font-family="Times,serif" font-size="14.00">modul_params</text>
<text text-anchor="start" x="7.83447" y="-445.8" font-family="Times,serif" font-size="14.00">new</text>
<text text-anchor="start" x="7.83447" y="-431.8" font-family="Times,serif" font-size="14.00">show</text>
<polyline fill="none" stroke="black" points="-0.165527,-425 116.166,-425 "/>
<polyline fill="none" stroke="black" points="-0.165527,-401 116.166,-401 "/>
<text text-anchor="start" x="7.83447" y="-385.8" font-family="Times,serif" font-size="14.00">_layout</text>
</g>
<!-- PbsController -->
<g id="node7" class="node"><title>PbsController</title>
<path fill="none" stroke="black" d="M137.527,-127C137.527,-127 276.473,-127 276.473,-127 282.473,-127 288.473,-133 288.473,-139 288.473,-139 288.473,-303 288.473,-303 288.473,-309 282.473,-315 276.473,-315 276.473,-315 137.527,-315 137.527,-315 131.527,-315 125.527,-309 125.527,-303 125.527,-303 125.527,-139 125.527,-139 125.527,-133 131.527,-127 137.527,-127"/>
<text text-anchor="middle" x="207" y="-299.8" font-family="Times,serif" font-size="14.00">PbsController</text>
<polyline fill="none" stroke="black" points="125.527,-293 288.473,-293 "/>
<text text-anchor="start" x="133.527" y="-277.8" font-family="Times,serif" font-size="14.00">create</text>
<text text-anchor="start" x="133.527" y="-263.8" font-family="Times,serif" font-size="14.00">destroy</text>
<text text-anchor="start" x="133.527" y="-249.8" font-family="Times,serif" font-size="14.00">index</text>
<text text-anchor="start" x="133.527" y="-235.8" font-family="Times,serif" font-size="14.00">new</text>
<text text-anchor="start" x="133.527" y="-221.8" font-family="Times,serif" font-size="14.00">show</text>
<polyline fill="none" stroke="black" points="125.527,-215 288.473,-215 "/>
<polyline fill="none" stroke="black" points="125.527,-191 288.473,-191 "/>
<text text-anchor="start" x="133.527" y="-175.8" font-family="Times,serif" font-size="14.00">_layout</text>
<text text-anchor="start" x="133.527" y="-161.8" font-family="Times,serif" font-size="14.00">find_project</text>
<text text-anchor="start" x="133.527" y="-147.8" font-family="Times,serif" font-size="14.00">product_breakdown_chart</text>
<text text-anchor="start" x="133.527" y="-133.8" font-family="Times,serif" font-size="14.00">project_params</text>
</g>
<!-- ProjectsController -->
<g id="node8" class="node"><title>ProjectsController</title>
<path fill="none" stroke="black" d="M335.676,-109C335.676,-109 430.324,-109 430.324,-109 436.324,-109 442.324,-115 442.324,-121 442.324,-121 442.324,-271 442.324,-271 442.324,-277 436.324,-283 430.324,-283 430.324,-283 335.676,-283 335.676,-283 329.676,-283 323.676,-277 323.676,-271 323.676,-271 323.676,-121 323.676,-121 323.676,-115 329.676,-109 335.676,-109"/>
<text text-anchor="middle" x="383" y="-267.8" font-family="Times,serif" font-size="14.00">ProjectsController</text>
<polyline fill="none" stroke="black" points="323.676,-261 442.324,-261 "/>
<text text-anchor="start" x="331.676" y="-245.8" font-family="Times,serif" font-size="14.00">create</text>
<text text-anchor="start" x="331.676" y="-231.8" font-family="Times,serif" font-size="14.00">destroy</text>
<text text-anchor="start" x="331.676" y="-217.8" font-family="Times,serif" font-size="14.00">index</text>
<text text-anchor="start" x="331.676" y="-203.8" font-family="Times,serif" font-size="14.00">new</text>
<text text-anchor="start" x="331.676" y="-189.8" font-family="Times,serif" font-size="14.00">show</text>
<polyline fill="none" stroke="black" points="323.676,-183 442.324,-183 "/>
<polyline fill="none" stroke="black" points="323.676,-159 442.324,-159 "/>
<text text-anchor="start" x="331.676" y="-143.8" font-family="Times,serif" font-size="14.00">_layout</text>
<text text-anchor="start" x="331.676" y="-129.8" font-family="Times,serif" font-size="14.00">find_project</text>
<text text-anchor="start" x="331.676" y="-115.8" font-family="Times,serif" font-size="14.00">project_params</text>
</g>
<!-- QuestionController -->
<g id="node9" class="node"><title>QuestionController</title>
<path fill="none" stroke="black" d="M-222.08,-235C-222.08,-235 -97.9204,-235 -97.9204,-235 -91.9204,-235 -85.9204,-241 -85.9204,-247 -85.9204,-247 -85.9204,-411 -85.9204,-411 -85.9204,-417 -91.9204,-423 -97.9204,-423 -97.9204,-423 -222.08,-423 -222.08,-423 -228.08,-423 -234.08,-417 -234.08,-411 -234.08,-411 -234.08,-247 -234.08,-247 -234.08,-241 -228.08,-235 -222.08,-235"/>
<text text-anchor="middle" x="-160" y="-407.8" font-family="Times,serif" font-size="14.00">QuestionController</text>
<polyline fill="none" stroke="black" points="-234.08,-401 -85.9204,-401 "/>
<text text-anchor="start" x="-226.08" y="-385.8" font-family="Times,serif" font-size="14.00">create</text>
<text text-anchor="start" x="-226.08" y="-371.8" font-family="Times,serif" font-size="14.00">destroy</text>
<text text-anchor="start" x="-226.08" y="-357.8" font-family="Times,serif" font-size="14.00">index</text>
<text text-anchor="start" x="-226.08" y="-343.8" font-family="Times,serif" font-size="14.00">new</text>
<text text-anchor="start" x="-226.08" y="-329.8" font-family="Times,serif" font-size="14.00">show</text>
<polyline fill="none" stroke="black" points="-234.08,-323 -85.9204,-323 "/>
<polyline fill="none" stroke="black" points="-234.08,-299 -85.9204,-299 "/>
<text text-anchor="start" x="-226.08" y="-283.8" font-family="Times,serif" font-size="14.00">_layout</text>
<text text-anchor="start" x="-226.08" y="-269.8" font-family="Times,serif" font-size="14.00">find_quest</text>
<text text-anchor="start" x="-226.08" y="-255.8" font-family="Times,serif" font-size="14.00">quest_params</text>
<text text-anchor="start" x="-226.08" y="-241.8" font-family="Times,serif" font-size="14.00">selected_workpackages</text>
</g>
<!-- RbsController -->
<g id="node10" class="node"><title>RbsController</title>
<path fill="none" stroke="black" d="M102.479,89C102.479,89 251.521,89 251.521,89 257.521,89 263.521,83 263.521,77 263.521,77 263.521,-87 263.521,-87 263.521,-93 257.521,-99 251.521,-99 251.521,-99 102.479,-99 102.479,-99 96.479,-99 90.479,-93 90.479,-87 90.479,-87 90.479,77 90.479,77 90.479,83 96.479,89 102.479,89"/>
<text text-anchor="middle" x="177" y="-83.8" font-family="Times,serif" font-size="14.00">RbsController</text>
<polyline fill="none" stroke="black" points="90.479,-77 263.521,-77 "/>
<text text-anchor="start" x="98.479" y="-61.8" font-family="Times,serif" font-size="14.00">create</text>
<text text-anchor="start" x="98.479" y="-47.8" font-family="Times,serif" font-size="14.00">destroy</text>
<text text-anchor="start" x="98.479" y="-33.8" font-family="Times,serif" font-size="14.00">index</text>
<text text-anchor="start" x="98.479" y="-19.8" font-family="Times,serif" font-size="14.00">new</text>
<text text-anchor="start" x="98.479" y="-5.8" font-family="Times,serif" font-size="14.00">show</text>
<polyline fill="none" stroke="black" points="90.479,1 263.521,1 "/>
<polyline fill="none" stroke="black" points="90.479,25 263.521,25 "/>
<text text-anchor="start" x="98.479" y="40.2" font-family="Times,serif" font-size="14.00">_layout</text>
<text text-anchor="start" x="98.479" y="54.2" font-family="Times,serif" font-size="14.00">find_kind</text>
<text text-anchor="start" x="98.479" y="68.2" font-family="Times,serif" font-size="14.00">kind_params</text>
<text text-anchor="start" x="98.479" y="82.2" font-family="Times,serif" font-size="14.00">ressource_breakdown_chart</text>
</g>
<!-- RequirmentController -->
<g id="node11" class="node"><title>RequirmentController</title>
<path fill="none" stroke="black" d="M102.179,305C102.179,305 217.821,305 217.821,305 223.821,305 229.821,299 229.821,293 229.821,293 229.821,143 229.821,143 229.821,137 223.821,131 217.821,131 217.821,131 102.179,131 102.179,131 96.1792,131 90.1792,137 90.1792,143 90.1792,143 90.1792,293 90.1792,293 90.1792,299 96.1792,305 102.179,305"/>
<text text-anchor="middle" x="160" y="146.2" font-family="Times,serif" font-size="14.00">RequirmentController</text>
<polyline fill="none" stroke="black" points="90.1792,153 229.821,153 "/>
<text text-anchor="start" x="98.1792" y="168.2" font-family="Times,serif" font-size="14.00">create</text>
<text text-anchor="start" x="98.1792" y="182.2" font-family="Times,serif" font-size="14.00">destroy</text>
<text text-anchor="start" x="98.1792" y="196.2" font-family="Times,serif" font-size="14.00">index</text>
<text text-anchor="start" x="98.1792" y="210.2" font-family="Times,serif" font-size="14.00">new</text>
<text text-anchor="start" x="98.1792" y="224.2" font-family="Times,serif" font-size="14.00">show</text>
<polyline fill="none" stroke="black" points="90.1792,231 229.821,231 "/>
<polyline fill="none" stroke="black" points="90.1792,255 229.821,255 "/>
<text text-anchor="start" x="98.1792" y="270.2" font-family="Times,serif" font-size="14.00">_layout</text>
<text text-anchor="start" x="98.1792" y="284.2" font-family="Times,serif" font-size="14.00">find_req</text>
<text text-anchor="start" x="98.1792" y="298.2" font-family="Times,serif" font-size="14.00">req_params</text>
</g>
<!-- ResponseController -->
<g id="node12" class="node"><title>ResponseController</title>
<path fill="none" stroke="black" d="M282.396,305C282.396,305 385.604,305 385.604,305 391.604,305 397.604,299 397.604,293 397.604,293 397.604,129 397.604,129 397.604,123 391.604,117 385.604,117 385.604,117 282.396,117 282.396,117 276.396,117 270.396,123 270.396,129 270.396,129 270.396,293 270.396,293 270.396,299 276.396,305 282.396,305"/>
<text text-anchor="middle" x="334" y="132.2" font-family="Times,serif" font-size="14.00">ResponseController</text>
<polyline fill="none" stroke="black" points="270.396,139 397.604,139 "/>
<text text-anchor="start" x="278.396" y="154.2" font-family="Times,serif" font-size="14.00">create</text>
<text text-anchor="start" x="278.396" y="168.2" font-family="Times,serif" font-size="14.00">destroy</text>
<text text-anchor="start" x="278.396" y="182.2" font-family="Times,serif" font-size="14.00">index</text>
<text text-anchor="start" x="278.396" y="196.2" font-family="Times,serif" font-size="14.00">new</text>
<text text-anchor="start" x="278.396" y="210.2" font-family="Times,serif" font-size="14.00">show</text>
<polyline fill="none" stroke="black" points="270.396,217 397.604,217 "/>
<polyline fill="none" stroke="black" points="270.396,241 397.604,241 "/>
<text text-anchor="start" x="278.396" y="256.2" font-family="Times,serif" font-size="14.00">_layout</text>
<text text-anchor="start" x="278.396" y="270.2" font-family="Times,serif" font-size="14.00">calculate_average</text>
<text text-anchor="start" x="278.396" y="284.2" font-family="Times,serif" font-size="14.00">find_response</text>
<text text-anchor="start" x="278.396" y="298.2" font-family="Times,serif" font-size="14.00">resp_params</text>
</g>
<!-- RoleController -->
<g id="node13" class="node"><title>RoleController</title>
<path fill="none" stroke="black" d="M-347.993,-361C-347.993,-361 -272.007,-361 -272.007,-361 -266.007,-361 -260.007,-367 -260.007,-373 -260.007,-373 -260.007,-523 -260.007,-523 -260.007,-529 -266.007,-535 -272.007,-535 -272.007,-535 -347.993,-535 -347.993,-535 -353.993,-535 -359.993,-529 -359.993,-523 -359.993,-523 -359.993,-373 -359.993,-373 -359.993,-367 -353.993,-361 -347.993,-361"/>
<text text-anchor="middle" x="-310" y="-519.8" font-family="Times,serif" font-size="14.00">RoleController</text>
<polyline fill="none" stroke="black" points="-359.993,-513 -260.007,-513 "/>
<text text-anchor="start" x="-351.993" y="-497.8" font-family="Times,serif" font-size="14.00">create</text>
<text text-anchor="start" x="-351.993" y="-483.8" font-family="Times,serif" font-size="14.00">destroy</text>
<text text-anchor="start" x="-351.993" y="-469.8" font-family="Times,serif" font-size="14.00">index</text>
<text text-anchor="start" x="-351.993" y="-455.8" font-family="Times,serif" font-size="14.00">new</text>
<text text-anchor="start" x="-351.993" y="-441.8" font-family="Times,serif" font-size="14.00">show</text>
<polyline fill="none" stroke="black" points="-359.993,-435 -260.007,-435 "/>
<polyline fill="none" stroke="black" points="-359.993,-411 -260.007,-411 "/>
<text text-anchor="start" x="-351.993" y="-395.8" font-family="Times,serif" font-size="14.00">_layout</text>
<text text-anchor="start" x="-351.993" y="-381.8" font-family="Times,serif" font-size="14.00">find_role</text>
<text text-anchor="start" x="-351.993" y="-367.8" font-family="Times,serif" font-size="14.00">role_params</text>
</g>
<!-- SubproductsController -->
<g id="node14" class="node"><title>SubproductsController</title>
<path fill="none" stroke="black" d="M-239.772,215C-239.772,215 -120.228,215 -120.228,215 -114.228,215 -108.228,209 -108.228,203 -108.228,203 -108.228,53 -108.228,53 -108.228,47 -114.228,41 -120.228,41 -120.228,41 -239.772,41 -239.772,41 -245.772,41 -251.772,47 -251.772,53 -251.772,53 -251.772,203 -251.772,203 -251.772,209 -245.772,215 -239.772,215"/>
<text text-anchor="middle" x="-180" y="56.2" font-family="Times,serif" font-size="14.00">SubproductsController</text>
<polyline fill="none" stroke="black" points="-251.772,63 -108.228,63 "/>
<text text-anchor="start" x="-243.772" y="78.2" font-family="Times,serif" font-size="14.00">create</text>
<text text-anchor="start" x="-243.772" y="92.2" font-family="Times,serif" font-size="14.00">destroy</text>
<text text-anchor="start" x="-243.772" y="106.2" font-family="Times,serif" font-size="14.00">index</text>
<text text-anchor="start" x="-243.772" y="120.2" font-family="Times,serif" font-size="14.00">new</text>
<text text-anchor="start" x="-243.772" y="134.2" font-family="Times,serif" font-size="14.00">show</text>
<polyline fill="none" stroke="black" points="-251.772,141 -108.228,141 "/>
<polyline fill="none" stroke="black" points="-251.772,165 -108.228,165 "/>
<text text-anchor="start" x="-243.772" y="180.2" font-family="Times,serif" font-size="14.00">_layout</text>
<text text-anchor="start" x="-243.772" y="194.2" font-family="Times,serif" font-size="14.00">find_product</text>
<text text-anchor="start" x="-243.772" y="208.2" font-family="Times,serif" font-size="14.00">product_params</text>
</g>
<!-- SubtaskController -->
<g id="node15" class="node"><title>SubtaskController</title>
<path fill="none" stroke="black" d="M336.059,-325C336.059,-325 429.941,-325 429.941,-325 435.941,-325 441.941,-331 441.941,-337 441.941,-337 441.941,-487 441.941,-487 441.941,-493 435.941,-499 429.941,-499 429.941,-499 336.059,-499 336.059,-499 330.059,-499 324.059,-493 324.059,-487 324.059,-487 324.059,-337 324.059,-337 324.059,-331 330.059,-325 336.059,-325"/>
<text text-anchor="middle" x="383" y="-483.8" font-family="Times,serif" font-size="14.00">SubtaskController</text>
<polyline fill="none" stroke="black" points="324.059,-477 441.941,-477 "/>
<text text-anchor="start" x="332.059" y="-461.8" font-family="Times,serif" font-size="14.00">create</text>
<text text-anchor="start" x="332.059" y="-447.8" font-family="Times,serif" font-size="14.00">destroy</text>
<text text-anchor="start" x="332.059" y="-433.8" font-family="Times,serif" font-size="14.00">index</text>
<text text-anchor="start" x="332.059" y="-419.8" font-family="Times,serif" font-size="14.00">new</text>
<text text-anchor="start" x="332.059" y="-405.8" font-family="Times,serif" font-size="14.00">show</text>
<polyline fill="none" stroke="black" points="324.059,-399 441.941,-399 "/>
<polyline fill="none" stroke="black" points="324.059,-375 441.941,-375 "/>
<text text-anchor="start" x="332.059" y="-359.8" font-family="Times,serif" font-size="14.00">_layout</text>
<text text-anchor="start" x="332.059" y="-345.8" font-family="Times,serif" font-size="14.00">find_subtask</text>
<text text-anchor="start" x="332.059" y="-331.8" font-family="Times,serif" font-size="14.00">sub_params</text>
</g>
<!-- WbsController -->
<g id="node16" class="node"><title>WbsController</title>
<path fill="none" stroke="black" d="M-42.4761,-163C-42.4761,-163 82.4761,-163 82.4761,-163 88.4761,-163 94.4761,-169 94.4761,-175 94.4761,-175 94.4761,-339 94.4761,-339 94.4761,-345 88.4761,-351 82.4761,-351 82.4761,-351 -42.4761,-351 -42.4761,-351 -48.4761,-351 -54.4761,-345 -54.4761,-339 -54.4761,-339 -54.4761,-175 -54.4761,-175 -54.4761,-169 -48.4761,-163 -42.4761,-163"/>
<text text-anchor="middle" x="20" y="-335.8" font-family="Times,serif" font-size="14.00">WbsController</text>
<polyline fill="none" stroke="black" points="-54.4761,-329 94.4761,-329 "/>
<text text-anchor="start" x="-46.4761" y="-313.8" font-family="Times,serif" font-size="14.00">create</text>
<text text-anchor="start" x="-46.4761" y="-299.8" font-family="Times,serif" font-size="14.00">destroy</text>
<text text-anchor="start" x="-46.4761" y="-285.8" font-family="Times,serif" font-size="14.00">index</text>
<text text-anchor="start" x="-46.4761" y="-271.8" font-family="Times,serif" font-size="14.00">new</text>
<text text-anchor="start" x="-46.4761" y="-257.8" font-family="Times,serif" font-size="14.00">show</text>
<polyline fill="none" stroke="black" points="-54.4761,-251 94.4761,-251 "/>
<polyline fill="none" stroke="black" points="-54.4761,-227 94.4761,-227 "/>
<text text-anchor="start" x="-46.4761" y="-211.8" font-family="Times,serif" font-size="14.00">_layout</text>
<text text-anchor="start" x="-46.4761" y="-197.8" font-family="Times,serif" font-size="14.00">find_kind</text>
<text text-anchor="start" x="-46.4761" y="-183.8" font-family="Times,serif" font-size="14.00">task_params</text>
<text text-anchor="start" x="-46.4761" y="-169.8" font-family="Times,serif" font-size="14.00">work_breakdown_chart</text>
</g>
<!-- WorkpackageController -->
<g id="node17" class="node"><title>WorkpackageController</title>
<path fill="none" stroke="black" d="M-240.081,-1C-240.081,-1 -113.919,-1 -113.919,-1 -107.919,-1 -101.919,-7 -101.919,-13 -101.919,-13 -101.919,-163 -101.919,-163 -101.919,-169 -107.919,-175 -113.919,-175 -113.919,-175 -240.081,-175 -240.081,-175 -246.081,-175 -252.081,-169 -252.081,-163 -252.081,-163 -252.081,-13 -252.081,-13 -252.081,-7 -246.081,-1 -240.081,-1"/>
<text text-anchor="middle" x="-177" y="-159.8" font-family="Times,serif" font-size="14.00">WorkpackageController</text>
<polyline fill="none" stroke="black" points="-252.081,-153 -101.919,-153 "/>
<text text-anchor="start" x="-244.081" y="-137.8" font-family="Times,serif" font-size="14.00">create</text>
<text text-anchor="start" x="-244.081" y="-123.8" font-family="Times,serif" font-size="14.00">destroy</text>
<text text-anchor="start" x="-244.081" y="-109.8" font-family="Times,serif" font-size="14.00">index</text>
<text text-anchor="start" x="-244.081" y="-95.8" font-family="Times,serif" font-size="14.00">new</text>
<text text-anchor="start" x="-244.081" y="-81.8" font-family="Times,serif" font-size="14.00">show</text>
<polyline fill="none" stroke="black" points="-252.081,-75 -101.919,-75 "/>
<polyline fill="none" stroke="black" points="-252.081,-51 -101.919,-51 "/>
<text text-anchor="start" x="-244.081" y="-35.8" font-family="Times,serif" font-size="14.00">_layout</text>
<text text-anchor="start" x="-244.081" y="-21.8" font-family="Times,serif" font-size="14.00">find_workpackage</text>
<text text-anchor="start" x="-244.081" y="-7.8" font-family="Times,serif" font-size="14.00">work_params</text>
</g>
</g>
</svg>
