<?xml version="1.0" encoding="UTF-8" standalone="no"?>
<!DOCTYPE svg PUBLIC "-//W3C//DTD SVG 1.1//EN"
 "http://www.w3.org/Graphics/SVG/1.1/DTD/svg11.dtd">
<!-- Generated by graphviz version 2.38.0 (20140413.2041)
 -->
<!-- Title: controllers_diagram Pages: 1 -->
<svg width="924pt" height="1024pt"
 viewBox="0.00 0.00 923.77 1024.00" xmlns="http://www.w3.org/2000/svg" xmlns:xlink="http://www.w3.org/1999/xlink">
<g id="graph0" class="graph" transform="scale(1 1) rotate(0) translate(421.824 583.5)">
<title>controllers_diagram</title>
<polygon fill="none" stroke="none" points="-421.824,440.5 -421.824,-583.5 501.941,-583.5 501.941,440.5 -421.824,440.5"/>
<!-- _diagram_info -->
<g id="node1" class="node"><title>_diagram_info</title>
<text text-anchor="start" x="-371.688" y="320.9" font-family="Times,serif" font-size="13.00">Controllers diagram</text>
<text text-anchor="start" x="-371.688" y="333.9" font-family="Times,serif" font-size="13.00">Date: Jan 09 2016 &#45; 18:30</text>
<text text-anchor="start" x="-371.688" y="346.9" font-family="Times,serif" font-size="13.00">Migration version: 20160109121954</text>
<text text-anchor="start" x="-371.688" y="359.9" font-family="Times,serif" font-size="13.00">Generated by RailRoady 1.4.2</text>
<text text-anchor="start" x="-371.688" y="372.9" font-family="Times,serif" font-size="13.00">http://railroady.prestonlee.com</text>
</g>
<!-- AllocationitemsController -->
<g id="node2" class="node"><title>AllocationitemsController</title>
<path fill="none" stroke="black" d="M125.514,-115C125.514,-115 264.486,-115 264.486,-115 270.486,-115 276.486,-121 276.486,-127 276.486,-127 276.486,-277 276.486,-277 276.486,-283 270.486,-289 264.486,-289 264.486,-289 125.514,-289 125.514,-289 119.514,-289 113.514,-283 113.514,-277 113.514,-277 113.514,-127 113.514,-127 113.514,-121 119.514,-115 125.514,-115"/>
<text text-anchor="middle" x="195" y="-273.8" font-family="Times,serif" font-size="14.00">AllocationitemsController</text>
<polyline fill="none" stroke="black" points="113.514,-267 276.486,-267 "/>
<text text-anchor="start" x="121.514" y="-251.8" font-family="Times,serif" font-size="14.00">create</text>
<text text-anchor="start" x="121.514" y="-237.8" font-family="Times,serif" font-size="14.00">destroy</text>
<text text-anchor="start" x="121.514" y="-223.8" font-family="Times,serif" font-size="14.00">index</text>
<text text-anchor="start" x="121.514" y="-209.8" font-family="Times,serif" font-size="14.00">new</text>
<text text-anchor="start" x="121.514" y="-195.8" font-family="Times,serif" font-size="14.00">show</text>
<polyline fill="none" stroke="black" points="113.514,-189 276.486,-189 "/>
<polyline fill="none" stroke="black" points="113.514,-165 276.486,-165 "/>
<text text-anchor="start" x="121.514" y="-149.8" font-family="Times,serif" font-size="14.00">_layout</text>
<text text-anchor="start" x="121.514" y="-135.8" font-family="Times,serif" font-size="14.00">allocation_params</text>
<text text-anchor="start" x="121.514" y="-121.8" font-family="Times,serif" font-size="14.00">find_role</text>
</g>
<!-- ApplicationController -->
<g id="node3" class="node"><title>ApplicationController</title>
<path fill="none" stroke="black" d="M88.0342,75C88.0342,75 261.966,75 261.966,75 267.966,75 273.966,69 273.966,63 273.966,63 273.966,-71 273.966,-71 273.966,-77 267.966,-83 261.966,-83 261.966,-83 88.0342,-83 88.0342,-83 82.0342,-83 76.0342,-77 76.0342,-71 76.0342,-71 76.0342,63 76.0342,63 76.0342,69 82.0342,75 88.0342,75"/>
<text text-anchor="middle" x="175" y="-67.8" font-family="Times,serif" font-size="14.00">ApplicationController</text>
<polyline fill="none" stroke="black" points="76.0342,-61 273.966,-61 "/>
<text text-anchor="start" x="84.0342" y="-45.8" font-family="Times,serif" font-size="14.00">danger</text>
<text text-anchor="start" x="84.0342" y="-31.8" font-family="Times,serif" font-size="14.00">find_projects</text>
<text text-anchor="start" x="84.0342" y="-17.8" font-family="Times,serif" font-size="14.00">info</text>
<text text-anchor="start" x="84.0342" y="-3.8" font-family="Times,serif" font-size="14.00">quest_count</text>
<text text-anchor="start" x="84.0342" y="10.2" font-family="Times,serif" font-size="14.00">success</text>
<text text-anchor="start" x="84.0342" y="24.2" font-family="Times,serif" font-size="14.00">warning</text>
<polyline fill="none" stroke="black" points="76.0342,31 273.966,31 "/>
<text text-anchor="start" x="84.0342" y="46.2" font-family="Times,serif" font-size="14.00">configure_permitted_parameters</text>
<polyline fill="none" stroke="black" points="76.0342,53 273.966,53 "/>
<text text-anchor="start" x="84.0342" y="68.2" font-family="Times,serif" font-size="14.00">_layout</text>
</g>
<!-- ComponentsController -->
<g id="node4" class="node"><title>ComponentsController</title>
<path fill="none" stroke="black" d="M125.838,-324C125.838,-324 246.162,-324 246.162,-324 252.162,-324 258.162,-330 258.162,-336 258.162,-336 258.162,-472 258.162,-472 258.162,-478 252.162,-484 246.162,-484 246.162,-484 125.838,-484 125.838,-484 119.838,-484 113.838,-478 113.838,-472 113.838,-472 113.838,-336 113.838,-336 113.838,-330 119.838,-324 125.838,-324"/>
<text text-anchor="middle" x="186" y="-468.8" font-family="Times,serif" font-size="14.00">ComponentsController</text>
<polyline fill="none" stroke="black" points="113.838,-462 258.162,-462 "/>
<text text-anchor="start" x="121.838" y="-446.8" font-family="Times,serif" font-size="14.00">component_params</text>
<text text-anchor="start" x="121.838" y="-432.8" font-family="Times,serif" font-size="14.00">create</text>
<text text-anchor="start" x="121.838" y="-418.8" font-family="Times,serif" font-size="14.00">destroy</text>
<text text-anchor="start" x="121.838" y="-404.8" font-family="Times,serif" font-size="14.00">find_component</text>
<text text-anchor="start" x="121.838" y="-390.8" font-family="Times,serif" font-size="14.00">new</text>
<text text-anchor="start" x="121.838" y="-376.8" font-family="Times,serif" font-size="14.00">show</text>
<polyline fill="none" stroke="black" points="113.838,-370 258.162,-370 "/>
<polyline fill="none" stroke="black" points="113.838,-346 258.162,-346 "/>
<text text-anchor="start" x="121.838" y="-330.8" font-family="Times,serif" font-size="14.00">_layout</text>
</g>
<!-- DelphiController -->
<g id="node5" class="node"><title>DelphiController</title>
<path fill="none" stroke="black" d="M-405.824,-1C-405.824,-1 -318.176,-1 -318.176,-1 -312.176,-1 -306.176,-7 -306.176,-13 -306.176,-13 -306.176,-163 -306.176,-163 -306.176,-169 -312.176,-175 -318.176,-175 -318.176,-175 -405.824,-175 -405.824,-175 -411.824,-175 -417.824,-169 -417.824,-163 -417.824,-163 -417.824,-13 -417.824,-13 -417.824,-7 -411.824,-1 -405.824,-1"/>
<text text-anchor="middle" x="-362" y="-159.8" font-family="Times,serif" font-size="14.00">DelphiController</text>
<polyline fill="none" stroke="black" points="-417.824,-153 -306.176,-153 "/>
<text text-anchor="start" x="-409.824" y="-137.8" font-family="Times,serif" font-size="14.00">create</text>
<text text-anchor="start" x="-409.824" y="-123.8" font-family="Times,serif" font-size="14.00">destroy</text>
<text text-anchor="start" x="-409.824" y="-109.8" font-family="Times,serif" font-size="14.00">index</text>
<text text-anchor="start" x="-409.824" y="-95.8" font-family="Times,serif" font-size="14.00">new</text>
<text text-anchor="start" x="-409.824" y="-81.8" font-family="Times,serif" font-size="14.00">show</text>
<polyline fill="none" stroke="black" points="-417.824,-75 -306.176,-75 "/>
<polyline fill="none" stroke="black" points="-417.824,-51 -306.176,-51 "/>
<text text-anchor="start" x="-409.824" y="-35.8" font-family="Times,serif" font-size="14.00">_layout</text>
<text text-anchor="start" x="-409.824" y="-21.8" font-family="Times,serif" font-size="14.00">find_quest</text>
<text text-anchor="start" x="-409.824" y="-7.8" font-family="Times,serif" font-size="14.00">quest_params</text>
</g>
<!-- EventsController -->
<g id="node6" class="node"><title>EventsController</title>
<path fill="none" stroke="black" d="M-64.2725,151C-64.2725,151 34.2725,151 34.2725,151 40.2725,151 46.2725,145 46.2725,139 46.2725,139 46.2725,-137 46.2725,-137 46.2725,-143 40.2725,-149 34.2725,-149 34.2725,-149 -64.2725,-149 -64.2725,-149 -70.2725,-149 -76.2725,-143 -76.2725,-137 -76.2725,-137 -76.2725,139 -76.2725,139 -76.2725,145 -70.2725,151 -64.2725,151"/>
<text text-anchor="middle" x="-15" y="-133.8" font-family="Times,serif" font-size="14.00">EventsController</text>
<polyline fill="none" stroke="black" points="-76.2725,-127 46.2725,-127 "/>
<text text-anchor="start" x="-68.2725" y="-111.8" font-family="Times,serif" font-size="14.00">create</text>
<text text-anchor="start" x="-68.2725" y="-97.8" font-family="Times,serif" font-size="14.00">destroy</text>
<text text-anchor="start" x="-68.2725" y="-83.8" font-family="Times,serif" font-size="14.00">edit</text>
<text text-anchor="start" x="-68.2725" y="-69.8" font-family="Times,serif" font-size="14.00">index</text>
<text text-anchor="start" x="-68.2725" y="-55.8" font-family="Times,serif" font-size="14.00">new</text>
<text text-anchor="start" x="-68.2725" y="-41.8" font-family="Times,serif" font-size="14.00">show</text>
<text text-anchor="start" x="-68.2725" y="-27.8" font-family="Times,serif" font-size="14.00">update</text>
<polyline fill="none" stroke="black" points="-76.2725,-21 46.2725,-21 "/>
<polyline fill="none" stroke="black" points="-76.2725,3 46.2725,3 "/>
<text text-anchor="start" x="-68.2725" y="18.2" font-family="Times,serif" font-size="14.00">_layout</text>
<text text-anchor="start" x="-68.2725" y="32.2" font-family="Times,serif" font-size="14.00">event_chart_opt</text>
<text text-anchor="start" x="-68.2725" y="46.2" font-family="Times,serif" font-size="14.00">event_chart_pes</text>
<text text-anchor="start" x="-68.2725" y="60.2" font-family="Times,serif" font-size="14.00">event_chart_real</text>
<text text-anchor="start" x="-68.2725" y="74.2" font-family="Times,serif" font-size="14.00">event_params</text>
<text text-anchor="start" x="-68.2725" y="88.2" font-family="Times,serif" font-size="14.00">find_event</text>
<text text-anchor="start" x="-68.2725" y="102.2" font-family="Times,serif" font-size="14.00">find_project</text>
<text text-anchor="start" x="-68.2725" y="116.2" font-family="Times,serif" font-size="14.00">find_project_by_id</text>
<text text-anchor="start" x="-68.2725" y="130.2" font-family="Times,serif" font-size="14.00">get_project</text>
<text text-anchor="start" x="-68.2725" y="144.2" font-family="Times,serif" font-size="14.00">set_project</text>
</g>
<!-- ModulsController -->
<g id="node7" class="node"><title>ModulsController</title>
<path fill="none" stroke="black" d="M-26.1655,-419C-26.1655,-419 66.1655,-419 66.1655,-419 72.1655,-419 78.1655,-425 78.1655,-431 78.1655,-431 78.1655,-567 78.1655,-567 78.1655,-573 72.1655,-579 66.1655,-579 66.1655,-579 -26.1655,-579 -26.1655,-579 -32.1655,-579 -38.1655,-573 -38.1655,-567 -38.1655,-567 -38.1655,-431 -38.1655,-431 -38.1655,-425 -32.1655,-419 -26.1655,-419"/>
<text text-anchor="middle" x="20" y="-563.8" font-family="Times,serif" font-size="14.00">ModulsController</text>
<polyline fill="none" stroke="black" points="-38.1655,-557 78.1655,-557 "/>
<text text-anchor="start" x="-30.1655" y="-541.8" font-family="Times,serif" font-size="14.00">create</text>
<text text-anchor="start" x="-30.1655" y="-527.8" font-family="Times,serif" font-size="14.00">destroy</text>
<text text-anchor="start" x="-30.1655" y="-513.8" font-family="Times,serif" font-size="14.00">find_modul</text>
<text text-anchor="start" x="-30.1655" y="-499.8" font-family="Times,serif" font-size="14.00">modul_params</text>
<text text-anchor="start" x="-30.1655" y="-485.8" font-family="Times,serif" font-size="14.00">new</text>
<text text-anchor="start" x="-30.1655" y="-471.8" font-family="Times,serif" font-size="14.00">show</text>
<polyline fill="none" stroke="black" points="-38.1655,-465 78.1655,-465 "/>
<polyline fill="none" stroke="black" points="-38.1655,-441 78.1655,-441 "/>
<text text-anchor="start" x="-30.1655" y="-425.8" font-family="Times,serif" font-size="14.00">_layout</text>
</g>
<!-- PbsController -->
<g id="node8" class="node"><title>PbsController</title>
<path fill="none" stroke="black" d="M-254.473,37C-254.473,37 -115.527,37 -115.527,37 -109.527,37 -103.527,31 -103.527,25 -103.527,25 -103.527,-139 -103.527,-139 -103.527,-145 -109.527,-151 -115.527,-151 -115.527,-151 -254.473,-151 -254.473,-151 -260.473,-151 -266.473,-145 -266.473,-139 -266.473,-139 -266.473,25 -266.473,25 -266.473,31 -260.473,37 -254.473,37"/>
<text text-anchor="middle" x="-185" y="-135.8" font-family="Times,serif" font-size="14.00">PbsController</text>
<polyline fill="none" stroke="black" points="-266.473,-129 -103.527,-129 "/>
<text text-anchor="start" x="-258.473" y="-113.8" font-family="Times,serif" font-size="14.00">create</text>
<text text-anchor="start" x="-258.473" y="-99.8" font-family="Times,serif" font-size="14.00">destroy</text>
<text text-anchor="start" x="-258.473" y="-85.8" font-family="Times,serif" font-size="14.00">index</text>
<text text-anchor="start" x="-258.473" y="-71.8" font-family="Times,serif" font-size="14.00">new</text>
<text text-anchor="start" x="-258.473" y="-57.8" font-family="Times,serif" font-size="14.00">show</text>
<polyline fill="none" stroke="black" points="-266.473,-51 -103.527,-51 "/>
<polyline fill="none" stroke="black" points="-266.473,-27 -103.527,-27 "/>
<text text-anchor="start" x="-258.473" y="-11.8" font-family="Times,serif" font-size="14.00">_layout</text>
<text text-anchor="start" x="-258.473" y="2.2" font-family="Times,serif" font-size="14.00">find_project</text>
<text text-anchor="start" x="-258.473" y="16.2" font-family="Times,serif" font-size="14.00">product_breakdown_chart</text>
<text text-anchor="start" x="-258.473" y="30.2" font-family="Times,serif" font-size="14.00">project_params</text>
</g>
<!-- ProjectsController -->
<g id="node9" class="node"><title>ProjectsController</title>
<path fill="none" stroke="black" d="M-64.3242,360C-64.3242,360 30.3242,360 30.3242,360 36.3242,360 42.3242,354 42.3242,348 42.3242,348 42.3242,198 42.3242,198 42.3242,192 36.3242,186 30.3242,186 30.3242,186 -64.3242,186 -64.3242,186 -70.3242,186 -76.3242,192 -76.3242,198 -76.3242,198 -76.3242,348 -76.3242,348 -76.3242,354 -70.3242,360 -64.3242,360"/>
<text text-anchor="middle" x="-17" y="201.2" font-family="Times,serif" font-size="14.00">ProjectsController</text>
<polyline fill="none" stroke="black" points="-76.3242,208 42.3242,208 "/>
<text text-anchor="start" x="-68.3242" y="223.2" font-family="Times,serif" font-size="14.00">create</text>
<text text-anchor="start" x="-68.3242" y="237.2" font-family="Times,serif" font-size="14.00">destroy</text>
<text text-anchor="start" x="-68.3242" y="251.2" font-family="Times,serif" font-size="14.00">index</text>
<text text-anchor="start" x="-68.3242" y="265.2" font-family="Times,serif" font-size="14.00">new</text>
<text text-anchor="start" x="-68.3242" y="279.2" font-family="Times,serif" font-size="14.00">show</text>
<polyline fill="none" stroke="black" points="-76.3242,286 42.3242,286 "/>
<polyline fill="none" stroke="black" points="-76.3242,310 42.3242,310 "/>
<text text-anchor="start" x="-68.3242" y="325.2" font-family="Times,serif" font-size="14.00">_layout</text>
<text text-anchor="start" x="-68.3242" y="339.2" font-family="Times,serif" font-size="14.00">find_project</text>
<text text-anchor="start" x="-68.3242" y="353.2" font-family="Times,serif" font-size="14.00">project_params</text>
</g>
<!-- QuestionController -->
<g id="node10" class="node"><title>QuestionController</title>
<path fill="none" stroke="black" d="M-273.08,-286C-273.08,-286 -148.92,-286 -148.92,-286 -142.92,-286 -136.92,-292 -136.92,-298 -136.92,-298 -136.92,-462 -136.92,-462 -136.92,-468 -142.92,-474 -148.92,-474 -148.92,-474 -273.08,-474 -273.08,-474 -279.08,-474 -285.08,-468 -285.08,-462 -285.08,-462 -285.08,-298 -285.08,-298 -285.08,-292 -279.08,-286 -273.08,-286"/>
<text text-anchor="middle" x="-211" y="-458.8" font-family="Times,serif" font-size="14.00">QuestionController</text>
<polyline fill="none" stroke="black" points="-285.08,-452 -136.92,-452 "/>
<text text-anchor="start" x="-277.08" y="-436.8" font-family="Times,serif" font-size="14.00">create</text>
<text text-anchor="start" x="-277.08" y="-422.8" font-family="Times,serif" font-size="14.00">destroy</text>
<text text-anchor="start" x="-277.08" y="-408.8" font-family="Times,serif" font-size="14.00">index</text>
<text text-anchor="start" x="-277.08" y="-394.8" font-family="Times,serif" font-size="14.00">new</text>
<text text-anchor="start" x="-277.08" y="-380.8" font-family="Times,serif" font-size="14.00">show</text>
<polyline fill="none" stroke="black" points="-285.08,-374 -136.92,-374 "/>
<polyline fill="none" stroke="black" points="-285.08,-350 -136.92,-350 "/>
<text text-anchor="start" x="-277.08" y="-334.8" font-family="Times,serif" font-size="14.00">_layout</text>
<text text-anchor="start" x="-277.08" y="-320.8" font-family="Times,serif" font-size="14.00">find_quest</text>
<text text-anchor="start" x="-277.08" y="-306.8" font-family="Times,serif" font-size="14.00">quest_params</text>
<text text-anchor="start" x="-277.08" y="-292.8" font-family="Times,serif" font-size="14.00">selected_workpackages</text>
</g>
<!-- RamController -->
<g id="node11" class="node"><title>RamController</title>
<path fill="none" stroke="black" d="M87.7378,436C87.7378,436 186.262,436 186.262,436 192.262,436 198.262,430 198.262,424 198.262,424 198.262,330 198.262,330 198.262,324 192.262,318 186.262,318 186.262,318 87.7378,318 87.7378,318 81.7378,318 75.7378,324 75.7378,330 75.7378,330 75.7378,424 75.7378,424 75.7378,430 81.7378,436 87.7378,436"/>
<text text-anchor="middle" x="137" y="333.2" font-family="Times,serif" font-size="14.00">RamController</text>
<polyline fill="none" stroke="black" points="75.7378,340 198.262,340 "/>
<text text-anchor="start" x="83.7378" y="355.2" font-family="Times,serif" font-size="14.00">index</text>
<polyline fill="none" stroke="black" points="75.7378,362 198.262,362 "/>
<polyline fill="none" stroke="black" points="75.7378,386 198.262,386 "/>
<text text-anchor="start" x="83.7378" y="401.2" font-family="Times,serif" font-size="14.00">_layout</text>
<text text-anchor="start" x="83.7378" y="415.2" font-family="Times,serif" font-size="14.00">components_select</text>
<text text-anchor="start" x="83.7378" y="429.2" font-family="Times,serif" font-size="14.00">roles_select</text>
</g>
<!-- RbsController -->
<g id="node12" class="node"><title>RbsController</title>
<path fill="none" stroke="black" d="M-82.521,-191C-82.521,-191 66.521,-191 66.521,-191 72.521,-191 78.521,-197 78.521,-203 78.521,-203 78.521,-367 78.521,-367 78.521,-373 72.521,-379 66.521,-379 66.521,-379 -82.521,-379 -82.521,-379 -88.521,-379 -94.521,-373 -94.521,-367 -94.521,-367 -94.521,-203 -94.521,-203 -94.521,-197 -88.521,-191 -82.521,-191"/>
<text text-anchor="middle" x="-8" y="-363.8" font-family="Times,serif" font-size="14.00">RbsController</text>
<polyline fill="none" stroke="black" points="-94.521,-357 78.521,-357 "/>
<text text-anchor="start" x="-86.521" y="-341.8" font-family="Times,serif" font-size="14.00">create</text>
<text text-anchor="start" x="-86.521" y="-327.8" font-family="Times,serif" font-size="14.00">destroy</text>
<text text-anchor="start" x="-86.521" y="-313.8" font-family="Times,serif" font-size="14.00">index</text>
<text text-anchor="start" x="-86.521" y="-299.8" font-family="Times,serif" font-size="14.00">new</text>
<text text-anchor="start" x="-86.521" y="-285.8" font-family="Times,serif" font-size="14.00">show</text>
<polyline fill="none" stroke="black" points="-94.521,-279 78.521,-279 "/>
<polyline fill="none" stroke="black" points="-94.521,-255 78.521,-255 "/>
<text text-anchor="start" x="-86.521" y="-239.8" font-family="Times,serif" font-size="14.00">_layout</text>
<text text-anchor="start" x="-86.521" y="-225.8" font-family="Times,serif" font-size="14.00">find_kind</text>
<text text-anchor="start" x="-86.521" y="-211.8" font-family="Times,serif" font-size="14.00">kind_params</text>
<text text-anchor="start" x="-86.521" y="-197.8" font-family="Times,serif" font-size="14.00">ressource_breakdown_chart</text>
</g>
<!-- RequirmentController -->
<g id="node13" class="node"><title>RequirmentController</title>
<path fill="none" stroke="black" d="M88.1792,284C88.1792,284 203.821,284 203.821,284 209.821,284 215.821,278 215.821,272 215.821,272 215.821,122 215.821,122 215.821,116 209.821,110 203.821,110 203.821,110 88.1792,110 88.1792,110 82.1792,110 76.1792,116 76.1792,122 76.1792,122 76.1792,272 76.1792,272 76.1792,278 82.1792,284 88.1792,284"/>
<text text-anchor="middle" x="146" y="125.2" font-family="Times,serif" font-size="14.00">RequirmentController</text>
<polyline fill="none" stroke="black" points="76.1792,132 215.821,132 "/>
<text text-anchor="start" x="84.1792" y="147.2" font-family="Times,serif" font-size="14.00">create</text>
<text text-anchor="start" x="84.1792" y="161.2" font-family="Times,serif" font-size="14.00">destroy</text>
<text text-anchor="start" x="84.1792" y="175.2" font-family="Times,serif" font-size="14.00">index</text>
<text text-anchor="start" x="84.1792" y="189.2" font-family="Times,serif" font-size="14.00">new</text>
<text text-anchor="start" x="84.1792" y="203.2" font-family="Times,serif" font-size="14.00">show</text>
<polyline fill="none" stroke="black" points="76.1792,210 215.821,210 "/>
<polyline fill="none" stroke="black" points="76.1792,234 215.821,234 "/>
<text text-anchor="start" x="84.1792" y="249.2" font-family="Times,serif" font-size="14.00">_layout</text>
<text text-anchor="start" x="84.1792" y="263.2" font-family="Times,serif" font-size="14.00">find_req</text>
<text text-anchor="start" x="84.1792" y="277.2" font-family="Times,serif" font-size="14.00">req_params</text>
</g>
<!-- ResponseController -->
<g id="node14" class="node"><title>ResponseController</title>
<path fill="none" stroke="black" d="M316.396,303C316.396,303 419.604,303 419.604,303 425.604,303 431.604,297 431.604,291 431.604,291 431.604,113 431.604,113 431.604,107 425.604,101 419.604,101 419.604,101 316.396,101 316.396,101 310.396,101 304.396,107 304.396,113 304.396,113 304.396,291 304.396,291 304.396,297 310.396,303 316.396,303"/>
<text text-anchor="middle" x="368" y="116.2" font-family="Times,serif" font-size="14.00">ResponseController</text>
<polyline fill="none" stroke="black" points="304.396,123 431.604,123 "/>
<text text-anchor="start" x="312.396" y="138.2" font-family="Times,serif" font-size="14.00">check_response</text>
<text text-anchor="start" x="312.396" y="152.2" font-family="Times,serif" font-size="14.00">create</text>
<text text-anchor="start" x="312.396" y="166.2" font-family="Times,serif" font-size="14.00">destroy</text>
<text text-anchor="start" x="312.396" y="180.2" font-family="Times,serif" font-size="14.00">index</text>
<text text-anchor="start" x="312.396" y="194.2" font-family="Times,serif" font-size="14.00">new</text>
<text text-anchor="start" x="312.396" y="208.2" font-family="Times,serif" font-size="14.00">show</text>
<polyline fill="none" stroke="black" points="304.396,215 431.604,215 "/>
<polyline fill="none" stroke="black" points="304.396,239 431.604,239 "/>
<text text-anchor="start" x="312.396" y="254.2" font-family="Times,serif" font-size="14.00">_layout</text>
<text text-anchor="start" x="312.396" y="268.2" font-family="Times,serif" font-size="14.00">calculate_average</text>
<text text-anchor="start" x="312.396" y="282.2" font-family="Times,serif" font-size="14.00">find_response</text>
<text text-anchor="start" x="312.396" y="296.2" font-family="Times,serif" font-size="14.00">resp_params</text>
</g>
<!-- RoleController -->
<g id="node15" class="node"><title>RoleController</title>
<path fill="none" stroke="black" d="M-386.993,208C-386.993,208 -311.007,208 -311.007,208 -305.007,208 -299.007,202 -299.007,196 -299.007,196 -299.007,46 -299.007,46 -299.007,40 -305.007,34 -311.007,34 -311.007,34 -386.993,34 -386.993,34 -392.993,34 -398.993,40 -398.993,46 -398.993,46 -398.993,196 -398.993,196 -398.993,202 -392.993,208 -386.993,208"/>
<text text-anchor="middle" x="-349" y="49.2" font-family="Times,serif" font-size="14.00">RoleController</text>
<polyline fill="none" stroke="black" points="-398.993,56 -299.007,56 "/>
<text text-anchor="start" x="-390.993" y="71.2" font-family="Times,serif" font-size="14.00">create</text>
<text text-anchor="start" x="-390.993" y="85.2" font-family="Times,serif" font-size="14.00">destroy</text>
<text text-anchor="start" x="-390.993" y="99.2" font-family="Times,serif" font-size="14.00">index</text>
<text text-anchor="start" x="-390.993" y="113.2" font-family="Times,serif" font-size="14.00">new</text>
<text text-anchor="start" x="-390.993" y="127.2" font-family="Times,serif" font-size="14.00">show</text>
<polyline fill="none" stroke="black" points="-398.993,134 -299.007,134 "/>
<polyline fill="none" stroke="black" points="-398.993,158 -299.007,158 "/>
<text text-anchor="start" x="-390.993" y="173.2" font-family="Times,serif" font-size="14.00">_layout</text>
<text text-anchor="start" x="-390.993" y="187.2" font-family="Times,serif" font-size="14.00">find_role</text>
<text text-anchor="start" x="-390.993" y="201.2" font-family="Times,serif" font-size="14.00">role_params</text>
</g>
<!-- SubproductsController -->
<g id="node16" class="node"><title>SubproductsController</title>
<path fill="none" stroke="black" d="M316.228,56C316.228,56 435.772,56 435.772,56 441.772,56 447.772,50 447.772,44 447.772,44 447.772,-106 447.772,-106 447.772,-112 441.772,-118 435.772,-118 435.772,-118 316.228,-118 316.228,-118 310.228,-118 304.228,-112 304.228,-106 304.228,-106 304.228,44 304.228,44 304.228,50 310.228,56 316.228,56"/>
<text text-anchor="middle" x="376" y="-102.8" font-family="Times,serif" font-size="14.00">SubproductsController</text>
<polyline fill="none" stroke="black" points="304.228,-96 447.772,-96 "/>
<text text-anchor="start" x="312.228" y="-80.8" font-family="Times,serif" font-size="14.00">create</text>
<text text-anchor="start" x="312.228" y="-66.8" font-family="Times,serif" font-size="14.00">destroy</text>
<text text-anchor="start" x="312.228" y="-52.8" font-family="Times,serif" font-size="14.00">index</text>
<text text-anchor="start" x="312.228" y="-38.8" font-family="Times,serif" font-size="14.00">new</text>
<text text-anchor="start" x="312.228" y="-24.8" font-family="Times,serif" font-size="14.00">show</text>
<polyline fill="none" stroke="black" points="304.228,-18 447.772,-18 "/>
<polyline fill="none" stroke="black" points="304.228,6 447.772,6 "/>
<text text-anchor="start" x="312.228" y="21.2" font-family="Times,serif" font-size="14.00">_layout</text>
<text text-anchor="start" x="312.228" y="35.2" font-family="Times,serif" font-size="14.00">find_product</text>
<text text-anchor="start" x="312.228" y="49.2" font-family="Times,serif" font-size="14.00">product_params</text>
</g>
<!-- SubtaskController -->
<g id="node17" class="node"><title>SubtaskController</title>
<path fill="none" stroke="black" d="M392.059,-381C392.059,-381 485.941,-381 485.941,-381 491.941,-381 497.941,-387 497.941,-393 497.941,-393 497.941,-543 497.941,-543 497.941,-549 491.941,-555 485.941,-555 485.941,-555 392.059,-555 392.059,-555 386.059,-555 380.059,-549 380.059,-543 380.059,-543 380.059,-393 380.059,-393 380.059,-387 386.059,-381 392.059,-381"/>
<text text-anchor="middle" x="439" y="-539.8" font-family="Times,serif" font-size="14.00">SubtaskController</text>
<polyline fill="none" stroke="black" points="380.059,-533 497.941,-533 "/>
<text text-anchor="start" x="388.059" y="-517.8" font-family="Times,serif" font-size="14.00">create</text>
<text text-anchor="start" x="388.059" y="-503.8" font-family="Times,serif" font-size="14.00">destroy</text>
<text text-anchor="start" x="388.059" y="-489.8" font-family="Times,serif" font-size="14.00">index</text>
<text text-anchor="start" x="388.059" y="-475.8" font-family="Times,serif" font-size="14.00">new</text>
<text text-anchor="start" x="388.059" y="-461.8" font-family="Times,serif" font-size="14.00">show</text>
<polyline fill="none" stroke="black" points="380.059,-455 497.941,-455 "/>
<polyline fill="none" stroke="black" points="380.059,-431 497.941,-431 "/>
<text text-anchor="start" x="388.059" y="-415.8" font-family="Times,serif" font-size="14.00">_layout</text>
<text text-anchor="start" x="388.059" y="-401.8" font-family="Times,serif" font-size="14.00">find_subtask</text>
<text text-anchor="start" x="388.059" y="-387.8" font-family="Times,serif" font-size="14.00">sub_params</text>
</g>
<!-- WbsController -->
<g id="node18" class="node"><title>WbsController</title>
<path fill="none" stroke="black" d="M315.524,-153C315.524,-153 440.476,-153 440.476,-153 446.476,-153 452.476,-159 452.476,-165 452.476,-165 452.476,-329 452.476,-329 452.476,-335 446.476,-341 440.476,-341 440.476,-341 315.524,-341 315.524,-341 309.524,-341 303.524,-335 303.524,-329 303.524,-329 303.524,-165 303.524,-165 303.524,-159 309.524,-153 315.524,-153"/>
<text text-anchor="middle" x="378" y="-325.8" font-family="Times,serif" font-size="14.00">WbsController</text>
<polyline fill="none" stroke="black" points="303.524,-319 452.476,-319 "/>
<text text-anchor="start" x="311.524" y="-303.8" font-family="Times,serif" font-size="14.00">create</text>
<text text-anchor="start" x="311.524" y="-289.8" font-family="Times,serif" font-size="14.00">destroy</text>
<text text-anchor="start" x="311.524" y="-275.8" font-family="Times,serif" font-size="14.00">index</text>
<text text-anchor="start" x="311.524" y="-261.8" font-family="Times,serif" font-size="14.00">new</text>
<text text-anchor="start" x="311.524" y="-247.8" font-family="Times,serif" font-size="14.00">show</text>
<polyline fill="none" stroke="black" points="303.524,-241 452.476,-241 "/>
<polyline fill="none" stroke="black" points="303.524,-217 452.476,-217 "/>
<text text-anchor="start" x="311.524" y="-201.8" font-family="Times,serif" font-size="14.00">_layout</text>
<text text-anchor="start" x="311.524" y="-187.8" font-family="Times,serif" font-size="14.00">find_kind</text>
<text text-anchor="start" x="311.524" y="-173.8" font-family="Times,serif" font-size="14.00">task_params</text>
<text text-anchor="start" x="311.524" y="-159.8" font-family="Times,serif" font-size="14.00">work_breakdown_chart</text>
</g>
<!-- WorkpackageController -->
<g id="node19" class="node"><title>WorkpackageController</title>
<path fill="none" stroke="black" d="M-254.081,265C-254.081,265 -127.919,265 -127.919,265 -121.919,265 -115.919,259 -115.919,253 -115.919,253 -115.919,89 -115.919,89 -115.919,83 -121.919,77 -127.919,77 -127.919,77 -254.081,77 -254.081,77 -260.081,77 -266.081,83 -266.081,89 -266.081,89 -266.081,253 -266.081,253 -266.081,259 -260.081,265 -254.081,265"/>
<text text-anchor="middle" x="-191" y="92.2" font-family="Times,serif" font-size="14.00">WorkpackageController</text>
<polyline fill="none" stroke="black" points="-266.081,99 -115.919,99 "/>
<text text-anchor="start" x="-258.081" y="114.2" font-family="Times,serif" font-size="14.00">create</text>
<text text-anchor="start" x="-258.081" y="128.2" font-family="Times,serif" font-size="14.00">destroy</text>
<text text-anchor="start" x="-258.081" y="142.2" font-family="Times,serif" font-size="14.00">index</text>
<text text-anchor="start" x="-258.081" y="156.2" font-family="Times,serif" font-size="14.00">new</text>
<text text-anchor="start" x="-258.081" y="170.2" font-family="Times,serif" font-size="14.00">show</text>
<polyline fill="none" stroke="black" points="-266.081,177 -115.919,177 "/>
<polyline fill="none" stroke="black" points="-266.081,201 -115.919,201 "/>
<text text-anchor="start" x="-258.081" y="216.2" font-family="Times,serif" font-size="14.00">_layout</text>
<text text-anchor="start" x="-258.081" y="230.2" font-family="Times,serif" font-size="14.00">find_workpackage</text>
<text text-anchor="start" x="-258.081" y="244.2" font-family="Times,serif" font-size="14.00">successor</text>
<text text-anchor="start" x="-258.081" y="258.2" font-family="Times,serif" font-size="14.00">work_params</text>
</g>
</g>
</svg>
