<?xml version="1.0" encoding="UTF-8" standalone="no"?>
<!DOCTYPE svg PUBLIC "-//W3C//DTD SVG 1.1//EN"
 "http://www.w3.org/Graphics/SVG/1.1/DTD/svg11.dtd">
<!-- Generated by graphviz version 2.38.0 (20140413.2041)
 -->
<!-- Title: controllers_diagram Pages: 1 -->
<svg width="950pt" height="1000pt"
 viewBox="0.00 0.00 950.33 1000.00" xmlns="http://www.w3.org/2000/svg" xmlns:xlink="http://www.w3.org/1999/xlink">
<g id="graph0" class="graph" transform="scale(1 1) rotate(0) translate(422.166 578.5)">
<title>controllers_diagram</title>
<polygon fill="none" stroke="none" points="-422.166,421.5 -422.166,-578.5 528.162,-578.5 528.162,421.5 -422.166,421.5"/>
<!-- _diagram_info -->
<g id="node1" class="node"><title>_diagram_info</title>
<text text-anchor="start" x="273.55" y="339.9" font-family="Times,serif" font-size="13.00">Controllers diagram</text>
<text text-anchor="start" x="273.55" y="352.9" font-family="Times,serif" font-size="13.00">Date: Jan 10 2016 &#45; 14:39</text>
<text text-anchor="start" x="273.55" y="365.9" font-family="Times,serif" font-size="13.00">Migration version: 20160110133745</text>
<text text-anchor="start" x="273.55" y="378.9" font-family="Times,serif" font-size="13.00">Generated by RailRoady 1.4.2</text>
<text text-anchor="start" x="273.55" y="391.9" font-family="Times,serif" font-size="13.00">http://railroady.prestonlee.com</text>
</g>
<!-- AllocationitemsController -->
<g id="node2" class="node"><title>AllocationitemsController</title>
<path fill="none" stroke="black" d="M-254.486,-1C-254.486,-1 -115.514,-1 -115.514,-1 -109.514,-1 -103.514,-7 -103.514,-13 -103.514,-13 -103.514,-163 -103.514,-163 -103.514,-169 -109.514,-175 -115.514,-175 -115.514,-175 -254.486,-175 -254.486,-175 -260.486,-175 -266.486,-169 -266.486,-163 -266.486,-163 -266.486,-13 -266.486,-13 -266.486,-7 -260.486,-1 -254.486,-1"/>
<text text-anchor="middle" x="-185" y="-159.8" font-family="Times,serif" font-size="14.00">AllocationitemsController</text>
<polyline fill="none" stroke="black" points="-266.486,-153 -103.514,-153 "/>
<text text-anchor="start" x="-258.486" y="-137.8" font-family="Times,serif" font-size="14.00">create</text>
<text text-anchor="start" x="-258.486" y="-123.8" font-family="Times,serif" font-size="14.00">destroy</text>
<text text-anchor="start" x="-258.486" y="-109.8" font-family="Times,serif" font-size="14.00">index</text>
<text text-anchor="start" x="-258.486" y="-95.8" font-family="Times,serif" font-size="14.00">new</text>
<text text-anchor="start" x="-258.486" y="-81.8" font-family="Times,serif" font-size="14.00">show</text>
<polyline fill="none" stroke="black" points="-266.486,-75 -103.514,-75 "/>
<polyline fill="none" stroke="black" points="-266.486,-51 -103.514,-51 "/>
<text text-anchor="start" x="-258.486" y="-35.8" font-family="Times,serif" font-size="14.00">_layout</text>
<text text-anchor="start" x="-258.486" y="-21.8" font-family="Times,serif" font-size="14.00">allocation_params</text>
<text text-anchor="start" x="-258.486" y="-7.8" font-family="Times,serif" font-size="14.00">find_role</text>
</g>
<!-- ApplicationController -->
<g id="node3" class="node"><title>ApplicationController</title>
<path fill="none" stroke="black" d="M88.0342,75C88.0342,75 261.966,75 261.966,75 267.966,75 273.966,69 273.966,63 273.966,63 273.966,-71 273.966,-71 273.966,-77 267.966,-83 261.966,-83 261.966,-83 88.0342,-83 88.0342,-83 82.0342,-83 76.0342,-77 76.0342,-71 76.0342,-71 76.0342,63 76.0342,63 76.0342,69 82.0342,75 88.0342,75"/>
<text text-anchor="middle" x="175" y="-67.8" font-family="Times,serif" font-size="14.00">ApplicationController</text>
<polyline fill="none" stroke="black" points="76.0342,-61 273.966,-61 "/>
<text text-anchor="start" x="84.0342" y="-45.8" font-family="Times,serif" font-size="14.00">danger</text>
<text text-anchor="start" x="84.0342" y="-31.8" font-family="Times,serif" font-size="14.00">find_projects</text>
<text text-anchor="start" x="84.0342" y="-17.8" font-family="Times,serif" font-size="14.00">info</text>
<text text-anchor="start" x="84.0342" y="-3.8" font-family="Times,serif" font-size="14.00">quest_count</text>
<text text-anchor="start" x="84.0342" y="10.2" font-family="Times,serif" font-size="14.00">success</text>
<text text-anchor="start" x="84.0342" y="24.2" font-family="Times,serif" font-size="14.00">warning</text>
<polyline fill="none" stroke="black" points="76.0342,31 273.966,31 "/>
<text text-anchor="start" x="84.0342" y="46.2" font-family="Times,serif" font-size="14.00">configure_permitted_parameters</text>
<polyline fill="none" stroke="black" points="76.0342,53 273.966,53 "/>
<text text-anchor="start" x="84.0342" y="68.2" font-family="Times,serif" font-size="14.00">_layout</text>
</g>
<!-- ComponentsController -->
<g id="node4" class="node"><title>ComponentsController</title>
<path fill="none" stroke="black" d="M391.838,-381C391.838,-381 512.162,-381 512.162,-381 518.162,-381 524.162,-387 524.162,-393 524.162,-393 524.162,-529 524.162,-529 524.162,-535 518.162,-541 512.162,-541 512.162,-541 391.838,-541 391.838,-541 385.838,-541 379.838,-535 379.838,-529 379.838,-529 379.838,-393 379.838,-393 379.838,-387 385.838,-381 391.838,-381"/>
<text text-anchor="middle" x="452" y="-525.8" font-family="Times,serif" font-size="14.00">ComponentsController</text>
<polyline fill="none" stroke="black" points="379.838,-519 524.162,-519 "/>
<text text-anchor="start" x="387.838" y="-503.8" font-family="Times,serif" font-size="14.00">component_params</text>
<text text-anchor="start" x="387.838" y="-489.8" font-family="Times,serif" font-size="14.00">create</text>
<text text-anchor="start" x="387.838" y="-475.8" font-family="Times,serif" font-size="14.00">destroy</text>
<text text-anchor="start" x="387.838" y="-461.8" font-family="Times,serif" font-size="14.00">find_component</text>
<text text-anchor="start" x="387.838" y="-447.8" font-family="Times,serif" font-size="14.00">new</text>
<text text-anchor="start" x="387.838" y="-433.8" font-family="Times,serif" font-size="14.00">show</text>
<polyline fill="none" stroke="black" points="379.838,-427 524.162,-427 "/>
<polyline fill="none" stroke="black" points="379.838,-403 524.162,-403 "/>
<text text-anchor="start" x="387.838" y="-387.8" font-family="Times,serif" font-size="14.00">_layout</text>
</g>
<!-- DelphiController -->
<g id="node5" class="node"><title>DelphiController</title>
<path fill="none" stroke="black" d="M-405.824,-1C-405.824,-1 -318.176,-1 -318.176,-1 -312.176,-1 -306.176,-7 -306.176,-13 -306.176,-13 -306.176,-163 -306.176,-163 -306.176,-169 -312.176,-175 -318.176,-175 -318.176,-175 -405.824,-175 -405.824,-175 -411.824,-175 -417.824,-169 -417.824,-163 -417.824,-163 -417.824,-13 -417.824,-13 -417.824,-7 -411.824,-1 -405.824,-1"/>
<text text-anchor="middle" x="-362" y="-159.8" font-family="Times,serif" font-size="14.00">DelphiController</text>
<polyline fill="none" stroke="black" points="-417.824,-153 -306.176,-153 "/>
<text text-anchor="start" x="-409.824" y="-137.8" font-family="Times,serif" font-size="14.00">create</text>
<text text-anchor="start" x="-409.824" y="-123.8" font-family="Times,serif" font-size="14.00">destroy</text>
<text text-anchor="start" x="-409.824" y="-109.8" font-family="Times,serif" font-size="14.00">index</text>
<text text-anchor="start" x="-409.824" y="-95.8" font-family="Times,serif" font-size="14.00">new</text>
<text text-anchor="start" x="-409.824" y="-81.8" font-family="Times,serif" font-size="14.00">show</text>
<polyline fill="none" stroke="black" points="-417.824,-75 -306.176,-75 "/>
<polyline fill="none" stroke="black" points="-417.824,-51 -306.176,-51 "/>
<text text-anchor="start" x="-409.824" y="-35.8" font-family="Times,serif" font-size="14.00">_layout</text>
<text text-anchor="start" x="-409.824" y="-21.8" font-family="Times,serif" font-size="14.00">find_quest</text>
<text text-anchor="start" x="-409.824" y="-7.8" font-family="Times,serif" font-size="14.00">quest_params</text>
</g>
<!-- EventsController -->
<g id="node6" class="node"><title>EventsController</title>
<path fill="none" stroke="black" d="M-64.2725,151C-64.2725,151 34.2725,151 34.2725,151 40.2725,151 46.2725,145 46.2725,139 46.2725,139 46.2725,-137 46.2725,-137 46.2725,-143 40.2725,-149 34.2725,-149 34.2725,-149 -64.2725,-149 -64.2725,-149 -70.2725,-149 -76.2725,-143 -76.2725,-137 -76.2725,-137 -76.2725,139 -76.2725,139 -76.2725,145 -70.2725,151 -64.2725,151"/>
<text text-anchor="middle" x="-15" y="-133.8" font-family="Times,serif" font-size="14.00">EventsController</text>
<polyline fill="none" stroke="black" points="-76.2725,-127 46.2725,-127 "/>
<text text-anchor="start" x="-68.2725" y="-111.8" font-family="Times,serif" font-size="14.00">create</text>
<text text-anchor="start" x="-68.2725" y="-97.8" font-family="Times,serif" font-size="14.00">destroy</text>
<text text-anchor="start" x="-68.2725" y="-83.8" font-family="Times,serif" font-size="14.00">edit</text>
<text text-anchor="start" x="-68.2725" y="-69.8" font-family="Times,serif" font-size="14.00">index</text>
<text text-anchor="start" x="-68.2725" y="-55.8" font-family="Times,serif" font-size="14.00">new</text>
<text text-anchor="start" x="-68.2725" y="-41.8" font-family="Times,serif" font-size="14.00">show</text>
<text text-anchor="start" x="-68.2725" y="-27.8" font-family="Times,serif" font-size="14.00">update</text>
<polyline fill="none" stroke="black" points="-76.2725,-21 46.2725,-21 "/>
<polyline fill="none" stroke="black" points="-76.2725,3 46.2725,3 "/>
<text text-anchor="start" x="-68.2725" y="18.2" font-family="Times,serif" font-size="14.00">_layout</text>
<text text-anchor="start" x="-68.2725" y="32.2" font-family="Times,serif" font-size="14.00">event_chart_opt</text>
<text text-anchor="start" x="-68.2725" y="46.2" font-family="Times,serif" font-size="14.00">event_chart_pes</text>
<text text-anchor="start" x="-68.2725" y="60.2" font-family="Times,serif" font-size="14.00">event_chart_real</text>
<text text-anchor="start" x="-68.2725" y="74.2" font-family="Times,serif" font-size="14.00">event_params</text>
<text text-anchor="start" x="-68.2725" y="88.2" font-family="Times,serif" font-size="14.00">find_event</text>
<text text-anchor="start" x="-68.2725" y="102.2" font-family="Times,serif" font-size="14.00">find_project</text>
<text text-anchor="start" x="-68.2725" y="116.2" font-family="Times,serif" font-size="14.00">find_project_by_id</text>
<text text-anchor="start" x="-68.2725" y="130.2" font-family="Times,serif" font-size="14.00">get_project</text>
<text text-anchor="start" x="-68.2725" y="144.2" font-family="Times,serif" font-size="14.00">set_project</text>
</g>
<!-- ModulsController -->
<g id="node7" class="node"><title>ModulsController</title>
<path fill="none" stroke="black" d="M-406.166,417C-406.166,417 -313.834,417 -313.834,417 -307.834,417 -301.834,411 -301.834,405 -301.834,405 -301.834,269 -301.834,269 -301.834,263 -307.834,257 -313.834,257 -313.834,257 -406.166,257 -406.166,257 -412.166,257 -418.166,263 -418.166,269 -418.166,269 -418.166,405 -418.166,405 -418.166,411 -412.166,417 -406.166,417"/>
<text text-anchor="middle" x="-360" y="272.2" font-family="Times,serif" font-size="14.00">ModulsController</text>
<polyline fill="none" stroke="black" points="-418.166,279 -301.834,279 "/>
<text text-anchor="start" x="-410.166" y="294.2" font-family="Times,serif" font-size="14.00">create</text>
<text text-anchor="start" x="-410.166" y="308.2" font-family="Times,serif" font-size="14.00">destroy</text>
<text text-anchor="start" x="-410.166" y="322.2" font-family="Times,serif" font-size="14.00">find_modul</text>
<text text-anchor="start" x="-410.166" y="336.2" font-family="Times,serif" font-size="14.00">modul_params</text>
<text text-anchor="start" x="-410.166" y="350.2" font-family="Times,serif" font-size="14.00">new</text>
<text text-anchor="start" x="-410.166" y="364.2" font-family="Times,serif" font-size="14.00">show</text>
<polyline fill="none" stroke="black" points="-418.166,371 -301.834,371 "/>
<polyline fill="none" stroke="black" points="-418.166,395 -301.834,395 "/>
<text text-anchor="start" x="-410.166" y="410.2" font-family="Times,serif" font-size="14.00">_layout</text>
</g>
<!-- PbsController -->
<g id="node8" class="node"><title>PbsController</title>
<path fill="none" stroke="black" d="M-64.4727,-191C-64.4727,-191 74.4727,-191 74.4727,-191 80.4727,-191 86.4727,-197 86.4727,-203 86.4727,-203 86.4727,-367 86.4727,-367 86.4727,-373 80.4727,-379 74.4727,-379 74.4727,-379 -64.4727,-379 -64.4727,-379 -70.4727,-379 -76.4727,-373 -76.4727,-367 -76.4727,-367 -76.4727,-203 -76.4727,-203 -76.4727,-197 -70.4727,-191 -64.4727,-191"/>
<text text-anchor="middle" x="5" y="-363.8" font-family="Times,serif" font-size="14.00">PbsController</text>
<polyline fill="none" stroke="black" points="-76.4727,-357 86.4727,-357 "/>
<text text-anchor="start" x="-68.4727" y="-341.8" font-family="Times,serif" font-size="14.00">create</text>
<text text-anchor="start" x="-68.4727" y="-327.8" font-family="Times,serif" font-size="14.00">destroy</text>
<text text-anchor="start" x="-68.4727" y="-313.8" font-family="Times,serif" font-size="14.00">index</text>
<text text-anchor="start" x="-68.4727" y="-299.8" font-family="Times,serif" font-size="14.00">new</text>
<text text-anchor="start" x="-68.4727" y="-285.8" font-family="Times,serif" font-size="14.00">show</text>
<polyline fill="none" stroke="black" points="-76.4727,-279 86.4727,-279 "/>
<polyline fill="none" stroke="black" points="-76.4727,-255 86.4727,-255 "/>
<text text-anchor="start" x="-68.4727" y="-239.8" font-family="Times,serif" font-size="14.00">_layout</text>
<text text-anchor="start" x="-68.4727" y="-225.8" font-family="Times,serif" font-size="14.00">find_project</text>
<text text-anchor="start" x="-68.4727" y="-211.8" font-family="Times,serif" font-size="14.00">product_breakdown_chart</text>
<text text-anchor="start" x="-68.4727" y="-197.8" font-family="Times,serif" font-size="14.00">project_params</text>
</g>
<!-- ProjectsController -->
<g id="node9" class="node"><title>ProjectsController</title>
<path fill="none" stroke="black" d="M125.527,-115C125.527,-115 264.473,-115 264.473,-115 270.473,-115 276.473,-121 276.473,-127 276.473,-127 276.473,-305 276.473,-305 276.473,-311 270.473,-317 264.473,-317 264.473,-317 125.527,-317 125.527,-317 119.527,-317 113.527,-311 113.527,-305 113.527,-305 113.527,-127 113.527,-127 113.527,-121 119.527,-115 125.527,-115"/>
<text text-anchor="middle" x="195" y="-301.8" font-family="Times,serif" font-size="14.00">ProjectsController</text>
<polyline fill="none" stroke="black" points="113.527,-295 276.473,-295 "/>
<text text-anchor="start" x="121.527" y="-279.8" font-family="Times,serif" font-size="14.00">create</text>
<text text-anchor="start" x="121.527" y="-265.8" font-family="Times,serif" font-size="14.00">destroy</text>
<text text-anchor="start" x="121.527" y="-251.8" font-family="Times,serif" font-size="14.00">index</text>
<text text-anchor="start" x="121.527" y="-237.8" font-family="Times,serif" font-size="14.00">new</text>
<text text-anchor="start" x="121.527" y="-223.8" font-family="Times,serif" font-size="14.00">show</text>
<polyline fill="none" stroke="black" points="113.527,-217 276.473,-217 "/>
<polyline fill="none" stroke="black" points="113.527,-193 276.473,-193 "/>
<text text-anchor="start" x="121.527" y="-177.8" font-family="Times,serif" font-size="14.00">_layout</text>
<text text-anchor="start" x="121.527" y="-163.8" font-family="Times,serif" font-size="14.00">find_project</text>
<text text-anchor="start" x="121.527" y="-149.8" font-family="Times,serif" font-size="14.00">product_breakdown_chart</text>
<text text-anchor="start" x="121.527" y="-135.8" font-family="Times,serif" font-size="14.00">project_params</text>
<text text-anchor="start" x="121.527" y="-121.8" font-family="Times,serif" font-size="14.00">roadmap_chart</text>
</g>
<!-- QuestionController -->
<g id="node10" class="node"><title>QuestionController</title>
<path fill="none" stroke="black" d="M87.9204,303C87.9204,303 212.08,303 212.08,303 218.08,303 224.08,297 224.08,291 224.08,291 224.08,127 224.08,127 224.08,121 218.08,115 212.08,115 212.08,115 87.9204,115 87.9204,115 81.9204,115 75.9204,121 75.9204,127 75.9204,127 75.9204,291 75.9204,291 75.9204,297 81.9204,303 87.9204,303"/>
<text text-anchor="middle" x="150" y="130.2" font-family="Times,serif" font-size="14.00">QuestionController</text>
<polyline fill="none" stroke="black" points="75.9204,137 224.08,137 "/>
<text text-anchor="start" x="83.9204" y="152.2" font-family="Times,serif" font-size="14.00">create</text>
<text text-anchor="start" x="83.9204" y="166.2" font-family="Times,serif" font-size="14.00">destroy</text>
<text text-anchor="start" x="83.9204" y="180.2" font-family="Times,serif" font-size="14.00">index</text>
<text text-anchor="start" x="83.9204" y="194.2" font-family="Times,serif" font-size="14.00">new</text>
<text text-anchor="start" x="83.9204" y="208.2" font-family="Times,serif" font-size="14.00">show</text>
<polyline fill="none" stroke="black" points="75.9204,215 224.08,215 "/>
<polyline fill="none" stroke="black" points="75.9204,239 224.08,239 "/>
<text text-anchor="start" x="83.9204" y="254.2" font-family="Times,serif" font-size="14.00">_layout</text>
<text text-anchor="start" x="83.9204" y="268.2" font-family="Times,serif" font-size="14.00">find_quest</text>
<text text-anchor="start" x="83.9204" y="282.2" font-family="Times,serif" font-size="14.00">quest_params</text>
<text text-anchor="start" x="83.9204" y="296.2" font-family="Times,serif" font-size="14.00">selected_workpackages</text>
</g>
<!-- RamController -->
<g id="node11" class="node"><title>RamController</title>
<path fill="none" stroke="black" d="M-254.262,379C-254.262,379 -155.738,379 -155.738,379 -149.738,379 -143.738,373 -143.738,367 -143.738,367 -143.738,273 -143.738,273 -143.738,267 -149.738,261 -155.738,261 -155.738,261 -254.262,261 -254.262,261 -260.262,261 -266.262,267 -266.262,273 -266.262,273 -266.262,367 -266.262,367 -266.262,373 -260.262,379 -254.262,379"/>
<text text-anchor="middle" x="-205" y="276.2" font-family="Times,serif" font-size="14.00">RamController</text>
<polyline fill="none" stroke="black" points="-266.262,283 -143.738,283 "/>
<text text-anchor="start" x="-258.262" y="298.2" font-family="Times,serif" font-size="14.00">index</text>
<polyline fill="none" stroke="black" points="-266.262,305 -143.738,305 "/>
<polyline fill="none" stroke="black" points="-266.262,329 -143.738,329 "/>
<text text-anchor="start" x="-258.262" y="344.2" font-family="Times,serif" font-size="14.00">_layout</text>
<text text-anchor="start" x="-258.262" y="358.2" font-family="Times,serif" font-size="14.00">components_select</text>
<text text-anchor="start" x="-258.262" y="372.2" font-family="Times,serif" font-size="14.00">roles_select</text>
</g>
<!-- RbsController -->
<g id="node12" class="node"><title>RbsController</title>
<path fill="none" stroke="black" d="M-272.521,227C-272.521,227 -123.479,227 -123.479,227 -117.479,227 -111.479,221 -111.479,215 -111.479,215 -111.479,51 -111.479,51 -111.479,45 -117.479,39 -123.479,39 -123.479,39 -272.521,39 -272.521,39 -278.521,39 -284.521,45 -284.521,51 -284.521,51 -284.521,215 -284.521,215 -284.521,221 -278.521,227 -272.521,227"/>
<text text-anchor="middle" x="-198" y="54.2" font-family="Times,serif" font-size="14.00">RbsController</text>
<polyline fill="none" stroke="black" points="-284.521,61 -111.479,61 "/>
<text text-anchor="start" x="-276.521" y="76.2" font-family="Times,serif" font-size="14.00">create</text>
<text text-anchor="start" x="-276.521" y="90.2" font-family="Times,serif" font-size="14.00">destroy</text>
<text text-anchor="start" x="-276.521" y="104.2" font-family="Times,serif" font-size="14.00">index</text>
<text text-anchor="start" x="-276.521" y="118.2" font-family="Times,serif" font-size="14.00">new</text>
<text text-anchor="start" x="-276.521" y="132.2" font-family="Times,serif" font-size="14.00">show</text>
<polyline fill="none" stroke="black" points="-284.521,139 -111.479,139 "/>
<polyline fill="none" stroke="black" points="-284.521,163 -111.479,163 "/>
<text text-anchor="start" x="-276.521" y="178.2" font-family="Times,serif" font-size="14.00">_layout</text>
<text text-anchor="start" x="-276.521" y="192.2" font-family="Times,serif" font-size="14.00">find_kind</text>
<text text-anchor="start" x="-276.521" y="206.2" font-family="Times,serif" font-size="14.00">kind_params</text>
<text text-anchor="start" x="-276.521" y="220.2" font-family="Times,serif" font-size="14.00">ressource_breakdown_chart</text>
</g>
<!-- RequirmentController -->
<g id="node13" class="node"><title>RequirmentController</title>
<path fill="none" stroke="black" d="M278.179,284C278.179,284 393.821,284 393.821,284 399.821,284 405.821,278 405.821,272 405.821,272 405.821,122 405.821,122 405.821,116 399.821,110 393.821,110 393.821,110 278.179,110 278.179,110 272.179,110 266.179,116 266.179,122 266.179,122 266.179,272 266.179,272 266.179,278 272.179,284 278.179,284"/>
<text text-anchor="middle" x="336" y="125.2" font-family="Times,serif" font-size="14.00">RequirmentController</text>
<polyline fill="none" stroke="black" points="266.179,132 405.821,132 "/>
<text text-anchor="start" x="274.179" y="147.2" font-family="Times,serif" font-size="14.00">create</text>
<text text-anchor="start" x="274.179" y="161.2" font-family="Times,serif" font-size="14.00">destroy</text>
<text text-anchor="start" x="274.179" y="175.2" font-family="Times,serif" font-size="14.00">index</text>
<text text-anchor="start" x="274.179" y="189.2" font-family="Times,serif" font-size="14.00">new</text>
<text text-anchor="start" x="274.179" y="203.2" font-family="Times,serif" font-size="14.00">show</text>
<polyline fill="none" stroke="black" points="266.179,210 405.821,210 "/>
<polyline fill="none" stroke="black" points="266.179,234 405.821,234 "/>
<text text-anchor="start" x="274.179" y="249.2" font-family="Times,serif" font-size="14.00">_layout</text>
<text text-anchor="start" x="274.179" y="263.2" font-family="Times,serif" font-size="14.00">find_req</text>
<text text-anchor="start" x="274.179" y="277.2" font-family="Times,serif" font-size="14.00">req_params</text>
</g>
<!-- ResponseController -->
<g id="node14" class="node"><title>ResponseController</title>
<path fill="none" stroke="black" d="M316.396,75C316.396,75 419.604,75 419.604,75 425.604,75 431.604,69 431.604,63 431.604,63 431.604,-115 431.604,-115 431.604,-121 425.604,-127 419.604,-127 419.604,-127 316.396,-127 316.396,-127 310.396,-127 304.396,-121 304.396,-115 304.396,-115 304.396,63 304.396,63 304.396,69 310.396,75 316.396,75"/>
<text text-anchor="middle" x="368" y="-111.8" font-family="Times,serif" font-size="14.00">ResponseController</text>
<polyline fill="none" stroke="black" points="304.396,-105 431.604,-105 "/>
<text text-anchor="start" x="312.396" y="-89.8" font-family="Times,serif" font-size="14.00">check_response</text>
<text text-anchor="start" x="312.396" y="-75.8" font-family="Times,serif" font-size="14.00">create</text>
<text text-anchor="start" x="312.396" y="-61.8" font-family="Times,serif" font-size="14.00">destroy</text>
<text text-anchor="start" x="312.396" y="-47.8" font-family="Times,serif" font-size="14.00">index</text>
<text text-anchor="start" x="312.396" y="-33.8" font-family="Times,serif" font-size="14.00">new</text>
<text text-anchor="start" x="312.396" y="-19.8" font-family="Times,serif" font-size="14.00">show</text>
<polyline fill="none" stroke="black" points="304.396,-13 431.604,-13 "/>
<polyline fill="none" stroke="black" points="304.396,11 431.604,11 "/>
<text text-anchor="start" x="312.396" y="26.2" font-family="Times,serif" font-size="14.00">_layout</text>
<text text-anchor="start" x="312.396" y="40.2" font-family="Times,serif" font-size="14.00">calculate_average</text>
<text text-anchor="start" x="312.396" y="54.2" font-family="Times,serif" font-size="14.00">find_response</text>
<text text-anchor="start" x="312.396" y="68.2" font-family="Times,serif" font-size="14.00">resp_params</text>
</g>
<!-- RoleController -->
<g id="node15" class="node"><title>RoleController</title>
<path fill="none" stroke="black" d="M-386.993,-400C-386.993,-400 -311.007,-400 -311.007,-400 -305.007,-400 -299.007,-406 -299.007,-412 -299.007,-412 -299.007,-562 -299.007,-562 -299.007,-568 -305.007,-574 -311.007,-574 -311.007,-574 -386.993,-574 -386.993,-574 -392.993,-574 -398.993,-568 -398.993,-562 -398.993,-562 -398.993,-412 -398.993,-412 -398.993,-406 -392.993,-400 -386.993,-400"/>
<text text-anchor="middle" x="-349" y="-558.8" font-family="Times,serif" font-size="14.00">RoleController</text>
<polyline fill="none" stroke="black" points="-398.993,-552 -299.007,-552 "/>
<text text-anchor="start" x="-390.993" y="-536.8" font-family="Times,serif" font-size="14.00">create</text>
<text text-anchor="start" x="-390.993" y="-522.8" font-family="Times,serif" font-size="14.00">destroy</text>
<text text-anchor="start" x="-390.993" y="-508.8" font-family="Times,serif" font-size="14.00">index</text>
<text text-anchor="start" x="-390.993" y="-494.8" font-family="Times,serif" font-size="14.00">new</text>
<text text-anchor="start" x="-390.993" y="-480.8" font-family="Times,serif" font-size="14.00">show</text>
<polyline fill="none" stroke="black" points="-398.993,-474 -299.007,-474 "/>
<polyline fill="none" stroke="black" points="-398.993,-450 -299.007,-450 "/>
<text text-anchor="start" x="-390.993" y="-434.8" font-family="Times,serif" font-size="14.00">_layout</text>
<text text-anchor="start" x="-390.993" y="-420.8" font-family="Times,serif" font-size="14.00">find_role</text>
<text text-anchor="start" x="-390.993" y="-406.8" font-family="Times,serif" font-size="14.00">role_params</text>
</g>
<!-- SubproductsController -->
<g id="node16" class="node"><title>SubproductsController</title>
<path fill="none" stroke="black" d="M316.228,-172C316.228,-172 435.772,-172 435.772,-172 441.772,-172 447.772,-178 447.772,-184 447.772,-184 447.772,-334 447.772,-334 447.772,-340 441.772,-346 435.772,-346 435.772,-346 316.228,-346 316.228,-346 310.228,-346 304.228,-340 304.228,-334 304.228,-334 304.228,-184 304.228,-184 304.228,-178 310.228,-172 316.228,-172"/>
<text text-anchor="middle" x="376" y="-330.8" font-family="Times,serif" font-size="14.00">SubproductsController</text>
<polyline fill="none" stroke="black" points="304.228,-324 447.772,-324 "/>
<text text-anchor="start" x="312.228" y="-308.8" font-family="Times,serif" font-size="14.00">create</text>
<text text-anchor="start" x="312.228" y="-294.8" font-family="Times,serif" font-size="14.00">destroy</text>
<text text-anchor="start" x="312.228" y="-280.8" font-family="Times,serif" font-size="14.00">index</text>
<text text-anchor="start" x="312.228" y="-266.8" font-family="Times,serif" font-size="14.00">new</text>
<text text-anchor="start" x="312.228" y="-252.8" font-family="Times,serif" font-size="14.00">show</text>
<polyline fill="none" stroke="black" points="304.228,-246 447.772,-246 "/>
<polyline fill="none" stroke="black" points="304.228,-222 447.772,-222 "/>
<text text-anchor="start" x="312.228" y="-206.8" font-family="Times,serif" font-size="14.00">_layout</text>
<text text-anchor="start" x="312.228" y="-192.8" font-family="Times,serif" font-size="14.00">find_product</text>
<text text-anchor="start" x="312.228" y="-178.8" font-family="Times,serif" font-size="14.00">product_params</text>
</g>
<!-- SubtaskController -->
<g id="node17" class="node"><title>SubtaskController</title>
<path fill="none" stroke="black" d="M-63.9414,360C-63.9414,360 29.9414,360 29.9414,360 35.9414,360 41.9414,354 41.9414,348 41.9414,348 41.9414,198 41.9414,198 41.9414,192 35.9414,186 29.9414,186 29.9414,186 -63.9414,186 -63.9414,186 -69.9414,186 -75.9414,192 -75.9414,198 -75.9414,198 -75.9414,348 -75.9414,348 -75.9414,354 -69.9414,360 -63.9414,360"/>
<text text-anchor="middle" x="-17" y="201.2" font-family="Times,serif" font-size="14.00">SubtaskController</text>
<polyline fill="none" stroke="black" points="-75.9414,208 41.9414,208 "/>
<text text-anchor="start" x="-67.9414" y="223.2" font-family="Times,serif" font-size="14.00">create</text>
<text text-anchor="start" x="-67.9414" y="237.2" font-family="Times,serif" font-size="14.00">destroy</text>
<text text-anchor="start" x="-67.9414" y="251.2" font-family="Times,serif" font-size="14.00">index</text>
<text text-anchor="start" x="-67.9414" y="265.2" font-family="Times,serif" font-size="14.00">new</text>
<text text-anchor="start" x="-67.9414" y="279.2" font-family="Times,serif" font-size="14.00">show</text>
<polyline fill="none" stroke="black" points="-75.9414,286 41.9414,286 "/>
<polyline fill="none" stroke="black" points="-75.9414,310 41.9414,310 "/>
<text text-anchor="start" x="-67.9414" y="325.2" font-family="Times,serif" font-size="14.00">_layout</text>
<text text-anchor="start" x="-67.9414" y="339.2" font-family="Times,serif" font-size="14.00">find_subtask</text>
<text text-anchor="start" x="-67.9414" y="353.2" font-family="Times,serif" font-size="14.00">sub_params</text>
</g>
<!-- WbsController -->
<g id="node18" class="node"><title>WbsController</title>
<path fill="none" stroke="black" d="M125.524,-362C125.524,-362 250.476,-362 250.476,-362 256.476,-362 262.476,-368 262.476,-374 262.476,-374 262.476,-538 262.476,-538 262.476,-544 256.476,-550 250.476,-550 250.476,-550 125.524,-550 125.524,-550 119.524,-550 113.524,-544 113.524,-538 113.524,-538 113.524,-374 113.524,-374 113.524,-368 119.524,-362 125.524,-362"/>
<text text-anchor="middle" x="188" y="-534.8" font-family="Times,serif" font-size="14.00">WbsController</text>
<polyline fill="none" stroke="black" points="113.524,-528 262.476,-528 "/>
<text text-anchor="start" x="121.524" y="-512.8" font-family="Times,serif" font-size="14.00">create</text>
<text text-anchor="start" x="121.524" y="-498.8" font-family="Times,serif" font-size="14.00">destroy</text>
<text text-anchor="start" x="121.524" y="-484.8" font-family="Times,serif" font-size="14.00">index</text>
<text text-anchor="start" x="121.524" y="-470.8" font-family="Times,serif" font-size="14.00">new</text>
<text text-anchor="start" x="121.524" y="-456.8" font-family="Times,serif" font-size="14.00">show</text>
<polyline fill="none" stroke="black" points="113.524,-450 262.476,-450 "/>
<polyline fill="none" stroke="black" points="113.524,-426 262.476,-426 "/>
<text text-anchor="start" x="121.524" y="-410.8" font-family="Times,serif" font-size="14.00">_layout</text>
<text text-anchor="start" x="121.524" y="-396.8" font-family="Times,serif" font-size="14.00">find_kind</text>
<text text-anchor="start" x="121.524" y="-382.8" font-family="Times,serif" font-size="14.00">task_params</text>
<text text-anchor="start" x="121.524" y="-368.8" font-family="Times,serif" font-size="14.00">work_breakdown_chart</text>
</g>
<!-- WorkpackageController -->
<g id="node19" class="node"><title>WorkpackageController</title>
<path fill="none" stroke="black" d="M-254.081,-267C-254.081,-267 -127.919,-267 -127.919,-267 -121.919,-267 -115.919,-273 -115.919,-279 -115.919,-279 -115.919,-443 -115.919,-443 -115.919,-449 -121.919,-455 -127.919,-455 -127.919,-455 -254.081,-455 -254.081,-455 -260.081,-455 -266.081,-449 -266.081,-443 -266.081,-443 -266.081,-279 -266.081,-279 -266.081,-273 -260.081,-267 -254.081,-267"/>
<text text-anchor="middle" x="-191" y="-439.8" font-family="Times,serif" font-size="14.00">WorkpackageController</text>
<polyline fill="none" stroke="black" points="-266.081,-433 -115.919,-433 "/>
<text text-anchor="start" x="-258.081" y="-417.8" font-family="Times,serif" font-size="14.00">create</text>
<text text-anchor="start" x="-258.081" y="-403.8" font-family="Times,serif" font-size="14.00">destroy</text>
<text text-anchor="start" x="-258.081" y="-389.8" font-family="Times,serif" font-size="14.00">index</text>
<text text-anchor="start" x="-258.081" y="-375.8" font-family="Times,serif" font-size="14.00">new</text>
<text text-anchor="start" x="-258.081" y="-361.8" font-family="Times,serif" font-size="14.00">show</text>
<polyline fill="none" stroke="black" points="-266.081,-355 -115.919,-355 "/>
<polyline fill="none" stroke="black" points="-266.081,-331 -115.919,-331 "/>
<text text-anchor="start" x="-258.081" y="-315.8" font-family="Times,serif" font-size="14.00">_layout</text>
<text text-anchor="start" x="-258.081" y="-301.8" font-family="Times,serif" font-size="14.00">find_workpackage</text>
<text text-anchor="start" x="-258.081" y="-287.8" font-family="Times,serif" font-size="14.00">successor</text>
<text text-anchor="start" x="-258.081" y="-273.8" font-family="Times,serif" font-size="14.00">work_params</text>
</g>
</g>
</svg>
