<?xml version="1.0" encoding="UTF-8" standalone="no"?>
<!DOCTYPE svg PUBLIC "-//W3C//DTD SVG 1.1//EN"
 "http://www.w3.org/Graphics/SVG/1.1/DTD/svg11.dtd">
<!-- Generated by graphviz version 2.38.0 (20140413.2041)
 -->
<!-- Title: controllers_diagram Pages: 1 -->
<svg width="900pt" height="1047pt"
 viewBox="0.00 0.00 900.49 1047.00" xmlns="http://www.w3.org/2000/svg" xmlns:xlink="http://www.w3.org/1999/xlink">
<g id="graph0" class="graph" transform="scale(1 1) rotate(0) translate(418.166 575.5)">
<title>controllers_diagram</title>
<polygon fill="none" stroke="none" points="-418.166,471.5 -418.166,-575.5 482.324,-575.5 482.324,471.5 -418.166,471.5"/>
<!-- _diagram_info -->
<g id="node1" class="node"><title>_diagram_info</title>
<text text-anchor="start" x="-334.45" y="-221.1" font-family="Times,serif" font-size="13.00">Controllers diagram</text>
<text text-anchor="start" x="-334.45" y="-208.1" font-family="Times,serif" font-size="13.00">Date: Jan 18 2016 &#45; 17:15</text>
<text text-anchor="start" x="-334.45" y="-195.1" font-family="Times,serif" font-size="13.00">Migration version: 20160110133745</text>
<text text-anchor="start" x="-334.45" y="-182.1" font-family="Times,serif" font-size="13.00">Generated by RailRoady 1.4.2</text>
<text text-anchor="start" x="-334.45" y="-169.1" font-family="Times,serif" font-size="13.00">http://railroady.prestonlee.com</text>
</g>
<!-- AllocationitemsController -->
<g id="node2" class="node"><title>AllocationitemsController</title>
<path fill="none" stroke="black" d="M-294.486,305C-294.486,305 -155.514,305 -155.514,305 -149.514,305 -143.514,299 -143.514,293 -143.514,293 -143.514,143 -143.514,143 -143.514,137 -149.514,131 -155.514,131 -155.514,131 -294.486,131 -294.486,131 -300.486,131 -306.486,137 -306.486,143 -306.486,143 -306.486,293 -306.486,293 -306.486,299 -300.486,305 -294.486,305"/>
<text text-anchor="middle" x="-225" y="146.2" font-family="Times,serif" font-size="14.00">AllocationitemsController</text>
<polyline fill="none" stroke="black" points="-306.486,153 -143.514,153 "/>
<text text-anchor="start" x="-298.486" y="168.2" font-family="Times,serif" font-size="14.00">create</text>
<text text-anchor="start" x="-298.486" y="182.2" font-family="Times,serif" font-size="14.00">destroy</text>
<text text-anchor="start" x="-298.486" y="196.2" font-family="Times,serif" font-size="14.00">index</text>
<text text-anchor="start" x="-298.486" y="210.2" font-family="Times,serif" font-size="14.00">new</text>
<text text-anchor="start" x="-298.486" y="224.2" font-family="Times,serif" font-size="14.00">show</text>
<polyline fill="none" stroke="black" points="-306.486,231 -143.514,231 "/>
<polyline fill="none" stroke="black" points="-306.486,255 -143.514,255 "/>
<text text-anchor="start" x="-298.486" y="270.2" font-family="Times,serif" font-size="14.00">_layout</text>
<text text-anchor="start" x="-298.486" y="284.2" font-family="Times,serif" font-size="14.00">allocation_params</text>
<text text-anchor="start" x="-298.486" y="298.2" font-family="Times,serif" font-size="14.00">find_allocationitem</text>
</g>
<!-- ApplicationController -->
<g id="node3" class="node"><title>ApplicationController</title>
<path fill="none" stroke="black" d="M-95.9658,-127C-95.9658,-127 77.9658,-127 77.9658,-127 83.9658,-127 89.9658,-133 89.9658,-139 89.9658,-139 89.9658,-273 89.9658,-273 89.9658,-279 83.9658,-285 77.9658,-285 77.9658,-285 -95.9658,-285 -95.9658,-285 -101.966,-285 -107.966,-279 -107.966,-273 -107.966,-273 -107.966,-139 -107.966,-139 -107.966,-133 -101.966,-127 -95.9658,-127"/>
<text text-anchor="middle" x="-9" y="-269.8" font-family="Times,serif" font-size="14.00">ApplicationController</text>
<polyline fill="none" stroke="black" points="-107.966,-263 89.9658,-263 "/>
<text text-anchor="start" x="-99.9658" y="-247.8" font-family="Times,serif" font-size="14.00">danger</text>
<text text-anchor="start" x="-99.9658" y="-233.8" font-family="Times,serif" font-size="14.00">find_projects</text>
<text text-anchor="start" x="-99.9658" y="-219.8" font-family="Times,serif" font-size="14.00">info</text>
<text text-anchor="start" x="-99.9658" y="-205.8" font-family="Times,serif" font-size="14.00">quest_count</text>
<text text-anchor="start" x="-99.9658" y="-191.8" font-family="Times,serif" font-size="14.00">success</text>
<text text-anchor="start" x="-99.9658" y="-177.8" font-family="Times,serif" font-size="14.00">warning</text>
<polyline fill="none" stroke="black" points="-107.966,-171 89.9658,-171 "/>
<text text-anchor="start" x="-99.9658" y="-155.8" font-family="Times,serif" font-size="14.00">configure_permitted_parameters</text>
<polyline fill="none" stroke="black" points="-107.966,-149 89.9658,-149 "/>
<text text-anchor="start" x="-99.9658" y="-133.8" font-family="Times,serif" font-size="14.00">_layout</text>
</g>
<!-- ComponentsController -->
<g id="node4" class="node"><title>ComponentsController</title>
<path fill="none" stroke="black" d="M137.838,-343C137.838,-343 258.162,-343 258.162,-343 264.162,-343 270.162,-349 270.162,-355 270.162,-355 270.162,-491 270.162,-491 270.162,-497 264.162,-503 258.162,-503 258.162,-503 137.838,-503 137.838,-503 131.838,-503 125.838,-497 125.838,-491 125.838,-491 125.838,-355 125.838,-355 125.838,-349 131.838,-343 137.838,-343"/>
<text text-anchor="middle" x="198" y="-487.8" font-family="Times,serif" font-size="14.00">ComponentsController</text>
<polyline fill="none" stroke="black" points="125.838,-481 270.162,-481 "/>
<text text-anchor="start" x="133.838" y="-465.8" font-family="Times,serif" font-size="14.00">component_params</text>
<text text-anchor="start" x="133.838" y="-451.8" font-family="Times,serif" font-size="14.00">create</text>
<text text-anchor="start" x="133.838" y="-437.8" font-family="Times,serif" font-size="14.00">destroy</text>
<text text-anchor="start" x="133.838" y="-423.8" font-family="Times,serif" font-size="14.00">find_component</text>
<text text-anchor="start" x="133.838" y="-409.8" font-family="Times,serif" font-size="14.00">new</text>
<text text-anchor="start" x="133.838" y="-395.8" font-family="Times,serif" font-size="14.00">show</text>
<polyline fill="none" stroke="black" points="125.838,-389 270.162,-389 "/>
<polyline fill="none" stroke="black" points="125.838,-365 270.162,-365 "/>
<text text-anchor="start" x="133.838" y="-349.8" font-family="Times,serif" font-size="14.00">_layout</text>
</g>
<!-- DelphiController -->
<g id="node5" class="node"><title>DelphiController</title>
<path fill="none" stroke="black" d="M-5.82422,-325C-5.82422,-325 81.8242,-325 81.8242,-325 87.8242,-325 93.8242,-331 93.8242,-337 93.8242,-337 93.8242,-487 93.8242,-487 93.8242,-493 87.8242,-499 81.8242,-499 81.8242,-499 -5.82422,-499 -5.82422,-499 -11.8242,-499 -17.8242,-493 -17.8242,-487 -17.8242,-487 -17.8242,-337 -17.8242,-337 -17.8242,-331 -11.8242,-325 -5.82422,-325"/>
<text text-anchor="middle" x="38" y="-483.8" font-family="Times,serif" font-size="14.00">DelphiController</text>
<polyline fill="none" stroke="black" points="-17.8242,-477 93.8242,-477 "/>
<text text-anchor="start" x="-9.82422" y="-461.8" font-family="Times,serif" font-size="14.00">create</text>
<text text-anchor="start" x="-9.82422" y="-447.8" font-family="Times,serif" font-size="14.00">destroy</text>
<text text-anchor="start" x="-9.82422" y="-433.8" font-family="Times,serif" font-size="14.00">index</text>
<text text-anchor="start" x="-9.82422" y="-419.8" font-family="Times,serif" font-size="14.00">new</text>
<text text-anchor="start" x="-9.82422" y="-405.8" font-family="Times,serif" font-size="14.00">show</text>
<polyline fill="none" stroke="black" points="-17.8242,-399 93.8242,-399 "/>
<polyline fill="none" stroke="black" points="-17.8242,-375 93.8242,-375 "/>
<text text-anchor="start" x="-9.82422" y="-359.8" font-family="Times,serif" font-size="14.00">_layout</text>
<text text-anchor="start" x="-9.82422" y="-345.8" font-family="Times,serif" font-size="14.00">find_quest</text>
<text text-anchor="start" x="-9.82422" y="-331.8" font-family="Times,serif" font-size="14.00">quest_params</text>
</g>
<!-- ModulsController -->
<g id="node6" class="node"><title>ModulsController</title>
<path fill="none" stroke="black" d="M-402.166,35C-402.166,35 -309.834,35 -309.834,35 -303.834,35 -297.834,29 -297.834,23 -297.834,23 -297.834,-113 -297.834,-113 -297.834,-119 -303.834,-125 -309.834,-125 -309.834,-125 -402.166,-125 -402.166,-125 -408.166,-125 -414.166,-119 -414.166,-113 -414.166,-113 -414.166,23 -414.166,23 -414.166,29 -408.166,35 -402.166,35"/>
<text text-anchor="middle" x="-356" y="-109.8" font-family="Times,serif" font-size="14.00">ModulsController</text>
<polyline fill="none" stroke="black" points="-414.166,-103 -297.834,-103 "/>
<text text-anchor="start" x="-406.166" y="-87.8" font-family="Times,serif" font-size="14.00">create</text>
<text text-anchor="start" x="-406.166" y="-73.8" font-family="Times,serif" font-size="14.00">destroy</text>
<text text-anchor="start" x="-406.166" y="-59.8" font-family="Times,serif" font-size="14.00">find_modul</text>
<text text-anchor="start" x="-406.166" y="-45.8" font-family="Times,serif" font-size="14.00">modul_params</text>
<text text-anchor="start" x="-406.166" y="-31.8" font-family="Times,serif" font-size="14.00">new</text>
<text text-anchor="start" x="-406.166" y="-17.8" font-family="Times,serif" font-size="14.00">show</text>
<polyline fill="none" stroke="black" points="-414.166,-11 -297.834,-11 "/>
<polyline fill="none" stroke="black" points="-414.166,13 -297.834,13 "/>
<text text-anchor="start" x="-406.166" y="28.2" font-family="Times,serif" font-size="14.00">_layout</text>
</g>
<!-- PbsController -->
<g id="node7" class="node"><title>PbsController</title>
<path fill="none" stroke="black" d="M101.527,305C101.527,305 240.473,305 240.473,305 246.473,305 252.473,299 252.473,293 252.473,293 252.473,143 252.473,143 252.473,137 246.473,131 240.473,131 240.473,131 101.527,131 101.527,131 95.5273,131 89.5273,137 89.5273,143 89.5273,143 89.5273,293 89.5273,293 89.5273,299 95.5273,305 101.527,305"/>
<text text-anchor="middle" x="171" y="146.2" font-family="Times,serif" font-size="14.00">PbsController</text>
<polyline fill="none" stroke="black" points="89.5273,153 252.473,153 "/>
<text text-anchor="start" x="97.5273" y="168.2" font-family="Times,serif" font-size="14.00">destroy</text>
<text text-anchor="start" x="97.5273" y="182.2" font-family="Times,serif" font-size="14.00">index</text>
<text text-anchor="start" x="97.5273" y="196.2" font-family="Times,serif" font-size="14.00">new</text>
<text text-anchor="start" x="97.5273" y="210.2" font-family="Times,serif" font-size="14.00">show</text>
<polyline fill="none" stroke="black" points="89.5273,217 252.473,217 "/>
<polyline fill="none" stroke="black" points="89.5273,241 252.473,241 "/>
<text text-anchor="start" x="97.5273" y="256.2" font-family="Times,serif" font-size="14.00">_layout</text>
<text text-anchor="start" x="97.5273" y="270.2" font-family="Times,serif" font-size="14.00">find_project</text>
<text text-anchor="start" x="97.5273" y="284.2" font-family="Times,serif" font-size="14.00">product_breakdown_chart</text>
<text text-anchor="start" x="97.5273" y="298.2" font-family="Times,serif" font-size="14.00">project_params</text>
</g>
<!-- ProjectsController -->
<g id="node8" class="node"><title>ProjectsController</title>
<path fill="none" stroke="black" d="M371.676,-361C371.676,-361 466.324,-361 466.324,-361 472.324,-361 478.324,-367 478.324,-373 478.324,-373 478.324,-523 478.324,-523 478.324,-529 472.324,-535 466.324,-535 466.324,-535 371.676,-535 371.676,-535 365.676,-535 359.676,-529 359.676,-523 359.676,-523 359.676,-373 359.676,-373 359.676,-367 365.676,-361 371.676,-361"/>
<text text-anchor="middle" x="419" y="-519.8" font-family="Times,serif" font-size="14.00">ProjectsController</text>
<polyline fill="none" stroke="black" points="359.676,-513 478.324,-513 "/>
<text text-anchor="start" x="367.676" y="-497.8" font-family="Times,serif" font-size="14.00">create</text>
<text text-anchor="start" x="367.676" y="-483.8" font-family="Times,serif" font-size="14.00">destroy</text>
<text text-anchor="start" x="367.676" y="-469.8" font-family="Times,serif" font-size="14.00">index</text>
<text text-anchor="start" x="367.676" y="-455.8" font-family="Times,serif" font-size="14.00">new</text>
<text text-anchor="start" x="367.676" y="-441.8" font-family="Times,serif" font-size="14.00">show</text>
<polyline fill="none" stroke="black" points="359.676,-435 478.324,-435 "/>
<polyline fill="none" stroke="black" points="359.676,-411 478.324,-411 "/>
<text text-anchor="start" x="367.676" y="-395.8" font-family="Times,serif" font-size="14.00">_layout</text>
<text text-anchor="start" x="367.676" y="-381.8" font-family="Times,serif" font-size="14.00">find_project</text>
<text text-anchor="start" x="367.676" y="-367.8" font-family="Times,serif" font-size="14.00">project_params</text>
</g>
<!-- QuestionController -->
<g id="node9" class="node"><title>QuestionController</title>
<path fill="none" stroke="black" d="M-258.08,89C-258.08,89 -133.92,89 -133.92,89 -127.92,89 -121.92,83 -121.92,77 -121.92,77 -121.92,-87 -121.92,-87 -121.92,-93 -127.92,-99 -133.92,-99 -133.92,-99 -258.08,-99 -258.08,-99 -264.08,-99 -270.08,-93 -270.08,-87 -270.08,-87 -270.08,77 -270.08,77 -270.08,83 -264.08,89 -258.08,89"/>
<text text-anchor="middle" x="-196" y="-83.8" font-family="Times,serif" font-size="14.00">QuestionController</text>
<polyline fill="none" stroke="black" points="-270.08,-77 -121.92,-77 "/>
<text text-anchor="start" x="-262.08" y="-61.8" font-family="Times,serif" font-size="14.00">create</text>
<text text-anchor="start" x="-262.08" y="-47.8" font-family="Times,serif" font-size="14.00">destroy</text>
<text text-anchor="start" x="-262.08" y="-33.8" font-family="Times,serif" font-size="14.00">index</text>
<text text-anchor="start" x="-262.08" y="-19.8" font-family="Times,serif" font-size="14.00">new</text>
<text text-anchor="start" x="-262.08" y="-5.8" font-family="Times,serif" font-size="14.00">show</text>
<polyline fill="none" stroke="black" points="-270.08,1 -121.92,1 "/>
<polyline fill="none" stroke="black" points="-270.08,25 -121.92,25 "/>
<text text-anchor="start" x="-262.08" y="40.2" font-family="Times,serif" font-size="14.00">_layout</text>
<text text-anchor="start" x="-262.08" y="54.2" font-family="Times,serif" font-size="14.00">find_quest</text>
<text text-anchor="start" x="-262.08" y="68.2" font-family="Times,serif" font-size="14.00">quest_params</text>
<text text-anchor="start" x="-262.08" y="82.2" font-family="Times,serif" font-size="14.00">selected_workpackages</text>
</g>
<!-- RamController -->
<g id="node10" class="node"><title>RamController</title>
<path fill="none" stroke="black" d="M47.7378,467C47.7378,467 146.262,467 146.262,467 152.262,467 158.262,461 158.262,455 158.262,455 158.262,361 158.262,361 158.262,355 152.262,349 146.262,349 146.262,349 47.7378,349 47.7378,349 41.7378,349 35.7378,355 35.7378,361 35.7378,361 35.7378,455 35.7378,455 35.7378,461 41.7378,467 47.7378,467"/>
<text text-anchor="middle" x="97" y="364.2" font-family="Times,serif" font-size="14.00">RamController</text>
<polyline fill="none" stroke="black" points="35.7378,371 158.262,371 "/>
<text text-anchor="start" x="43.7378" y="386.2" font-family="Times,serif" font-size="14.00">index</text>
<polyline fill="none" stroke="black" points="35.7378,393 158.262,393 "/>
<polyline fill="none" stroke="black" points="35.7378,417 158.262,417 "/>
<text text-anchor="start" x="43.7378" y="432.2" font-family="Times,serif" font-size="14.00">_layout</text>
<text text-anchor="start" x="43.7378" y="446.2" font-family="Times,serif" font-size="14.00">components_select</text>
<text text-anchor="start" x="43.7378" y="460.2" font-family="Times,serif" font-size="14.00">roles_select</text>
</g>
<!-- RbsController -->
<g id="node11" class="node"><title>RbsController</title>
<path fill="none" stroke="black" d="M102.479,89C102.479,89 251.521,89 251.521,89 257.521,89 263.521,83 263.521,77 263.521,77 263.521,-87 263.521,-87 263.521,-93 257.521,-99 251.521,-99 251.521,-99 102.479,-99 102.479,-99 96.479,-99 90.479,-93 90.479,-87 90.479,-87 90.479,77 90.479,77 90.479,83 96.479,89 102.479,89"/>
<text text-anchor="middle" x="177" y="-83.8" font-family="Times,serif" font-size="14.00">RbsController</text>
<polyline fill="none" stroke="black" points="90.479,-77 263.521,-77 "/>
<text text-anchor="start" x="98.479" y="-61.8" font-family="Times,serif" font-size="14.00">create</text>
<text text-anchor="start" x="98.479" y="-47.8" font-family="Times,serif" font-size="14.00">destroy</text>
<text text-anchor="start" x="98.479" y="-33.8" font-family="Times,serif" font-size="14.00">index</text>
<text text-anchor="start" x="98.479" y="-19.8" font-family="Times,serif" font-size="14.00">new</text>
<text text-anchor="start" x="98.479" y="-5.8" font-family="Times,serif" font-size="14.00">show</text>
<polyline fill="none" stroke="black" points="90.479,1 263.521,1 "/>
<polyline fill="none" stroke="black" points="90.479,25 263.521,25 "/>
<text text-anchor="start" x="98.479" y="40.2" font-family="Times,serif" font-size="14.00">_layout</text>
<text text-anchor="start" x="98.479" y="54.2" font-family="Times,serif" font-size="14.00">find_kind</text>
<text text-anchor="start" x="98.479" y="68.2" font-family="Times,serif" font-size="14.00">kind_params</text>
<text text-anchor="start" x="98.479" y="82.2" font-family="Times,serif" font-size="14.00">ressource_breakdown_chart</text>
</g>
<!-- RequirmentController -->
<g id="node12" class="node"><title>RequirmentController</title>
<path fill="none" stroke="black" d="M318.179,-145C318.179,-145 433.821,-145 433.821,-145 439.821,-145 445.821,-151 445.821,-157 445.821,-157 445.821,-307 445.821,-307 445.821,-313 439.821,-319 433.821,-319 433.821,-319 318.179,-319 318.179,-319 312.179,-319 306.179,-313 306.179,-307 306.179,-307 306.179,-157 306.179,-157 306.179,-151 312.179,-145 318.179,-145"/>
<text text-anchor="middle" x="376" y="-303.8" font-family="Times,serif" font-size="14.00">RequirmentController</text>
<polyline fill="none" stroke="black" points="306.179,-297 445.821,-297 "/>
<text text-anchor="start" x="314.179" y="-281.8" font-family="Times,serif" font-size="14.00">create</text>
<text text-anchor="start" x="314.179" y="-267.8" font-family="Times,serif" font-size="14.00">destroy</text>
<text text-anchor="start" x="314.179" y="-253.8" font-family="Times,serif" font-size="14.00">index</text>
<text text-anchor="start" x="314.179" y="-239.8" font-family="Times,serif" font-size="14.00">new</text>
<text text-anchor="start" x="314.179" y="-225.8" font-family="Times,serif" font-size="14.00">show</text>
<polyline fill="none" stroke="black" points="306.179,-219 445.821,-219 "/>
<polyline fill="none" stroke="black" points="306.179,-195 445.821,-195 "/>
<text text-anchor="start" x="314.179" y="-179.8" font-family="Times,serif" font-size="14.00">_layout</text>
<text text-anchor="start" x="314.179" y="-165.8" font-family="Times,serif" font-size="14.00">find_req</text>
<text text-anchor="start" x="314.179" y="-151.8" font-family="Times,serif" font-size="14.00">req_params</text>
</g>
<!-- ResponseController -->
<g id="node13" class="node"><title>ResponseController</title>
<path fill="none" stroke="black" d="M318.396,305C318.396,305 421.604,305 421.604,305 427.604,305 433.604,299 433.604,293 433.604,293 433.604,115 433.604,115 433.604,109 427.604,103 421.604,103 421.604,103 318.396,103 318.396,103 312.396,103 306.396,109 306.396,115 306.396,115 306.396,293 306.396,293 306.396,299 312.396,305 318.396,305"/>
<text text-anchor="middle" x="370" y="118.2" font-family="Times,serif" font-size="14.00">ResponseController</text>
<polyline fill="none" stroke="black" points="306.396,125 433.604,125 "/>
<text text-anchor="start" x="314.396" y="140.2" font-family="Times,serif" font-size="14.00">check_response</text>
<text text-anchor="start" x="314.396" y="154.2" font-family="Times,serif" font-size="14.00">create</text>
<text text-anchor="start" x="314.396" y="168.2" font-family="Times,serif" font-size="14.00">destroy</text>
<text text-anchor="start" x="314.396" y="182.2" font-family="Times,serif" font-size="14.00">index</text>
<text text-anchor="start" x="314.396" y="196.2" font-family="Times,serif" font-size="14.00">new</text>
<text text-anchor="start" x="314.396" y="210.2" font-family="Times,serif" font-size="14.00">show</text>
<polyline fill="none" stroke="black" points="306.396,217 433.604,217 "/>
<polyline fill="none" stroke="black" points="306.396,241 433.604,241 "/>
<text text-anchor="start" x="314.396" y="256.2" font-family="Times,serif" font-size="14.00">_layout</text>
<text text-anchor="start" x="314.396" y="270.2" font-family="Times,serif" font-size="14.00">calculate_average</text>
<text text-anchor="start" x="314.396" y="284.2" font-family="Times,serif" font-size="14.00">find_response</text>
<text text-anchor="start" x="314.396" y="298.2" font-family="Times,serif" font-size="14.00">resp_params</text>
</g>
<!-- RoadmapsController -->
<g id="node14" class="node"><title>RoadmapsController</title>
<path fill="none" stroke="black" d="M-258.324,-271C-258.324,-271 -149.676,-271 -149.676,-271 -143.676,-271 -137.676,-277 -137.676,-283 -137.676,-283 -137.676,-447 -137.676,-447 -137.676,-453 -143.676,-459 -149.676,-459 -149.676,-459 -258.324,-459 -258.324,-459 -264.324,-459 -270.324,-453 -270.324,-447 -270.324,-447 -270.324,-283 -270.324,-283 -270.324,-277 -264.324,-271 -258.324,-271"/>
<text text-anchor="middle" x="-204" y="-443.8" font-family="Times,serif" font-size="14.00">RoadmapsController</text>
<polyline fill="none" stroke="black" points="-270.324,-437 -137.676,-437 "/>
<text text-anchor="start" x="-262.324" y="-421.8" font-family="Times,serif" font-size="14.00">create</text>
<text text-anchor="start" x="-262.324" y="-407.8" font-family="Times,serif" font-size="14.00">find_project</text>
<text text-anchor="start" x="-262.324" y="-393.8" font-family="Times,serif" font-size="14.00">index</text>
<text text-anchor="start" x="-262.324" y="-379.8" font-family="Times,serif" font-size="14.00">new</text>
<text text-anchor="start" x="-262.324" y="-365.8" font-family="Times,serif" font-size="14.00">roadmap_chart</text>
<text text-anchor="start" x="-262.324" y="-351.8" font-family="Times,serif" font-size="14.00">roadmap_params</text>
<text text-anchor="start" x="-262.324" y="-337.8" font-family="Times,serif" font-size="14.00">show</text>
<text text-anchor="start" x="-262.324" y="-323.8" font-family="Times,serif" font-size="14.00">workpackages_array</text>
<polyline fill="none" stroke="black" points="-270.324,-317 -137.676,-317 "/>
<polyline fill="none" stroke="black" points="-270.324,-293 -137.676,-293 "/>
<text text-anchor="start" x="-262.324" y="-277.8" font-family="Times,serif" font-size="14.00">_layout</text>
</g>
<!-- RoleController -->
<g id="node15" class="node"><title>RoleController</title>
<path fill="none" stroke="black" d="M-383.993,-397C-383.993,-397 -308.007,-397 -308.007,-397 -302.007,-397 -296.007,-403 -296.007,-409 -296.007,-409 -296.007,-559 -296.007,-559 -296.007,-565 -302.007,-571 -308.007,-571 -308.007,-571 -383.993,-571 -383.993,-571 -389.993,-571 -395.993,-565 -395.993,-559 -395.993,-559 -395.993,-409 -395.993,-409 -395.993,-403 -389.993,-397 -383.993,-397"/>
<text text-anchor="middle" x="-346" y="-555.8" font-family="Times,serif" font-size="14.00">RoleController</text>
<polyline fill="none" stroke="black" points="-395.993,-549 -296.007,-549 "/>
<text text-anchor="start" x="-387.993" y="-533.8" font-family="Times,serif" font-size="14.00">create</text>
<text text-anchor="start" x="-387.993" y="-519.8" font-family="Times,serif" font-size="14.00">destroy</text>
<text text-anchor="start" x="-387.993" y="-505.8" font-family="Times,serif" font-size="14.00">index</text>
<text text-anchor="start" x="-387.993" y="-491.8" font-family="Times,serif" font-size="14.00">new</text>
<text text-anchor="start" x="-387.993" y="-477.8" font-family="Times,serif" font-size="14.00">show</text>
<polyline fill="none" stroke="black" points="-395.993,-471 -296.007,-471 "/>
<polyline fill="none" stroke="black" points="-395.993,-447 -296.007,-447 "/>
<text text-anchor="start" x="-387.993" y="-431.8" font-family="Times,serif" font-size="14.00">_layout</text>
<text text-anchor="start" x="-387.993" y="-417.8" font-family="Times,serif" font-size="14.00">find_role</text>
<text text-anchor="start" x="-387.993" y="-403.8" font-family="Times,serif" font-size="14.00">role_params</text>
</g>
<!-- SubproductsController -->
<g id="node16" class="node"><title>SubproductsController</title>
<path fill="none" stroke="black" d="M318.228,71C318.228,71 437.772,71 437.772,71 443.772,71 449.772,65 449.772,59 449.772,59 449.772,-91 449.772,-91 449.772,-97 443.772,-103 437.772,-103 437.772,-103 318.228,-103 318.228,-103 312.228,-103 306.228,-97 306.228,-91 306.228,-91 306.228,59 306.228,59 306.228,65 312.228,71 318.228,71"/>
<text text-anchor="middle" x="378" y="-87.8" font-family="Times,serif" font-size="14.00">SubproductsController</text>
<polyline fill="none" stroke="black" points="306.228,-81 449.772,-81 "/>
<text text-anchor="start" x="314.228" y="-65.8" font-family="Times,serif" font-size="14.00">create</text>
<text text-anchor="start" x="314.228" y="-51.8" font-family="Times,serif" font-size="14.00">destroy</text>
<text text-anchor="start" x="314.228" y="-37.8" font-family="Times,serif" font-size="14.00">index</text>
<text text-anchor="start" x="314.228" y="-23.8" font-family="Times,serif" font-size="14.00">new</text>
<text text-anchor="start" x="314.228" y="-9.8" font-family="Times,serif" font-size="14.00">show</text>
<polyline fill="none" stroke="black" points="306.228,-3 449.772,-3 "/>
<polyline fill="none" stroke="black" points="306.228,21 449.772,21 "/>
<text text-anchor="start" x="314.228" y="36.2" font-family="Times,serif" font-size="14.00">_layout</text>
<text text-anchor="start" x="314.228" y="50.2" font-family="Times,serif" font-size="14.00">find_product</text>
<text text-anchor="start" x="314.228" y="64.2" font-family="Times,serif" font-size="14.00">product_params</text>
</g>
<!-- SubtaskController -->
<g id="node17" class="node"><title>SubtaskController</title>
<path fill="none" stroke="black" d="M-95.9414,323C-95.9414,323 -2.05859,323 -2.05859,323 3.94141,323 9.94141,317 9.94141,311 9.94141,311 9.94141,161 9.94141,161 9.94141,155 3.94141,149 -2.05859,149 -2.05859,149 -95.9414,149 -95.9414,149 -101.941,149 -107.941,155 -107.941,161 -107.941,161 -107.941,311 -107.941,311 -107.941,317 -101.941,323 -95.9414,323"/>
<text text-anchor="middle" x="-49" y="164.2" font-family="Times,serif" font-size="14.00">SubtaskController</text>
<polyline fill="none" stroke="black" points="-107.941,171 9.94141,171 "/>
<text text-anchor="start" x="-99.9414" y="186.2" font-family="Times,serif" font-size="14.00">create</text>
<text text-anchor="start" x="-99.9414" y="200.2" font-family="Times,serif" font-size="14.00">destroy</text>
<text text-anchor="start" x="-99.9414" y="214.2" font-family="Times,serif" font-size="14.00">index</text>
<text text-anchor="start" x="-99.9414" y="228.2" font-family="Times,serif" font-size="14.00">new</text>
<text text-anchor="start" x="-99.9414" y="242.2" font-family="Times,serif" font-size="14.00">show</text>
<polyline fill="none" stroke="black" points="-107.941,249 9.94141,249 "/>
<polyline fill="none" stroke="black" points="-107.941,273 9.94141,273 "/>
<text text-anchor="start" x="-99.9414" y="288.2" font-family="Times,serif" font-size="14.00">_layout</text>
<text text-anchor="start" x="-99.9414" y="302.2" font-family="Times,serif" font-size="14.00">find_subtask</text>
<text text-anchor="start" x="-99.9414" y="316.2" font-family="Times,serif" font-size="14.00">sub_params</text>
</g>
<!-- WbsController -->
<g id="node18" class="node"><title>WbsController</title>
<path fill="none" stroke="black" d="M-78.4761,107C-78.4761,107 46.4761,107 46.4761,107 52.4761,107 58.4761,101 58.4761,95 58.4761,95 58.4761,-83 58.4761,-83 58.4761,-89 52.4761,-95 46.4761,-95 46.4761,-95 -78.4761,-95 -78.4761,-95 -84.4761,-95 -90.4761,-89 -90.4761,-83 -90.4761,-83 -90.4761,95 -90.4761,95 -90.4761,101 -84.4761,107 -78.4761,107"/>
<text text-anchor="middle" x="-16" y="-79.8" font-family="Times,serif" font-size="14.00">WbsController</text>
<polyline fill="none" stroke="black" points="-90.4761,-73 58.4761,-73 "/>
<text text-anchor="start" x="-82.4761" y="-57.8" font-family="Times,serif" font-size="14.00">create</text>
<text text-anchor="start" x="-82.4761" y="-43.8" font-family="Times,serif" font-size="14.00">create_wp_array</text>
<text text-anchor="start" x="-82.4761" y="-29.8" font-family="Times,serif" font-size="14.00">destroy</text>
<text text-anchor="start" x="-82.4761" y="-15.8" font-family="Times,serif" font-size="14.00">index</text>
<text text-anchor="start" x="-82.4761" y="-1.8" font-family="Times,serif" font-size="14.00">new</text>
<text text-anchor="start" x="-82.4761" y="12.2" font-family="Times,serif" font-size="14.00">show</text>
<polyline fill="none" stroke="black" points="-90.4761,19 58.4761,19 "/>
<polyline fill="none" stroke="black" points="-90.4761,43 58.4761,43 "/>
<text text-anchor="start" x="-82.4761" y="58.2" font-family="Times,serif" font-size="14.00">_layout</text>
<text text-anchor="start" x="-82.4761" y="72.2" font-family="Times,serif" font-size="14.00">find_task</text>
<text text-anchor="start" x="-82.4761" y="86.2" font-family="Times,serif" font-size="14.00">task_params</text>
<text text-anchor="start" x="-82.4761" y="100.2" font-family="Times,serif" font-size="14.00">work_breakdown_chart</text>
</g>
<!-- WorkpackageController -->
<g id="node19" class="node"><title>WorkpackageController</title>
<path fill="none" stroke="black" d="M137.919,-127C137.919,-127 264.081,-127 264.081,-127 270.081,-127 276.081,-133 276.081,-139 276.081,-139 276.081,-303 276.081,-303 276.081,-309 270.081,-315 264.081,-315 264.081,-315 137.919,-315 137.919,-315 131.919,-315 125.919,-309 125.919,-303 125.919,-303 125.919,-139 125.919,-139 125.919,-133 131.919,-127 137.919,-127"/>
<text text-anchor="middle" x="201" y="-299.8" font-family="Times,serif" font-size="14.00">WorkpackageController</text>
<polyline fill="none" stroke="black" points="125.919,-293 276.081,-293 "/>
<text text-anchor="start" x="133.919" y="-277.8" font-family="Times,serif" font-size="14.00">create</text>
<text text-anchor="start" x="133.919" y="-263.8" font-family="Times,serif" font-size="14.00">destroy</text>
<text text-anchor="start" x="133.919" y="-249.8" font-family="Times,serif" font-size="14.00">index</text>
<text text-anchor="start" x="133.919" y="-235.8" font-family="Times,serif" font-size="14.00">new</text>
<text text-anchor="start" x="133.919" y="-221.8" font-family="Times,serif" font-size="14.00">show</text>
<polyline fill="none" stroke="black" points="125.919,-215 276.081,-215 "/>
<polyline fill="none" stroke="black" points="125.919,-191 276.081,-191 "/>
<text text-anchor="start" x="133.919" y="-175.8" font-family="Times,serif" font-size="14.00">_layout</text>
<text text-anchor="start" x="133.919" y="-161.8" font-family="Times,serif" font-size="14.00">find_workpackage</text>
<text text-anchor="start" x="133.919" y="-147.8" font-family="Times,serif" font-size="14.00">successor</text>
<text text-anchor="start" x="133.919" y="-133.8" font-family="Times,serif" font-size="14.00">work_params</text>
</g>
</g>
</svg>
