<?xml version="1.0" encoding="UTF-8" standalone="no"?>
<!DOCTYPE svg PUBLIC "-//W3C//DTD SVG 1.1//EN"
 "http://www.w3.org/Graphics/SVG/1.1/DTD/svg11.dtd">
<!-- Generated by graphviz version 2.38.0 (20140413.2041)
 -->
<!-- Title: models_diagram Pages: 1 -->
<svg width="1068pt" height="1051pt"
 viewBox="0.00 0.00 1068.24 1051.00" xmlns="http://www.w3.org/2000/svg" xmlns:xlink="http://www.w3.org/1999/xlink">
<g id="graph0" class="graph" transform="scale(1 1) rotate(0) translate(4 1047)">
<title>models_diagram</title>
<polygon fill="none" stroke="none" points="-4,4 -4,-1047 1064.24,-1047 1064.24,4 -4,4"/>
<!-- _diagram_info -->
<g id="node1" class="node"><title>_diagram_info</title>
<text text-anchor="start" x="155.056" y="-1014.6" font-family="Times,serif" font-size="13.00">Models diagram</text>
<text text-anchor="start" x="155.056" y="-1001.6" font-family="Times,serif" font-size="13.00">Date: Jan 10 2016 &#45; 14:39</text>
<text text-anchor="start" x="155.056" y="-988.6" font-family="Times,serif" font-size="13.00">Migration version: 20160110133745</text>
<text text-anchor="start" x="155.056" y="-975.6" font-family="Times,serif" font-size="13.00">Generated by RailRoady 1.4.2</text>
<text text-anchor="start" x="155.056" y="-962.6" font-family="Times,serif" font-size="13.00">http://railroady.prestonlee.com</text>
</g>
<!-- Allocationitem -->
<g id="node2" class="node"><title>Allocationitem</title>
<path fill="none" stroke="black" d="M238.117,-194.5C238.117,-194.5 368.894,-194.5 368.894,-194.5 374.894,-194.5 380.894,-200.5 380.894,-206.5 380.894,-206.5 380.894,-296.5 380.894,-296.5 380.894,-302.5 374.894,-308.5 368.894,-308.5 368.894,-308.5 238.117,-308.5 238.117,-308.5 232.117,-308.5 226.117,-302.5 226.117,-296.5 226.117,-296.5 226.117,-206.5 226.117,-206.5 226.117,-200.5 232.117,-194.5 238.117,-194.5"/>
<text text-anchor="middle" x="303.505" y="-293.3" font-family="Times,serif" font-size="14.00">Allocationitem</text>
<polyline fill="none" stroke="black" points="226.117,-286.5 380.894,-286.5 "/>
<text text-anchor="start" x="234.117" y="-271.3" font-family="Times,serif" font-size="14.00">id :INTEGER</text>
<text text-anchor="start" x="234.117" y="-257.3" font-family="Times,serif" font-size="14.00">workpackage_id :integer</text>
<text text-anchor="start" x="234.117" y="-243.3" font-family="Times,serif" font-size="14.00">component_id :integer</text>
<text text-anchor="start" x="234.117" y="-229.3" font-family="Times,serif" font-size="14.00">role_id :integer</text>
<text text-anchor="start" x="234.117" y="-215.3" font-family="Times,serif" font-size="14.00">created_at :datetime</text>
<text text-anchor="start" x="234.117" y="-201.3" font-family="Times,serif" font-size="14.00">updated_at :datetime</text>
</g>
<!-- Component -->
<g id="node3" class="node"><title>Component</title>
<path fill="none" stroke="black" d="M12,-360.5C12,-360.5 121.011,-360.5 121.011,-360.5 127.011,-360.5 133.011,-366.5 133.011,-372.5 133.011,-372.5 133.011,-462.5 133.011,-462.5 133.011,-468.5 127.011,-474.5 121.011,-474.5 121.011,-474.5 12,-474.5 12,-474.5 6,-474.5 0,-468.5 0,-462.5 0,-462.5 0,-372.5 0,-372.5 0,-366.5 6,-360.5 12,-360.5"/>
<text text-anchor="middle" x="66.5054" y="-459.3" font-family="Times,serif" font-size="14.00">Component</text>
<polyline fill="none" stroke="black" points="0,-452.5 133.011,-452.5 "/>
<text text-anchor="start" x="8" y="-437.3" font-family="Times,serif" font-size="14.00">id :INTEGER</text>
<text text-anchor="start" x="8" y="-423.3" font-family="Times,serif" font-size="14.00">name :varchar</text>
<text text-anchor="start" x="8" y="-409.3" font-family="Times,serif" font-size="14.00">description :varchar</text>
<text text-anchor="start" x="8" y="-395.3" font-family="Times,serif" font-size="14.00">modul_id :integer</text>
<text text-anchor="start" x="8" y="-381.3" font-family="Times,serif" font-size="14.00">created_at :datetime</text>
<text text-anchor="start" x="8" y="-367.3" font-family="Times,serif" font-size="14.00">updated_at :datetime</text>
</g>
<!-- Component&#45;&gt;Allocationitem -->
<g id="edge1" class="edge"><title>Component&#45;&gt;Allocationitem</title>
<path fill="none" stroke="#bc9c9b" d="M139.885,-361.853C140.762,-361.231 141.636,-360.613 142.505,-360 167.113,-342.654 194.213,-324.285 219.047,-307.733"/>
<ellipse fill="none" stroke="#bc9c9b" cx="136.35" cy="-364.376" rx="4.00002" ry="4.00002"/>
<ellipse fill="#bc9c9b" stroke="#bc9c9b" cx="222.657" cy="-305.331" rx="4.00002" ry="4.00002"/>
</g>
<!-- Event -->
<g id="node4" class="node"><title>Event</title>
<path fill="none" stroke="black" d="M556.048,-575.5C556.048,-575.5 682.962,-575.5 682.962,-575.5 688.962,-575.5 694.962,-581.5 694.962,-587.5 694.962,-587.5 694.962,-677.5 694.962,-677.5 694.962,-683.5 688.962,-689.5 682.962,-689.5 682.962,-689.5 556.048,-689.5 556.048,-689.5 550.048,-689.5 544.048,-683.5 544.048,-677.5 544.048,-677.5 544.048,-587.5 544.048,-587.5 544.048,-581.5 550.048,-575.5 556.048,-575.5"/>
<text text-anchor="middle" x="619.505" y="-674.3" font-family="Times,serif" font-size="14.00">Event</text>
<polyline fill="none" stroke="black" points="544.048,-667.5 694.962,-667.5 "/>
<text text-anchor="start" x="552.048" y="-652.3" font-family="Times,serif" font-size="14.00">id :INTEGER</text>
<text text-anchor="start" x="552.048" y="-638.3" font-family="Times,serif" font-size="14.00">startDate :date</text>
<text text-anchor="start" x="552.048" y="-624.3" font-family="Times,serif" font-size="14.00">questionarys_id :integer</text>
<text text-anchor="start" x="552.048" y="-610.3" font-family="Times,serif" font-size="14.00">project_id :integer</text>
<text text-anchor="start" x="552.048" y="-596.3" font-family="Times,serif" font-size="14.00">created_at :datetime</text>
<text text-anchor="start" x="552.048" y="-582.3" font-family="Times,serif" font-size="14.00">updated_at :datetime</text>
</g>
<!-- Eventdate -->
<g id="node5" class="node"><title>Eventdate</title>
<path fill="none" stroke="black" d="M411.117,-194.5C411.117,-194.5 541.894,-194.5 541.894,-194.5 547.894,-194.5 553.894,-200.5 553.894,-206.5 553.894,-206.5 553.894,-296.5 553.894,-296.5 553.894,-302.5 547.894,-308.5 541.894,-308.5 541.894,-308.5 411.117,-308.5 411.117,-308.5 405.117,-308.5 399.117,-302.5 399.117,-296.5 399.117,-296.5 399.117,-206.5 399.117,-206.5 399.117,-200.5 405.117,-194.5 411.117,-194.5"/>
<text text-anchor="middle" x="476.505" y="-293.3" font-family="Times,serif" font-size="14.00">Eventdate</text>
<polyline fill="none" stroke="black" points="399.117,-286.5 553.894,-286.5 "/>
<text text-anchor="start" x="407.117" y="-271.3" font-family="Times,serif" font-size="14.00">id :INTEGER</text>
<text text-anchor="start" x="407.117" y="-257.3" font-family="Times,serif" font-size="14.00">workpackage_id :integer</text>
<text text-anchor="start" x="407.117" y="-243.3" font-family="Times,serif" font-size="14.00">startDate :date</text>
<text text-anchor="start" x="407.117" y="-229.3" font-family="Times,serif" font-size="14.00">endDate :date</text>
<text text-anchor="start" x="407.117" y="-215.3" font-family="Times,serif" font-size="14.00">created_at :datetime</text>
<text text-anchor="start" x="407.117" y="-201.3" font-family="Times,serif" font-size="14.00">updated_at :datetime</text>
</g>
<!-- Kind -->
<g id="node6" class="node"><title>Kind</title>
<path fill="none" stroke="black" d="M233,-797.5C233,-797.5 342.011,-797.5 342.011,-797.5 348.011,-797.5 354.011,-803.5 354.011,-809.5 354.011,-809.5 354.011,-885.5 354.011,-885.5 354.011,-891.5 348.011,-897.5 342.011,-897.5 342.011,-897.5 233,-897.5 233,-897.5 227,-897.5 221,-891.5 221,-885.5 221,-885.5 221,-809.5 221,-809.5 221,-803.5 227,-797.5 233,-797.5"/>
<text text-anchor="middle" x="287.505" y="-882.3" font-family="Times,serif" font-size="14.00">Kind</text>
<polyline fill="none" stroke="black" points="221,-875.5 354.011,-875.5 "/>
<text text-anchor="start" x="229" y="-860.3" font-family="Times,serif" font-size="14.00">id :INTEGER</text>
<text text-anchor="start" x="229" y="-846.3" font-family="Times,serif" font-size="14.00">name :varchar</text>
<text text-anchor="start" x="229" y="-832.3" font-family="Times,serif" font-size="14.00">project_id :integer</text>
<text text-anchor="start" x="229" y="-818.3" font-family="Times,serif" font-size="14.00">created_at :datetime</text>
<text text-anchor="start" x="229" y="-804.3" font-family="Times,serif" font-size="14.00">updated_at :datetime</text>
</g>
<!-- Role -->
<g id="node13" class="node"><title>Role</title>
<path fill="none" stroke="black" d="M233,-582.5C233,-582.5 342.011,-582.5 342.011,-582.5 348.011,-582.5 354.011,-588.5 354.011,-594.5 354.011,-594.5 354.011,-670.5 354.011,-670.5 354.011,-676.5 348.011,-682.5 342.011,-682.5 342.011,-682.5 233,-682.5 233,-682.5 227,-682.5 221,-676.5 221,-670.5 221,-670.5 221,-594.5 221,-594.5 221,-588.5 227,-582.5 233,-582.5"/>
<text text-anchor="middle" x="287.505" y="-667.3" font-family="Times,serif" font-size="14.00">Role</text>
<polyline fill="none" stroke="black" points="221,-660.5 354.011,-660.5 "/>
<text text-anchor="start" x="229" y="-645.3" font-family="Times,serif" font-size="14.00">id :INTEGER</text>
<text text-anchor="start" x="229" y="-631.3" font-family="Times,serif" font-size="14.00">name :varchar</text>
<text text-anchor="start" x="229" y="-617.3" font-family="Times,serif" font-size="14.00">kind_id :integer</text>
<text text-anchor="start" x="229" y="-603.3" font-family="Times,serif" font-size="14.00">created_at :datetime</text>
<text text-anchor="start" x="229" y="-589.3" font-family="Times,serif" font-size="14.00">updated_at :datetime</text>
</g>
<!-- Kind&#45;&gt;Role -->
<g id="edge2" class="edge"><title>Kind&#45;&gt;Role</title>
<path fill="none" stroke="#82183f" d="M287.505,-789.106C287.505,-759.385 287.505,-723.133 287.505,-693.098"/>
<ellipse fill="none" stroke="#82183f" cx="287.505" cy="-793.366" rx="4" ry="4"/>
<polygon fill="#82183f" stroke="#82183f" points="287.505,-692.755 292.005,-682.755 287.505,-687.755 287.505,-682.755 287.505,-682.755 287.505,-682.755 287.505,-687.755 283.005,-682.755 287.505,-692.755 287.505,-692.755"/>
</g>
<!-- Modul -->
<g id="node7" class="node"><title>Modul</title>
<path fill="none" stroke="black" d="M56.3242,-575.5C56.3242,-575.5 174.687,-575.5 174.687,-575.5 180.687,-575.5 186.687,-581.5 186.687,-587.5 186.687,-587.5 186.687,-677.5 186.687,-677.5 186.687,-683.5 180.687,-689.5 174.687,-689.5 174.687,-689.5 56.3242,-689.5 56.3242,-689.5 50.3242,-689.5 44.3242,-683.5 44.3242,-677.5 44.3242,-677.5 44.3242,-587.5 44.3242,-587.5 44.3242,-581.5 50.3242,-575.5 56.3242,-575.5"/>
<text text-anchor="middle" x="115.505" y="-674.3" font-family="Times,serif" font-size="14.00">Modul</text>
<polyline fill="none" stroke="black" points="44.3242,-667.5 186.687,-667.5 "/>
<text text-anchor="start" x="52.3242" y="-652.3" font-family="Times,serif" font-size="14.00">id :INTEGER</text>
<text text-anchor="start" x="52.3242" y="-638.3" font-family="Times,serif" font-size="14.00">name :varchar</text>
<text text-anchor="start" x="52.3242" y="-624.3" font-family="Times,serif" font-size="14.00">description :varchar</text>
<text text-anchor="start" x="52.3242" y="-610.3" font-family="Times,serif" font-size="14.00">subproduct_id :integer</text>
<text text-anchor="start" x="52.3242" y="-596.3" font-family="Times,serif" font-size="14.00">created_at :datetime</text>
<text text-anchor="start" x="52.3242" y="-582.3" font-family="Times,serif" font-size="14.00">updated_at :datetime</text>
</g>
<!-- Modul&#45;&gt;Component -->
<g id="edge3" class="edge"><title>Modul&#45;&gt;Component</title>
<path fill="none" stroke="#a107ab" d="M100.689,-567.096C94.6814,-540.979 87.7473,-510.837 81.7011,-484.555"/>
<ellipse fill="none" stroke="#a107ab" cx="101.67" cy="-571.36" rx="4.00001" ry="4.00001"/>
<polygon fill="#a107ab" stroke="#a107ab" points="81.6731,-484.433 83.8166,-473.679 80.5521,-479.56 79.4311,-474.687 79.4311,-474.687 79.4311,-474.687 80.5521,-479.56 75.0457,-475.696 81.6731,-484.433 81.6731,-484.433"/>
</g>
<!-- Project -->
<g id="node8" class="node"><title>Project</title>
<path fill="none" stroke="black" d="M384,-942.5C384,-942.5 493.011,-942.5 493.011,-942.5 499.011,-942.5 505.011,-948.5 505.011,-954.5 505.011,-954.5 505.011,-1030.5 505.011,-1030.5 505.011,-1036.5 499.011,-1042.5 493.011,-1042.5 493.011,-1042.5 384,-1042.5 384,-1042.5 378,-1042.5 372,-1036.5 372,-1030.5 372,-1030.5 372,-954.5 372,-954.5 372,-948.5 378,-942.5 384,-942.5"/>
<text text-anchor="middle" x="438.505" y="-1027.3" font-family="Times,serif" font-size="14.00">Project</text>
<polyline fill="none" stroke="black" points="372,-1020.5 505.011,-1020.5 "/>
<text text-anchor="start" x="380" y="-1005.3" font-family="Times,serif" font-size="14.00">id :INTEGER</text>
<text text-anchor="start" x="380" y="-991.3" font-family="Times,serif" font-size="14.00">title :varchar</text>
<text text-anchor="start" x="380" y="-977.3" font-family="Times,serif" font-size="14.00">description :varchar</text>
<text text-anchor="start" x="380" y="-963.3" font-family="Times,serif" font-size="14.00">created_at :datetime</text>
<text text-anchor="start" x="380" y="-949.3" font-family="Times,serif" font-size="14.00">updated_at :datetime</text>
</g>
<!-- Project&#45;&gt;Event -->
<g id="edge8" class="edge"><title>Project&#45;&gt;Event</title>
<path fill="none" stroke="#88d807" d="M492.409,-935.795C500.429,-925.975 508.13,-915.517 514.505,-905 554.253,-839.429 583.768,-756.216 601.218,-699.305"/>
<ellipse fill="none" stroke="#88d807" cx="489.666" cy="-939.08" rx="4.00002" ry="4.00002"/>
<polygon fill="#88d807" stroke="#88d807" points="601.228,-699.272 608.432,-691.004 602.676,-694.486 604.125,-689.7 604.125,-689.7 604.125,-689.7 602.676,-694.486 599.818,-688.397 601.228,-699.272 601.228,-699.272"/>
</g>
<!-- Project&#45;&gt;Kind -->
<g id="edge5" class="edge"><title>Project&#45;&gt;Kind</title>
<path fill="none" stroke="#79d62c" d="M380.387,-936.46C369.396,-926.052 357.885,-915.151 346.857,-904.707"/>
<ellipse fill="none" stroke="#79d62c" cx="383.635" cy="-939.537" rx="4.00002" ry="4.00002"/>
<polygon fill="#79d62c" stroke="#79d62c" points="346.572,-904.437 342.405,-894.293 342.941,-900.999 339.311,-897.561 339.311,-897.561 339.311,-897.561 342.941,-900.999 336.217,-900.828 346.572,-904.437 346.572,-904.437"/>
</g>
<!-- Questionary -->
<g id="node10" class="node"><title>Questionary</title>
<path fill="none" stroke="black" d="M688,-797.5C688,-797.5 797.011,-797.5 797.011,-797.5 803.011,-797.5 809.011,-803.5 809.011,-809.5 809.011,-809.5 809.011,-885.5 809.011,-885.5 809.011,-891.5 803.011,-897.5 797.011,-897.5 797.011,-897.5 688,-897.5 688,-897.5 682,-897.5 676,-891.5 676,-885.5 676,-885.5 676,-809.5 676,-809.5 676,-803.5 682,-797.5 688,-797.5"/>
<text text-anchor="middle" x="742.505" y="-882.3" font-family="Times,serif" font-size="14.00">Questionary</text>
<polyline fill="none" stroke="black" points="676,-875.5 809.011,-875.5 "/>
<text text-anchor="start" x="684" y="-860.3" font-family="Times,serif" font-size="14.00">id :INTEGER</text>
<text text-anchor="start" x="684" y="-846.3" font-family="Times,serif" font-size="14.00">runde :integer</text>
<text text-anchor="start" x="684" y="-832.3" font-family="Times,serif" font-size="14.00">project_id :integer</text>
<text text-anchor="start" x="684" y="-818.3" font-family="Times,serif" font-size="14.00">created_at :datetime</text>
<text text-anchor="start" x="684" y="-804.3" font-family="Times,serif" font-size="14.00">updated_at :datetime</text>
</g>
<!-- Project&#45;&gt;Questionary -->
<g id="edge7" class="edge"><title>Project&#45;&gt;Questionary</title>
<path fill="none" stroke="#b39784" d="M512.967,-959.199C537.738,-948.25 565.404,-935.801 590.505,-924 615.45,-912.273 642.462,-899.034 666.698,-886.955"/>
<ellipse fill="none" stroke="#b39784" cx="509.038" cy="-960.932" rx="4.00002" ry="4.00002"/>
<polygon fill="#b39784" stroke="#b39784" points="666.895,-886.857 677.852,-886.414 671.368,-884.623 675.841,-882.388 675.841,-882.388 675.841,-882.388 671.368,-884.623 673.83,-878.363 666.895,-886.857 666.895,-886.857"/>
</g>
<!-- Subproduct -->
<g id="node14" class="node"><title>Subproduct</title>
<path fill="none" stroke="black" d="M77,-790.5C77,-790.5 186.011,-790.5 186.011,-790.5 192.011,-790.5 198.011,-796.5 198.011,-802.5 198.011,-802.5 198.011,-892.5 198.011,-892.5 198.011,-898.5 192.011,-904.5 186.011,-904.5 186.011,-904.5 77,-904.5 77,-904.5 71,-904.5 65,-898.5 65,-892.5 65,-892.5 65,-802.5 65,-802.5 65,-796.5 71,-790.5 77,-790.5"/>
<text text-anchor="middle" x="131.505" y="-889.3" font-family="Times,serif" font-size="14.00">Subproduct</text>
<polyline fill="none" stroke="black" points="65,-882.5 198.011,-882.5 "/>
<text text-anchor="start" x="73" y="-867.3" font-family="Times,serif" font-size="14.00">id :INTEGER</text>
<text text-anchor="start" x="73" y="-853.3" font-family="Times,serif" font-size="14.00">name :varchar</text>
<text text-anchor="start" x="73" y="-839.3" font-family="Times,serif" font-size="14.00">description :varchar</text>
<text text-anchor="start" x="73" y="-825.3" font-family="Times,serif" font-size="14.00">project_id :integer</text>
<text text-anchor="start" x="73" y="-811.3" font-family="Times,serif" font-size="14.00">created_at :datetime</text>
<text text-anchor="start" x="73" y="-797.3" font-family="Times,serif" font-size="14.00">updated_at :datetime</text>
</g>
<!-- Project&#45;&gt;Subproduct -->
<g id="edge4" class="edge"><title>Project&#45;&gt;Subproduct</title>
<path fill="none" stroke="#d1cb04" d="M364.213,-942.752C363.644,-942.497 363.074,-942.246 362.505,-942 299.103,-914.534 274.381,-933.654 211.505,-905 210.103,-904.361 208.7,-903.696 207.298,-903.009"/>
<ellipse fill="none" stroke="#d1cb04" cx="368.012" cy="-944.553" rx="4.00002" ry="4.00002"/>
<polygon fill="#d1cb04" stroke="#d1cb04" points="206.928,-902.815 200.166,-894.182 202.501,-900.49 198.074,-898.166 198.074,-898.166 198.074,-898.166 202.501,-900.49 195.982,-902.15 206.928,-902.815 206.928,-902.815"/>
</g>
<!-- Task -->
<g id="node16" class="node"><title>Task</title>
<path fill="none" stroke="black" d="M384,-797.5C384,-797.5 493.011,-797.5 493.011,-797.5 499.011,-797.5 505.011,-803.5 505.011,-809.5 505.011,-809.5 505.011,-885.5 505.011,-885.5 505.011,-891.5 499.011,-897.5 493.011,-897.5 493.011,-897.5 384,-897.5 384,-897.5 378,-897.5 372,-891.5 372,-885.5 372,-885.5 372,-809.5 372,-809.5 372,-803.5 378,-797.5 384,-797.5"/>
<text text-anchor="middle" x="438.505" y="-882.3" font-family="Times,serif" font-size="14.00">Task</text>
<polyline fill="none" stroke="black" points="372,-875.5 505.011,-875.5 "/>
<text text-anchor="start" x="380" y="-860.3" font-family="Times,serif" font-size="14.00">id :INTEGER</text>
<text text-anchor="start" x="380" y="-846.3" font-family="Times,serif" font-size="14.00">name :varchar</text>
<text text-anchor="start" x="380" y="-832.3" font-family="Times,serif" font-size="14.00">project_id :integer</text>
<text text-anchor="start" x="380" y="-818.3" font-family="Times,serif" font-size="14.00">created_at :datetime</text>
<text text-anchor="start" x="380" y="-804.3" font-family="Times,serif" font-size="14.00">updated_at :datetime</text>
</g>
<!-- Project&#45;&gt;Task -->
<g id="edge6" class="edge"><title>Project&#45;&gt;Task</title>
<path fill="none" stroke="#a82ae8" d="M438.505,-934.075C438.505,-925.439 438.505,-916.518 438.505,-907.842"/>
<ellipse fill="none" stroke="#a82ae8" cx="438.505" cy="-938.288" rx="4" ry="4"/>
<polygon fill="#a82ae8" stroke="#a82ae8" points="438.505,-907.803 443.005,-897.803 438.505,-902.803 438.505,-897.803 438.505,-897.803 438.505,-897.803 438.505,-902.803 434.005,-897.803 438.505,-907.803 438.505,-907.803"/>
</g>
<!-- Question -->
<g id="node9" class="node"><title>Question</title>
<path fill="none" stroke="black" d="M667.007,-180.5C667.007,-180.5 818.004,-180.5 818.004,-180.5 824.004,-180.5 830.004,-186.5 830.004,-192.5 830.004,-192.5 830.004,-310.5 830.004,-310.5 830.004,-316.5 824.004,-322.5 818.004,-322.5 818.004,-322.5 667.007,-322.5 667.007,-322.5 661.007,-322.5 655.007,-316.5 655.007,-310.5 655.007,-310.5 655.007,-192.5 655.007,-192.5 655.007,-186.5 661.007,-180.5 667.007,-180.5"/>
<text text-anchor="middle" x="742.505" y="-307.3" font-family="Times,serif" font-size="14.00">Question</text>
<polyline fill="none" stroke="black" points="655.007,-300.5 830.004,-300.5 "/>
<text text-anchor="start" x="663.007" y="-285.3" font-family="Times,serif" font-size="14.00">id :INTEGER</text>
<text text-anchor="start" x="663.007" y="-271.3" font-family="Times,serif" font-size="14.00">pessimistic_average :integer</text>
<text text-anchor="start" x="663.007" y="-257.3" font-family="Times,serif" font-size="14.00">realistic_average :integer</text>
<text text-anchor="start" x="663.007" y="-243.3" font-family="Times,serif" font-size="14.00">optimistic_average :integer</text>
<text text-anchor="start" x="663.007" y="-229.3" font-family="Times,serif" font-size="14.00">questionary_id :integer</text>
<text text-anchor="start" x="663.007" y="-215.3" font-family="Times,serif" font-size="14.00">workpackage_id :integer</text>
<text text-anchor="start" x="663.007" y="-201.3" font-family="Times,serif" font-size="14.00">created_at :datetime</text>
<text text-anchor="start" x="663.007" y="-187.3" font-family="Times,serif" font-size="14.00">updated_at :datetime</text>
</g>
<!-- Response -->
<g id="node12" class="node"><title>Response</title>
<path fill="none" stroke="black" d="M773,-0.5C773,-0.5 882.011,-0.5 882.011,-0.5 888.011,-0.5 894.011,-6.5 894.011,-12.5 894.011,-12.5 894.011,-130.5 894.011,-130.5 894.011,-136.5 888.011,-142.5 882.011,-142.5 882.011,-142.5 773,-142.5 773,-142.5 767,-142.5 761,-136.5 761,-130.5 761,-130.5 761,-12.5 761,-12.5 761,-6.5 767,-0.5 773,-0.5"/>
<text text-anchor="middle" x="827.505" y="-127.3" font-family="Times,serif" font-size="14.00">Response</text>
<polyline fill="none" stroke="black" points="761,-120.5 894.011,-120.5 "/>
<text text-anchor="start" x="769" y="-105.3" font-family="Times,serif" font-size="14.00">id :INTEGER</text>
<text text-anchor="start" x="769" y="-91.3" font-family="Times,serif" font-size="14.00">pessimistic :integer</text>
<text text-anchor="start" x="769" y="-77.3" font-family="Times,serif" font-size="14.00">realistic :integer</text>
<text text-anchor="start" x="769" y="-63.3" font-family="Times,serif" font-size="14.00">optimistic :integer</text>
<text text-anchor="start" x="769" y="-49.3" font-family="Times,serif" font-size="14.00">user_id :integer</text>
<text text-anchor="start" x="769" y="-35.3" font-family="Times,serif" font-size="14.00">question_id :integer</text>
<text text-anchor="start" x="769" y="-21.3" font-family="Times,serif" font-size="14.00">created_at :datetime</text>
<text text-anchor="start" x="769" y="-7.3" font-family="Times,serif" font-size="14.00">updated_at :datetime</text>
</g>
<!-- Question&#45;&gt;Response -->
<g id="edge9" class="edge"><title>Question&#45;&gt;Response</title>
<path fill="none" stroke="#081d30" d="M779.487,-173.057C782.819,-166.078 786.198,-159.002 789.539,-152.006"/>
<ellipse fill="none" stroke="#081d30" cx="777.701" cy="-176.796" rx="4.00002" ry="4.00002"/>
<polygon fill="#081d30" stroke="#081d30" points="789.754,-151.555 798.124,-144.47 791.909,-147.043 794.064,-142.531 794.064,-142.531 794.064,-142.531 791.909,-147.043 790.003,-140.592 789.754,-151.555 789.754,-151.555"/>
</g>
<!-- Questionary&#45;&gt;Event -->
<g id="edge13" class="edge"><title>Questionary&#45;&gt;Event</title>
<path fill="none" stroke="#9f5234" d="M710.13,-790.435C693.832,-762.211 673.985,-727.843 657.024,-698.472"/>
<ellipse fill="none" stroke="#9f5234" cx="712.132" cy="-793.902" rx="4.00002" ry="4.00002"/>
<polygon fill="#9f5234" stroke="#9f5234" points="656.861,-698.189 655.757,-687.279 654.361,-693.86 651.86,-689.53 651.86,-689.53 651.86,-689.53 654.361,-693.86 647.964,-691.78 656.861,-698.189 656.861,-698.189"/>
</g>
<!-- Questionary&#45;&gt;Question -->
<g id="edge10" class="edge"><title>Questionary&#45;&gt;Question</title>
<path fill="none" stroke="#b5489e" d="M742.505,-789.101C742.505,-682.685 742.505,-454.568 742.505,-332.865"/>
<ellipse fill="none" stroke="#b5489e" cx="742.505" cy="-793.385" rx="4" ry="4"/>
<polygon fill="#b5489e" stroke="#b5489e" points="742.505,-332.858 747.005,-322.858 742.505,-327.858 742.505,-322.858 742.505,-322.858 742.505,-322.858 742.505,-327.858 738.005,-322.858 742.505,-332.858 742.505,-332.858"/>
</g>
<!-- User -->
<g id="node17" class="node"><title>User</title>
<path fill="none" stroke="black" d="M782.228,-512.5C782.228,-512.5 962.783,-512.5 962.783,-512.5 968.783,-512.5 974.783,-518.5 974.783,-524.5 974.783,-524.5 974.783,-740.5 974.783,-740.5 974.783,-746.5 968.783,-752.5 962.783,-752.5 962.783,-752.5 782.228,-752.5 782.228,-752.5 776.228,-752.5 770.228,-746.5 770.228,-740.5 770.228,-740.5 770.228,-524.5 770.228,-524.5 770.228,-518.5 776.228,-512.5 782.228,-512.5"/>
<text text-anchor="middle" x="872.505" y="-737.3" font-family="Times,serif" font-size="14.00">User</text>
<polyline fill="none" stroke="black" points="770.228,-730.5 974.783,-730.5 "/>
<text text-anchor="start" x="778.228" y="-715.3" font-family="Times,serif" font-size="14.00">id :INTEGER</text>
<text text-anchor="start" x="778.228" y="-701.3" font-family="Times,serif" font-size="14.00">email :varchar</text>
<text text-anchor="start" x="778.228" y="-687.3" font-family="Times,serif" font-size="14.00">encrypted_password :varchar</text>
<text text-anchor="start" x="778.228" y="-673.3" font-family="Times,serif" font-size="14.00">reset_password_token :varchar</text>
<text text-anchor="start" x="778.228" y="-659.3" font-family="Times,serif" font-size="14.00">reset_password_sent_at :datetime</text>
<text text-anchor="start" x="778.228" y="-645.3" font-family="Times,serif" font-size="14.00">remember_created_at :datetime</text>
<text text-anchor="start" x="778.228" y="-631.3" font-family="Times,serif" font-size="14.00">sign_in_count :integer</text>
<text text-anchor="start" x="778.228" y="-617.3" font-family="Times,serif" font-size="14.00">current_sign_in_at :datetime</text>
<text text-anchor="start" x="778.228" y="-603.3" font-family="Times,serif" font-size="14.00">last_sign_in_at :datetime</text>
<text text-anchor="start" x="778.228" y="-589.3" font-family="Times,serif" font-size="14.00">current_sign_in_ip :varchar</text>
<text text-anchor="start" x="778.228" y="-575.3" font-family="Times,serif" font-size="14.00">last_sign_in_ip :varchar</text>
<text text-anchor="start" x="778.228" y="-561.3" font-family="Times,serif" font-size="14.00">created_at :datetime</text>
<text text-anchor="start" x="778.228" y="-547.3" font-family="Times,serif" font-size="14.00">updated_at :datetime</text>
<text text-anchor="start" x="778.228" y="-533.3" font-family="Times,serif" font-size="14.00">first_name :varchar</text>
<text text-anchor="start" x="778.228" y="-519.3" font-family="Times,serif" font-size="14.00">last_name :varchar</text>
</g>
<!-- Questionary&#45;&gt;User -->
<g id="edge12" class="edge"><title>Questionary&#45;&gt;User</title>
<path fill="none" stroke="#8533e0" d="M777.898,-788.511C783.181,-779.854 788.796,-770.654 794.553,-761.222"/>
<polygon fill="#8533e0" stroke="#8533e0" points="777.703,-788.83 768.652,-795.022 775.098,-793.098 772.493,-797.366 772.493,-797.366 772.493,-797.366 775.098,-793.098 776.334,-799.71 777.703,-788.83 777.703,-788.83"/>
<polygon fill="#8533e0" stroke="#8533e0" points="794.664,-761.04 803.715,-754.848 797.269,-756.772 799.874,-752.504 799.874,-752.504 799.874,-752.504 797.269,-756.772 796.033,-750.16 794.664,-761.04 794.664,-761.04"/>
</g>
<!-- Userquest -->
<g id="node18" class="node"><title>Userquest</title>
<path fill="none" stroke="black" d="M926.772,-360.5C926.772,-360.5 1048.24,-360.5 1048.24,-360.5 1054.24,-360.5 1060.24,-366.5 1060.24,-372.5 1060.24,-372.5 1060.24,-462.5 1060.24,-462.5 1060.24,-468.5 1054.24,-474.5 1048.24,-474.5 1048.24,-474.5 926.772,-474.5 926.772,-474.5 920.772,-474.5 914.772,-468.5 914.772,-462.5 914.772,-462.5 914.772,-372.5 914.772,-372.5 914.772,-366.5 920.772,-360.5 926.772,-360.5"/>
<text text-anchor="middle" x="987.505" y="-459.3" font-family="Times,serif" font-size="14.00">Userquest</text>
<polyline fill="none" stroke="black" points="914.772,-452.5 1060.24,-452.5 "/>
<text text-anchor="start" x="922.772" y="-437.3" font-family="Times,serif" font-size="14.00">id :INTEGER</text>
<text text-anchor="start" x="922.772" y="-423.3" font-family="Times,serif" font-size="14.00">newquest :boolean</text>
<text text-anchor="start" x="922.772" y="-409.3" font-family="Times,serif" font-size="14.00">user_id :integer</text>
<text text-anchor="start" x="922.772" y="-395.3" font-family="Times,serif" font-size="14.00">questionary_id :integer</text>
<text text-anchor="start" x="922.772" y="-381.3" font-family="Times,serif" font-size="14.00">created_at :datetime</text>
<text text-anchor="start" x="922.772" y="-367.3" font-family="Times,serif" font-size="14.00">updated_at :datetime</text>
</g>
<!-- Questionary&#45;&gt;Userquest -->
<g id="edge11" class="edge"><title>Questionary&#45;&gt;Userquest</title>
<path fill="none" stroke="#a27891" d="M817.271,-839.335C873.203,-829.629 946.211,-806.78 983.505,-753 1038.35,-673.918 1023.87,-557.064 1006.83,-484.471"/>
<ellipse fill="none" stroke="#a27891" cx="813.096" cy="-840.024" rx="4.00001" ry="4.00001"/>
<polygon fill="#a27891" stroke="#a27891" points="1006.78,-484.247 1008.79,-473.468 1005.6,-479.388 1004.42,-474.53 1004.42,-474.53 1004.42,-474.53 1005.6,-479.388 1000.04,-475.592 1006.78,-484.247 1006.78,-484.247"/>
</g>
<!-- Requirment -->
<g id="node11" class="node"><title>Requirment</title>
<path fill="none" stroke="black" d="M163.441,-360.5C163.441,-360.5 275.569,-360.5 275.569,-360.5 281.569,-360.5 287.569,-366.5 287.569,-372.5 287.569,-372.5 287.569,-462.5 287.569,-462.5 287.569,-468.5 281.569,-474.5 275.569,-474.5 275.569,-474.5 163.441,-474.5 163.441,-474.5 157.441,-474.5 151.441,-468.5 151.441,-462.5 151.441,-462.5 151.441,-372.5 151.441,-372.5 151.441,-366.5 157.441,-360.5 163.441,-360.5"/>
<text text-anchor="middle" x="219.505" y="-459.3" font-family="Times,serif" font-size="14.00">Requirment</text>
<polyline fill="none" stroke="black" points="151.441,-452.5 287.569,-452.5 "/>
<text text-anchor="start" x="159.441" y="-437.3" font-family="Times,serif" font-size="14.00">id :INTEGER</text>
<text text-anchor="start" x="159.441" y="-423.3" font-family="Times,serif" font-size="14.00">qualifikation :varchar</text>
<text text-anchor="start" x="159.441" y="-409.3" font-family="Times,serif" font-size="14.00">experience :varchar</text>
<text text-anchor="start" x="159.441" y="-395.3" font-family="Times,serif" font-size="14.00">role_id :integer</text>
<text text-anchor="start" x="159.441" y="-381.3" font-family="Times,serif" font-size="14.00">created_at :datetime</text>
<text text-anchor="start" x="159.441" y="-367.3" font-family="Times,serif" font-size="14.00">updated_at :datetime</text>
</g>
<!-- Role&#45;&gt;Allocationitem -->
<g id="edge14" class="edge"><title>Role&#45;&gt;Allocationitem</title>
<path fill="none" stroke="#245ef5" d="M291.169,-574.03C292.963,-544.451 295.046,-507.804 296.505,-475 298.874,-421.751 300.722,-361.299 301.923,-316.86"/>
<ellipse fill="none" stroke="#245ef5" cx="290.915" cy="-578.185" rx="4" ry="4"/>
<ellipse fill="#245ef5" stroke="#245ef5" cx="302.033" cy="-312.752" rx="4" ry="4"/>
</g>
<!-- Role&#45;&gt;Requirment -->
<g id="edge15" class="edge"><title>Role&#45;&gt;Requirment</title>
<path fill="none" stroke="#c4f938" d="M269.355,-574.648C260.462,-546.792 249.706,-513.098 240.464,-484.15"/>
<ellipse fill="none" stroke="#c4f938" cx="270.603" cy="-578.556" rx="4.00001" ry="4.00001"/>
<polygon fill="#c4f938" stroke="#c4f938" points="240.434,-484.056 241.68,-473.161 238.913,-479.293 237.393,-474.53 237.393,-474.53 237.393,-474.53 238.913,-479.293 233.106,-475.898 240.434,-484.056 240.434,-484.056"/>
</g>
<!-- Subproduct&#45;&gt;Modul -->
<g id="edge16" class="edge"><title>Subproduct&#45;&gt;Modul</title>
<path fill="none" stroke="#1fa3be" d="M126.668,-782.096C124.714,-756.094 122.461,-726.103 120.493,-699.903"/>
<ellipse fill="none" stroke="#1fa3be" cx="126.981" cy="-786.269" rx="4" ry="4"/>
<polygon fill="#1fa3be" stroke="#1fa3be" points="120.475,-699.659 124.213,-689.35 120.101,-694.673 119.726,-689.687 119.726,-689.687 119.726,-689.687 120.101,-694.673 115.239,-690.025 120.475,-699.659 120.475,-699.659"/>
</g>
<!-- Subtask -->
<g id="node15" class="node"><title>Subtask</title>
<path fill="none" stroke="black" d="M384,-582.5C384,-582.5 493.011,-582.5 493.011,-582.5 499.011,-582.5 505.011,-588.5 505.011,-594.5 505.011,-594.5 505.011,-670.5 505.011,-670.5 505.011,-676.5 499.011,-682.5 493.011,-682.5 493.011,-682.5 384,-682.5 384,-682.5 378,-682.5 372,-676.5 372,-670.5 372,-670.5 372,-594.5 372,-594.5 372,-588.5 378,-582.5 384,-582.5"/>
<text text-anchor="middle" x="438.505" y="-667.3" font-family="Times,serif" font-size="14.00">Subtask</text>
<polyline fill="none" stroke="black" points="372,-660.5 505.011,-660.5 "/>
<text text-anchor="start" x="380" y="-645.3" font-family="Times,serif" font-size="14.00">id :INTEGER</text>
<text text-anchor="start" x="380" y="-631.3" font-family="Times,serif" font-size="14.00">name :varchar</text>
<text text-anchor="start" x="380" y="-617.3" font-family="Times,serif" font-size="14.00">task_id :integer</text>
<text text-anchor="start" x="380" y="-603.3" font-family="Times,serif" font-size="14.00">created_at :datetime</text>
<text text-anchor="start" x="380" y="-589.3" font-family="Times,serif" font-size="14.00">updated_at :datetime</text>
</g>
<!-- Workpackage -->
<g id="node19" class="node"><title>Workpackage</title>
<path fill="none" stroke="black" d="M355.607,-360.5C355.607,-360.5 465.404,-360.5 465.404,-360.5 471.404,-360.5 477.404,-366.5 477.404,-372.5 477.404,-372.5 477.404,-462.5 477.404,-462.5 477.404,-468.5 471.404,-474.5 465.404,-474.5 465.404,-474.5 355.607,-474.5 355.607,-474.5 349.607,-474.5 343.607,-468.5 343.607,-462.5 343.607,-462.5 343.607,-372.5 343.607,-372.5 343.607,-366.5 349.607,-360.5 355.607,-360.5"/>
<text text-anchor="middle" x="410.505" y="-459.3" font-family="Times,serif" font-size="14.00">Workpackage</text>
<polyline fill="none" stroke="black" points="343.607,-452.5 477.404,-452.5 "/>
<text text-anchor="start" x="351.607" y="-437.3" font-family="Times,serif" font-size="14.00">id :INTEGER</text>
<text text-anchor="start" x="351.607" y="-423.3" font-family="Times,serif" font-size="14.00">name :varchar</text>
<text text-anchor="start" x="351.607" y="-409.3" font-family="Times,serif" font-size="14.00">subtask_id :integer</text>
<text text-anchor="start" x="351.607" y="-395.3" font-family="Times,serif" font-size="14.00">successor_id :integer</text>
<text text-anchor="start" x="351.607" y="-381.3" font-family="Times,serif" font-size="14.00">created_at :datetime</text>
<text text-anchor="start" x="351.607" y="-367.3" font-family="Times,serif" font-size="14.00">updated_at :datetime</text>
</g>
<!-- Subtask&#45;&gt;Workpackage -->
<g id="edge17" class="edge"><title>Subtask&#45;&gt;Workpackage</title>
<path fill="none" stroke="#a95fc3" d="M430.98,-574.254C427.342,-546.582 422.957,-513.22 419.179,-484.484"/>
<ellipse fill="none" stroke="#a95fc3" cx="431.525" cy="-578.4" rx="4.00001" ry="4.00001"/>
<polygon fill="#a95fc3" stroke="#a95fc3" points="419.174,-484.444 422.332,-473.943 418.522,-479.487 417.871,-474.53 417.871,-474.53 417.871,-474.53 418.522,-479.487 413.409,-475.116 419.174,-484.444 419.174,-484.444"/>
</g>
<!-- Task&#45;&gt;Subtask -->
<g id="edge18" class="edge"><title>Task&#45;&gt;Subtask</title>
<path fill="none" stroke="#92d84c" d="M438.505,-789.106C438.505,-759.385 438.505,-723.133 438.505,-693.098"/>
<ellipse fill="none" stroke="#92d84c" cx="438.505" cy="-793.366" rx="4" ry="4"/>
<polygon fill="#92d84c" stroke="#92d84c" points="438.505,-692.755 443.005,-682.755 438.505,-687.755 438.505,-682.755 438.505,-682.755 438.505,-682.755 438.505,-687.755 434.005,-682.755 438.505,-692.755 438.505,-692.755"/>
</g>
<!-- User&#45;&gt;Response -->
<g id="edge19" class="edge"><title>User&#45;&gt;Response</title>
<path fill="none" stroke="#34be6f" d="M863.822,-504.028C857.434,-413.551 848.207,-289.258 838.505,-180 837.719,-171.148 836.848,-161.892 835.949,-152.684"/>
<ellipse fill="none" stroke="#34be6f" cx="864.111" cy="-508.137" rx="4" ry="4"/>
<polygon fill="#34be6f" stroke="#34be6f" points="835.949,-152.684 839.444,-142.29 835.457,-147.708 834.966,-142.732 834.966,-142.732 834.966,-142.732 835.457,-147.708 830.487,-143.175 835.949,-152.684 835.949,-152.684"/>
</g>
<!-- User&#45;&gt;Userquest -->
<g id="edge20" class="edge"><title>User&#45;&gt;Userquest</title>
<path fill="none" stroke="#48615f" d="M940.835,-504.942C944.725,-497.737 948.547,-490.658 952.225,-483.846"/>
<ellipse fill="none" stroke="#48615f" cx="938.798" cy="-508.715" rx="4.00002" ry="4.00002"/>
<polygon fill="#48615f" stroke="#48615f" points="952.394,-483.533 961.104,-476.872 954.769,-479.133 957.144,-474.734 957.144,-474.734 957.144,-474.734 954.769,-479.133 953.185,-472.596 952.394,-483.533 952.394,-483.533"/>
</g>
<!-- Workpackage&#45;&gt;Allocationitem -->
<g id="edge25" class="edge"><title>Workpackage&#45;&gt;Allocationitem</title>
<path fill="none" stroke="#40516f" d="M369.063,-352.98C361.039,-340.683 352.634,-327.801 344.622,-315.519"/>
<ellipse fill="none" stroke="#40516f" cx="371.496" cy="-356.71" rx="4.00002" ry="4.00002"/>
<ellipse fill="#40516f" stroke="#40516f" cx="342.401" cy="-312.116" rx="4.00002" ry="4.00002"/>
</g>
<!-- Workpackage&#45;&gt;Eventdate -->
<g id="edge26" class="edge"><title>Workpackage&#45;&gt;Eventdate</title>
<path fill="none" stroke="#bea67b" d="M436.228,-352.583C441.001,-340.723 445.987,-328.333 450.76,-316.472"/>
<ellipse fill="none" stroke="#bea67b" cx="434.712" cy="-356.35" rx="4.00001" ry="4.00001"/>
<ellipse fill="#bea67b" stroke="#bea67b" cx="452.369" cy="-312.476" rx="4.00001" ry="4.00001"/>
</g>
<!-- Workpackage&#45;&gt;Question -->
<g id="edge21" class="edge"><title>Workpackage&#45;&gt;Question</title>
<path fill="none" stroke="#7671e6" d="M484.997,-379.703C532.495,-356.24 594.531,-325.596 645.812,-300.264"/>
<ellipse fill="none" stroke="#7671e6" cx="481.277" cy="-381.541" rx="4.00002" ry="4.00002"/>
<polygon fill="#7671e6" stroke="#7671e6" points="645.961,-300.191 656.92,-299.796 650.444,-297.976 654.927,-295.762 654.927,-295.762 654.927,-295.762 650.444,-297.976 652.934,-291.727 645.961,-300.191 645.961,-300.191"/>
</g>
<!-- Workpackage&#45;&gt;Workpackage -->
<g id="edge22" class="edge"><title>Workpackage&#45;&gt;Workpackage</title>
<path fill="none" stroke="#48a850" d="M485.538,-421.14C491.628,-420.349 495.404,-419.136 495.404,-417.5 495.404,-415.864 491.628,-414.651 485.538,-413.86"/>
<ellipse fill="none" stroke="#48a850" cx="481.399" cy="-421.514" rx="4" ry="4"/>
<ellipse fill="#48a850" stroke="#48a850" cx="481.399" cy="-413.486" rx="4" ry="4"/>
<text text-anchor="middle" x="522.228" y="-413.3" font-family="Times,serif" font-size="14.00">successor</text>
</g>
<!-- Workpackage&#45;&gt;Workpackage -->
<g id="edge23" class="edge"><title>Workpackage&#45;&gt;Workpackage</title>
<path fill="none" stroke="#9761ce" d="M487.605,-426.971C520.049,-427.338 549.052,-424.181 549.052,-417.5 549.052,-410.819 520.049,-407.662 487.605,-408.029"/>
<polygon fill="#9761ce" stroke="#9761ce" points="487.451,-426.968 477.554,-422.245 482.452,-426.856 477.454,-426.744 477.454,-426.744 477.454,-426.744 482.452,-426.856 477.353,-431.243 487.451,-426.968 487.451,-426.968"/>
<polygon fill="#9761ce" stroke="#9761ce" points="487.451,-408.032 477.353,-403.757 482.452,-408.144 477.454,-408.256 477.454,-408.256 477.454,-408.256 482.452,-408.144 477.554,-412.755 487.451,-408.032 487.451,-408.032"/>
<text text-anchor="middle" x="584.814" y="-413.3" font-family="Times,serif" font-size="14.00">predecessors</text>
</g>
<!-- Workpackage&#45;&gt;Workpackage -->
<g id="edge24" class="edge"><title>Workpackage&#45;&gt;Workpackage</title>
<path fill="none" stroke="#2527eb" d="M487.742,-430.478C548.982,-434.164 620.577,-429.839 620.577,-417.5 620.577,-405.161 548.982,-400.836 487.742,-404.522"/>
<polygon fill="#2527eb" stroke="#2527eb" points="487.602,-430.468 477.931,-425.298 482.613,-430.128 477.625,-429.788 477.625,-429.788 477.625,-429.788 482.613,-430.128 477.318,-434.277 487.602,-430.468 487.602,-430.468"/>
<polygon fill="#2527eb" stroke="#2527eb" points="487.602,-404.532 477.318,-400.723 482.613,-404.872 477.625,-405.212 477.625,-405.212 477.625,-405.212 482.613,-404.872 477.931,-409.702 487.602,-404.532 487.602,-404.532"/>
<text text-anchor="middle" x="650.125" y="-413.3" font-family="Times,serif" font-size="14.00">successors</text>
</g>
</g>
</svg>
