<?xml version="1.0" encoding="UTF-8" standalone="no"?>
<!DOCTYPE svg PUBLIC "-//W3C//DTD SVG 1.1//EN"
 "http://www.w3.org/Graphics/SVG/1.1/DTD/svg11.dtd">
<!-- Generated by graphviz version 2.38.0 (20140413.2041)
 -->
<!-- Title: models_diagram Pages: 1 -->
<svg width="743pt" height="911pt"
 viewBox="0.00 0.00 742.87 911.00" xmlns="http://www.w3.org/2000/svg" xmlns:xlink="http://www.w3.org/1999/xlink">
<g id="graph0" class="graph" transform="scale(1 1) rotate(0) translate(4 907)">
<title>models_diagram</title>
<polygon fill="none" stroke="none" points="-4,4 -4,-907 738.871,-907 738.871,4 -4,4"/>
<!-- _diagram_info -->
<g id="node1" class="node"><title>_diagram_info</title>
<text text-anchor="start" x="126.818" y="-874.6" font-family="Times,serif" font-size="13.00">Models diagram</text>
<text text-anchor="start" x="126.818" y="-861.6" font-family="Times,serif" font-size="13.00">Date: Jan 08 2016 &#45; 14:22</text>
<text text-anchor="start" x="126.818" y="-848.6" font-family="Times,serif" font-size="13.00">Migration version: 20160108121704</text>
<text text-anchor="start" x="126.818" y="-835.6" font-family="Times,serif" font-size="13.00">Generated by RailRoady 1.4.2</text>
<text text-anchor="start" x="126.818" y="-822.6" font-family="Times,serif" font-size="13.00">http://railroady.prestonlee.com</text>
</g>
<!-- Allocationitem -->
<g id="node2" class="node"><title>Allocationitem</title>
<path fill="none" stroke="black" d="M250.117,-180.5C250.117,-180.5 380.894,-180.5 380.894,-180.5 386.894,-180.5 392.894,-186.5 392.894,-192.5 392.894,-192.5 392.894,-282.5 392.894,-282.5 392.894,-288.5 386.894,-294.5 380.894,-294.5 380.894,-294.5 250.117,-294.5 250.117,-294.5 244.117,-294.5 238.117,-288.5 238.117,-282.5 238.117,-282.5 238.117,-192.5 238.117,-192.5 238.117,-186.5 244.117,-180.5 250.117,-180.5"/>
<text text-anchor="middle" x="315.505" y="-279.3" font-family="Times,serif" font-size="14.00">Allocationitem</text>
<polyline fill="none" stroke="black" points="238.117,-272.5 392.894,-272.5 "/>
<text text-anchor="start" x="246.117" y="-257.3" font-family="Times,serif" font-size="14.00">id :INTEGER</text>
<text text-anchor="start" x="246.117" y="-243.3" font-family="Times,serif" font-size="14.00">workpackage_id :integer</text>
<text text-anchor="start" x="246.117" y="-229.3" font-family="Times,serif" font-size="14.00">component_id :integer</text>
<text text-anchor="start" x="246.117" y="-215.3" font-family="Times,serif" font-size="14.00">role_id :integer</text>
<text text-anchor="start" x="246.117" y="-201.3" font-family="Times,serif" font-size="14.00">created_at :datetime</text>
<text text-anchor="start" x="246.117" y="-187.3" font-family="Times,serif" font-size="14.00">updated_at :datetime</text>
</g>
<!-- Component -->
<g id="node3" class="node"><title>Component</title>
<path fill="none" stroke="black" d="M12,-346.5C12,-346.5 121.011,-346.5 121.011,-346.5 127.011,-346.5 133.011,-352.5 133.011,-358.5 133.011,-358.5 133.011,-448.5 133.011,-448.5 133.011,-454.5 127.011,-460.5 121.011,-460.5 121.011,-460.5 12,-460.5 12,-460.5 6,-460.5 0,-454.5 0,-448.5 0,-448.5 0,-358.5 0,-358.5 0,-352.5 6,-346.5 12,-346.5"/>
<text text-anchor="middle" x="66.5054" y="-445.3" font-family="Times,serif" font-size="14.00">Component</text>
<polyline fill="none" stroke="black" points="0,-438.5 133.011,-438.5 "/>
<text text-anchor="start" x="8" y="-423.3" font-family="Times,serif" font-size="14.00">id :INTEGER</text>
<text text-anchor="start" x="8" y="-409.3" font-family="Times,serif" font-size="14.00">name :varchar</text>
<text text-anchor="start" x="8" y="-395.3" font-family="Times,serif" font-size="14.00">description :varchar</text>
<text text-anchor="start" x="8" y="-381.3" font-family="Times,serif" font-size="14.00">modul_id :integer</text>
<text text-anchor="start" x="8" y="-367.3" font-family="Times,serif" font-size="14.00">created_at :datetime</text>
<text text-anchor="start" x="8" y="-353.3" font-family="Times,serif" font-size="14.00">updated_at :datetime</text>
</g>
<!-- Component&#45;&gt;Allocationitem -->
<g id="edge1" class="edge"><title>Component&#45;&gt;Allocationitem</title>
<path fill="none" stroke="#c47a5b" d="M140.254,-347.539C141.007,-347.022 141.758,-346.509 142.505,-346 170.801,-326.74 202.432,-306.676 230.831,-289.169"/>
<ellipse fill="none" stroke="#c47a5b" cx="136.709" cy="-350" rx="4.00002" ry="4.00002"/>
<ellipse fill="#c47a5b" stroke="#c47a5b" cx="234.57" cy="-286.87" rx="4.00002" ry="4.00002"/>
</g>
<!-- Event -->
<g id="node4" class="node"><title>Event</title>
<path fill="none" stroke="black" d="M515.048,-498.5C515.048,-498.5 641.962,-498.5 641.962,-498.5 647.962,-498.5 653.962,-504.5 653.962,-510.5 653.962,-510.5 653.962,-600.5 653.962,-600.5 653.962,-606.5 647.962,-612.5 641.962,-612.5 641.962,-612.5 515.048,-612.5 515.048,-612.5 509.048,-612.5 503.048,-606.5 503.048,-600.5 503.048,-600.5 503.048,-510.5 503.048,-510.5 503.048,-504.5 509.048,-498.5 515.048,-498.5"/>
<text text-anchor="middle" x="578.505" y="-597.3" font-family="Times,serif" font-size="14.00">Event</text>
<polyline fill="none" stroke="black" points="503.048,-590.5 653.962,-590.5 "/>
<text text-anchor="start" x="511.048" y="-575.3" font-family="Times,serif" font-size="14.00">id :INTEGER</text>
<text text-anchor="start" x="511.048" y="-561.3" font-family="Times,serif" font-size="14.00">startDate :date</text>
<text text-anchor="start" x="511.048" y="-547.3" font-family="Times,serif" font-size="14.00">questionarys_id :integer</text>
<text text-anchor="start" x="511.048" y="-533.3" font-family="Times,serif" font-size="14.00">project_id :integer</text>
<text text-anchor="start" x="511.048" y="-519.3" font-family="Times,serif" font-size="14.00">created_at :datetime</text>
<text text-anchor="start" x="511.048" y="-505.3" font-family="Times,serif" font-size="14.00">updated_at :datetime</text>
</g>
<!-- Kind -->
<g id="node5" class="node"><title>Kind</title>
<path fill="none" stroke="black" d="M205,-657.5C205,-657.5 314.011,-657.5 314.011,-657.5 320.011,-657.5 326.011,-663.5 326.011,-669.5 326.011,-669.5 326.011,-745.5 326.011,-745.5 326.011,-751.5 320.011,-757.5 314.011,-757.5 314.011,-757.5 205,-757.5 205,-757.5 199,-757.5 193,-751.5 193,-745.5 193,-745.5 193,-669.5 193,-669.5 193,-663.5 199,-657.5 205,-657.5"/>
<text text-anchor="middle" x="259.505" y="-742.3" font-family="Times,serif" font-size="14.00">Kind</text>
<polyline fill="none" stroke="black" points="193,-735.5 326.011,-735.5 "/>
<text text-anchor="start" x="201" y="-720.3" font-family="Times,serif" font-size="14.00">id :INTEGER</text>
<text text-anchor="start" x="201" y="-706.3" font-family="Times,serif" font-size="14.00">name :varchar</text>
<text text-anchor="start" x="201" y="-692.3" font-family="Times,serif" font-size="14.00">project_id :integer</text>
<text text-anchor="start" x="201" y="-678.3" font-family="Times,serif" font-size="14.00">created_at :datetime</text>
<text text-anchor="start" x="201" y="-664.3" font-family="Times,serif" font-size="14.00">updated_at :datetime</text>
</g>
<!-- Role -->
<g id="node12" class="node"><title>Role</title>
<path fill="none" stroke="black" d="M205,-505.5C205,-505.5 314.011,-505.5 314.011,-505.5 320.011,-505.5 326.011,-511.5 326.011,-517.5 326.011,-517.5 326.011,-593.5 326.011,-593.5 326.011,-599.5 320.011,-605.5 314.011,-605.5 314.011,-605.5 205,-605.5 205,-605.5 199,-605.5 193,-599.5 193,-593.5 193,-593.5 193,-517.5 193,-517.5 193,-511.5 199,-505.5 205,-505.5"/>
<text text-anchor="middle" x="259.505" y="-590.3" font-family="Times,serif" font-size="14.00">Role</text>
<polyline fill="none" stroke="black" points="193,-583.5 326.011,-583.5 "/>
<text text-anchor="start" x="201" y="-568.3" font-family="Times,serif" font-size="14.00">id :INTEGER</text>
<text text-anchor="start" x="201" y="-554.3" font-family="Times,serif" font-size="14.00">name :varchar</text>
<text text-anchor="start" x="201" y="-540.3" font-family="Times,serif" font-size="14.00">kind_id :integer</text>
<text text-anchor="start" x="201" y="-526.3" font-family="Times,serif" font-size="14.00">created_at :datetime</text>
<text text-anchor="start" x="201" y="-512.3" font-family="Times,serif" font-size="14.00">updated_at :datetime</text>
</g>
<!-- Kind&#45;&gt;Role -->
<g id="edge2" class="edge"><title>Kind&#45;&gt;Role</title>
<path fill="none" stroke="#0e9b42" d="M259.505,-649.088C259.505,-638.253 259.505,-626.899 259.505,-616.002"/>
<ellipse fill="none" stroke="#0e9b42" cx="259.505" cy="-653.384" rx="4" ry="4"/>
<polygon fill="#0e9b42" stroke="#0e9b42" points="259.505,-615.726 264.005,-605.726 259.505,-610.726 259.505,-605.726 259.505,-605.726 259.505,-605.726 259.505,-610.726 255.005,-605.726 259.505,-615.726 259.505,-615.726"/>
</g>
<!-- Modul -->
<g id="node6" class="node"><title>Modul</title>
<path fill="none" stroke="black" d="M35.3242,-498.5C35.3242,-498.5 153.687,-498.5 153.687,-498.5 159.687,-498.5 165.687,-504.5 165.687,-510.5 165.687,-510.5 165.687,-600.5 165.687,-600.5 165.687,-606.5 159.687,-612.5 153.687,-612.5 153.687,-612.5 35.3242,-612.5 35.3242,-612.5 29.3242,-612.5 23.3242,-606.5 23.3242,-600.5 23.3242,-600.5 23.3242,-510.5 23.3242,-510.5 23.3242,-504.5 29.3242,-498.5 35.3242,-498.5"/>
<text text-anchor="middle" x="94.5054" y="-597.3" font-family="Times,serif" font-size="14.00">Modul</text>
<polyline fill="none" stroke="black" points="23.3242,-590.5 165.687,-590.5 "/>
<text text-anchor="start" x="31.3242" y="-575.3" font-family="Times,serif" font-size="14.00">id :INTEGER</text>
<text text-anchor="start" x="31.3242" y="-561.3" font-family="Times,serif" font-size="14.00">name :varchar</text>
<text text-anchor="start" x="31.3242" y="-547.3" font-family="Times,serif" font-size="14.00">description :varchar</text>
<text text-anchor="start" x="31.3242" y="-533.3" font-family="Times,serif" font-size="14.00">subproduct_id :integer</text>
<text text-anchor="start" x="31.3242" y="-519.3" font-family="Times,serif" font-size="14.00">created_at :datetime</text>
<text text-anchor="start" x="31.3242" y="-505.3" font-family="Times,serif" font-size="14.00">updated_at :datetime</text>
</g>
<!-- Modul&#45;&gt;Component -->
<g id="edge3" class="edge"><title>Modul&#45;&gt;Component</title>
<path fill="none" stroke="#350039" d="M82.5308,-490.351C81.3185,-483.856 80.0855,-477.251 78.8692,-470.735"/>
<ellipse fill="none" stroke="#350039" cx="83.2655" cy="-494.287" rx="4.00001" ry="4.00001"/>
<polygon fill="#350039" stroke="#350039" points="78.812,-470.428 81.4005,-459.772 77.8945,-465.513 76.977,-460.598 76.977,-460.598 76.977,-460.598 77.8945,-465.513 72.5534,-461.424 78.812,-470.428 78.812,-470.428"/>
</g>
<!-- Project -->
<g id="node7" class="node"><title>Project</title>
<path fill="none" stroke="black" d="M356,-802.5C356,-802.5 465.011,-802.5 465.011,-802.5 471.011,-802.5 477.011,-808.5 477.011,-814.5 477.011,-814.5 477.011,-890.5 477.011,-890.5 477.011,-896.5 471.011,-902.5 465.011,-902.5 465.011,-902.5 356,-902.5 356,-902.5 350,-902.5 344,-896.5 344,-890.5 344,-890.5 344,-814.5 344,-814.5 344,-808.5 350,-802.5 356,-802.5"/>
<text text-anchor="middle" x="410.505" y="-887.3" font-family="Times,serif" font-size="14.00">Project</text>
<polyline fill="none" stroke="black" points="344,-880.5 477.011,-880.5 "/>
<text text-anchor="start" x="352" y="-865.3" font-family="Times,serif" font-size="14.00">id :INTEGER</text>
<text text-anchor="start" x="352" y="-851.3" font-family="Times,serif" font-size="14.00">title :varchar</text>
<text text-anchor="start" x="352" y="-837.3" font-family="Times,serif" font-size="14.00">description :varchar</text>
<text text-anchor="start" x="352" y="-823.3" font-family="Times,serif" font-size="14.00">created_at :datetime</text>
<text text-anchor="start" x="352" y="-809.3" font-family="Times,serif" font-size="14.00">updated_at :datetime</text>
</g>
<!-- Project&#45;&gt;Event -->
<g id="edge8" class="edge"><title>Project&#45;&gt;Event</title>
<path fill="none" stroke="#aecca0" d="M464.867,-796.065C472.831,-786.212 480.394,-775.673 486.505,-765 513.252,-718.286 502.485,-699.119 524.505,-650 528.689,-640.667 533.543,-631.065 538.59,-621.733"/>
<ellipse fill="none" stroke="#aecca0" cx="462.139" cy="-799.356" rx="4.00002" ry="4.00002"/>
<polygon fill="#aecca0" stroke="#aecca0" points="538.641,-621.64 547.414,-615.06 541.058,-617.263 543.474,-612.885 543.474,-612.885 543.474,-612.885 541.058,-617.263 539.534,-610.711 538.641,-621.64 538.641,-621.64"/>
</g>
<!-- Project&#45;&gt;Kind -->
<g id="edge5" class="edge"><title>Project&#45;&gt;Kind</title>
<path fill="none" stroke="#f68fa4" d="M352.387,-796.46C341.396,-786.052 329.885,-775.151 318.857,-764.707"/>
<ellipse fill="none" stroke="#f68fa4" cx="355.635" cy="-799.537" rx="4.00002" ry="4.00002"/>
<polygon fill="#f68fa4" stroke="#f68fa4" points="318.572,-764.437 314.405,-754.293 314.941,-760.999 311.311,-757.561 311.311,-757.561 311.311,-757.561 314.941,-760.999 308.217,-760.828 318.572,-764.437 318.572,-764.437"/>
</g>
<!-- Questionary -->
<g id="node9" class="node"><title>Questionary</title>
<path fill="none" stroke="black" d="M546,-657.5C546,-657.5 655.011,-657.5 655.011,-657.5 661.011,-657.5 667.011,-663.5 667.011,-669.5 667.011,-669.5 667.011,-745.5 667.011,-745.5 667.011,-751.5 661.011,-757.5 655.011,-757.5 655.011,-757.5 546,-757.5 546,-757.5 540,-757.5 534,-751.5 534,-745.5 534,-745.5 534,-669.5 534,-669.5 534,-663.5 540,-657.5 546,-657.5"/>
<text text-anchor="middle" x="600.505" y="-742.3" font-family="Times,serif" font-size="14.00">Questionary</text>
<polyline fill="none" stroke="black" points="534,-735.5 667.011,-735.5 "/>
<text text-anchor="start" x="542" y="-720.3" font-family="Times,serif" font-size="14.00">id :INTEGER</text>
<text text-anchor="start" x="542" y="-706.3" font-family="Times,serif" font-size="14.00">runde :integer</text>
<text text-anchor="start" x="542" y="-692.3" font-family="Times,serif" font-size="14.00">project_id :integer</text>
<text text-anchor="start" x="542" y="-678.3" font-family="Times,serif" font-size="14.00">created_at :datetime</text>
<text text-anchor="start" x="542" y="-664.3" font-family="Times,serif" font-size="14.00">updated_at :datetime</text>
</g>
<!-- Project&#45;&gt;Questionary -->
<g id="edge7" class="edge"><title>Project&#45;&gt;Questionary</title>
<path fill="none" stroke="#f89bed" d="M483.787,-808.872C495.993,-800.999 508.312,-792.551 519.505,-784 527.411,-777.961 535.43,-771.278 543.194,-764.458"/>
<ellipse fill="none" stroke="#f89bed" cx="480.399" cy="-811.033" rx="4.00002" ry="4.00002"/>
<polygon fill="#f89bed" stroke="#f89bed" points="543.401,-764.273 553.857,-760.968 547.13,-760.943 550.86,-757.612 550.86,-757.612 550.86,-757.612 547.13,-760.943 547.862,-754.256 543.401,-764.273 543.401,-764.273"/>
</g>
<!-- Subproduct -->
<g id="node13" class="node"><title>Subproduct</title>
<path fill="none" stroke="black" d="M51,-650.5C51,-650.5 160.011,-650.5 160.011,-650.5 166.011,-650.5 172.011,-656.5 172.011,-662.5 172.011,-662.5 172.011,-752.5 172.011,-752.5 172.011,-758.5 166.011,-764.5 160.011,-764.5 160.011,-764.5 51,-764.5 51,-764.5 45,-764.5 39,-758.5 39,-752.5 39,-752.5 39,-662.5 39,-662.5 39,-656.5 45,-650.5 51,-650.5"/>
<text text-anchor="middle" x="105.505" y="-749.3" font-family="Times,serif" font-size="14.00">Subproduct</text>
<polyline fill="none" stroke="black" points="39,-742.5 172.011,-742.5 "/>
<text text-anchor="start" x="47" y="-727.3" font-family="Times,serif" font-size="14.00">id :INTEGER</text>
<text text-anchor="start" x="47" y="-713.3" font-family="Times,serif" font-size="14.00">name :varchar</text>
<text text-anchor="start" x="47" y="-699.3" font-family="Times,serif" font-size="14.00">description :varchar</text>
<text text-anchor="start" x="47" y="-685.3" font-family="Times,serif" font-size="14.00">project_id :integer</text>
<text text-anchor="start" x="47" y="-671.3" font-family="Times,serif" font-size="14.00">created_at :datetime</text>
<text text-anchor="start" x="47" y="-657.3" font-family="Times,serif" font-size="14.00">updated_at :datetime</text>
</g>
<!-- Project&#45;&gt;Subproduct -->
<g id="edge4" class="edge"><title>Project&#45;&gt;Subproduct</title>
<path fill="none" stroke="#e81c2c" d="M336.27,-802.336C336.015,-802.223 335.76,-802.111 335.505,-802 271.769,-774.217 246.622,-794.163 183.505,-765 182.794,-764.671 182.082,-764.336 181.371,-763.993"/>
<ellipse fill="none" stroke="#e81c2c" cx="340.052" cy="-804.118" rx="4.00002" ry="4.00002"/>
<polygon fill="#e81c2c" stroke="#e81c2c" points="181.025,-763.814 174.223,-755.212 176.587,-761.51 172.15,-759.206 172.15,-759.206 172.15,-759.206 176.587,-761.51 170.076,-763.2 181.025,-763.814 181.025,-763.814"/>
</g>
<!-- Task -->
<g id="node15" class="node"><title>Task</title>
<path fill="none" stroke="black" d="M356,-657.5C356,-657.5 465.011,-657.5 465.011,-657.5 471.011,-657.5 477.011,-663.5 477.011,-669.5 477.011,-669.5 477.011,-745.5 477.011,-745.5 477.011,-751.5 471.011,-757.5 465.011,-757.5 465.011,-757.5 356,-757.5 356,-757.5 350,-757.5 344,-751.5 344,-745.5 344,-745.5 344,-669.5 344,-669.5 344,-663.5 350,-657.5 356,-657.5"/>
<text text-anchor="middle" x="410.505" y="-742.3" font-family="Times,serif" font-size="14.00">Task</text>
<polyline fill="none" stroke="black" points="344,-735.5 477.011,-735.5 "/>
<text text-anchor="start" x="352" y="-720.3" font-family="Times,serif" font-size="14.00">id :INTEGER</text>
<text text-anchor="start" x="352" y="-706.3" font-family="Times,serif" font-size="14.00">name :varchar</text>
<text text-anchor="start" x="352" y="-692.3" font-family="Times,serif" font-size="14.00">project_id :integer</text>
<text text-anchor="start" x="352" y="-678.3" font-family="Times,serif" font-size="14.00">created_at :datetime</text>
<text text-anchor="start" x="352" y="-664.3" font-family="Times,serif" font-size="14.00">updated_at :datetime</text>
</g>
<!-- Project&#45;&gt;Task -->
<g id="edge6" class="edge"><title>Project&#45;&gt;Task</title>
<path fill="none" stroke="#8e8c74" d="M410.505,-794.075C410.505,-785.439 410.505,-776.518 410.505,-767.842"/>
<ellipse fill="none" stroke="#8e8c74" cx="410.505" cy="-798.288" rx="4" ry="4"/>
<polygon fill="#8e8c74" stroke="#8e8c74" points="410.505,-767.803 415.005,-757.803 410.505,-762.803 410.505,-757.803 410.505,-757.803 410.505,-757.803 410.505,-762.803 406.005,-757.803 410.505,-767.803 410.505,-767.803"/>
</g>
<!-- Question -->
<g id="node8" class="node"><title>Question</title>
<path fill="none" stroke="black" d="M545.007,-166.5C545.007,-166.5 696.004,-166.5 696.004,-166.5 702.004,-166.5 708.004,-172.5 708.004,-178.5 708.004,-178.5 708.004,-296.5 708.004,-296.5 708.004,-302.5 702.004,-308.5 696.004,-308.5 696.004,-308.5 545.007,-308.5 545.007,-308.5 539.007,-308.5 533.007,-302.5 533.007,-296.5 533.007,-296.5 533.007,-178.5 533.007,-178.5 533.007,-172.5 539.007,-166.5 545.007,-166.5"/>
<text text-anchor="middle" x="620.505" y="-293.3" font-family="Times,serif" font-size="14.00">Question</text>
<polyline fill="none" stroke="black" points="533.007,-286.5 708.004,-286.5 "/>
<text text-anchor="start" x="541.007" y="-271.3" font-family="Times,serif" font-size="14.00">id :INTEGER</text>
<text text-anchor="start" x="541.007" y="-257.3" font-family="Times,serif" font-size="14.00">pessimistic_average :integer</text>
<text text-anchor="start" x="541.007" y="-243.3" font-family="Times,serif" font-size="14.00">realistic_average :integer</text>
<text text-anchor="start" x="541.007" y="-229.3" font-family="Times,serif" font-size="14.00">optimistic_average :integer</text>
<text text-anchor="start" x="541.007" y="-215.3" font-family="Times,serif" font-size="14.00">questionary_id :integer</text>
<text text-anchor="start" x="541.007" y="-201.3" font-family="Times,serif" font-size="14.00">workpackage_id :integer</text>
<text text-anchor="start" x="541.007" y="-187.3" font-family="Times,serif" font-size="14.00">created_at :datetime</text>
<text text-anchor="start" x="541.007" y="-173.3" font-family="Times,serif" font-size="14.00">updated_at :datetime</text>
</g>
<!-- Response -->
<g id="node11" class="node"><title>Response</title>
<path fill="none" stroke="black" d="M566,-0.5C566,-0.5 675.011,-0.5 675.011,-0.5 681.011,-0.5 687.011,-6.5 687.011,-12.5 687.011,-12.5 687.011,-116.5 687.011,-116.5 687.011,-122.5 681.011,-128.5 675.011,-128.5 675.011,-128.5 566,-128.5 566,-128.5 560,-128.5 554,-122.5 554,-116.5 554,-116.5 554,-12.5 554,-12.5 554,-6.5 560,-0.5 566,-0.5"/>
<text text-anchor="middle" x="620.505" y="-113.3" font-family="Times,serif" font-size="14.00">Response</text>
<polyline fill="none" stroke="black" points="554,-106.5 687.011,-106.5 "/>
<text text-anchor="start" x="562" y="-91.3" font-family="Times,serif" font-size="14.00">id :INTEGER</text>
<text text-anchor="start" x="562" y="-77.3" font-family="Times,serif" font-size="14.00">pessimistic :integer</text>
<text text-anchor="start" x="562" y="-63.3" font-family="Times,serif" font-size="14.00">realistic :integer</text>
<text text-anchor="start" x="562" y="-49.3" font-family="Times,serif" font-size="14.00">optimistic :integer</text>
<text text-anchor="start" x="562" y="-35.3" font-family="Times,serif" font-size="14.00">question_id :integer</text>
<text text-anchor="start" x="562" y="-21.3" font-family="Times,serif" font-size="14.00">created_at :datetime</text>
<text text-anchor="start" x="562" y="-7.3" font-family="Times,serif" font-size="14.00">updated_at :datetime</text>
</g>
<!-- Question&#45;&gt;Response -->
<g id="edge9" class="edge"><title>Question&#45;&gt;Response</title>
<path fill="none" stroke="#0343f0" d="M620.505,-158.168C620.505,-151.662 620.505,-145.1 620.505,-138.634"/>
<ellipse fill="none" stroke="#0343f0" cx="620.505" cy="-162.454" rx="4" ry="4"/>
<polygon fill="#0343f0" stroke="#0343f0" points="620.505,-138.574 625.005,-128.574 620.505,-133.574 620.505,-128.574 620.505,-128.574 620.505,-128.574 620.505,-133.574 616.005,-128.575 620.505,-138.574 620.505,-138.574"/>
</g>
<!-- Questionary&#45;&gt;Event -->
<g id="edge11" class="edge"><title>Questionary&#45;&gt;Event</title>
<path fill="none" stroke="#aca21f" d="M592.105,-649.224C590.831,-640.536 589.507,-631.512 588.208,-622.654"/>
<ellipse fill="none" stroke="#aca21f" cx="592.721" cy="-653.427" rx="4.00001" ry="4.00001"/>
<polygon fill="#aca21f" stroke="#aca21f" points="588.207,-622.645 591.208,-612.098 587.481,-617.698 586.756,-612.751 586.756,-612.751 586.756,-612.751 587.481,-617.698 582.303,-613.404 588.207,-622.645 588.207,-622.645"/>
</g>
<!-- Questionary&#45;&gt;Question -->
<g id="edge10" class="edge"><title>Questionary&#45;&gt;Question</title>
<path fill="none" stroke="#ca732d" d="M639.845,-650.396C670.489,-602.623 710.019,-530.818 723.505,-461 733.199,-410.817 742.559,-393.427 723.505,-346 719.411,-335.809 713.838,-326.039 707.39,-316.831"/>
<ellipse fill="none" stroke="#ca732d" cx="637.567" cy="-653.91" rx="4.00002" ry="4.00002"/>
<polygon fill="#ca732d" stroke="#ca732d" points="707.197,-316.57 704.855,-305.857 704.218,-312.554 701.24,-308.538 701.24,-308.538 701.24,-308.538 704.218,-312.554 697.626,-311.218 707.197,-316.57 707.197,-316.57"/>
</g>
<!-- Requirment -->
<g id="node10" class="node"><title>Requirment</title>
<path fill="none" stroke="black" d="M163.441,-346.5C163.441,-346.5 275.569,-346.5 275.569,-346.5 281.569,-346.5 287.569,-352.5 287.569,-358.5 287.569,-358.5 287.569,-448.5 287.569,-448.5 287.569,-454.5 281.569,-460.5 275.569,-460.5 275.569,-460.5 163.441,-460.5 163.441,-460.5 157.441,-460.5 151.441,-454.5 151.441,-448.5 151.441,-448.5 151.441,-358.5 151.441,-358.5 151.441,-352.5 157.441,-346.5 163.441,-346.5"/>
<text text-anchor="middle" x="219.505" y="-445.3" font-family="Times,serif" font-size="14.00">Requirment</text>
<polyline fill="none" stroke="black" points="151.441,-438.5 287.569,-438.5 "/>
<text text-anchor="start" x="159.441" y="-423.3" font-family="Times,serif" font-size="14.00">id :INTEGER</text>
<text text-anchor="start" x="159.441" y="-409.3" font-family="Times,serif" font-size="14.00">qualifikation :varchar</text>
<text text-anchor="start" x="159.441" y="-395.3" font-family="Times,serif" font-size="14.00">experience :varchar</text>
<text text-anchor="start" x="159.441" y="-381.3" font-family="Times,serif" font-size="14.00">role_id :integer</text>
<text text-anchor="start" x="159.441" y="-367.3" font-family="Times,serif" font-size="14.00">created_at :datetime</text>
<text text-anchor="start" x="159.441" y="-353.3" font-family="Times,serif" font-size="14.00">updated_at :datetime</text>
</g>
<!-- Role&#45;&gt;Allocationitem -->
<g id="edge12" class="edge"><title>Role&#45;&gt;Allocationitem</title>
<path fill="none" stroke="#100611" d="M285.031,-497.674C289.515,-485.76 293.653,-473.128 296.505,-461 308.831,-408.596 313.375,-347.579 314.953,-302.711"/>
<ellipse fill="none" stroke="#100611" cx="283.488" cy="-501.656" rx="4.00001" ry="4.00001"/>
<ellipse fill="#100611" stroke="#100611" cx="315.087" cy="-298.525" rx="4" ry="4"/>
</g>
<!-- Role&#45;&gt;Requirment -->
<g id="edge13" class="edge"><title>Role&#45;&gt;Requirment</title>
<path fill="none" stroke="#fb15e4" d="M244.324,-497.569C241.962,-488.712 239.505,-479.498 237.095,-470.462"/>
<ellipse fill="none" stroke="#fb15e4" cx="245.377" cy="-501.519" rx="4.00001" ry="4.00001"/>
<polygon fill="#fb15e4" stroke="#fb15e4" points="237.082,-470.414 238.854,-459.592 235.794,-465.582 234.506,-460.751 234.506,-460.751 234.506,-460.751 235.794,-465.582 230.158,-461.911 237.082,-470.414 237.082,-470.414"/>
</g>
<!-- Subproduct&#45;&gt;Modul -->
<g id="edge14" class="edge"><title>Subproduct&#45;&gt;Modul</title>
<path fill="none" stroke="#633146" d="M100.78,-642.057C100.308,-635.623 99.8282,-629.084 99.3552,-622.633"/>
<ellipse fill="none" stroke="#633146" cx="101.085" cy="-646.229" rx="4" ry="4"/>
<polygon fill="#633146" stroke="#633146" points="99.3507,-622.571 103.107,-612.269 98.9849,-617.584 98.6192,-612.598 98.6192,-612.598 98.6192,-612.598 98.9849,-617.584 94.1313,-612.927 99.3507,-622.571 99.3507,-622.571"/>
</g>
<!-- Subtask -->
<g id="node14" class="node"><title>Subtask</title>
<path fill="none" stroke="black" d="M356,-505.5C356,-505.5 465.011,-505.5 465.011,-505.5 471.011,-505.5 477.011,-511.5 477.011,-517.5 477.011,-517.5 477.011,-593.5 477.011,-593.5 477.011,-599.5 471.011,-605.5 465.011,-605.5 465.011,-605.5 356,-605.5 356,-605.5 350,-605.5 344,-599.5 344,-593.5 344,-593.5 344,-517.5 344,-517.5 344,-511.5 350,-505.5 356,-505.5"/>
<text text-anchor="middle" x="410.505" y="-590.3" font-family="Times,serif" font-size="14.00">Subtask</text>
<polyline fill="none" stroke="black" points="344,-583.5 477.011,-583.5 "/>
<text text-anchor="start" x="352" y="-568.3" font-family="Times,serif" font-size="14.00">id :INTEGER</text>
<text text-anchor="start" x="352" y="-554.3" font-family="Times,serif" font-size="14.00">name :varchar</text>
<text text-anchor="start" x="352" y="-540.3" font-family="Times,serif" font-size="14.00">task_id :integer</text>
<text text-anchor="start" x="352" y="-526.3" font-family="Times,serif" font-size="14.00">created_at :datetime</text>
<text text-anchor="start" x="352" y="-512.3" font-family="Times,serif" font-size="14.00">updated_at :datetime</text>
</g>
<!-- Workpackage -->
<g id="node16" class="node"><title>Workpackage</title>
<path fill="none" stroke="black" d="M355.607,-346.5C355.607,-346.5 465.404,-346.5 465.404,-346.5 471.404,-346.5 477.404,-352.5 477.404,-358.5 477.404,-358.5 477.404,-448.5 477.404,-448.5 477.404,-454.5 471.404,-460.5 465.404,-460.5 465.404,-460.5 355.607,-460.5 355.607,-460.5 349.607,-460.5 343.607,-454.5 343.607,-448.5 343.607,-448.5 343.607,-358.5 343.607,-358.5 343.607,-352.5 349.607,-346.5 355.607,-346.5"/>
<text text-anchor="middle" x="410.505" y="-445.3" font-family="Times,serif" font-size="14.00">Workpackage</text>
<polyline fill="none" stroke="black" points="343.607,-438.5 477.404,-438.5 "/>
<text text-anchor="start" x="351.607" y="-423.3" font-family="Times,serif" font-size="14.00">id :INTEGER</text>
<text text-anchor="start" x="351.607" y="-409.3" font-family="Times,serif" font-size="14.00">name :varchar</text>
<text text-anchor="start" x="351.607" y="-395.3" font-family="Times,serif" font-size="14.00">subtask_id :integer</text>
<text text-anchor="start" x="351.607" y="-381.3" font-family="Times,serif" font-size="14.00">successor_id :integer</text>
<text text-anchor="start" x="351.607" y="-367.3" font-family="Times,serif" font-size="14.00">created_at :datetime</text>
<text text-anchor="start" x="351.607" y="-353.3" font-family="Times,serif" font-size="14.00">updated_at :datetime</text>
</g>
<!-- Subtask&#45;&gt;Workpackage -->
<g id="edge15" class="edge"><title>Subtask&#45;&gt;Workpackage</title>
<path fill="none" stroke="#da435b" d="M410.505,-497.224C410.505,-488.63 410.505,-479.706 410.505,-470.94"/>
<ellipse fill="none" stroke="#da435b" cx="410.505" cy="-501.384" rx="4" ry="4"/>
<polygon fill="#da435b" stroke="#da435b" points="410.505,-470.751 415.005,-460.751 410.505,-465.751 410.505,-460.751 410.505,-460.751 410.505,-460.751 410.505,-465.751 406.005,-460.751 410.505,-470.751 410.505,-470.751"/>
</g>
<!-- Task&#45;&gt;Subtask -->
<g id="edge16" class="edge"><title>Task&#45;&gt;Subtask</title>
<path fill="none" stroke="#bdb78a" d="M410.505,-649.088C410.505,-638.253 410.505,-626.899 410.505,-616.002"/>
<ellipse fill="none" stroke="#bdb78a" cx="410.505" cy="-653.384" rx="4" ry="4"/>
<polygon fill="#bdb78a" stroke="#bdb78a" points="410.505,-615.726 415.005,-605.726 410.505,-610.726 410.505,-605.726 410.505,-605.726 410.505,-605.726 410.505,-610.726 406.005,-605.726 410.505,-615.726 410.505,-615.726"/>
</g>
<!-- Workpackage&#45;&gt;Allocationitem -->
<g id="edge21" class="edge"><title>Workpackage&#45;&gt;Allocationitem</title>
<path fill="none" stroke="#e672dc" d="M373.71,-338.98C366.653,-326.797 359.263,-314.039 352.208,-301.86"/>
<ellipse fill="none" stroke="#e672dc" cx="375.807" cy="-342.599" rx="4.00002" ry="4.00002"/>
<ellipse fill="#e672dc" stroke="#e672dc" cx="350.103" cy="-298.227" rx="4.00002" ry="4.00002"/>
</g>
<!-- Workpackage&#45;&gt;Question -->
<g id="edge17" class="edge"><title>Workpackage&#45;&gt;Question</title>
<path fill="none" stroke="#f84b90" d="M484.172,-344.97C497.262,-334.747 511.067,-323.966 524.666,-313.346"/>
<ellipse fill="none" stroke="#f84b90" cx="480.681" cy="-347.696" rx="4.00002" ry="4.00002"/>
<polygon fill="#f84b90" stroke="#f84b90" points="524.76,-313.272 535.412,-310.664 528.701,-310.195 532.642,-307.117 532.642,-307.117 532.642,-307.117 528.701,-310.195 529.872,-303.571 524.76,-313.272 524.76,-313.272"/>
</g>
<!-- Workpackage&#45;&gt;Workpackage -->
<g id="edge18" class="edge"><title>Workpackage&#45;&gt;Workpackage</title>
<path fill="none" stroke="#1933e6" d="M485.538,-407.14C491.628,-406.349 495.404,-405.136 495.404,-403.5 495.404,-401.864 491.628,-400.651 485.538,-399.86"/>
<ellipse fill="none" stroke="#1933e6" cx="481.399" cy="-407.514" rx="4" ry="4"/>
<ellipse fill="#1933e6" stroke="#1933e6" cx="481.399" cy="-399.486" rx="4" ry="4"/>
<text text-anchor="middle" x="522.228" y="-399.3" font-family="Times,serif" font-size="14.00">successor</text>
</g>
<!-- Workpackage&#45;&gt;Workpackage -->
<g id="edge19" class="edge"><title>Workpackage&#45;&gt;Workpackage</title>
<path fill="none" stroke="#9a0e95" d="M487.605,-412.971C520.049,-413.338 549.052,-410.181 549.052,-403.5 549.052,-396.819 520.049,-393.662 487.605,-394.029"/>
<polygon fill="#9a0e95" stroke="#9a0e95" points="487.451,-412.968 477.554,-408.245 482.452,-412.856 477.454,-412.744 477.454,-412.744 477.454,-412.744 482.452,-412.856 477.353,-417.243 487.451,-412.968 487.451,-412.968"/>
<polygon fill="#9a0e95" stroke="#9a0e95" points="487.451,-394.032 477.353,-389.757 482.452,-394.144 477.454,-394.256 477.454,-394.256 477.454,-394.256 482.452,-394.144 477.554,-398.755 487.451,-394.032 487.451,-394.032"/>
<text text-anchor="middle" x="584.814" y="-399.3" font-family="Times,serif" font-size="14.00">predecessors</text>
</g>
<!-- Workpackage&#45;&gt;Workpackage -->
<g id="edge20" class="edge"><title>Workpackage&#45;&gt;Workpackage</title>
<path fill="none" stroke="#bfc1dc" d="M487.742,-416.478C548.982,-420.164 620.577,-415.839 620.577,-403.5 620.577,-391.161 548.982,-386.836 487.742,-390.522"/>
<polygon fill="#bfc1dc" stroke="#bfc1dc" points="487.602,-416.468 477.931,-411.298 482.613,-416.128 477.625,-415.788 477.625,-415.788 477.625,-415.788 482.613,-416.128 477.318,-420.277 487.602,-416.468 487.602,-416.468"/>
<polygon fill="#bfc1dc" stroke="#bfc1dc" points="487.602,-390.532 477.318,-386.723 482.613,-390.872 477.625,-391.212 477.625,-391.212 477.625,-391.212 482.613,-390.872 477.931,-395.702 487.602,-390.532 487.602,-390.532"/>
<text text-anchor="middle" x="650.125" y="-399.3" font-family="Times,serif" font-size="14.00">successors</text>
</g>
</g>
</svg>
