<?xml version="1.0" encoding="UTF-8" standalone="no"?>
<!DOCTYPE svg PUBLIC "-//W3C//DTD SVG 1.1//EN"
 "http://www.w3.org/Graphics/SVG/1.1/DTD/svg11.dtd">
<!-- Generated by graphviz version 2.38.0 (20140413.2041)
 -->
<!-- Title: models_diagram Pages: 1 -->
<svg width="828pt" height="446pt"
 viewBox="0.00 0.00 827.85 446.00" xmlns="http://www.w3.org/2000/svg" xmlns:xlink="http://www.w3.org/1999/xlink">
<g id="graph0" class="graph" transform="scale(1 1) rotate(0) translate(4 442)">
<title>models_diagram</title>
<polygon fill="none" stroke="none" points="-4,4 -4,-442 823.847,-442 823.847,4 -4,4"/>
<!-- _diagram_info -->
<g id="node1" class="node"><title>_diagram_info</title>
<text text-anchor="start" x="86.6871" y="-423.6" font-family="Times,serif" font-size="13.00">Models diagram</text>
<text text-anchor="start" x="86.6871" y="-410.6" font-family="Times,serif" font-size="13.00">Date: Jan 09 2016 &#45; 18:30</text>
<text text-anchor="start" x="86.6871" y="-397.6" font-family="Times,serif" font-size="13.00">Migration version: 20160109121954</text>
<text text-anchor="start" x="86.6871" y="-384.6" font-family="Times,serif" font-size="13.00">Generated by RailRoady 1.4.2</text>
<text text-anchor="start" x="86.6871" y="-371.6" font-family="Times,serif" font-size="13.00">http://railroady.prestonlee.com</text>
</g>
<!-- Allocationitem -->
<g id="node2" class="node"><title>Allocationitem</title>
<ellipse fill="none" stroke="black" cx="252.375" cy="-91" rx="63.3097" ry="18"/>
<text text-anchor="middle" x="252.375" y="-86.8" font-family="Times,serif" font-size="14.00">Allocationitem</text>
</g>
<!-- Component -->
<g id="node3" class="node"><title>Component</title>
<ellipse fill="none" stroke="black" cx="51.3749" cy="-164" rx="51.2501" ry="18"/>
<text text-anchor="middle" x="51.3749" y="-159.8" font-family="Times,serif" font-size="14.00">Component</text>
</g>
<!-- Component&#45;&gt;Allocationitem -->
<g id="edge1" class="edge"><title>Component&#45;&gt;Allocationitem</title>
<path fill="none" stroke="#0798a4" d="M94.2086,-147.87C127.203,-136.215 172.731,-120.133 206.472,-108.215"/>
<ellipse fill="none" stroke="#0798a4" cx="90.158" cy="-149.3" rx="4.00001" ry="4.00001"/>
<ellipse fill="#0798a4" stroke="#0798a4" cx="210.575" cy="-106.765" rx="4.00001" ry="4.00001"/>
</g>
<!-- Event -->
<g id="node4" class="node"><title>Event</title>
<ellipse fill="none" stroke="black" cx="515.375" cy="-237" rx="30.9706" ry="18"/>
<text text-anchor="middle" x="515.375" y="-232.8" font-family="Times,serif" font-size="14.00">Event</text>
</g>
<!-- Kind -->
<g id="node5" class="node"><title>Kind</title>
<ellipse fill="none" stroke="black" cx="263.375" cy="-310" rx="27.589" ry="18"/>
<text text-anchor="middle" x="263.375" y="-305.8" font-family="Times,serif" font-size="14.00">Kind</text>
</g>
<!-- Role -->
<g id="node12" class="node"><title>Role</title>
<ellipse fill="none" stroke="black" cx="252.375" cy="-237" rx="27" ry="18"/>
<text text-anchor="middle" x="252.375" y="-232.8" font-family="Times,serif" font-size="14.00">Role</text>
</g>
<!-- Kind&#45;&gt;Role -->
<g id="edge2" class="edge"><title>Kind&#45;&gt;Role</title>
<path fill="none" stroke="#9f84a8" d="M259.469,-283.791C258.523,-277.683 257.508,-271.13 256.55,-264.946"/>
<ellipse fill="none" stroke="#9f84a8" cx="260.1" cy="-287.86" rx="4.00001" ry="4.00001"/>
<polygon fill="#9f84a8" stroke="#9f84a8" points="256.544,-264.911 259.46,-254.34 255.779,-259.97 255.013,-255.029 255.013,-255.029 255.013,-255.029 255.779,-259.97 250.566,-255.718 256.544,-264.911 256.544,-264.911"/>
</g>
<!-- Modul -->
<g id="node6" class="node"><title>Modul</title>
<ellipse fill="none" stroke="black" cx="134.375" cy="-237" rx="33.8857" ry="18"/>
<text text-anchor="middle" x="134.375" y="-232.8" font-family="Times,serif" font-size="14.00">Modul</text>
</g>
<!-- Modul&#45;&gt;Component -->
<g id="edge3" class="edge"><title>Modul&#45;&gt;Component</title>
<path fill="none" stroke="#ec9e1d" d="M111.071,-216.065C100.724,-207.214 88.4948,-196.753 77.8083,-187.612"/>
<ellipse fill="none" stroke="#ec9e1d" cx="114.138" cy="-218.689" rx="4.00002" ry="4.00002"/>
<polygon fill="#ec9e1d" stroke="#ec9e1d" points="77.5927,-187.427 72.9188,-177.507 73.7932,-184.177 69.9936,-180.927 69.9936,-180.927 69.9936,-180.927 73.7932,-184.177 67.0684,-184.346 77.5927,-187.427 77.5927,-187.427"/>
</g>
<!-- Project -->
<g id="node7" class="node"><title>Project</title>
<ellipse fill="none" stroke="black" cx="339.375" cy="-401.5" rx="35.3129" ry="18"/>
<text text-anchor="middle" x="339.375" y="-397.3" font-family="Times,serif" font-size="14.00">Project</text>
</g>
<!-- Project&#45;&gt;Event -->
<g id="edge8" class="edge"><title>Project&#45;&gt;Event</title>
<path fill="none" stroke="#02664f" d="M361.521,-380.052C394.942,-349.195 457.975,-290.997 492.067,-259.52"/>
<ellipse fill="none" stroke="#02664f" cx="358.556" cy="-382.79" rx="4.00002" ry="4.00002"/>
<polygon fill="#02664f" stroke="#02664f" points="492.331,-259.276 502.731,-255.798 496.005,-255.884 499.679,-252.492 499.679,-252.492 499.679,-252.492 496.005,-255.884 496.626,-249.186 492.331,-259.276 492.331,-259.276"/>
</g>
<!-- Project&#45;&gt;Kind -->
<g id="edge5" class="edge"><title>Project&#45;&gt;Kind</title>
<path fill="none" stroke="#ccfba4" d="M320.573,-378.359C309.177,-364.938 294.656,-347.838 283.097,-334.226"/>
<ellipse fill="none" stroke="#ccfba4" cx="323.198" cy="-381.45" rx="4.00002" ry="4.00002"/>
<polygon fill="#ccfba4" stroke="#ccfba4" points="282.81,-333.887 279.767,-323.352 279.574,-330.076 276.337,-326.265 276.337,-326.265 276.337,-326.265 279.574,-330.076 272.907,-329.178 282.81,-333.887 282.81,-333.887"/>
</g>
<!-- Questionary -->
<g id="node9" class="node"><title>Questionary</title>
<ellipse fill="none" stroke="black" cx="663.375" cy="-310" rx="53.1625" ry="18"/>
<text text-anchor="middle" x="663.375" y="-305.8" font-family="Times,serif" font-size="14.00">Questionary</text>
</g>
<!-- Project&#45;&gt;Questionary -->
<g id="edge7" class="edge"><title>Project&#45;&gt;Questionary</title>
<path fill="none" stroke="#7fd964" d="M377.51,-389.966C436.11,-373.778 548.327,-342.78 613.37,-324.813"/>
<ellipse fill="none" stroke="#7fd964" cx="373.421" cy="-391.095" rx="4.00001" ry="4.00001"/>
<polygon fill="#7fd964" stroke="#7fd964" points="613.75,-324.708 624.587,-326.383 618.569,-323.377 623.389,-322.046 623.389,-322.046 623.389,-322.046 618.569,-323.377 622.191,-317.708 613.75,-324.708 613.75,-324.708"/>
</g>
<!-- Subproduct -->
<g id="node13" class="node"><title>Subproduct</title>
<ellipse fill="none" stroke="black" cx="157.375" cy="-310" rx="50.7655" ry="18"/>
<text text-anchor="middle" x="157.375" y="-305.8" font-family="Times,serif" font-size="14.00">Subproduct</text>
</g>
<!-- Project&#45;&gt;Subproduct -->
<g id="edge4" class="edge"><title>Project&#45;&gt;Subproduct</title>
<path fill="none" stroke="#e7bdec" d="M316.822,-380.118C310.207,-374.76 302.76,-369.287 295.375,-365 266.839,-348.436 232.26,-334.915 204.854,-325.546"/>
<ellipse fill="none" stroke="#e7bdec" cx="320.057" cy="-382.823" rx="4.00002" ry="4.00002"/>
<polygon fill="#e7bdec" stroke="#e7bdec" points="204.59,-325.458 196.535,-318.017 199.848,-323.871 195.107,-322.284 195.107,-322.284 195.107,-322.284 199.848,-323.871 193.678,-326.552 204.59,-325.458 204.59,-325.458"/>
</g>
<!-- Task -->
<g id="node15" class="node"><title>Task</title>
<ellipse fill="none" stroke="black" cx="339.375" cy="-310" rx="27" ry="18"/>
<text text-anchor="middle" x="339.375" y="-305.8" font-family="Times,serif" font-size="14.00">Task</text>
</g>
<!-- Project&#45;&gt;Task -->
<g id="edge6" class="edge"><title>Project&#45;&gt;Task</title>
<path fill="none" stroke="#30f910" d="M339.375,-374.903C339.375,-363.441 339.375,-349.914 339.375,-338.263"/>
<ellipse fill="none" stroke="#30f910" cx="339.375" cy="-379.243" rx="4" ry="4"/>
<polygon fill="#30f910" stroke="#30f910" points="339.375,-338.204 343.875,-328.203 339.375,-333.204 339.375,-328.204 339.375,-328.204 339.375,-328.204 339.375,-333.204 334.875,-328.204 339.375,-338.204 339.375,-338.204"/>
</g>
<!-- Question -->
<g id="node8" class="node"><title>Question</title>
<ellipse fill="none" stroke="black" cx="631.375" cy="-91" rx="42.0784" ry="18"/>
<text text-anchor="middle" x="631.375" y="-86.8" font-family="Times,serif" font-size="14.00">Question</text>
</g>
<!-- Response -->
<g id="node11" class="node"><title>Response</title>
<ellipse fill="none" stroke="black" cx="677.375" cy="-18" rx="44.0078" ry="18"/>
<text text-anchor="middle" x="677.375" y="-13.8" font-family="Times,serif" font-size="14.00">Response</text>
</g>
<!-- Question&#45;&gt;Response -->
<g id="edge9" class="edge"><title>Question&#45;&gt;Response</title>
<path fill="none" stroke="#d68ce1" d="M646.572,-66.5432C651.139,-59.4939 656.172,-51.7259 660.822,-44.5483"/>
<ellipse fill="none" stroke="#d68ce1" cx="644.219" cy="-70.1757" rx="4.00002" ry="4.00002"/>
<polygon fill="#d68ce1" stroke="#d68ce1" points="661.007,-44.2636 670.221,-38.3179 663.726,-40.0673 666.444,-35.871 666.444,-35.871 666.444,-35.871 663.726,-40.0673 662.668,-33.4242 661.007,-44.2636 661.007,-44.2636"/>
</g>
<!-- Questionary&#45;&gt;Event -->
<g id="edge13" class="edge"><title>Questionary&#45;&gt;Event</title>
<path fill="none" stroke="#4f9e39" d="M626.28,-291.205C602.095,-279.602 570.841,-264.609 547.678,-253.497"/>
<ellipse fill="none" stroke="#4f9e39" cx="630.174" cy="-293.073" rx="4.00002" ry="4.00002"/>
<polygon fill="#4f9e39" stroke="#4f9e39" points="547.62,-253.469 540.551,-245.086 543.112,-251.306 538.604,-249.144 538.604,-249.144 538.604,-249.144 543.112,-251.306 536.658,-253.201 547.62,-253.469 547.62,-253.469"/>
</g>
<!-- Questionary&#45;&gt;Question -->
<g id="edge10" class="edge"><title>Questionary&#45;&gt;Question</title>
<path fill="none" stroke="#466009" d="M661.382,-283.775C658.625,-251.625 652.991,-194.407 644.375,-146 642.789,-137.091 640.619,-127.457 638.506,-118.827"/>
<ellipse fill="none" stroke="#466009" cx="661.718" cy="-287.784" rx="4" ry="4"/>
<polygon fill="#466009" stroke="#466009" points="638.451,-118.609 640.363,-107.811 637.226,-113.762 636,-108.914 636,-108.914 636,-108.914 637.226,-113.762 631.638,-110.017 638.451,-118.609 638.451,-118.609"/>
</g>
<!-- User -->
<g id="node16" class="node"><title>User</title>
<ellipse fill="none" stroke="black" cx="718.375" cy="-237" rx="27" ry="18"/>
<text text-anchor="middle" x="718.375" y="-232.8" font-family="Times,serif" font-size="14.00">User</text>
</g>
<!-- Questionary&#45;&gt;User -->
<g id="edge12" class="edge"><title>Questionary&#45;&gt;User</title>
<path fill="none" stroke="#e0af90" d="M682.538,-284.262C688.284,-276.845 694.565,-268.737 700.241,-261.409"/>
<polygon fill="#e0af90" stroke="#e0af90" points="682.533,-284.268 672.852,-289.418 679.471,-288.221 676.409,-292.174 676.409,-292.174 676.409,-292.174 679.471,-288.221 679.967,-294.93 682.533,-284.268 682.533,-284.268"/>
<polygon fill="#e0af90" stroke="#e0af90" points="700.435,-261.159 710.117,-256.009 703.497,-257.206 706.559,-253.253 706.559,-253.253 706.559,-253.253 703.497,-257.206 703.002,-250.497 700.435,-261.159 700.435,-261.159"/>
</g>
<!-- Userquest -->
<g id="node17" class="node"><title>Userquest</title>
<ellipse fill="none" stroke="black" cx="774.375" cy="-164" rx="45.4441" ry="18"/>
<text text-anchor="middle" x="774.375" y="-159.8" font-family="Times,serif" font-size="14.00">Userquest</text>
</g>
<!-- Questionary&#45;&gt;Userquest -->
<g id="edge11" class="edge"><title>Questionary&#45;&gt;Userquest</title>
<path fill="none" stroke="#851174" d="M705.904,-292.78C723.377,-284.081 742.304,-271.662 754.375,-255 767.545,-236.82 772.288,-211.546 773.884,-192.409"/>
<ellipse fill="none" stroke="#851174" cx="702.142" cy="-294.566" rx="4.00002" ry="4.00002"/>
<polygon fill="#851174" stroke="#851174" points="773.896,-192.203 778.982,-182.488 774.193,-187.212 774.49,-182.221 774.49,-182.221 774.49,-182.221 774.193,-187.212 769.998,-181.954 773.896,-192.203 773.896,-192.203"/>
</g>
<!-- Requirment -->
<g id="node10" class="node"><title>Requirment</title>
<ellipse fill="none" stroke="black" cx="172.375" cy="-164" rx="51.7174" ry="18"/>
<text text-anchor="middle" x="172.375" y="-159.8" font-family="Times,serif" font-size="14.00">Requirment</text>
</g>
<!-- Role&#45;&gt;Allocationitem -->
<g id="edge14" class="edge"><title>Role&#45;&gt;Allocationitem</title>
<path fill="none" stroke="#22e0ef" d="M252.375,-210.838C252.375,-184.601 252.375,-143.706 252.375,-117.387"/>
<ellipse fill="none" stroke="#22e0ef" cx="252.375" cy="-214.916" rx="4" ry="4"/>
<ellipse fill="#22e0ef" stroke="#22e0ef" cx="252.375" cy="-113.062" rx="4" ry="4"/>
</g>
<!-- Role&#45;&gt;Requirment -->
<g id="edge15" class="edge"><title>Role&#45;&gt;Requirment</title>
<path fill="none" stroke="#8ef3ed" d="M230.306,-216.414C220.294,-207.529 208.393,-196.966 197.989,-187.733"/>
<ellipse fill="none" stroke="#8ef3ed" cx="233.578" cy="-219.318" rx="4.00002" ry="4.00002"/>
<polygon fill="#8ef3ed" stroke="#8ef3ed" points="197.861,-187.619 193.368,-177.615 194.121,-184.3 190.381,-180.981 190.381,-180.981 190.381,-180.981 194.121,-184.3 187.394,-184.346 197.861,-187.619 197.861,-187.619"/>
</g>
<!-- Subproduct&#45;&gt;Modul -->
<g id="edge16" class="edge"><title>Subproduct&#45;&gt;Modul</title>
<path fill="none" stroke="#5e3547" d="M149.302,-284.08C147.259,-277.774 145.058,-270.979 142.99,-264.594"/>
<ellipse fill="none" stroke="#5e3547" cx="150.574" cy="-288.008" rx="4.00001" ry="4.00001"/>
<polygon fill="#5e3547" stroke="#5e3547" points="142.973,-264.542 144.172,-253.642 141.432,-259.785 139.891,-255.029 139.891,-255.029 139.891,-255.029 141.432,-259.785 135.61,-256.416 142.973,-264.542 142.973,-264.542"/>
</g>
<!-- Subtask -->
<g id="node14" class="node"><title>Subtask</title>
<ellipse fill="none" stroke="black" cx="339.375" cy="-237" rx="38.2284" ry="18"/>
<text text-anchor="middle" x="339.375" y="-232.8" font-family="Times,serif" font-size="14.00">Subtask</text>
</g>
<!-- Workpackage -->
<g id="node18" class="node"><title>Workpackage</title>
<ellipse fill="none" stroke="black" cx="339.375" cy="-164" rx="58.5081" ry="18"/>
<text text-anchor="middle" x="339.375" y="-159.8" font-family="Times,serif" font-size="14.00">Workpackage</text>
</g>
<!-- Subtask&#45;&gt;Workpackage -->
<g id="edge17" class="edge"><title>Subtask&#45;&gt;Workpackage</title>
<path fill="none" stroke="#d03c17" d="M339.375,-210.791C339.375,-204.832 339.375,-198.45 339.375,-192.399"/>
<ellipse fill="none" stroke="#d03c17" cx="339.375" cy="-214.813" rx="4" ry="4"/>
<polygon fill="#d03c17" stroke="#d03c17" points="339.375,-192.029 343.875,-182.029 339.375,-187.029 339.375,-182.029 339.375,-182.029 339.375,-182.029 339.375,-187.029 334.875,-182.029 339.375,-192.029 339.375,-192.029"/>
</g>
<!-- Task&#45;&gt;Subtask -->
<g id="edge18" class="edge"><title>Task&#45;&gt;Subtask</title>
<path fill="none" stroke="#ca4e13" d="M339.375,-283.791C339.375,-277.832 339.375,-271.45 339.375,-265.399"/>
<ellipse fill="none" stroke="#ca4e13" cx="339.375" cy="-287.813" rx="4" ry="4"/>
<polygon fill="#ca4e13" stroke="#ca4e13" points="339.375,-265.029 343.875,-255.029 339.375,-260.029 339.375,-255.029 339.375,-255.029 339.375,-255.029 339.375,-260.029 334.875,-255.029 339.375,-265.029 339.375,-265.029"/>
</g>
<!-- User&#45;&gt;Response -->
<g id="edge19" class="edge"><title>User&#45;&gt;Response</title>
<path fill="none" stroke="#fc9162" d="M713.647,-210.977C705.888,-169.911 690.516,-88.5512 682.503,-46.1431"/>
<ellipse fill="none" stroke="#fc9162" cx="714.415" cy="-215.042" rx="4.00001" ry="4.00001"/>
<polygon fill="#fc9162" stroke="#fc9162" points="682.491,-46.0749 685.056,-35.4133 681.562,-41.1619 680.634,-36.2488 680.634,-36.2488 680.634,-36.2488 681.562,-41.1619 676.212,-37.0843 682.491,-46.0749 682.491,-46.0749"/>
</g>
<!-- User&#45;&gt;Userquest -->
<g id="edge20" class="edge"><title>User&#45;&gt;Userquest</title>
<path fill="none" stroke="#7d6add" d="M735.501,-214.287C741.706,-206.419 748.756,-197.482 755.131,-189.398"/>
<ellipse fill="none" stroke="#7d6add" cx="733.003" cy="-217.453" rx="4.00002" ry="4.00002"/>
<polygon fill="#7d6add" stroke="#7d6add" points="755.275,-189.216 765.001,-184.151 758.372,-185.29 761.468,-181.364 761.468,-181.364 761.468,-181.364 758.372,-185.29 757.935,-178.577 755.275,-189.216 755.275,-189.216"/>
</g>
<!-- Workpackage&#45;&gt;Allocationitem -->
<g id="edge25" class="edge"><title>Workpackage&#45;&gt;Allocationitem</title>
<path fill="none" stroke="#3b8ea1" d="M313.409,-141.809C302.413,-132.836 289.622,-122.397 278.599,-113.401"/>
<ellipse fill="none" stroke="#3b8ea1" cx="316.534" cy="-144.36" rx="4.00002" ry="4.00002"/>
<ellipse fill="#3b8ea1" stroke="#3b8ea1" cx="275.439" cy="-110.822" rx="4.00002" ry="4.00002"/>
</g>
<!-- Workpackage&#45;&gt;Question -->
<g id="edge21" class="edge"><title>Workpackage&#45;&gt;Question</title>
<path fill="none" stroke="#8318ad" d="M391.799,-150.253C447.062,-136.816 533.237,-115.862 585.776,-103.087"/>
<ellipse fill="none" stroke="#8318ad" cx="387.61" cy="-151.272" rx="4.00001" ry="4.00001"/>
<polygon fill="#8318ad" stroke="#8318ad" points="586.099,-103.009 596.88,-105.019 590.958,-101.827 595.816,-100.646 595.816,-100.646 595.816,-100.646 590.958,-101.827 594.753,-96.2735 586.099,-103.009 586.099,-103.009"/>
</g>
<!-- Workpackage&#45;&gt;Workpackage -->
<g id="edge22" class="edge"><title>Workpackage&#45;&gt;Workpackage</title>
<path fill="none" stroke="#f54f1e" d="M405.889,-165.795C412.018,-165.424 415.879,-164.825 415.879,-164 415.879,-163.175 412.018,-162.576 405.889,-162.205"/>
<ellipse fill="none" stroke="#f54f1e" cx="401.745" cy="-165.964" rx="4" ry="4"/>
<ellipse fill="#f54f1e" stroke="#f54f1e" cx="401.745" cy="-162.036" rx="4" ry="4"/>
<text text-anchor="middle" x="442.703" y="-159.8" font-family="Times,serif" font-size="14.00">successor</text>
</g>
<!-- Workpackage&#45;&gt;Workpackage -->
<g id="edge23" class="edge"><title>Workpackage&#45;&gt;Workpackage</title>
<path fill="none" stroke="#ba7af9" d="M406.573,-168.444C439.054,-168.816 469.527,-167.335 469.527,-164 469.527,-160.665 439.054,-159.184 406.573,-159.556"/>
<polygon fill="#ba7af9" stroke="#ba7af9" points="406.458,-168.442 396.537,-163.77 401.459,-168.356 396.459,-168.269 396.459,-168.269 396.459,-168.269 401.459,-168.356 396.382,-172.768 406.458,-168.442 406.458,-168.442"/>
<polygon fill="#ba7af9" stroke="#ba7af9" points="406.458,-159.558 396.382,-155.232 401.459,-159.644 396.459,-159.731 396.459,-159.731 396.459,-159.731 401.459,-159.644 396.537,-164.23 406.458,-159.558 406.458,-159.558"/>
<text text-anchor="middle" x="505.29" y="-159.8" font-family="Times,serif" font-size="14.00">predecessors</text>
</g>
<!-- Workpackage&#45;&gt;Workpackage -->
<g id="edge24" class="edge"><title>Workpackage&#45;&gt;Workpackage</title>
<path fill="none" stroke="#43ae0a" d="M405.401,-169.898C465.673,-172.065 541.052,-170.098 541.052,-164 541.052,-157.902 465.673,-155.935 405.401,-158.102"/>
<polygon fill="#43ae0a" stroke="#43ae0a" points="405.101,-169.886 395.292,-164.985 400.105,-169.684 395.109,-169.481 395.109,-169.481 395.109,-169.481 400.105,-169.684 394.927,-173.977 405.101,-169.886 405.101,-169.886"/>
<polygon fill="#43ae0a" stroke="#43ae0a" points="405.101,-158.114 394.927,-154.023 400.105,-158.316 395.109,-158.519 395.109,-158.519 395.109,-158.519 400.105,-158.316 395.292,-163.015 405.101,-158.114 405.101,-158.114"/>
<text text-anchor="middle" x="570.6" y="-159.8" font-family="Times,serif" font-size="14.00">successors</text>
</g>
</g>
</svg>
