<?xml version="1.0" encoding="UTF-8" standalone="no"?>
<!DOCTYPE svg PUBLIC "-//W3C//DTD SVG 1.1//EN"
 "http://www.w3.org/Graphics/SVG/1.1/DTD/svg11.dtd">
<!-- Generated by graphviz version 2.38.0 (20140413.2041)
 -->
<!-- Title: models_diagram Pages: 1 -->
<svg width="897pt" height="446pt"
 viewBox="0.00 0.00 897.37 446.00" xmlns="http://www.w3.org/2000/svg" xmlns:xlink="http://www.w3.org/1999/xlink">
<g id="graph0" class="graph" transform="scale(1 1) rotate(0) translate(4 442)">
<title>models_diagram</title>
<polygon fill="none" stroke="none" points="-4,4 -4,-442 893.374,-442 893.374,4 -4,4"/>
<!-- _diagram_info -->
<g id="node1" class="node"><title>_diagram_info</title>
<text text-anchor="start" x="86.9252" y="-423.6" font-family="Times,serif" font-size="13.00">Models diagram</text>
<text text-anchor="start" x="86.9252" y="-410.6" font-family="Times,serif" font-size="13.00">Date: Jan 18 2016 &#45; 17:15</text>
<text text-anchor="start" x="86.9252" y="-397.6" font-family="Times,serif" font-size="13.00">Migration version: 20160110133745</text>
<text text-anchor="start" x="86.9252" y="-384.6" font-family="Times,serif" font-size="13.00">Generated by RailRoady 1.4.2</text>
<text text-anchor="start" x="86.9252" y="-371.6" font-family="Times,serif" font-size="13.00">http://railroady.prestonlee.com</text>
</g>
<!-- Allocationitem -->
<g id="node2" class="node"><title>Allocationitem</title>
<ellipse fill="none" stroke="black" cx="252.375" cy="-91" rx="63.3097" ry="18"/>
<text text-anchor="middle" x="252.375" y="-86.8" font-family="Times,serif" font-size="14.00">Allocationitem</text>
</g>
<!-- Component -->
<g id="node3" class="node"><title>Component</title>
<ellipse fill="none" stroke="black" cx="51.3749" cy="-164" rx="51.2501" ry="18"/>
<text text-anchor="middle" x="51.3749" y="-159.8" font-family="Times,serif" font-size="14.00">Component</text>
</g>
<!-- Component&#45;&gt;Allocationitem -->
<g id="edge1" class="edge"><title>Component&#45;&gt;Allocationitem</title>
<path fill="none" stroke="#cf894a" d="M94.2086,-147.87C127.203,-136.215 172.731,-120.133 206.472,-108.215"/>
<ellipse fill="none" stroke="#cf894a" cx="90.158" cy="-149.3" rx="4.00001" ry="4.00001"/>
<ellipse fill="#cf894a" stroke="#cf894a" cx="210.575" cy="-106.765" rx="4.00001" ry="4.00001"/>
</g>
<!-- Kind -->
<g id="node4" class="node"><title>Kind</title>
<ellipse fill="none" stroke="black" cx="259.375" cy="-310" rx="27.589" ry="18"/>
<text text-anchor="middle" x="259.375" y="-305.8" font-family="Times,serif" font-size="14.00">Kind</text>
</g>
<!-- Role -->
<g id="node12" class="node"><title>Role</title>
<ellipse fill="none" stroke="black" cx="252.375" cy="-237" rx="27" ry="18"/>
<text text-anchor="middle" x="252.375" y="-232.8" font-family="Times,serif" font-size="14.00">Role</text>
</g>
<!-- Kind&#45;&gt;Role -->
<g id="edge2" class="edge"><title>Kind&#45;&gt;Role</title>
<path fill="none" stroke="#e2bfbf" d="M256.889,-283.791C256.302,-277.832 255.673,-271.45 255.076,-265.399"/>
<ellipse fill="none" stroke="#e2bfbf" cx="257.288" cy="-287.832" rx="4" ry="4"/>
<polygon fill="#e2bfbf" stroke="#e2bfbf" points="255.035,-264.981 258.532,-254.587 254.544,-260.005 254.054,-255.029 254.054,-255.029 254.054,-255.029 254.544,-260.005 249.576,-255.47 255.035,-264.981 255.035,-264.981"/>
</g>
<!-- Modul -->
<g id="node5" class="node"><title>Modul</title>
<ellipse fill="none" stroke="black" cx="70.3749" cy="-237" rx="33.8857" ry="18"/>
<text text-anchor="middle" x="70.3749" y="-232.8" font-family="Times,serif" font-size="14.00">Modul</text>
</g>
<!-- Modul&#45;&gt;Component -->
<g id="edge3" class="edge"><title>Modul&#45;&gt;Component</title>
<path fill="none" stroke="#570232" d="M63.706,-211.08C62.0589,-204.924 60.2867,-198.302 58.6138,-192.051"/>
<ellipse fill="none" stroke="#570232" cx="64.7414" cy="-214.949" rx="4.00001" ry="4.00001"/>
<polygon fill="#570232" stroke="#570232" points="58.5171,-191.689 60.2789,-180.866 57.2245,-186.859 55.9319,-182.029 55.9319,-182.029 55.9319,-182.029 57.2245,-186.859 51.5849,-183.192 58.5171,-191.689 58.5171,-191.689"/>
</g>
<!-- Project -->
<g id="node6" class="node"><title>Project</title>
<ellipse fill="none" stroke="black" cx="339.375" cy="-401.5" rx="35.3129" ry="18"/>
<text text-anchor="middle" x="339.375" y="-397.3" font-family="Times,serif" font-size="14.00">Project</text>
</g>
<!-- Project&#45;&gt;Kind -->
<g id="edge5" class="edge"><title>Project&#45;&gt;Kind</title>
<path fill="none" stroke="#88a919" d="M319.927,-378.743C307.744,-365.113 292.068,-347.576 279.719,-333.76"/>
<ellipse fill="none" stroke="#88a919" cx="322.774" cy="-381.928" rx="4.00002" ry="4.00002"/>
<polygon fill="#88a919" stroke="#88a919" points="279.548,-333.569 276.239,-323.114 276.216,-329.841 272.884,-326.113 272.884,-326.113 272.884,-326.113 276.216,-329.841 269.529,-329.112 279.548,-333.569 279.548,-333.569"/>
</g>
<!-- Questionary -->
<g id="node8" class="node"><title>Questionary</title>
<ellipse fill="none" stroke="black" cx="718.375" cy="-310" rx="53.1625" ry="18"/>
<text text-anchor="middle" x="718.375" y="-305.8" font-family="Times,serif" font-size="14.00">Questionary</text>
</g>
<!-- Project&#45;&gt;Questionary -->
<g id="edge7" class="edge"><title>Project&#45;&gt;Questionary</title>
<path fill="none" stroke="#839012" d="M378.638,-391.228C447.266,-375.022 589.038,-341.543 665.965,-323.377"/>
<ellipse fill="none" stroke="#839012" cx="374.605" cy="-392.18" rx="4.00001" ry="4.00001"/>
<polygon fill="#839012" stroke="#839012" points="666.189,-323.324 676.956,-325.405 671.055,-322.174 675.922,-321.025 675.922,-321.025 675.922,-321.025 671.055,-322.174 674.887,-316.646 666.189,-323.324 666.189,-323.324"/>
</g>
<!-- Roadmap -->
<g id="node11" class="node"><title>Roadmap</title>
<ellipse fill="none" stroke="black" cx="845.375" cy="-237" rx="43.9992" ry="18"/>
<text text-anchor="middle" x="845.375" y="-232.8" font-family="Times,serif" font-size="14.00">Roadmap</text>
</g>
<!-- Project&#45;&gt;Roadmap -->
<g id="edge8" class="edge"><title>Project&#45;&gt;Roadmap</title>
<path fill="none" stroke="#77e7bd" d="M382.313,-397.595C479.698,-390.354 714.02,-369.06 780.375,-328 804.821,-312.873 822.846,-284.821 833.634,-264.04"/>
<ellipse fill="none" stroke="#77e7bd" cx="378.144" cy="-397.901" rx="4" ry="4"/>
<polygon fill="#77e7bd" stroke="#77e7bd" points="833.636,-264.036 842.11,-257.075 835.857,-259.556 838.078,-255.076 838.078,-255.076 838.078,-255.076 835.857,-259.556 834.046,-253.077 833.636,-264.036 833.636,-264.036"/>
</g>
<!-- Subproduct -->
<g id="node13" class="node"><title>Subproduct</title>
<ellipse fill="none" stroke="black" cx="103.375" cy="-310" rx="50.7655" ry="18"/>
<text text-anchor="middle" x="103.375" y="-305.8" font-family="Times,serif" font-size="14.00">Subproduct</text>
</g>
<!-- Project&#45;&gt;Subproduct -->
<g id="edge4" class="edge"><title>Project&#45;&gt;Subproduct</title>
<path fill="none" stroke="#ad23a3" d="M316.866,-379.934C310.018,-374.48 302.22,-369.002 294.375,-365 251.171,-342.96 197.739,-328.832 158.385,-320.578"/>
<ellipse fill="none" stroke="#ad23a3" cx="320.284" cy="-382.771" rx="4.00002" ry="4.00002"/>
<polygon fill="#ad23a3" stroke="#ad23a3" points="158.243,-320.549 149.342,-314.145 153.344,-319.552 148.444,-318.555 148.444,-318.555 148.444,-318.555 153.344,-319.552 147.547,-322.965 158.243,-320.549 158.243,-320.549"/>
</g>
<!-- Task -->
<g id="node15" class="node"><title>Task</title>
<ellipse fill="none" stroke="black" cx="339.375" cy="-310" rx="27" ry="18"/>
<text text-anchor="middle" x="339.375" y="-305.8" font-family="Times,serif" font-size="14.00">Task</text>
</g>
<!-- Project&#45;&gt;Task -->
<g id="edge6" class="edge"><title>Project&#45;&gt;Task</title>
<path fill="none" stroke="#b774b5" d="M339.375,-374.903C339.375,-363.441 339.375,-349.914 339.375,-338.263"/>
<ellipse fill="none" stroke="#b774b5" cx="339.375" cy="-379.243" rx="4" ry="4"/>
<polygon fill="#b774b5" stroke="#b774b5" points="339.375,-338.204 343.875,-328.203 339.375,-333.204 339.375,-328.204 339.375,-328.204 339.375,-328.204 339.375,-333.204 334.875,-328.204 339.375,-338.204 339.375,-338.204"/>
</g>
<!-- Question -->
<g id="node7" class="node"><title>Question</title>
<ellipse fill="none" stroke="black" cx="631.375" cy="-91" rx="42.0784" ry="18"/>
<text text-anchor="middle" x="631.375" y="-86.8" font-family="Times,serif" font-size="14.00">Question</text>
</g>
<!-- Response -->
<g id="node10" class="node"><title>Response</title>
<ellipse fill="none" stroke="black" cx="677.375" cy="-18" rx="44.0078" ry="18"/>
<text text-anchor="middle" x="677.375" y="-13.8" font-family="Times,serif" font-size="14.00">Response</text>
</g>
<!-- Question&#45;&gt;Response -->
<g id="edge9" class="edge"><title>Question&#45;&gt;Response</title>
<path fill="none" stroke="#3cfa76" d="M646.572,-66.5432C651.139,-59.4939 656.172,-51.7259 660.822,-44.5483"/>
<ellipse fill="none" stroke="#3cfa76" cx="644.219" cy="-70.1757" rx="4.00002" ry="4.00002"/>
<polygon fill="#3cfa76" stroke="#3cfa76" points="661.007,-44.2636 670.221,-38.3179 663.726,-40.0673 666.444,-35.871 666.444,-35.871 666.444,-35.871 663.726,-40.0673 662.668,-33.4242 661.007,-44.2636 661.007,-44.2636"/>
</g>
<!-- Questionary&#45;&gt;Question -->
<g id="edge10" class="edge"><title>Questionary&#45;&gt;Question</title>
<path fill="none" stroke="#b4d69a" d="M700.638,-285.57C694.26,-276.383 687.406,-265.532 682.375,-255 670.731,-230.623 649.825,-158.367 638.741,-118.741"/>
<ellipse fill="none" stroke="#b4d69a" cx="703.065" cy="-288.98" rx="4.00002" ry="4.00002"/>
<polygon fill="#b4d69a" stroke="#b4d69a" points="638.699,-118.591 640.353,-107.75 637.358,-113.774 636.018,-108.957 636.018,-108.957 636.018,-108.957 637.358,-113.774 631.683,-110.163 638.699,-118.591 638.699,-118.591"/>
</g>
<!-- Questionary&#45;&gt;Roadmap -->
<g id="edge13" class="edge"><title>Questionary&#45;&gt;Roadmap</title>
<path fill="none" stroke="#d65b56" d="M754.719,-291.3C765.345,-285.929 776.912,-279.886 787.375,-274 796.191,-269.04 805.575,-263.386 814.17,-258.052"/>
<ellipse fill="none" stroke="#d65b56" cx="751.114" cy="-293.109" rx="4.00002" ry="4.00002"/>
<polygon fill="#d65b56" stroke="#d65b56" points="814.31,-257.963 825.173,-256.463 818.546,-255.307 822.782,-252.651 822.782,-252.651 822.782,-252.651 818.546,-255.307 820.392,-248.838 814.31,-257.963 814.31,-257.963"/>
</g>
<!-- User -->
<g id="node16" class="node"><title>User</title>
<ellipse fill="none" stroke="black" cx="718.375" cy="-237" rx="27" ry="18"/>
<text text-anchor="middle" x="718.375" y="-232.8" font-family="Times,serif" font-size="14.00">User</text>
</g>
<!-- Questionary&#45;&gt;User -->
<g id="edge12" class="edge"><title>Questionary&#45;&gt;User</title>
<path fill="none" stroke="#b1087b" d="M718.375,-281.753C718.375,-276.276 718.375,-270.521 718.375,-265.051"/>
<polygon fill="#b1087b" stroke="#b1087b" points="718.375,-281.813 713.875,-291.813 718.375,-286.813 718.375,-291.813 718.375,-291.813 718.375,-291.813 718.375,-286.813 722.875,-291.813 718.375,-281.813 718.375,-281.813"/>
<polygon fill="#b1087b" stroke="#b1087b" points="718.375,-265.029 722.875,-255.029 718.375,-260.029 718.375,-255.029 718.375,-255.029 718.375,-255.029 718.375,-260.029 713.875,-255.029 718.375,-265.029 718.375,-265.029"/>
</g>
<!-- Userquest -->
<g id="node17" class="node"><title>Userquest</title>
<ellipse fill="none" stroke="black" cx="774.375" cy="-164" rx="45.4441" ry="18"/>
<text text-anchor="middle" x="774.375" y="-159.8" font-family="Times,serif" font-size="14.00">Userquest</text>
</g>
<!-- Questionary&#45;&gt;Userquest -->
<g id="edge11" class="edge"><title>Questionary&#45;&gt;Userquest</title>
<path fill="none" stroke="#b9feb9" d="M736.59,-285.786C743.025,-276.625 749.794,-265.736 754.375,-255 762.987,-234.817 768.111,-210.441 771.013,-192.15"/>
<ellipse fill="none" stroke="#b9feb9" cx="734.124" cy="-289.186" rx="4.00002" ry="4.00002"/>
<polygon fill="#b9feb9" stroke="#b9feb9" points="771.027,-192.056 776.927,-182.813 771.75,-187.109 772.474,-182.162 772.474,-182.162 772.474,-182.162 771.75,-187.109 768.022,-181.51 771.027,-192.056 771.027,-192.056"/>
</g>
<!-- Requirment -->
<g id="node9" class="node"><title>Requirment</title>
<ellipse fill="none" stroke="black" cx="172.375" cy="-164" rx="51.7174" ry="18"/>
<text text-anchor="middle" x="172.375" y="-159.8" font-family="Times,serif" font-size="14.00">Requirment</text>
</g>
<!-- Role&#45;&gt;Allocationitem -->
<g id="edge14" class="edge"><title>Role&#45;&gt;Allocationitem</title>
<path fill="none" stroke="#83cb6a" d="M252.375,-210.838C252.375,-184.601 252.375,-143.706 252.375,-117.387"/>
<ellipse fill="none" stroke="#83cb6a" cx="252.375" cy="-214.916" rx="4" ry="4"/>
<ellipse fill="#83cb6a" stroke="#83cb6a" cx="252.375" cy="-113.062" rx="4" ry="4"/>
</g>
<!-- Role&#45;&gt;Requirment -->
<g id="edge15" class="edge"><title>Role&#45;&gt;Requirment</title>
<path fill="none" stroke="#c2aaaf" d="M230.306,-216.414C220.294,-207.529 208.393,-196.966 197.989,-187.733"/>
<ellipse fill="none" stroke="#c2aaaf" cx="233.578" cy="-219.318" rx="4.00002" ry="4.00002"/>
<polygon fill="#c2aaaf" stroke="#c2aaaf" points="197.861,-187.619 193.368,-177.615 194.121,-184.3 190.381,-180.981 190.381,-180.981 190.381,-180.981 194.121,-184.3 187.394,-184.346 197.861,-187.619 197.861,-187.619"/>
</g>
<!-- Subproduct&#45;&gt;Modul -->
<g id="edge16" class="edge"><title>Subproduct&#45;&gt;Modul</title>
<path fill="none" stroke="#a31b89" d="M92.1728,-284.898C89.0714,-278.226 85.6906,-270.952 82.5374,-264.168"/>
<ellipse fill="none" stroke="#a31b89" cx="93.8684" cy="-288.547" rx="4.00002" ry="4.00002"/>
<polygon fill="#a31b89" stroke="#a31b89" points="82.3542,-263.774 82.2201,-252.809 80.2468,-259.239 78.1393,-254.705 78.1393,-254.705 78.1393,-254.705 80.2468,-259.239 74.0585,-256.602 82.3542,-263.774 82.3542,-263.774"/>
</g>
<!-- Subtask -->
<g id="node14" class="node"><title>Subtask</title>
<ellipse fill="none" stroke="black" cx="339.375" cy="-237" rx="38.2284" ry="18"/>
<text text-anchor="middle" x="339.375" y="-232.8" font-family="Times,serif" font-size="14.00">Subtask</text>
</g>
<!-- Workpackage -->
<g id="node18" class="node"><title>Workpackage</title>
<ellipse fill="none" stroke="black" cx="339.375" cy="-164" rx="58.5081" ry="18"/>
<text text-anchor="middle" x="339.375" y="-159.8" font-family="Times,serif" font-size="14.00">Workpackage</text>
</g>
<!-- Subtask&#45;&gt;Workpackage -->
<g id="edge17" class="edge"><title>Subtask&#45;&gt;Workpackage</title>
<path fill="none" stroke="#120616" d="M339.375,-210.791C339.375,-204.832 339.375,-198.45 339.375,-192.399"/>
<ellipse fill="none" stroke="#120616" cx="339.375" cy="-214.813" rx="4" ry="4"/>
<polygon fill="#120616" stroke="#120616" points="339.375,-192.029 343.875,-182.029 339.375,-187.029 339.375,-182.029 339.375,-182.029 339.375,-182.029 339.375,-187.029 334.875,-182.029 339.375,-192.029 339.375,-192.029"/>
</g>
<!-- Task&#45;&gt;Subtask -->
<g id="edge18" class="edge"><title>Task&#45;&gt;Subtask</title>
<path fill="none" stroke="#65b984" d="M339.375,-283.791C339.375,-277.832 339.375,-271.45 339.375,-265.399"/>
<ellipse fill="none" stroke="#65b984" cx="339.375" cy="-287.813" rx="4" ry="4"/>
<polygon fill="#65b984" stroke="#65b984" points="339.375,-265.029 343.875,-255.029 339.375,-260.029 339.375,-255.029 339.375,-255.029 339.375,-255.029 339.375,-260.029 334.875,-255.029 339.375,-265.029 339.375,-265.029"/>
</g>
<!-- User&#45;&gt;Response -->
<g id="edge19" class="edge"><title>User&#45;&gt;Response</title>
<path fill="none" stroke="#62fc3a" d="M713.647,-210.977C705.888,-169.911 690.516,-88.5512 682.503,-46.1431"/>
<ellipse fill="none" stroke="#62fc3a" cx="714.415" cy="-215.042" rx="4.00001" ry="4.00001"/>
<polygon fill="#62fc3a" stroke="#62fc3a" points="682.491,-46.0749 685.056,-35.4133 681.562,-41.1619 680.634,-36.2488 680.634,-36.2488 680.634,-36.2488 681.562,-41.1619 676.212,-37.0843 682.491,-46.0749 682.491,-46.0749"/>
</g>
<!-- User&#45;&gt;Userquest -->
<g id="edge20" class="edge"><title>User&#45;&gt;Userquest</title>
<path fill="none" stroke="#962112" d="M735.501,-214.287C741.706,-206.419 748.756,-197.482 755.131,-189.398"/>
<ellipse fill="none" stroke="#962112" cx="733.003" cy="-217.453" rx="4.00002" ry="4.00002"/>
<polygon fill="#962112" stroke="#962112" points="755.275,-189.216 765.001,-184.151 758.372,-185.29 761.468,-181.364 761.468,-181.364 761.468,-181.364 758.372,-185.29 757.935,-178.577 755.275,-189.216 755.275,-189.216"/>
</g>
<!-- Workpackage&#45;&gt;Allocationitem -->
<g id="edge25" class="edge"><title>Workpackage&#45;&gt;Allocationitem</title>
<path fill="none" stroke="#f995f6" d="M313.409,-141.809C302.413,-132.836 289.622,-122.397 278.599,-113.401"/>
<ellipse fill="none" stroke="#f995f6" cx="316.534" cy="-144.36" rx="4.00002" ry="4.00002"/>
<ellipse fill="#f995f6" stroke="#f995f6" cx="275.439" cy="-110.822" rx="4.00002" ry="4.00002"/>
</g>
<!-- Workpackage&#45;&gt;Question -->
<g id="edge21" class="edge"><title>Workpackage&#45;&gt;Question</title>
<path fill="none" stroke="#0c0d17" d="M391.799,-150.253C447.062,-136.816 533.237,-115.862 585.776,-103.087"/>
<ellipse fill="none" stroke="#0c0d17" cx="387.61" cy="-151.272" rx="4.00001" ry="4.00001"/>
<polygon fill="#0c0d17" stroke="#0c0d17" points="586.099,-103.009 596.88,-105.019 590.958,-101.827 595.816,-100.646 595.816,-100.646 595.816,-100.646 590.958,-101.827 594.753,-96.2735 586.099,-103.009 586.099,-103.009"/>
</g>
<!-- Workpackage&#45;&gt;Workpackage -->
<g id="edge22" class="edge"><title>Workpackage&#45;&gt;Workpackage</title>
<path fill="none" stroke="#ea4b6c" d="M405.889,-165.795C412.018,-165.424 415.879,-164.825 415.879,-164 415.879,-163.175 412.018,-162.576 405.889,-162.205"/>
<ellipse fill="none" stroke="#ea4b6c" cx="401.745" cy="-165.964" rx="4" ry="4"/>
<ellipse fill="#ea4b6c" stroke="#ea4b6c" cx="401.745" cy="-162.036" rx="4" ry="4"/>
<text text-anchor="middle" x="442.703" y="-159.8" font-family="Times,serif" font-size="14.00">successor</text>
</g>
<!-- Workpackage&#45;&gt;Workpackage -->
<g id="edge23" class="edge"><title>Workpackage&#45;&gt;Workpackage</title>
<path fill="none" stroke="#5e6429" d="M406.573,-168.444C439.054,-168.816 469.527,-167.335 469.527,-164 469.527,-160.665 439.054,-159.184 406.573,-159.556"/>
<polygon fill="#5e6429" stroke="#5e6429" points="406.458,-168.442 396.537,-163.77 401.459,-168.356 396.459,-168.269 396.459,-168.269 396.459,-168.269 401.459,-168.356 396.382,-172.768 406.458,-168.442 406.458,-168.442"/>
<polygon fill="#5e6429" stroke="#5e6429" points="406.458,-159.558 396.382,-155.232 401.459,-159.644 396.459,-159.731 396.459,-159.731 396.459,-159.731 401.459,-159.644 396.537,-164.23 406.458,-159.558 406.458,-159.558"/>
<text text-anchor="middle" x="505.29" y="-159.8" font-family="Times,serif" font-size="14.00">predecessors</text>
</g>
<!-- Workpackage&#45;&gt;Workpackage -->
<g id="edge24" class="edge"><title>Workpackage&#45;&gt;Workpackage</title>
<path fill="none" stroke="#473264" d="M405.401,-169.898C465.673,-172.065 541.052,-170.098 541.052,-164 541.052,-157.902 465.673,-155.935 405.401,-158.102"/>
<polygon fill="#473264" stroke="#473264" points="405.101,-169.886 395.292,-164.985 400.105,-169.684 395.109,-169.481 395.109,-169.481 395.109,-169.481 400.105,-169.684 394.927,-173.977 405.101,-169.886 405.101,-169.886"/>
<polygon fill="#473264" stroke="#473264" points="405.101,-158.114 394.927,-154.023 400.105,-158.316 395.109,-158.519 395.109,-158.519 395.109,-158.519 400.105,-158.316 395.292,-163.015 405.101,-158.114 405.101,-158.114"/>
<text text-anchor="middle" x="570.6" y="-159.8" font-family="Times,serif" font-size="14.00">successors</text>
</g>
</g>
</svg>
