<?xml version="1.0" encoding="UTF-8" standalone="no"?>
<!DOCTYPE svg PUBLIC "-//W3C//DTD SVG 1.1//EN"
 "http://www.w3.org/Graphics/SVG/1.1/DTD/svg11.dtd">
<!-- Generated by graphviz version 2.38.0 (20140413.2041)
 -->
<!-- Title: models_diagram Pages: 1 -->
<svg width="545pt" height="441pt"
 viewBox="0.00 0.00 545.19 441.00" xmlns="http://www.w3.org/2000/svg" xmlns:xlink="http://www.w3.org/1999/xlink">
<g id="graph0" class="graph" transform="scale(1 1) rotate(0) translate(4 437)">
<title>models_diagram</title>
<polygon fill="none" stroke="none" points="-4,4 -4,-437 541.192,-437 541.192,4 -4,4"/>
<!-- _diagram_info -->
<g id="node1" class="node"><title>_diagram_info</title>
<text text-anchor="start" x="8" y="-418.6" font-family="Times,serif" font-size="13.00">Models diagram</text>
<text text-anchor="start" x="8" y="-405.6" font-family="Times,serif" font-size="13.00">Date: Jan 08 2016 &#45; 11:38</text>
<text text-anchor="start" x="8" y="-392.6" font-family="Times,serif" font-size="13.00">Migration version: 20151223074143</text>
<text text-anchor="start" x="8" y="-379.6" font-family="Times,serif" font-size="13.00">Generated by RailRoady 1.4.2</text>
<text text-anchor="start" x="8" y="-366.6" font-family="Times,serif" font-size="13.00">http://railroady.prestonlee.com</text>
</g>
<!-- Component -->
<g id="node2" class="node"><title>Component</title>
<ellipse fill="none" stroke="black" cx="350.688" cy="-162" rx="51.2501" ry="18"/>
<text text-anchor="middle" x="350.688" y="-157.8" font-family="Times,serif" font-size="14.00">Component</text>
</g>
<!-- Event -->
<g id="node3" class="node"><title>Event</title>
<ellipse fill="none" stroke="black" cx="205.688" cy="-234" rx="30.9706" ry="18"/>
<text text-anchor="middle" x="205.688" y="-229.8" font-family="Times,serif" font-size="14.00">Event</text>
</g>
<!-- Kind -->
<g id="node4" class="node"><title>Kind</title>
<ellipse fill="none" stroke="black" cx="123.688" cy="-306" rx="27.589" ry="18"/>
<text text-anchor="middle" x="123.688" y="-301.8" font-family="Times,serif" font-size="14.00">Kind</text>
</g>
<!-- Role -->
<g id="node11" class="node"><title>Role</title>
<ellipse fill="none" stroke="black" cx="123.688" cy="-234" rx="27" ry="18"/>
<text text-anchor="middle" x="123.688" y="-229.8" font-family="Times,serif" font-size="14.00">Role</text>
</g>
<!-- Kind&#45;&gt;Role -->
<g id="edge1" class="edge"><title>Kind&#45;&gt;Role</title>
<path fill="none" stroke="#90f942" d="M123.688,-279.64C123.688,-274.063 123.688,-268.132 123.688,-262.476"/>
<ellipse fill="none" stroke="#90f942" cx="123.688" cy="-283.697" rx="4" ry="4"/>
<polygon fill="#90f942" stroke="#90f942" points="123.688,-262.104 128.188,-252.104 123.688,-257.104 123.688,-252.104 123.688,-252.104 123.688,-252.104 123.688,-257.104 119.188,-252.104 123.688,-262.104 123.688,-262.104"/>
</g>
<!-- Modul -->
<g id="node5" class="node"><title>Modul</title>
<ellipse fill="none" stroke="black" cx="366.688" cy="-234" rx="33.8857" ry="18"/>
<text text-anchor="middle" x="366.688" y="-229.8" font-family="Times,serif" font-size="14.00">Modul</text>
</g>
<!-- Modul&#45;&gt;Component -->
<g id="edge2" class="edge"><title>Modul&#45;&gt;Component</title>
<path fill="none" stroke="#6fa759" d="M360.97,-207.987C359.659,-202.249 358.258,-196.121 356.926,-190.293"/>
<ellipse fill="none" stroke="#6fa759" cx="361.923" cy="-212.156" rx="4.00001" ry="4.00001"/>
<polygon fill="#6fa759" stroke="#6fa759" points="356.865,-190.024 359.023,-179.273 355.751,-185.15 354.636,-180.275 354.636,-180.275 354.636,-180.275 355.751,-185.15 350.25,-181.278 356.865,-190.024 356.865,-190.024"/>
</g>
<!-- Project -->
<g id="node6" class="node"><title>Project</title>
<ellipse fill="none" stroke="black" cx="260.688" cy="-396.5" rx="35.3129" ry="18"/>
<text text-anchor="middle" x="260.688" y="-392.3" font-family="Times,serif" font-size="14.00">Project</text>
</g>
<!-- Project&#45;&gt;Event -->
<g id="edge7" class="edge"><title>Project&#45;&gt;Event</title>
<path fill="none" stroke="#b89c75" d="M236.143,-375.413C222.258,-362.4 206.21,-344.157 198.688,-324 191.259,-304.093 193.794,-279.983 197.752,-261.881"/>
<ellipse fill="none" stroke="#b89c75" cx="239.365" cy="-378.329" rx="4.00002" ry="4.00002"/>
<polygon fill="#b89c75" stroke="#b89c75" points="197.795,-261.706 204.552,-253.069 198.989,-256.85 200.182,-251.995 200.182,-251.995 200.182,-251.995 198.989,-256.85 195.812,-250.921 197.795,-261.706 197.795,-261.706"/>
</g>
<!-- Project&#45;&gt;Kind -->
<g id="edge4" class="edge"><title>Project&#45;&gt;Kind</title>
<path fill="none" stroke="#f219db" d="M237.36,-375.526C230.832,-370.257 223.621,-364.728 216.688,-360 196.46,-346.208 172.422,-332.575 153.852,-322.59"/>
<ellipse fill="none" stroke="#f219db" cx="240.534" cy="-378.13" rx="4.00002" ry="4.00002"/>
<polygon fill="#f219db" stroke="#f219db" points="153.783,-322.553 147.066,-313.885 149.368,-320.206 144.953,-317.858 144.953,-317.858 144.953,-317.858 149.368,-320.206 142.841,-321.832 153.783,-322.553 153.783,-322.553"/>
</g>
<!-- Questionary -->
<g id="node8" class="node"><title>Questionary</title>
<ellipse fill="none" stroke="black" cx="260.688" cy="-306" rx="53.1625" ry="18"/>
<text text-anchor="middle" x="260.688" y="-301.8" font-family="Times,serif" font-size="14.00">Questionary</text>
</g>
<!-- Project&#45;&gt;Questionary -->
<g id="edge6" class="edge"><title>Project&#45;&gt;Questionary</title>
<path fill="none" stroke="#8efc9e" d="M260.688,-370.189C260.688,-358.971 260.688,-345.752 260.688,-334.311"/>
<ellipse fill="none" stroke="#8efc9e" cx="260.688" cy="-374.436" rx="4" ry="4"/>
<polygon fill="#8efc9e" stroke="#8efc9e" points="260.688,-334.011 265.188,-324.011 260.688,-329.011 260.688,-324.011 260.688,-324.011 260.688,-324.011 260.688,-329.011 256.188,-324.011 260.688,-334.011 260.688,-334.011"/>
</g>
<!-- Subproduct -->
<g id="node12" class="node"><title>Subproduct</title>
<ellipse fill="none" stroke="black" cx="382.688" cy="-306" rx="50.7655" ry="18"/>
<text text-anchor="middle" x="382.688" y="-301.8" font-family="Times,serif" font-size="14.00">Subproduct</text>
</g>
<!-- Project&#45;&gt;Subproduct -->
<g id="edge3" class="edge"><title>Project&#45;&gt;Subproduct</title>
<path fill="none" stroke="#9c65ab" d="M286.884,-376.497C306.386,-362.35 333.019,-343.03 353.254,-328.351"/>
<ellipse fill="none" stroke="#9c65ab" cx="283.527" cy="-378.932" rx="4.00002" ry="4.00002"/>
<polygon fill="#9c65ab" stroke="#9c65ab" points="353.401,-328.245 364.138,-326.015 357.448,-325.309 361.496,-322.373 361.496,-322.373 361.496,-322.373 357.448,-325.309 358.853,-318.73 353.401,-328.245 353.401,-328.245"/>
</g>
<!-- Task -->
<g id="node14" class="node"><title>Task</title>
<ellipse fill="none" stroke="black" cx="478.688" cy="-306" rx="27" ry="18"/>
<text text-anchor="middle" x="478.688" y="-301.8" font-family="Times,serif" font-size="14.00">Task</text>
</g>
<!-- Project&#45;&gt;Task -->
<g id="edge5" class="edge"><title>Project&#45;&gt;Task</title>
<path fill="none" stroke="#00c0f6" d="M295.876,-382.475C332.745,-368.642 392.208,-345.806 442.688,-324 444.496,-323.219 446.348,-322.401 448.211,-321.564"/>
<ellipse fill="none" stroke="#00c0f6" cx="292.11" cy="-383.884" rx="4.00001" ry="4.00001"/>
<polygon fill="#00c0f6" stroke="#00c0f6" points="448.389,-321.483 459.354,-321.394 452.932,-319.394 457.475,-317.305 457.475,-317.305 457.475,-317.305 452.932,-319.394 455.595,-313.217 448.389,-321.483 448.389,-321.483"/>
</g>
<!-- Question -->
<g id="node7" class="node"><title>Question</title>
<ellipse fill="none" stroke="black" cx="374.688" cy="-90" rx="42.0784" ry="18"/>
<text text-anchor="middle" x="374.688" y="-85.8" font-family="Times,serif" font-size="14.00">Question</text>
</g>
<!-- Response -->
<g id="node10" class="node"><title>Response</title>
<ellipse fill="none" stroke="black" cx="374.688" cy="-18" rx="44.0078" ry="18"/>
<text text-anchor="middle" x="374.688" y="-13.8" font-family="Times,serif" font-size="14.00">Response</text>
</g>
<!-- Question&#45;&gt;Response -->
<g id="edge8" class="edge"><title>Question&#45;&gt;Response</title>
<path fill="none" stroke="#13841d" d="M374.688,-63.6398C374.688,-58.0629 374.688,-52.1319 374.688,-46.4761"/>
<ellipse fill="none" stroke="#13841d" cx="374.688" cy="-67.6966" rx="4" ry="4"/>
<polygon fill="#13841d" stroke="#13841d" points="374.688,-46.1043 379.188,-36.1043 374.688,-41.1043 374.688,-36.1043 374.688,-36.1043 374.688,-36.1043 374.688,-41.1043 370.188,-36.1044 374.688,-46.1043 374.688,-46.1043"/>
</g>
<!-- Questionary&#45;&gt;Event -->
<g id="edge10" class="edge"><title>Questionary&#45;&gt;Event</title>
<path fill="none" stroke="#e68ce4" d="M242.619,-282.003C236.886,-274.707 230.531,-266.619 224.732,-259.238"/>
<ellipse fill="none" stroke="#e68ce4" cx="245.182" cy="-285.266" rx="4.00002" ry="4.00002"/>
<polygon fill="#e68ce4" stroke="#e68ce4" points="224.428,-258.851 221.788,-248.208 221.339,-254.92 218.25,-250.988 218.25,-250.988 218.25,-250.988 221.339,-254.92 214.711,-253.768 224.428,-258.851 224.428,-258.851"/>
</g>
<!-- Questionary&#45;&gt;Question -->
<g id="edge9" class="edge"><title>Questionary&#45;&gt;Question</title>
<path fill="none" stroke="#357818" d="M259.41,-279.405C258.978,-245.52 262.701,-185.254 290.688,-144 301.531,-128.016 318.968,-115.872 335.152,-107.269"/>
<ellipse fill="none" stroke="#357818" cx="259.516" cy="-283.825" rx="4" ry="4"/>
<polygon fill="#357818" stroke="#357818" points="335.531,-107.079 346.488,-106.635 340.004,-104.845 344.477,-102.61 344.477,-102.61 344.477,-102.61 340.004,-104.845 342.466,-98.5844 335.531,-107.079 335.531,-107.079"/>
</g>
<!-- Requirment -->
<g id="node9" class="node"><title>Requirment</title>
<ellipse fill="none" stroke="black" cx="123.688" cy="-162" rx="51.7174" ry="18"/>
<text text-anchor="middle" x="123.688" y="-157.8" font-family="Times,serif" font-size="14.00">Requirment</text>
</g>
<!-- Role&#45;&gt;Requirment -->
<g id="edge11" class="edge"><title>Role&#45;&gt;Requirment</title>
<path fill="none" stroke="#8600ba" d="M123.688,-207.64C123.688,-202.063 123.688,-196.132 123.688,-190.476"/>
<ellipse fill="none" stroke="#8600ba" cx="123.688" cy="-211.697" rx="4" ry="4"/>
<polygon fill="#8600ba" stroke="#8600ba" points="123.688,-190.104 128.188,-180.104 123.688,-185.104 123.688,-180.104 123.688,-180.104 123.688,-180.104 123.688,-185.104 119.188,-180.104 123.688,-190.104 123.688,-190.104"/>
</g>
<!-- Subproduct&#45;&gt;Modul -->
<g id="edge12" class="edge"><title>Subproduct&#45;&gt;Modul</title>
<path fill="none" stroke="#0a153e" d="M376.891,-279.64C375.584,-273.92 374.191,-267.828 372.869,-262.042"/>
<ellipse fill="none" stroke="#0a153e" cx="377.841" cy="-283.797" rx="4.00001" ry="4.00001"/>
<polygon fill="#0a153e" stroke="#0a153e" points="372.826,-261.853 374.984,-251.102 371.711,-256.979 370.597,-252.104 370.597,-252.104 370.597,-252.104 371.711,-256.979 366.21,-253.107 372.826,-261.853 372.826,-261.853"/>
</g>
<!-- Subtask -->
<g id="node13" class="node"><title>Subtask</title>
<ellipse fill="none" stroke="black" cx="478.688" cy="-234" rx="38.2284" ry="18"/>
<text text-anchor="middle" x="478.688" y="-229.8" font-family="Times,serif" font-size="14.00">Subtask</text>
</g>
<!-- Workpackage -->
<g id="node15" class="node"><title>Workpackage</title>
<ellipse fill="none" stroke="black" cx="478.688" cy="-162" rx="58.5081" ry="18"/>
<text text-anchor="middle" x="478.688" y="-157.8" font-family="Times,serif" font-size="14.00">Workpackage</text>
</g>
<!-- Subtask&#45;&gt;Workpackage -->
<g id="edge13" class="edge"><title>Subtask&#45;&gt;Workpackage</title>
<path fill="none" stroke="#19c1a0" d="M478.688,-207.64C478.688,-202.063 478.688,-196.132 478.688,-190.476"/>
<ellipse fill="none" stroke="#19c1a0" cx="478.688" cy="-211.697" rx="4" ry="4"/>
<polygon fill="#19c1a0" stroke="#19c1a0" points="478.688,-190.104 483.188,-180.104 478.688,-185.104 478.688,-180.104 478.688,-180.104 478.688,-180.104 478.688,-185.104 474.188,-180.104 478.688,-190.104 478.688,-190.104"/>
</g>
<!-- Task&#45;&gt;Subtask -->
<g id="edge14" class="edge"><title>Task&#45;&gt;Subtask</title>
<path fill="none" stroke="#6e41fc" d="M478.688,-279.64C478.688,-274.063 478.688,-268.132 478.688,-262.476"/>
<ellipse fill="none" stroke="#6e41fc" cx="478.688" cy="-283.697" rx="4" ry="4"/>
<polygon fill="#6e41fc" stroke="#6e41fc" points="478.688,-262.104 483.188,-252.104 478.688,-257.104 478.688,-252.104 478.688,-252.104 478.688,-252.104 478.688,-257.104 474.188,-252.104 478.688,-262.104 478.688,-262.104"/>
</g>
<!-- Workpackage&#45;&gt;Question -->
<g id="edge15" class="edge"><title>Workpackage&#45;&gt;Question</title>
<path fill="none" stroke="#fc0151" d="M448.472,-140.663C434.838,-131.485 418.764,-120.667 405.105,-111.473"/>
<ellipse fill="none" stroke="#fc0151" cx="452.03" cy="-143.057" rx="4.00002" ry="4.00002"/>
<polygon fill="#fc0151" stroke="#fc0151" points="404.824,-111.284 399.041,-101.967 400.676,-108.492 396.528,-105.7 396.528,-105.7 396.528,-105.7 400.676,-108.492 394.015,-109.433 404.824,-111.284 404.824,-111.284"/>
</g>
</g>
</svg>
