<?xml version="1.0" encoding="UTF-8" standalone="no"?>
<!DOCTYPE svg PUBLIC "-//W3C//DTD SVG 1.1//EN"
 "http://www.w3.org/Graphics/SVG/1.1/DTD/svg11.dtd">
<!-- Generated by graphviz version 2.38.0 (20140413.2041)
 -->
<!-- Title: models_diagram Pages: 1 -->
<svg width="1127pt" height="1051pt"
 viewBox="0.00 0.00 1126.50 1051.00" xmlns="http://www.w3.org/2000/svg" xmlns:xlink="http://www.w3.org/1999/xlink">
<g id="graph0" class="graph" transform="scale(1 1) rotate(0) translate(4 1047)">
<title>models_diagram</title>
<polygon fill="none" stroke="none" points="-4,4 -4,-1047 1122.5,-1047 1122.5,4 -4,4"/>
<!-- _diagram_info -->
<g id="node1" class="node"><title>_diagram_info</title>
<text text-anchor="start" x="177.056" y="-1014.6" font-family="Times,serif" font-size="13.00">Models diagram</text>
<text text-anchor="start" x="177.056" y="-1001.6" font-family="Times,serif" font-size="13.00">Date: Jan 18 2016 &#45; 17:15</text>
<text text-anchor="start" x="177.056" y="-988.6" font-family="Times,serif" font-size="13.00">Migration version: 20160110133745</text>
<text text-anchor="start" x="177.056" y="-975.6" font-family="Times,serif" font-size="13.00">Generated by RailRoady 1.4.2</text>
<text text-anchor="start" x="177.056" y="-962.6" font-family="Times,serif" font-size="13.00">http://railroady.prestonlee.com</text>
</g>
<!-- Allocationitem -->
<g id="node2" class="node"><title>Allocationitem</title>
<path fill="none" stroke="black" d="M250.117,-194.5C250.117,-194.5 380.894,-194.5 380.894,-194.5 386.894,-194.5 392.894,-200.5 392.894,-206.5 392.894,-206.5 392.894,-296.5 392.894,-296.5 392.894,-302.5 386.894,-308.5 380.894,-308.5 380.894,-308.5 250.117,-308.5 250.117,-308.5 244.117,-308.5 238.117,-302.5 238.117,-296.5 238.117,-296.5 238.117,-206.5 238.117,-206.5 238.117,-200.5 244.117,-194.5 250.117,-194.5"/>
<text text-anchor="middle" x="315.505" y="-293.3" font-family="Times,serif" font-size="14.00">Allocationitem</text>
<polyline fill="none" stroke="black" points="238.117,-286.5 392.894,-286.5 "/>
<text text-anchor="start" x="246.117" y="-271.3" font-family="Times,serif" font-size="14.00">id :INTEGER</text>
<text text-anchor="start" x="246.117" y="-257.3" font-family="Times,serif" font-size="14.00">workpackage_id :integer</text>
<text text-anchor="start" x="246.117" y="-243.3" font-family="Times,serif" font-size="14.00">component_id :integer</text>
<text text-anchor="start" x="246.117" y="-229.3" font-family="Times,serif" font-size="14.00">role_id :integer</text>
<text text-anchor="start" x="246.117" y="-215.3" font-family="Times,serif" font-size="14.00">created_at :datetime</text>
<text text-anchor="start" x="246.117" y="-201.3" font-family="Times,serif" font-size="14.00">updated_at :datetime</text>
</g>
<!-- Component -->
<g id="node3" class="node"><title>Component</title>
<path fill="none" stroke="black" d="M12,-360.5C12,-360.5 121.011,-360.5 121.011,-360.5 127.011,-360.5 133.011,-366.5 133.011,-372.5 133.011,-372.5 133.011,-462.5 133.011,-462.5 133.011,-468.5 127.011,-474.5 121.011,-474.5 121.011,-474.5 12,-474.5 12,-474.5 6,-474.5 0,-468.5 0,-462.5 0,-462.5 0,-372.5 0,-372.5 0,-366.5 6,-360.5 12,-360.5"/>
<text text-anchor="middle" x="66.5054" y="-459.3" font-family="Times,serif" font-size="14.00">Component</text>
<polyline fill="none" stroke="black" points="0,-452.5 133.011,-452.5 "/>
<text text-anchor="start" x="8" y="-437.3" font-family="Times,serif" font-size="14.00">id :INTEGER</text>
<text text-anchor="start" x="8" y="-423.3" font-family="Times,serif" font-size="14.00">name :varchar</text>
<text text-anchor="start" x="8" y="-409.3" font-family="Times,serif" font-size="14.00">description :varchar</text>
<text text-anchor="start" x="8" y="-395.3" font-family="Times,serif" font-size="14.00">modul_id :integer</text>
<text text-anchor="start" x="8" y="-381.3" font-family="Times,serif" font-size="14.00">created_at :datetime</text>
<text text-anchor="start" x="8" y="-367.3" font-family="Times,serif" font-size="14.00">updated_at :datetime</text>
</g>
<!-- Component&#45;&gt;Allocationitem -->
<g id="edge1" class="edge"><title>Component&#45;&gt;Allocationitem</title>
<path fill="none" stroke="#3edb35" d="M140.254,-361.539C141.007,-361.022 141.758,-360.509 142.505,-360 170.801,-340.74 202.432,-320.676 230.831,-303.169"/>
<ellipse fill="none" stroke="#3edb35" cx="136.709" cy="-364" rx="4.00002" ry="4.00002"/>
<ellipse fill="#3edb35" stroke="#3edb35" cx="234.57" cy="-300.87" rx="4.00002" ry="4.00002"/>
</g>
<!-- Kind -->
<g id="node4" class="node"><title>Kind</title>
<path fill="none" stroke="black" d="M255,-797.5C255,-797.5 364.011,-797.5 364.011,-797.5 370.011,-797.5 376.011,-803.5 376.011,-809.5 376.011,-809.5 376.011,-885.5 376.011,-885.5 376.011,-891.5 370.011,-897.5 364.011,-897.5 364.011,-897.5 255,-897.5 255,-897.5 249,-897.5 243,-891.5 243,-885.5 243,-885.5 243,-809.5 243,-809.5 243,-803.5 249,-797.5 255,-797.5"/>
<text text-anchor="middle" x="309.505" y="-882.3" font-family="Times,serif" font-size="14.00">Kind</text>
<polyline fill="none" stroke="black" points="243,-875.5 376.011,-875.5 "/>
<text text-anchor="start" x="251" y="-860.3" font-family="Times,serif" font-size="14.00">id :INTEGER</text>
<text text-anchor="start" x="251" y="-846.3" font-family="Times,serif" font-size="14.00">name :varchar</text>
<text text-anchor="start" x="251" y="-832.3" font-family="Times,serif" font-size="14.00">project_id :integer</text>
<text text-anchor="start" x="251" y="-818.3" font-family="Times,serif" font-size="14.00">created_at :datetime</text>
<text text-anchor="start" x="251" y="-804.3" font-family="Times,serif" font-size="14.00">updated_at :datetime</text>
</g>
<!-- Role -->
<g id="node11" class="node"><title>Role</title>
<path fill="none" stroke="black" d="M255,-582.5C255,-582.5 364.011,-582.5 364.011,-582.5 370.011,-582.5 376.011,-588.5 376.011,-594.5 376.011,-594.5 376.011,-670.5 376.011,-670.5 376.011,-676.5 370.011,-682.5 364.011,-682.5 364.011,-682.5 255,-682.5 255,-682.5 249,-682.5 243,-676.5 243,-670.5 243,-670.5 243,-594.5 243,-594.5 243,-588.5 249,-582.5 255,-582.5"/>
<text text-anchor="middle" x="309.505" y="-667.3" font-family="Times,serif" font-size="14.00">Role</text>
<polyline fill="none" stroke="black" points="243,-660.5 376.011,-660.5 "/>
<text text-anchor="start" x="251" y="-645.3" font-family="Times,serif" font-size="14.00">id :INTEGER</text>
<text text-anchor="start" x="251" y="-631.3" font-family="Times,serif" font-size="14.00">name :varchar</text>
<text text-anchor="start" x="251" y="-617.3" font-family="Times,serif" font-size="14.00">kind_id :integer</text>
<text text-anchor="start" x="251" y="-603.3" font-family="Times,serif" font-size="14.00">created_at :datetime</text>
<text text-anchor="start" x="251" y="-589.3" font-family="Times,serif" font-size="14.00">updated_at :datetime</text>
</g>
<!-- Kind&#45;&gt;Role -->
<g id="edge2" class="edge"><title>Kind&#45;&gt;Role</title>
<path fill="none" stroke="#68f703" d="M309.505,-789.106C309.505,-759.385 309.505,-723.133 309.505,-693.098"/>
<ellipse fill="none" stroke="#68f703" cx="309.505" cy="-793.366" rx="4" ry="4"/>
<polygon fill="#68f703" stroke="#68f703" points="309.505,-692.755 314.005,-682.755 309.505,-687.755 309.505,-682.755 309.505,-682.755 309.505,-682.755 309.505,-687.755 305.005,-682.755 309.505,-692.755 309.505,-692.755"/>
</g>
<!-- Modul -->
<g id="node5" class="node"><title>Modul</title>
<path fill="none" stroke="black" d="M22.3242,-575.5C22.3242,-575.5 140.687,-575.5 140.687,-575.5 146.687,-575.5 152.687,-581.5 152.687,-587.5 152.687,-587.5 152.687,-677.5 152.687,-677.5 152.687,-683.5 146.687,-689.5 140.687,-689.5 140.687,-689.5 22.3242,-689.5 22.3242,-689.5 16.3242,-689.5 10.3242,-683.5 10.3242,-677.5 10.3242,-677.5 10.3242,-587.5 10.3242,-587.5 10.3242,-581.5 16.3242,-575.5 22.3242,-575.5"/>
<text text-anchor="middle" x="81.5054" y="-674.3" font-family="Times,serif" font-size="14.00">Modul</text>
<polyline fill="none" stroke="black" points="10.3242,-667.5 152.687,-667.5 "/>
<text text-anchor="start" x="18.3242" y="-652.3" font-family="Times,serif" font-size="14.00">id :INTEGER</text>
<text text-anchor="start" x="18.3242" y="-638.3" font-family="Times,serif" font-size="14.00">name :varchar</text>
<text text-anchor="start" x="18.3242" y="-624.3" font-family="Times,serif" font-size="14.00">description :varchar</text>
<text text-anchor="start" x="18.3242" y="-610.3" font-family="Times,serif" font-size="14.00">subproduct_id :integer</text>
<text text-anchor="start" x="18.3242" y="-596.3" font-family="Times,serif" font-size="14.00">created_at :datetime</text>
<text text-anchor="start" x="18.3242" y="-582.3" font-family="Times,serif" font-size="14.00">updated_at :datetime</text>
</g>
<!-- Modul&#45;&gt;Component -->
<g id="edge3" class="edge"><title>Modul&#45;&gt;Component</title>
<path fill="none" stroke="#390568" d="M76.9699,-567.096C75.1388,-541.094 73.0267,-511.103 71.1816,-484.903"/>
<ellipse fill="none" stroke="#390568" cx="77.2636" cy="-571.268" rx="4" ry="4"/>
<polygon fill="#390568" stroke="#390568" points="71.1648,-484.663 74.9511,-474.371 70.8135,-479.675 70.4622,-474.687 70.4622,-474.687 70.4622,-474.687 70.8135,-479.675 65.9733,-475.004 71.1648,-484.663 71.1648,-484.663"/>
</g>
<!-- Project -->
<g id="node6" class="node"><title>Project</title>
<path fill="none" stroke="black" d="M406,-942.5C406,-942.5 515.011,-942.5 515.011,-942.5 521.011,-942.5 527.011,-948.5 527.011,-954.5 527.011,-954.5 527.011,-1030.5 527.011,-1030.5 527.011,-1036.5 521.011,-1042.5 515.011,-1042.5 515.011,-1042.5 406,-1042.5 406,-1042.5 400,-1042.5 394,-1036.5 394,-1030.5 394,-1030.5 394,-954.5 394,-954.5 394,-948.5 400,-942.5 406,-942.5"/>
<text text-anchor="middle" x="460.505" y="-1027.3" font-family="Times,serif" font-size="14.00">Project</text>
<polyline fill="none" stroke="black" points="394,-1020.5 527.011,-1020.5 "/>
<text text-anchor="start" x="402" y="-1005.3" font-family="Times,serif" font-size="14.00">id :INTEGER</text>
<text text-anchor="start" x="402" y="-991.3" font-family="Times,serif" font-size="14.00">title :varchar</text>
<text text-anchor="start" x="402" y="-977.3" font-family="Times,serif" font-size="14.00">description :varchar</text>
<text text-anchor="start" x="402" y="-963.3" font-family="Times,serif" font-size="14.00">created_at :datetime</text>
<text text-anchor="start" x="402" y="-949.3" font-family="Times,serif" font-size="14.00">updated_at :datetime</text>
</g>
<!-- Project&#45;&gt;Kind -->
<g id="edge5" class="edge"><title>Project&#45;&gt;Kind</title>
<path fill="none" stroke="#00568b" d="M402.387,-936.46C391.396,-926.052 379.885,-915.151 368.857,-904.707"/>
<ellipse fill="none" stroke="#00568b" cx="405.635" cy="-939.537" rx="4.00002" ry="4.00002"/>
<polygon fill="#00568b" stroke="#00568b" points="368.572,-904.437 364.405,-894.293 364.941,-900.999 361.311,-897.561 361.311,-897.561 361.311,-897.561 364.941,-900.999 358.217,-900.828 368.572,-904.437 368.572,-904.437"/>
</g>
<!-- Questionary -->
<g id="node8" class="node"><title>Questionary</title>
<path fill="none" stroke="black" d="M818,-797.5C818,-797.5 927.011,-797.5 927.011,-797.5 933.011,-797.5 939.011,-803.5 939.011,-809.5 939.011,-809.5 939.011,-885.5 939.011,-885.5 939.011,-891.5 933.011,-897.5 927.011,-897.5 927.011,-897.5 818,-897.5 818,-897.5 812,-897.5 806,-891.5 806,-885.5 806,-885.5 806,-809.5 806,-809.5 806,-803.5 812,-797.5 818,-797.5"/>
<text text-anchor="middle" x="872.505" y="-882.3" font-family="Times,serif" font-size="14.00">Questionary</text>
<polyline fill="none" stroke="black" points="806,-875.5 939.011,-875.5 "/>
<text text-anchor="start" x="814" y="-860.3" font-family="Times,serif" font-size="14.00">id :INTEGER</text>
<text text-anchor="start" x="814" y="-846.3" font-family="Times,serif" font-size="14.00">runde :integer</text>
<text text-anchor="start" x="814" y="-832.3" font-family="Times,serif" font-size="14.00">project_id :integer</text>
<text text-anchor="start" x="814" y="-818.3" font-family="Times,serif" font-size="14.00">created_at :datetime</text>
<text text-anchor="start" x="814" y="-804.3" font-family="Times,serif" font-size="14.00">updated_at :datetime</text>
</g>
<!-- Project&#45;&gt;Questionary -->
<g id="edge7" class="edge"><title>Project&#45;&gt;Questionary</title>
<path fill="none" stroke="#8ec490" d="M534.96,-965.658C608.859,-940.008 721.585,-900.882 796.144,-875.004"/>
<ellipse fill="none" stroke="#8ec490" cx="530.937" cy="-967.054" rx="4.00001" ry="4.00001"/>
<polygon fill="#8ec490" stroke="#8ec490" points="796.501,-874.88 807.424,-875.852 801.225,-873.241 805.948,-871.601 805.948,-871.601 805.948,-871.601 801.225,-873.241 804.473,-867.35 796.501,-874.88 796.501,-874.88"/>
</g>
<!-- Subproduct -->
<g id="node12" class="node"><title>Subproduct</title>
<path fill="none" stroke="black" d="M55,-790.5C55,-790.5 164.011,-790.5 164.011,-790.5 170.011,-790.5 176.011,-796.5 176.011,-802.5 176.011,-802.5 176.011,-892.5 176.011,-892.5 176.011,-898.5 170.011,-904.5 164.011,-904.5 164.011,-904.5 55,-904.5 55,-904.5 49,-904.5 43,-898.5 43,-892.5 43,-892.5 43,-802.5 43,-802.5 43,-796.5 49,-790.5 55,-790.5"/>
<text text-anchor="middle" x="109.505" y="-889.3" font-family="Times,serif" font-size="14.00">Subproduct</text>
<polyline fill="none" stroke="black" points="43,-882.5 176.011,-882.5 "/>
<text text-anchor="start" x="51" y="-867.3" font-family="Times,serif" font-size="14.00">id :INTEGER</text>
<text text-anchor="start" x="51" y="-853.3" font-family="Times,serif" font-size="14.00">name :varchar</text>
<text text-anchor="start" x="51" y="-839.3" font-family="Times,serif" font-size="14.00">description :varchar</text>
<text text-anchor="start" x="51" y="-825.3" font-family="Times,serif" font-size="14.00">project_id :integer</text>
<text text-anchor="start" x="51" y="-811.3" font-family="Times,serif" font-size="14.00">created_at :datetime</text>
<text text-anchor="start" x="51" y="-797.3" font-family="Times,serif" font-size="14.00">updated_at :datetime</text>
</g>
<!-- Project&#45;&gt;Subproduct -->
<g id="edge4" class="edge"><title>Project&#45;&gt;Subproduct</title>
<path fill="none" stroke="#9da960" d="M386.213,-942.752C385.644,-942.497 385.074,-942.246 384.505,-942 321.103,-914.534 298.785,-927.646 233.505,-905 217.624,-899.491 201.006,-892.687 185.284,-885.732"/>
<ellipse fill="none" stroke="#9da960" cx="390.012" cy="-944.553" rx="4.00002" ry="4.00002"/>
<polygon fill="#9da960" stroke="#9da960" points="185.266,-885.724 177.986,-877.523 180.704,-883.676 176.143,-881.628 176.143,-881.628 176.143,-881.628 180.704,-883.676 174.3,-885.733 185.266,-885.724 185.266,-885.724"/>
</g>
<!-- Task -->
<g id="node14" class="node"><title>Task</title>
<path fill="none" stroke="black" d="M406,-797.5C406,-797.5 515.011,-797.5 515.011,-797.5 521.011,-797.5 527.011,-803.5 527.011,-809.5 527.011,-809.5 527.011,-885.5 527.011,-885.5 527.011,-891.5 521.011,-897.5 515.011,-897.5 515.011,-897.5 406,-897.5 406,-897.5 400,-897.5 394,-891.5 394,-885.5 394,-885.5 394,-809.5 394,-809.5 394,-803.5 400,-797.5 406,-797.5"/>
<text text-anchor="middle" x="460.505" y="-882.3" font-family="Times,serif" font-size="14.00">Task</text>
<polyline fill="none" stroke="black" points="394,-875.5 527.011,-875.5 "/>
<text text-anchor="start" x="402" y="-860.3" font-family="Times,serif" font-size="14.00">id :INTEGER</text>
<text text-anchor="start" x="402" y="-846.3" font-family="Times,serif" font-size="14.00">name :varchar</text>
<text text-anchor="start" x="402" y="-832.3" font-family="Times,serif" font-size="14.00">project_id :integer</text>
<text text-anchor="start" x="402" y="-818.3" font-family="Times,serif" font-size="14.00">created_at :datetime</text>
<text text-anchor="start" x="402" y="-804.3" font-family="Times,serif" font-size="14.00">updated_at :datetime</text>
</g>
<!-- Project&#45;&gt;Task -->
<g id="edge6" class="edge"><title>Project&#45;&gt;Task</title>
<path fill="none" stroke="#27b84b" d="M460.505,-934.075C460.505,-925.439 460.505,-916.518 460.505,-907.842"/>
<ellipse fill="none" stroke="#27b84b" cx="460.505" cy="-938.288" rx="4" ry="4"/>
<polygon fill="#27b84b" stroke="#27b84b" points="460.505,-907.803 465.005,-897.803 460.505,-902.803 460.505,-897.803 460.505,-897.803 460.505,-897.803 460.505,-902.803 456.005,-897.803 460.505,-907.803 460.505,-907.803"/>
</g>
<!-- Roadmap -->
<g id="node18" class="node"><title>Roadmap</title>
<ellipse fill="none" stroke="black" cx="1074.51" cy="-632.5" rx="43.9992" ry="18"/>
<text text-anchor="middle" x="1074.51" y="-628.3" font-family="Times,serif" font-size="14.00">Roadmap</text>
</g>
<!-- Project&#45;&gt;Roadmap -->
<g id="edge8" class="edge"><title>Project&#45;&gt;Roadmap</title>
<path fill="none" stroke="#29814a" d="M535.211,-985.719C654.756,-975.252 882.329,-949.97 948.505,-905 1033.3,-847.38 1062.23,-717.327 1071.04,-660.701"/>
<ellipse fill="none" stroke="#29814a" cx="531.131" cy="-986.072" rx="4" ry="4"/>
<polygon fill="#29814a" stroke="#29814a" points="1071.06,-660.602 1076.96,-651.359 1071.78,-655.654 1072.51,-650.707 1072.51,-650.707 1072.51,-650.707 1071.78,-655.654 1068.05,-650.055 1071.06,-660.602 1071.06,-660.602"/>
</g>
<!-- Question -->
<g id="node7" class="node"><title>Question</title>
<path fill="none" stroke="black" d="M667.007,-180.5C667.007,-180.5 818.004,-180.5 818.004,-180.5 824.004,-180.5 830.004,-186.5 830.004,-192.5 830.004,-192.5 830.004,-310.5 830.004,-310.5 830.004,-316.5 824.004,-322.5 818.004,-322.5 818.004,-322.5 667.007,-322.5 667.007,-322.5 661.007,-322.5 655.007,-316.5 655.007,-310.5 655.007,-310.5 655.007,-192.5 655.007,-192.5 655.007,-186.5 661.007,-180.5 667.007,-180.5"/>
<text text-anchor="middle" x="742.505" y="-307.3" font-family="Times,serif" font-size="14.00">Question</text>
<polyline fill="none" stroke="black" points="655.007,-300.5 830.004,-300.5 "/>
<text text-anchor="start" x="663.007" y="-285.3" font-family="Times,serif" font-size="14.00">id :INTEGER</text>
<text text-anchor="start" x="663.007" y="-271.3" font-family="Times,serif" font-size="14.00">pessimistic_average :integer</text>
<text text-anchor="start" x="663.007" y="-257.3" font-family="Times,serif" font-size="14.00">realistic_average :integer</text>
<text text-anchor="start" x="663.007" y="-243.3" font-family="Times,serif" font-size="14.00">optimistic_average :integer</text>
<text text-anchor="start" x="663.007" y="-229.3" font-family="Times,serif" font-size="14.00">questionary_id :integer</text>
<text text-anchor="start" x="663.007" y="-215.3" font-family="Times,serif" font-size="14.00">workpackage_id :integer</text>
<text text-anchor="start" x="663.007" y="-201.3" font-family="Times,serif" font-size="14.00">created_at :datetime</text>
<text text-anchor="start" x="663.007" y="-187.3" font-family="Times,serif" font-size="14.00">updated_at :datetime</text>
</g>
<!-- Response -->
<g id="node10" class="node"><title>Response</title>
<path fill="none" stroke="black" d="M773,-0.5C773,-0.5 882.011,-0.5 882.011,-0.5 888.011,-0.5 894.011,-6.5 894.011,-12.5 894.011,-12.5 894.011,-130.5 894.011,-130.5 894.011,-136.5 888.011,-142.5 882.011,-142.5 882.011,-142.5 773,-142.5 773,-142.5 767,-142.5 761,-136.5 761,-130.5 761,-130.5 761,-12.5 761,-12.5 761,-6.5 767,-0.5 773,-0.5"/>
<text text-anchor="middle" x="827.505" y="-127.3" font-family="Times,serif" font-size="14.00">Response</text>
<polyline fill="none" stroke="black" points="761,-120.5 894.011,-120.5 "/>
<text text-anchor="start" x="769" y="-105.3" font-family="Times,serif" font-size="14.00">id :INTEGER</text>
<text text-anchor="start" x="769" y="-91.3" font-family="Times,serif" font-size="14.00">pessimistic :integer</text>
<text text-anchor="start" x="769" y="-77.3" font-family="Times,serif" font-size="14.00">realistic :integer</text>
<text text-anchor="start" x="769" y="-63.3" font-family="Times,serif" font-size="14.00">optimistic :integer</text>
<text text-anchor="start" x="769" y="-49.3" font-family="Times,serif" font-size="14.00">user_id :integer</text>
<text text-anchor="start" x="769" y="-35.3" font-family="Times,serif" font-size="14.00">question_id :integer</text>
<text text-anchor="start" x="769" y="-21.3" font-family="Times,serif" font-size="14.00">created_at :datetime</text>
<text text-anchor="start" x="769" y="-7.3" font-family="Times,serif" font-size="14.00">updated_at :datetime</text>
</g>
<!-- Question&#45;&gt;Response -->
<g id="edge9" class="edge"><title>Question&#45;&gt;Response</title>
<path fill="none" stroke="#187a86" d="M779.487,-173.057C782.819,-166.078 786.198,-159.002 789.539,-152.006"/>
<ellipse fill="none" stroke="#187a86" cx="777.701" cy="-176.796" rx="4.00002" ry="4.00002"/>
<polygon fill="#187a86" stroke="#187a86" points="789.754,-151.555 798.124,-144.47 791.909,-147.043 794.064,-142.531 794.064,-142.531 794.064,-142.531 791.909,-147.043 790.003,-140.592 789.754,-151.555 789.754,-151.555"/>
</g>
<!-- Questionary&#45;&gt;Question -->
<g id="edge10" class="edge"><title>Questionary&#45;&gt;Question</title>
<path fill="none" stroke="#d666ce" d="M799.734,-800.315C784.472,-786.993 770.34,-771.088 761.505,-753 726.474,-681.278 731.916,-455.021 737.797,-332.763"/>
<ellipse fill="none" stroke="#d666ce" cx="802.804" cy="-802.905" rx="4.00002" ry="4.00002"/>
<polygon fill="#d666ce" stroke="#d666ce" points="737.801,-332.692 742.788,-322.926 738.047,-327.699 738.294,-322.705 738.294,-322.705 738.294,-322.705 738.047,-327.699 733.799,-322.483 737.801,-332.692 737.801,-332.692"/>
</g>
<!-- User -->
<g id="node15" class="node"><title>User</title>
<path fill="none" stroke="black" d="M782.228,-512.5C782.228,-512.5 962.783,-512.5 962.783,-512.5 968.783,-512.5 974.783,-518.5 974.783,-524.5 974.783,-524.5 974.783,-740.5 974.783,-740.5 974.783,-746.5 968.783,-752.5 962.783,-752.5 962.783,-752.5 782.228,-752.5 782.228,-752.5 776.228,-752.5 770.228,-746.5 770.228,-740.5 770.228,-740.5 770.228,-524.5 770.228,-524.5 770.228,-518.5 776.228,-512.5 782.228,-512.5"/>
<text text-anchor="middle" x="872.505" y="-737.3" font-family="Times,serif" font-size="14.00">User</text>
<polyline fill="none" stroke="black" points="770.228,-730.5 974.783,-730.5 "/>
<text text-anchor="start" x="778.228" y="-715.3" font-family="Times,serif" font-size="14.00">id :INTEGER</text>
<text text-anchor="start" x="778.228" y="-701.3" font-family="Times,serif" font-size="14.00">email :varchar</text>
<text text-anchor="start" x="778.228" y="-687.3" font-family="Times,serif" font-size="14.00">encrypted_password :varchar</text>
<text text-anchor="start" x="778.228" y="-673.3" font-family="Times,serif" font-size="14.00">reset_password_token :varchar</text>
<text text-anchor="start" x="778.228" y="-659.3" font-family="Times,serif" font-size="14.00">reset_password_sent_at :datetime</text>
<text text-anchor="start" x="778.228" y="-645.3" font-family="Times,serif" font-size="14.00">remember_created_at :datetime</text>
<text text-anchor="start" x="778.228" y="-631.3" font-family="Times,serif" font-size="14.00">sign_in_count :integer</text>
<text text-anchor="start" x="778.228" y="-617.3" font-family="Times,serif" font-size="14.00">current_sign_in_at :datetime</text>
<text text-anchor="start" x="778.228" y="-603.3" font-family="Times,serif" font-size="14.00">last_sign_in_at :datetime</text>
<text text-anchor="start" x="778.228" y="-589.3" font-family="Times,serif" font-size="14.00">current_sign_in_ip :varchar</text>
<text text-anchor="start" x="778.228" y="-575.3" font-family="Times,serif" font-size="14.00">last_sign_in_ip :varchar</text>
<text text-anchor="start" x="778.228" y="-561.3" font-family="Times,serif" font-size="14.00">created_at :datetime</text>
<text text-anchor="start" x="778.228" y="-547.3" font-family="Times,serif" font-size="14.00">updated_at :datetime</text>
<text text-anchor="start" x="778.228" y="-533.3" font-family="Times,serif" font-size="14.00">first_name :varchar</text>
<text text-anchor="start" x="778.228" y="-519.3" font-family="Times,serif" font-size="14.00">last_name :varchar</text>
</g>
<!-- Questionary&#45;&gt;User -->
<g id="edge12" class="edge"><title>Questionary&#45;&gt;User</title>
<path fill="none" stroke="#399e58" d="M872.505,-787.163C872.505,-779.308 872.505,-771.025 872.505,-762.541"/>
<polygon fill="#399e58" stroke="#399e58" points="872.505,-787.366 868.005,-797.366 872.505,-792.366 872.505,-797.366 872.505,-797.366 872.505,-797.366 872.505,-792.366 877.005,-797.366 872.505,-787.366 872.505,-787.366"/>
<polygon fill="#399e58" stroke="#399e58" points="872.505,-762.504 877.005,-752.504 872.505,-757.504 872.505,-752.504 872.505,-752.504 872.505,-752.504 872.505,-757.504 868.005,-752.504 872.505,-762.504 872.505,-762.504"/>
</g>
<!-- Userquest -->
<g id="node16" class="node"><title>Userquest</title>
<path fill="none" stroke="black" d="M926.772,-360.5C926.772,-360.5 1048.24,-360.5 1048.24,-360.5 1054.24,-360.5 1060.24,-366.5 1060.24,-372.5 1060.24,-372.5 1060.24,-462.5 1060.24,-462.5 1060.24,-468.5 1054.24,-474.5 1048.24,-474.5 1048.24,-474.5 926.772,-474.5 926.772,-474.5 920.772,-474.5 914.772,-468.5 914.772,-462.5 914.772,-462.5 914.772,-372.5 914.772,-372.5 914.772,-366.5 920.772,-360.5 926.772,-360.5"/>
<text text-anchor="middle" x="987.505" y="-459.3" font-family="Times,serif" font-size="14.00">Userquest</text>
<polyline fill="none" stroke="black" points="914.772,-452.5 1060.24,-452.5 "/>
<text text-anchor="start" x="922.772" y="-437.3" font-family="Times,serif" font-size="14.00">id :INTEGER</text>
<text text-anchor="start" x="922.772" y="-423.3" font-family="Times,serif" font-size="14.00">newquest :boolean</text>
<text text-anchor="start" x="922.772" y="-409.3" font-family="Times,serif" font-size="14.00">user_id :integer</text>
<text text-anchor="start" x="922.772" y="-395.3" font-family="Times,serif" font-size="14.00">questionary_id :integer</text>
<text text-anchor="start" x="922.772" y="-381.3" font-family="Times,serif" font-size="14.00">created_at :datetime</text>
<text text-anchor="start" x="922.772" y="-367.3" font-family="Times,serif" font-size="14.00">updated_at :datetime</text>
</g>
<!-- Questionary&#45;&gt;Userquest -->
<g id="edge11" class="edge"><title>Questionary&#45;&gt;Userquest</title>
<path fill="none" stroke="#9c099f" d="M945.359,-800.697C960.708,-787.325 974.859,-771.302 983.505,-753 1024,-667.289 1014.48,-554.894 1002.27,-484.685"/>
<ellipse fill="none" stroke="#9c099f" cx="942.255" cy="-803.307" rx="4.00002" ry="4.00002"/>
<polygon fill="#9c099f" stroke="#9c099f" points="1002.23,-484.481 1004.88,-473.84 1001.34,-479.561 1000.45,-474.641 1000.45,-474.641 1000.45,-474.641 1001.34,-479.561 996.021,-475.442 1002.23,-484.481 1002.23,-484.481"/>
</g>
<!-- Questionary&#45;&gt;Roadmap -->
<g id="edge13" class="edge"><title>Questionary&#45;&gt;Roadmap</title>
<path fill="none" stroke="#2d2190" d="M946.408,-820.314C971.214,-808.623 997.4,-792.716 1016.51,-772 1045.91,-740.116 1061.59,-691.173 1068.97,-660.813"/>
<ellipse fill="none" stroke="#2d2190" cx="942.748" cy="-821.989" rx="4.00002" ry="4.00002"/>
<polygon fill="#2d2190" stroke="#2d2190" points="1069.01,-660.655 1075.63,-651.914 1070.12,-655.782 1071.24,-650.908 1071.24,-650.908 1071.24,-650.908 1070.12,-655.782 1066.85,-649.902 1069.01,-660.655 1069.01,-660.655"/>
</g>
<!-- Requirment -->
<g id="node9" class="node"><title>Requirment</title>
<path fill="none" stroke="black" d="M163.441,-360.5C163.441,-360.5 275.569,-360.5 275.569,-360.5 281.569,-360.5 287.569,-366.5 287.569,-372.5 287.569,-372.5 287.569,-462.5 287.569,-462.5 287.569,-468.5 281.569,-474.5 275.569,-474.5 275.569,-474.5 163.441,-474.5 163.441,-474.5 157.441,-474.5 151.441,-468.5 151.441,-462.5 151.441,-462.5 151.441,-372.5 151.441,-372.5 151.441,-366.5 157.441,-360.5 163.441,-360.5"/>
<text text-anchor="middle" x="219.505" y="-459.3" font-family="Times,serif" font-size="14.00">Requirment</text>
<polyline fill="none" stroke="black" points="151.441,-452.5 287.569,-452.5 "/>
<text text-anchor="start" x="159.441" y="-437.3" font-family="Times,serif" font-size="14.00">id :INTEGER</text>
<text text-anchor="start" x="159.441" y="-423.3" font-family="Times,serif" font-size="14.00">qualifikation :varchar</text>
<text text-anchor="start" x="159.441" y="-409.3" font-family="Times,serif" font-size="14.00">experience :varchar</text>
<text text-anchor="start" x="159.441" y="-395.3" font-family="Times,serif" font-size="14.00">role_id :integer</text>
<text text-anchor="start" x="159.441" y="-381.3" font-family="Times,serif" font-size="14.00">created_at :datetime</text>
<text text-anchor="start" x="159.441" y="-367.3" font-family="Times,serif" font-size="14.00">updated_at :datetime</text>
</g>
<!-- Role&#45;&gt;Allocationitem -->
<g id="edge14" class="edge"><title>Role&#45;&gt;Allocationitem</title>
<path fill="none" stroke="#897b43" d="M310.411,-574.266C311.507,-505.092 313.344,-389.012 314.487,-316.809"/>
<ellipse fill="none" stroke="#897b43" cx="310.347" cy="-578.341" rx="4" ry="4"/>
<ellipse fill="#897b43" stroke="#897b43" cx="314.553" cy="-312.662" rx="4" ry="4"/>
</g>
<!-- Role&#45;&gt;Requirment -->
<g id="edge15" class="edge"><title>Role&#45;&gt;Requirment</title>
<path fill="none" stroke="#4ca01c" d="M285.483,-574.648C273.662,-546.671 259.352,-512.805 247.085,-483.772"/>
<ellipse fill="none" stroke="#4ca01c" cx="287.188" cy="-578.681" rx="4.00001" ry="4.00001"/>
<polygon fill="#4ca01c" stroke="#4ca01c" points="247.072,-483.741 247.325,-472.778 245.126,-479.135 243.18,-474.53 243.18,-474.53 243.18,-474.53 245.126,-479.135 239.035,-476.281 247.072,-483.741 247.072,-483.741"/>
</g>
<!-- Subproduct&#45;&gt;Modul -->
<g id="edge16" class="edge"><title>Subproduct&#45;&gt;Modul</title>
<path fill="none" stroke="#5b0d20" d="M101.039,-782.096C97.6211,-756.094 93.6785,-726.103 90.2343,-699.903"/>
<ellipse fill="none" stroke="#5b0d20" cx="101.591" cy="-786.292" rx="4.00001" ry="4.00001"/>
<polygon fill="#5b0d20" stroke="#5b0d20" points="90.1949,-699.602 93.3531,-689.101 89.5432,-694.645 88.8915,-689.687 88.8915,-689.687 88.8915,-689.687 89.5432,-694.645 84.4299,-690.274 90.1949,-699.602 90.1949,-699.602"/>
</g>
<!-- Subtask -->
<g id="node13" class="node"><title>Subtask</title>
<path fill="none" stroke="black" d="M406,-582.5C406,-582.5 515.011,-582.5 515.011,-582.5 521.011,-582.5 527.011,-588.5 527.011,-594.5 527.011,-594.5 527.011,-670.5 527.011,-670.5 527.011,-676.5 521.011,-682.5 515.011,-682.5 515.011,-682.5 406,-682.5 406,-682.5 400,-682.5 394,-676.5 394,-670.5 394,-670.5 394,-594.5 394,-594.5 394,-588.5 400,-582.5 406,-582.5"/>
<text text-anchor="middle" x="460.505" y="-667.3" font-family="Times,serif" font-size="14.00">Subtask</text>
<polyline fill="none" stroke="black" points="394,-660.5 527.011,-660.5 "/>
<text text-anchor="start" x="402" y="-645.3" font-family="Times,serif" font-size="14.00">id :INTEGER</text>
<text text-anchor="start" x="402" y="-631.3" font-family="Times,serif" font-size="14.00">name :varchar</text>
<text text-anchor="start" x="402" y="-617.3" font-family="Times,serif" font-size="14.00">task_id :integer</text>
<text text-anchor="start" x="402" y="-603.3" font-family="Times,serif" font-size="14.00">created_at :datetime</text>
<text text-anchor="start" x="402" y="-589.3" font-family="Times,serif" font-size="14.00">updated_at :datetime</text>
</g>
<!-- Workpackage -->
<g id="node17" class="node"><title>Workpackage</title>
<path fill="none" stroke="black" d="M355.607,-360.5C355.607,-360.5 465.404,-360.5 465.404,-360.5 471.404,-360.5 477.404,-366.5 477.404,-372.5 477.404,-372.5 477.404,-462.5 477.404,-462.5 477.404,-468.5 471.404,-474.5 465.404,-474.5 465.404,-474.5 355.607,-474.5 355.607,-474.5 349.607,-474.5 343.607,-468.5 343.607,-462.5 343.607,-462.5 343.607,-372.5 343.607,-372.5 343.607,-366.5 349.607,-360.5 355.607,-360.5"/>
<text text-anchor="middle" x="410.505" y="-459.3" font-family="Times,serif" font-size="14.00">Workpackage</text>
<polyline fill="none" stroke="black" points="343.607,-452.5 477.404,-452.5 "/>
<text text-anchor="start" x="351.607" y="-437.3" font-family="Times,serif" font-size="14.00">id :INTEGER</text>
<text text-anchor="start" x="351.607" y="-423.3" font-family="Times,serif" font-size="14.00">name :varchar</text>
<text text-anchor="start" x="351.607" y="-409.3" font-family="Times,serif" font-size="14.00">subtask_id :integer</text>
<text text-anchor="start" x="351.607" y="-395.3" font-family="Times,serif" font-size="14.00">successor_id :integer</text>
<text text-anchor="start" x="351.607" y="-381.3" font-family="Times,serif" font-size="14.00">created_at :datetime</text>
<text text-anchor="start" x="351.607" y="-367.3" font-family="Times,serif" font-size="14.00">updated_at :datetime</text>
</g>
<!-- Subtask&#45;&gt;Workpackage -->
<g id="edge17" class="edge"><title>Subtask&#45;&gt;Workpackage</title>
<path fill="none" stroke="#1e51b4" d="M447.067,-574.254C440.572,-546.582 432.74,-513.22 425.995,-484.484"/>
<ellipse fill="none" stroke="#1e51b4" cx="448.057" cy="-578.472" rx="4.00001" ry="4.00001"/>
<polygon fill="#1e51b4" stroke="#1e51b4" points="425.943,-484.265 428.039,-473.501 424.801,-479.397 423.658,-474.53 423.658,-474.53 423.658,-474.53 424.801,-479.397 419.277,-475.558 425.943,-484.265 425.943,-484.265"/>
</g>
<!-- Task&#45;&gt;Subtask -->
<g id="edge18" class="edge"><title>Task&#45;&gt;Subtask</title>
<path fill="none" stroke="#7d1587" d="M460.505,-789.106C460.505,-759.385 460.505,-723.133 460.505,-693.098"/>
<ellipse fill="none" stroke="#7d1587" cx="460.505" cy="-793.366" rx="4" ry="4"/>
<polygon fill="#7d1587" stroke="#7d1587" points="460.505,-692.755 465.005,-682.755 460.505,-687.755 460.505,-682.755 460.505,-682.755 460.505,-682.755 460.505,-687.755 456.005,-682.755 460.505,-692.755 460.505,-692.755"/>
</g>
<!-- User&#45;&gt;Response -->
<g id="edge19" class="edge"><title>User&#45;&gt;Response</title>
<path fill="none" stroke="#c66b25" d="M863.822,-504.028C857.434,-413.551 848.207,-289.258 838.505,-180 837.719,-171.148 836.848,-161.892 835.949,-152.684"/>
<ellipse fill="none" stroke="#c66b25" cx="864.111" cy="-508.137" rx="4" ry="4"/>
<polygon fill="#c66b25" stroke="#c66b25" points="835.949,-152.684 839.444,-142.29 835.457,-147.708 834.966,-142.732 834.966,-142.732 834.966,-142.732 835.457,-147.708 830.487,-143.175 835.949,-152.684 835.949,-152.684"/>
</g>
<!-- User&#45;&gt;Userquest -->
<g id="edge20" class="edge"><title>User&#45;&gt;Userquest</title>
<path fill="none" stroke="#65c77c" d="M940.835,-504.942C944.725,-497.737 948.547,-490.658 952.225,-483.846"/>
<ellipse fill="none" stroke="#65c77c" cx="938.798" cy="-508.715" rx="4.00002" ry="4.00002"/>
<polygon fill="#65c77c" stroke="#65c77c" points="952.394,-483.533 961.104,-476.872 954.769,-479.133 957.144,-474.734 957.144,-474.734 957.144,-474.734 954.769,-479.133 953.185,-472.596 952.394,-483.533 952.394,-483.533"/>
</g>
<!-- Workpackage&#45;&gt;Allocationitem -->
<g id="edge25" class="edge"><title>Workpackage&#45;&gt;Allocationitem</title>
<path fill="none" stroke="#ac2ec9" d="M373.71,-352.98C366.653,-340.797 359.263,-328.039 352.208,-315.86"/>
<ellipse fill="none" stroke="#ac2ec9" cx="375.807" cy="-356.599" rx="4.00002" ry="4.00002"/>
<ellipse fill="#ac2ec9" stroke="#ac2ec9" cx="350.103" cy="-312.227" rx="4.00002" ry="4.00002"/>
</g>
<!-- Workpackage&#45;&gt;Question -->
<g id="edge21" class="edge"><title>Workpackage&#45;&gt;Question</title>
<path fill="none" stroke="#e34207" d="M484.997,-379.703C532.495,-356.24 594.531,-325.596 645.812,-300.264"/>
<ellipse fill="none" stroke="#e34207" cx="481.277" cy="-381.541" rx="4.00002" ry="4.00002"/>
<polygon fill="#e34207" stroke="#e34207" points="645.961,-300.191 656.92,-299.796 650.444,-297.976 654.927,-295.762 654.927,-295.762 654.927,-295.762 650.444,-297.976 652.934,-291.727 645.961,-300.191 645.961,-300.191"/>
</g>
<!-- Workpackage&#45;&gt;Workpackage -->
<g id="edge22" class="edge"><title>Workpackage&#45;&gt;Workpackage</title>
<path fill="none" stroke="#5e27b6" d="M485.538,-421.14C491.628,-420.349 495.404,-419.136 495.404,-417.5 495.404,-415.864 491.628,-414.651 485.538,-413.86"/>
<ellipse fill="none" stroke="#5e27b6" cx="481.399" cy="-421.514" rx="4" ry="4"/>
<ellipse fill="#5e27b6" stroke="#5e27b6" cx="481.399" cy="-413.486" rx="4" ry="4"/>
<text text-anchor="middle" x="522.228" y="-413.3" font-family="Times,serif" font-size="14.00">successor</text>
</g>
<!-- Workpackage&#45;&gt;Workpackage -->
<g id="edge23" class="edge"><title>Workpackage&#45;&gt;Workpackage</title>
<path fill="none" stroke="#b15eb7" d="M487.605,-426.971C520.049,-427.338 549.052,-424.181 549.052,-417.5 549.052,-410.819 520.049,-407.662 487.605,-408.029"/>
<polygon fill="#b15eb7" stroke="#b15eb7" points="487.451,-426.968 477.554,-422.245 482.452,-426.856 477.454,-426.744 477.454,-426.744 477.454,-426.744 482.452,-426.856 477.353,-431.243 487.451,-426.968 487.451,-426.968"/>
<polygon fill="#b15eb7" stroke="#b15eb7" points="487.451,-408.032 477.353,-403.757 482.452,-408.144 477.454,-408.256 477.454,-408.256 477.454,-408.256 482.452,-408.144 477.554,-412.755 487.451,-408.032 487.451,-408.032"/>
<text text-anchor="middle" x="584.814" y="-413.3" font-family="Times,serif" font-size="14.00">predecessors</text>
</g>
<!-- Workpackage&#45;&gt;Workpackage -->
<g id="edge24" class="edge"><title>Workpackage&#45;&gt;Workpackage</title>
<path fill="none" stroke="#9765df" d="M487.742,-430.478C548.982,-434.164 620.577,-429.839 620.577,-417.5 620.577,-405.161 548.982,-400.836 487.742,-404.522"/>
<polygon fill="#9765df" stroke="#9765df" points="487.602,-430.468 477.931,-425.298 482.613,-430.128 477.625,-429.788 477.625,-429.788 477.625,-429.788 482.613,-430.128 477.318,-434.277 487.602,-430.468 487.602,-430.468"/>
<polygon fill="#9765df" stroke="#9765df" points="487.602,-404.532 477.318,-400.723 482.613,-404.872 477.625,-405.212 477.625,-405.212 477.625,-405.212 482.613,-404.872 477.931,-409.702 487.602,-404.532 487.602,-404.532"/>
<text text-anchor="middle" x="650.125" y="-413.3" font-family="Times,serif" font-size="14.00">successors</text>
</g>
</g>
</svg>
