<?xml version="1.0" encoding="UTF-8" standalone="no"?>
<!DOCTYPE svg PUBLIC "-//W3C//DTD SVG 1.1//EN"
 "http://www.w3.org/Graphics/SVG/1.1/DTD/svg11.dtd">
<!-- Generated by graphviz version 2.38.0 (20140413.2041)
 -->
<!-- Title: models_diagram Pages: 1 -->
<svg width="1065pt" height="1051pt"
 viewBox="0.00 0.00 1065.24 1051.00" xmlns="http://www.w3.org/2000/svg" xmlns:xlink="http://www.w3.org/1999/xlink">
<g id="graph0" class="graph" transform="scale(1 1) rotate(0) translate(4 1047)">
<title>models_diagram</title>
<polygon fill="none" stroke="none" points="-4,4 -4,-1047 1061.24,-1047 1061.24,4 -4,4"/>
<!-- _diagram_info -->
<g id="node1" class="node"><title>_diagram_info</title>
<text text-anchor="start" x="168.818" y="-1014.6" font-family="Times,serif" font-size="13.00">Models diagram</text>
<text text-anchor="start" x="168.818" y="-1001.6" font-family="Times,serif" font-size="13.00">Date: Jan 09 2016 &#45; 18:30</text>
<text text-anchor="start" x="168.818" y="-988.6" font-family="Times,serif" font-size="13.00">Migration version: 20160109121954</text>
<text text-anchor="start" x="168.818" y="-975.6" font-family="Times,serif" font-size="13.00">Generated by RailRoady 1.4.2</text>
<text text-anchor="start" x="168.818" y="-962.6" font-family="Times,serif" font-size="13.00">http://railroady.prestonlee.com</text>
</g>
<!-- Allocationitem -->
<g id="node2" class="node"><title>Allocationitem</title>
<path fill="none" stroke="black" d="M250.117,-194.5C250.117,-194.5 380.894,-194.5 380.894,-194.5 386.894,-194.5 392.894,-200.5 392.894,-206.5 392.894,-206.5 392.894,-296.5 392.894,-296.5 392.894,-302.5 386.894,-308.5 380.894,-308.5 380.894,-308.5 250.117,-308.5 250.117,-308.5 244.117,-308.5 238.117,-302.5 238.117,-296.5 238.117,-296.5 238.117,-206.5 238.117,-206.5 238.117,-200.5 244.117,-194.5 250.117,-194.5"/>
<text text-anchor="middle" x="315.505" y="-293.3" font-family="Times,serif" font-size="14.00">Allocationitem</text>
<polyline fill="none" stroke="black" points="238.117,-286.5 392.894,-286.5 "/>
<text text-anchor="start" x="246.117" y="-271.3" font-family="Times,serif" font-size="14.00">id :INTEGER</text>
<text text-anchor="start" x="246.117" y="-257.3" font-family="Times,serif" font-size="14.00">workpackage_id :integer</text>
<text text-anchor="start" x="246.117" y="-243.3" font-family="Times,serif" font-size="14.00">component_id :integer</text>
<text text-anchor="start" x="246.117" y="-229.3" font-family="Times,serif" font-size="14.00">role_id :integer</text>
<text text-anchor="start" x="246.117" y="-215.3" font-family="Times,serif" font-size="14.00">created_at :datetime</text>
<text text-anchor="start" x="246.117" y="-201.3" font-family="Times,serif" font-size="14.00">updated_at :datetime</text>
</g>
<!-- Component -->
<g id="node3" class="node"><title>Component</title>
<path fill="none" stroke="black" d="M12,-360.5C12,-360.5 121.011,-360.5 121.011,-360.5 127.011,-360.5 133.011,-366.5 133.011,-372.5 133.011,-372.5 133.011,-462.5 133.011,-462.5 133.011,-468.5 127.011,-474.5 121.011,-474.5 121.011,-474.5 12,-474.5 12,-474.5 6,-474.5 0,-468.5 0,-462.5 0,-462.5 0,-372.5 0,-372.5 0,-366.5 6,-360.5 12,-360.5"/>
<text text-anchor="middle" x="66.5054" y="-459.3" font-family="Times,serif" font-size="14.00">Component</text>
<polyline fill="none" stroke="black" points="0,-452.5 133.011,-452.5 "/>
<text text-anchor="start" x="8" y="-437.3" font-family="Times,serif" font-size="14.00">id :INTEGER</text>
<text text-anchor="start" x="8" y="-423.3" font-family="Times,serif" font-size="14.00">name :varchar</text>
<text text-anchor="start" x="8" y="-409.3" font-family="Times,serif" font-size="14.00">description :varchar</text>
<text text-anchor="start" x="8" y="-395.3" font-family="Times,serif" font-size="14.00">modul_id :integer</text>
<text text-anchor="start" x="8" y="-381.3" font-family="Times,serif" font-size="14.00">created_at :datetime</text>
<text text-anchor="start" x="8" y="-367.3" font-family="Times,serif" font-size="14.00">updated_at :datetime</text>
</g>
<!-- Component&#45;&gt;Allocationitem -->
<g id="edge1" class="edge"><title>Component&#45;&gt;Allocationitem</title>
<path fill="none" stroke="#f19d7d" d="M140.254,-361.539C141.007,-361.022 141.758,-360.509 142.505,-360 170.801,-340.74 202.432,-320.676 230.831,-303.169"/>
<ellipse fill="none" stroke="#f19d7d" cx="136.709" cy="-364" rx="4.00002" ry="4.00002"/>
<ellipse fill="#f19d7d" stroke="#f19d7d" cx="234.57" cy="-300.87" rx="4.00002" ry="4.00002"/>
</g>
<!-- Event -->
<g id="node4" class="node"><title>Event</title>
<path fill="none" stroke="black" d="M563.048,-575.5C563.048,-575.5 689.962,-575.5 689.962,-575.5 695.962,-575.5 701.962,-581.5 701.962,-587.5 701.962,-587.5 701.962,-677.5 701.962,-677.5 701.962,-683.5 695.962,-689.5 689.962,-689.5 689.962,-689.5 563.048,-689.5 563.048,-689.5 557.048,-689.5 551.048,-683.5 551.048,-677.5 551.048,-677.5 551.048,-587.5 551.048,-587.5 551.048,-581.5 557.048,-575.5 563.048,-575.5"/>
<text text-anchor="middle" x="626.505" y="-674.3" font-family="Times,serif" font-size="14.00">Event</text>
<polyline fill="none" stroke="black" points="551.048,-667.5 701.962,-667.5 "/>
<text text-anchor="start" x="559.048" y="-652.3" font-family="Times,serif" font-size="14.00">id :INTEGER</text>
<text text-anchor="start" x="559.048" y="-638.3" font-family="Times,serif" font-size="14.00">startDate :date</text>
<text text-anchor="start" x="559.048" y="-624.3" font-family="Times,serif" font-size="14.00">questionarys_id :integer</text>
<text text-anchor="start" x="559.048" y="-610.3" font-family="Times,serif" font-size="14.00">project_id :integer</text>
<text text-anchor="start" x="559.048" y="-596.3" font-family="Times,serif" font-size="14.00">created_at :datetime</text>
<text text-anchor="start" x="559.048" y="-582.3" font-family="Times,serif" font-size="14.00">updated_at :datetime</text>
</g>
<!-- Kind -->
<g id="node5" class="node"><title>Kind</title>
<path fill="none" stroke="black" d="M247,-797.5C247,-797.5 356.011,-797.5 356.011,-797.5 362.011,-797.5 368.011,-803.5 368.011,-809.5 368.011,-809.5 368.011,-885.5 368.011,-885.5 368.011,-891.5 362.011,-897.5 356.011,-897.5 356.011,-897.5 247,-897.5 247,-897.5 241,-897.5 235,-891.5 235,-885.5 235,-885.5 235,-809.5 235,-809.5 235,-803.5 241,-797.5 247,-797.5"/>
<text text-anchor="middle" x="301.505" y="-882.3" font-family="Times,serif" font-size="14.00">Kind</text>
<polyline fill="none" stroke="black" points="235,-875.5 368.011,-875.5 "/>
<text text-anchor="start" x="243" y="-860.3" font-family="Times,serif" font-size="14.00">id :INTEGER</text>
<text text-anchor="start" x="243" y="-846.3" font-family="Times,serif" font-size="14.00">name :varchar</text>
<text text-anchor="start" x="243" y="-832.3" font-family="Times,serif" font-size="14.00">project_id :integer</text>
<text text-anchor="start" x="243" y="-818.3" font-family="Times,serif" font-size="14.00">created_at :datetime</text>
<text text-anchor="start" x="243" y="-804.3" font-family="Times,serif" font-size="14.00">updated_at :datetime</text>
</g>
<!-- Role -->
<g id="node12" class="node"><title>Role</title>
<path fill="none" stroke="black" d="M247,-582.5C247,-582.5 356.011,-582.5 356.011,-582.5 362.011,-582.5 368.011,-588.5 368.011,-594.5 368.011,-594.5 368.011,-670.5 368.011,-670.5 368.011,-676.5 362.011,-682.5 356.011,-682.5 356.011,-682.5 247,-682.5 247,-682.5 241,-682.5 235,-676.5 235,-670.5 235,-670.5 235,-594.5 235,-594.5 235,-588.5 241,-582.5 247,-582.5"/>
<text text-anchor="middle" x="301.505" y="-667.3" font-family="Times,serif" font-size="14.00">Role</text>
<polyline fill="none" stroke="black" points="235,-660.5 368.011,-660.5 "/>
<text text-anchor="start" x="243" y="-645.3" font-family="Times,serif" font-size="14.00">id :INTEGER</text>
<text text-anchor="start" x="243" y="-631.3" font-family="Times,serif" font-size="14.00">name :varchar</text>
<text text-anchor="start" x="243" y="-617.3" font-family="Times,serif" font-size="14.00">kind_id :integer</text>
<text text-anchor="start" x="243" y="-603.3" font-family="Times,serif" font-size="14.00">created_at :datetime</text>
<text text-anchor="start" x="243" y="-589.3" font-family="Times,serif" font-size="14.00">updated_at :datetime</text>
</g>
<!-- Kind&#45;&gt;Role -->
<g id="edge2" class="edge"><title>Kind&#45;&gt;Role</title>
<path fill="none" stroke="#9849af" d="M301.505,-789.106C301.505,-759.385 301.505,-723.133 301.505,-693.098"/>
<ellipse fill="none" stroke="#9849af" cx="301.505" cy="-793.366" rx="4" ry="4"/>
<polygon fill="#9849af" stroke="#9849af" points="301.505,-692.755 306.005,-682.755 301.505,-687.755 301.505,-682.755 301.505,-682.755 301.505,-682.755 301.505,-687.755 297.005,-682.755 301.505,-692.755 301.505,-692.755"/>
</g>
<!-- Modul -->
<g id="node6" class="node"><title>Modul</title>
<path fill="none" stroke="black" d="M66.3242,-575.5C66.3242,-575.5 184.687,-575.5 184.687,-575.5 190.687,-575.5 196.687,-581.5 196.687,-587.5 196.687,-587.5 196.687,-677.5 196.687,-677.5 196.687,-683.5 190.687,-689.5 184.687,-689.5 184.687,-689.5 66.3242,-689.5 66.3242,-689.5 60.3242,-689.5 54.3242,-683.5 54.3242,-677.5 54.3242,-677.5 54.3242,-587.5 54.3242,-587.5 54.3242,-581.5 60.3242,-575.5 66.3242,-575.5"/>
<text text-anchor="middle" x="125.505" y="-674.3" font-family="Times,serif" font-size="14.00">Modul</text>
<polyline fill="none" stroke="black" points="54.3242,-667.5 196.687,-667.5 "/>
<text text-anchor="start" x="62.3242" y="-652.3" font-family="Times,serif" font-size="14.00">id :INTEGER</text>
<text text-anchor="start" x="62.3242" y="-638.3" font-family="Times,serif" font-size="14.00">name :varchar</text>
<text text-anchor="start" x="62.3242" y="-624.3" font-family="Times,serif" font-size="14.00">description :varchar</text>
<text text-anchor="start" x="62.3242" y="-610.3" font-family="Times,serif" font-size="14.00">subproduct_id :integer</text>
<text text-anchor="start" x="62.3242" y="-596.3" font-family="Times,serif" font-size="14.00">created_at :datetime</text>
<text text-anchor="start" x="62.3242" y="-582.3" font-family="Times,serif" font-size="14.00">updated_at :datetime</text>
</g>
<!-- Modul&#45;&gt;Component -->
<g id="edge3" class="edge"><title>Modul&#45;&gt;Component</title>
<path fill="none" stroke="#c9e9e1" d="M107.77,-567.473C100.516,-541.284 92.1266,-510.997 84.8142,-484.598"/>
<ellipse fill="none" stroke="#c9e9e1" cx="108.859" cy="-571.403" rx="4.00001" ry="4.00001"/>
<polygon fill="#c9e9e1" stroke="#c9e9e1" points="84.7385,-484.325 86.4057,-473.486 83.4038,-479.506 82.069,-474.687 82.069,-474.687 82.069,-474.687 83.4038,-479.506 77.7323,-475.889 84.7385,-484.325 84.7385,-484.325"/>
</g>
<!-- Project -->
<g id="node7" class="node"><title>Project</title>
<path fill="none" stroke="black" d="M398,-942.5C398,-942.5 507.011,-942.5 507.011,-942.5 513.011,-942.5 519.011,-948.5 519.011,-954.5 519.011,-954.5 519.011,-1030.5 519.011,-1030.5 519.011,-1036.5 513.011,-1042.5 507.011,-1042.5 507.011,-1042.5 398,-1042.5 398,-1042.5 392,-1042.5 386,-1036.5 386,-1030.5 386,-1030.5 386,-954.5 386,-954.5 386,-948.5 392,-942.5 398,-942.5"/>
<text text-anchor="middle" x="452.505" y="-1027.3" font-family="Times,serif" font-size="14.00">Project</text>
<polyline fill="none" stroke="black" points="386,-1020.5 519.011,-1020.5 "/>
<text text-anchor="start" x="394" y="-1005.3" font-family="Times,serif" font-size="14.00">id :INTEGER</text>
<text text-anchor="start" x="394" y="-991.3" font-family="Times,serif" font-size="14.00">title :varchar</text>
<text text-anchor="start" x="394" y="-977.3" font-family="Times,serif" font-size="14.00">description :varchar</text>
<text text-anchor="start" x="394" y="-963.3" font-family="Times,serif" font-size="14.00">created_at :datetime</text>
<text text-anchor="start" x="394" y="-949.3" font-family="Times,serif" font-size="14.00">updated_at :datetime</text>
</g>
<!-- Project&#45;&gt;Event -->
<g id="edge8" class="edge"><title>Project&#45;&gt;Event</title>
<path fill="none" stroke="#7e338d" d="M506.616,-935.919C514.611,-926.084 522.249,-915.589 528.505,-905 567.1,-839.675 594.323,-756.65 610.124,-699.713"/>
<ellipse fill="none" stroke="#7e338d" cx="503.88" cy="-939.206" rx="4.00002" ry="4.00002"/>
<polygon fill="#7e338d" stroke="#7e338d" points="610.211,-699.396 617.188,-690.935 611.529,-694.572 612.847,-689.749 612.847,-689.749 612.847,-689.749 611.529,-694.572 608.506,-688.563 610.211,-699.396 610.211,-699.396"/>
</g>
<!-- Project&#45;&gt;Kind -->
<g id="edge5" class="edge"><title>Project&#45;&gt;Kind</title>
<path fill="none" stroke="#6b4bb2" d="M394.387,-936.46C383.396,-926.052 371.885,-915.151 360.857,-904.707"/>
<ellipse fill="none" stroke="#6b4bb2" cx="397.635" cy="-939.537" rx="4.00002" ry="4.00002"/>
<polygon fill="#6b4bb2" stroke="#6b4bb2" points="360.572,-904.437 356.405,-894.293 356.941,-900.999 353.311,-897.561 353.311,-897.561 353.311,-897.561 356.941,-900.999 350.217,-900.828 360.572,-904.437 360.572,-904.437"/>
</g>
<!-- Questionary -->
<g id="node9" class="node"><title>Questionary</title>
<path fill="none" stroke="black" d="M688,-797.5C688,-797.5 797.011,-797.5 797.011,-797.5 803.011,-797.5 809.011,-803.5 809.011,-809.5 809.011,-809.5 809.011,-885.5 809.011,-885.5 809.011,-891.5 803.011,-897.5 797.011,-897.5 797.011,-897.5 688,-897.5 688,-897.5 682,-897.5 676,-891.5 676,-885.5 676,-885.5 676,-809.5 676,-809.5 676,-803.5 682,-797.5 688,-797.5"/>
<text text-anchor="middle" x="742.505" y="-882.3" font-family="Times,serif" font-size="14.00">Questionary</text>
<polyline fill="none" stroke="black" points="676,-875.5 809.011,-875.5 "/>
<text text-anchor="start" x="684" y="-860.3" font-family="Times,serif" font-size="14.00">id :INTEGER</text>
<text text-anchor="start" x="684" y="-846.3" font-family="Times,serif" font-size="14.00">runde :integer</text>
<text text-anchor="start" x="684" y="-832.3" font-family="Times,serif" font-size="14.00">project_id :integer</text>
<text text-anchor="start" x="684" y="-818.3" font-family="Times,serif" font-size="14.00">created_at :datetime</text>
<text text-anchor="start" x="684" y="-804.3" font-family="Times,serif" font-size="14.00">updated_at :datetime</text>
</g>
<!-- Project&#45;&gt;Questionary -->
<g id="edge7" class="edge"><title>Project&#45;&gt;Questionary</title>
<path fill="none" stroke="#db4033" d="M526.506,-958.814C550.281,-948.03 576.635,-935.776 600.505,-924 622.196,-913.3 645.466,-901.196 666.764,-889.864"/>
<ellipse fill="none" stroke="#db4033" cx="522.861" cy="-960.463" rx="4.00002" ry="4.00002"/>
<polygon fill="#db4033" stroke="#db4033" points="666.939,-889.771 677.879,-889.031 671.349,-887.416 675.76,-885.061 675.76,-885.061 675.76,-885.061 671.349,-887.416 673.641,-881.091 666.939,-889.771 666.939,-889.771"/>
</g>
<!-- Subproduct -->
<g id="node13" class="node"><title>Subproduct</title>
<path fill="none" stroke="black" d="M90,-790.5C90,-790.5 199.011,-790.5 199.011,-790.5 205.011,-790.5 211.011,-796.5 211.011,-802.5 211.011,-802.5 211.011,-892.5 211.011,-892.5 211.011,-898.5 205.011,-904.5 199.011,-904.5 199.011,-904.5 90,-904.5 90,-904.5 84,-904.5 78,-898.5 78,-892.5 78,-892.5 78,-802.5 78,-802.5 78,-796.5 84,-790.5 90,-790.5"/>
<text text-anchor="middle" x="144.505" y="-889.3" font-family="Times,serif" font-size="14.00">Subproduct</text>
<polyline fill="none" stroke="black" points="78,-882.5 211.011,-882.5 "/>
<text text-anchor="start" x="86" y="-867.3" font-family="Times,serif" font-size="14.00">id :INTEGER</text>
<text text-anchor="start" x="86" y="-853.3" font-family="Times,serif" font-size="14.00">name :varchar</text>
<text text-anchor="start" x="86" y="-839.3" font-family="Times,serif" font-size="14.00">description :varchar</text>
<text text-anchor="start" x="86" y="-825.3" font-family="Times,serif" font-size="14.00">project_id :integer</text>
<text text-anchor="start" x="86" y="-811.3" font-family="Times,serif" font-size="14.00">created_at :datetime</text>
<text text-anchor="start" x="86" y="-797.3" font-family="Times,serif" font-size="14.00">updated_at :datetime</text>
</g>
<!-- Project&#45;&gt;Subproduct -->
<g id="edge4" class="edge"><title>Project&#45;&gt;Subproduct</title>
<path fill="none" stroke="#895504" d="M378.27,-942.336C378.015,-942.223 377.76,-942.111 377.505,-942 313.769,-914.217 288.879,-933.6 225.505,-905 223.894,-904.273 222.281,-903.512 220.668,-902.723"/>
<ellipse fill="none" stroke="#895504" cx="382.052" cy="-944.118" rx="4.00002" ry="4.00002"/>
<polygon fill="#895504" stroke="#895504" points="220.327,-902.544 213.554,-893.92 215.897,-900.226 211.467,-897.907 211.467,-897.907 211.467,-897.907 215.897,-900.226 209.381,-901.894 220.327,-902.544 220.327,-902.544"/>
</g>
<!-- Task -->
<g id="node15" class="node"><title>Task</title>
<path fill="none" stroke="black" d="M398,-797.5C398,-797.5 507.011,-797.5 507.011,-797.5 513.011,-797.5 519.011,-803.5 519.011,-809.5 519.011,-809.5 519.011,-885.5 519.011,-885.5 519.011,-891.5 513.011,-897.5 507.011,-897.5 507.011,-897.5 398,-897.5 398,-897.5 392,-897.5 386,-891.5 386,-885.5 386,-885.5 386,-809.5 386,-809.5 386,-803.5 392,-797.5 398,-797.5"/>
<text text-anchor="middle" x="452.505" y="-882.3" font-family="Times,serif" font-size="14.00">Task</text>
<polyline fill="none" stroke="black" points="386,-875.5 519.011,-875.5 "/>
<text text-anchor="start" x="394" y="-860.3" font-family="Times,serif" font-size="14.00">id :INTEGER</text>
<text text-anchor="start" x="394" y="-846.3" font-family="Times,serif" font-size="14.00">name :varchar</text>
<text text-anchor="start" x="394" y="-832.3" font-family="Times,serif" font-size="14.00">project_id :integer</text>
<text text-anchor="start" x="394" y="-818.3" font-family="Times,serif" font-size="14.00">created_at :datetime</text>
<text text-anchor="start" x="394" y="-804.3" font-family="Times,serif" font-size="14.00">updated_at :datetime</text>
</g>
<!-- Project&#45;&gt;Task -->
<g id="edge6" class="edge"><title>Project&#45;&gt;Task</title>
<path fill="none" stroke="#9dda66" d="M452.505,-934.075C452.505,-925.439 452.505,-916.518 452.505,-907.842"/>
<ellipse fill="none" stroke="#9dda66" cx="452.505" cy="-938.288" rx="4" ry="4"/>
<polygon fill="#9dda66" stroke="#9dda66" points="452.505,-907.803 457.005,-897.803 452.505,-902.803 452.505,-897.803 452.505,-897.803 452.505,-897.803 452.505,-902.803 448.005,-897.803 452.505,-907.803 452.505,-907.803"/>
</g>
<!-- Question -->
<g id="node8" class="node"><title>Question</title>
<path fill="none" stroke="black" d="M667.007,-180.5C667.007,-180.5 818.004,-180.5 818.004,-180.5 824.004,-180.5 830.004,-186.5 830.004,-192.5 830.004,-192.5 830.004,-310.5 830.004,-310.5 830.004,-316.5 824.004,-322.5 818.004,-322.5 818.004,-322.5 667.007,-322.5 667.007,-322.5 661.007,-322.5 655.007,-316.5 655.007,-310.5 655.007,-310.5 655.007,-192.5 655.007,-192.5 655.007,-186.5 661.007,-180.5 667.007,-180.5"/>
<text text-anchor="middle" x="742.505" y="-307.3" font-family="Times,serif" font-size="14.00">Question</text>
<polyline fill="none" stroke="black" points="655.007,-300.5 830.004,-300.5 "/>
<text text-anchor="start" x="663.007" y="-285.3" font-family="Times,serif" font-size="14.00">id :INTEGER</text>
<text text-anchor="start" x="663.007" y="-271.3" font-family="Times,serif" font-size="14.00">pessimistic_average :integer</text>
<text text-anchor="start" x="663.007" y="-257.3" font-family="Times,serif" font-size="14.00">realistic_average :integer</text>
<text text-anchor="start" x="663.007" y="-243.3" font-family="Times,serif" font-size="14.00">optimistic_average :integer</text>
<text text-anchor="start" x="663.007" y="-229.3" font-family="Times,serif" font-size="14.00">questionary_id :integer</text>
<text text-anchor="start" x="663.007" y="-215.3" font-family="Times,serif" font-size="14.00">workpackage_id :integer</text>
<text text-anchor="start" x="663.007" y="-201.3" font-family="Times,serif" font-size="14.00">created_at :datetime</text>
<text text-anchor="start" x="663.007" y="-187.3" font-family="Times,serif" font-size="14.00">updated_at :datetime</text>
</g>
<!-- Response -->
<g id="node11" class="node"><title>Response</title>
<path fill="none" stroke="black" d="M774,-0.5C774,-0.5 883.011,-0.5 883.011,-0.5 889.011,-0.5 895.011,-6.5 895.011,-12.5 895.011,-12.5 895.011,-130.5 895.011,-130.5 895.011,-136.5 889.011,-142.5 883.011,-142.5 883.011,-142.5 774,-142.5 774,-142.5 768,-142.5 762,-136.5 762,-130.5 762,-130.5 762,-12.5 762,-12.5 762,-6.5 768,-0.5 774,-0.5"/>
<text text-anchor="middle" x="828.505" y="-127.3" font-family="Times,serif" font-size="14.00">Response</text>
<polyline fill="none" stroke="black" points="762,-120.5 895.011,-120.5 "/>
<text text-anchor="start" x="770" y="-105.3" font-family="Times,serif" font-size="14.00">id :INTEGER</text>
<text text-anchor="start" x="770" y="-91.3" font-family="Times,serif" font-size="14.00">pessimistic :integer</text>
<text text-anchor="start" x="770" y="-77.3" font-family="Times,serif" font-size="14.00">realistic :integer</text>
<text text-anchor="start" x="770" y="-63.3" font-family="Times,serif" font-size="14.00">optimistic :integer</text>
<text text-anchor="start" x="770" y="-49.3" font-family="Times,serif" font-size="14.00">user_id :integer</text>
<text text-anchor="start" x="770" y="-35.3" font-family="Times,serif" font-size="14.00">question_id :integer</text>
<text text-anchor="start" x="770" y="-21.3" font-family="Times,serif" font-size="14.00">created_at :datetime</text>
<text text-anchor="start" x="770" y="-7.3" font-family="Times,serif" font-size="14.00">updated_at :datetime</text>
</g>
<!-- Question&#45;&gt;Response -->
<g id="edge9" class="edge"><title>Question&#45;&gt;Response</title>
<path fill="none" stroke="#e5e965" d="M779.922,-173.057C783.294,-166.078 786.712,-159.002 790.092,-152.006"/>
<ellipse fill="none" stroke="#e5e965" cx="778.112" cy="-176.804" rx="4.00002" ry="4.00002"/>
<polygon fill="#e5e965" stroke="#e5e965" points="790.32,-151.535 798.722,-144.489 792.495,-147.033 794.67,-142.531 794.67,-142.531 794.67,-142.531 792.495,-147.033 790.618,-140.573 790.32,-151.535 790.32,-151.535"/>
</g>
<!-- Questionary&#45;&gt;Event -->
<g id="edge13" class="edge"><title>Questionary&#45;&gt;Event</title>
<path fill="none" stroke="#7f2e85" d="M711.758,-790.042C696.421,-761.88 677.794,-727.677 661.868,-698.434"/>
<ellipse fill="none" stroke="#7f2e85" cx="713.834" cy="-793.853" rx="4.00002" ry="4.00002"/>
<polygon fill="#7f2e85" stroke="#7f2e85" points="661.802,-698.312 660.971,-687.377 659.411,-693.921 657.019,-689.53 657.019,-689.53 657.019,-689.53 659.411,-693.921 653.067,-691.682 661.802,-698.312 661.802,-698.312"/>
</g>
<!-- Questionary&#45;&gt;Question -->
<g id="edge10" class="edge"><title>Questionary&#45;&gt;Question</title>
<path fill="none" stroke="#363934" d="M742.505,-789.101C742.505,-682.685 742.505,-454.568 742.505,-332.865"/>
<ellipse fill="none" stroke="#363934" cx="742.505" cy="-793.385" rx="4" ry="4"/>
<polygon fill="#363934" stroke="#363934" points="742.505,-332.858 747.005,-322.858 742.505,-327.858 742.505,-322.858 742.505,-322.858 742.505,-322.858 742.505,-327.858 738.005,-322.858 742.505,-332.858 742.505,-332.858"/>
</g>
<!-- User -->
<g id="node16" class="node"><title>User</title>
<path fill="none" stroke="black" d="M782.228,-512.5C782.228,-512.5 962.783,-512.5 962.783,-512.5 968.783,-512.5 974.783,-518.5 974.783,-524.5 974.783,-524.5 974.783,-740.5 974.783,-740.5 974.783,-746.5 968.783,-752.5 962.783,-752.5 962.783,-752.5 782.228,-752.5 782.228,-752.5 776.228,-752.5 770.228,-746.5 770.228,-740.5 770.228,-740.5 770.228,-524.5 770.228,-524.5 770.228,-518.5 776.228,-512.5 782.228,-512.5"/>
<text text-anchor="middle" x="872.505" y="-737.3" font-family="Times,serif" font-size="14.00">User</text>
<polyline fill="none" stroke="black" points="770.228,-730.5 974.783,-730.5 "/>
<text text-anchor="start" x="778.228" y="-715.3" font-family="Times,serif" font-size="14.00">id :INTEGER</text>
<text text-anchor="start" x="778.228" y="-701.3" font-family="Times,serif" font-size="14.00">email :varchar</text>
<text text-anchor="start" x="778.228" y="-687.3" font-family="Times,serif" font-size="14.00">encrypted_password :varchar</text>
<text text-anchor="start" x="778.228" y="-673.3" font-family="Times,serif" font-size="14.00">reset_password_token :varchar</text>
<text text-anchor="start" x="778.228" y="-659.3" font-family="Times,serif" font-size="14.00">reset_password_sent_at :datetime</text>
<text text-anchor="start" x="778.228" y="-645.3" font-family="Times,serif" font-size="14.00">remember_created_at :datetime</text>
<text text-anchor="start" x="778.228" y="-631.3" font-family="Times,serif" font-size="14.00">sign_in_count :integer</text>
<text text-anchor="start" x="778.228" y="-617.3" font-family="Times,serif" font-size="14.00">current_sign_in_at :datetime</text>
<text text-anchor="start" x="778.228" y="-603.3" font-family="Times,serif" font-size="14.00">last_sign_in_at :datetime</text>
<text text-anchor="start" x="778.228" y="-589.3" font-family="Times,serif" font-size="14.00">current_sign_in_ip :varchar</text>
<text text-anchor="start" x="778.228" y="-575.3" font-family="Times,serif" font-size="14.00">last_sign_in_ip :varchar</text>
<text text-anchor="start" x="778.228" y="-561.3" font-family="Times,serif" font-size="14.00">created_at :datetime</text>
<text text-anchor="start" x="778.228" y="-547.3" font-family="Times,serif" font-size="14.00">updated_at :datetime</text>
<text text-anchor="start" x="778.228" y="-533.3" font-family="Times,serif" font-size="14.00">first_name :varchar</text>
<text text-anchor="start" x="778.228" y="-519.3" font-family="Times,serif" font-size="14.00">last_name :varchar</text>
</g>
<!-- Questionary&#45;&gt;User -->
<g id="edge12" class="edge"><title>Questionary&#45;&gt;User</title>
<path fill="none" stroke="#f909b4" d="M777.898,-788.511C783.181,-779.854 788.796,-770.654 794.553,-761.222"/>
<polygon fill="#f909b4" stroke="#f909b4" points="777.703,-788.83 768.652,-795.022 775.098,-793.098 772.493,-797.366 772.493,-797.366 772.493,-797.366 775.098,-793.098 776.334,-799.71 777.703,-788.83 777.703,-788.83"/>
<polygon fill="#f909b4" stroke="#f909b4" points="794.664,-761.04 803.715,-754.848 797.269,-756.772 799.874,-752.504 799.874,-752.504 799.874,-752.504 797.269,-756.772 796.033,-750.16 794.664,-761.04 794.664,-761.04"/>
</g>
<!-- Userquest -->
<g id="node17" class="node"><title>Userquest</title>
<path fill="none" stroke="black" d="M923.772,-360.5C923.772,-360.5 1045.24,-360.5 1045.24,-360.5 1051.24,-360.5 1057.24,-366.5 1057.24,-372.5 1057.24,-372.5 1057.24,-462.5 1057.24,-462.5 1057.24,-468.5 1051.24,-474.5 1045.24,-474.5 1045.24,-474.5 923.772,-474.5 923.772,-474.5 917.772,-474.5 911.772,-468.5 911.772,-462.5 911.772,-462.5 911.772,-372.5 911.772,-372.5 911.772,-366.5 917.772,-360.5 923.772,-360.5"/>
<text text-anchor="middle" x="984.505" y="-459.3" font-family="Times,serif" font-size="14.00">Userquest</text>
<polyline fill="none" stroke="black" points="911.772,-452.5 1057.24,-452.5 "/>
<text text-anchor="start" x="919.772" y="-437.3" font-family="Times,serif" font-size="14.00">id :INTEGER</text>
<text text-anchor="start" x="919.772" y="-423.3" font-family="Times,serif" font-size="14.00">newquest :boolean</text>
<text text-anchor="start" x="919.772" y="-409.3" font-family="Times,serif" font-size="14.00">user_id :integer</text>
<text text-anchor="start" x="919.772" y="-395.3" font-family="Times,serif" font-size="14.00">questionary_id :integer</text>
<text text-anchor="start" x="919.772" y="-381.3" font-family="Times,serif" font-size="14.00">created_at :datetime</text>
<text text-anchor="start" x="919.772" y="-367.3" font-family="Times,serif" font-size="14.00">updated_at :datetime</text>
</g>
<!-- Questionary&#45;&gt;Userquest -->
<g id="edge11" class="edge"><title>Questionary&#45;&gt;Userquest</title>
<path fill="none" stroke="#e21058" d="M817.405,-839.428C873.411,-829.773 946.452,-806.946 983.505,-753 1037.91,-673.792 1022.4,-557.231 1004.63,-484.695"/>
<ellipse fill="none" stroke="#e21058" cx="813.219" cy="-840.113" rx="4.00001" ry="4.00001"/>
<polygon fill="#e21058" stroke="#e21058" points="1004.57,-484.454 1006.48,-473.656 1003.34,-479.607 1002.11,-474.76 1002.11,-474.76 1002.11,-474.76 1003.34,-479.607 997.753,-475.865 1004.57,-484.454 1004.57,-484.454"/>
</g>
<!-- Requirment -->
<g id="node10" class="node"><title>Requirment</title>
<path fill="none" stroke="black" d="M163.441,-360.5C163.441,-360.5 275.569,-360.5 275.569,-360.5 281.569,-360.5 287.569,-366.5 287.569,-372.5 287.569,-372.5 287.569,-462.5 287.569,-462.5 287.569,-468.5 281.569,-474.5 275.569,-474.5 275.569,-474.5 163.441,-474.5 163.441,-474.5 157.441,-474.5 151.441,-468.5 151.441,-462.5 151.441,-462.5 151.441,-372.5 151.441,-372.5 151.441,-366.5 157.441,-360.5 163.441,-360.5"/>
<text text-anchor="middle" x="219.505" y="-459.3" font-family="Times,serif" font-size="14.00">Requirment</text>
<polyline fill="none" stroke="black" points="151.441,-452.5 287.569,-452.5 "/>
<text text-anchor="start" x="159.441" y="-437.3" font-family="Times,serif" font-size="14.00">id :INTEGER</text>
<text text-anchor="start" x="159.441" y="-423.3" font-family="Times,serif" font-size="14.00">qualifikation :varchar</text>
<text text-anchor="start" x="159.441" y="-409.3" font-family="Times,serif" font-size="14.00">experience :varchar</text>
<text text-anchor="start" x="159.441" y="-395.3" font-family="Times,serif" font-size="14.00">role_id :integer</text>
<text text-anchor="start" x="159.441" y="-381.3" font-family="Times,serif" font-size="14.00">created_at :datetime</text>
<text text-anchor="start" x="159.441" y="-367.3" font-family="Times,serif" font-size="14.00">updated_at :datetime</text>
</g>
<!-- Role&#45;&gt;Allocationitem -->
<g id="edge14" class="edge"><title>Role&#45;&gt;Allocationitem</title>
<path fill="none" stroke="#c8b5a3" d="M303.62,-574.266C306.175,-505.092 310.463,-389.012 313.13,-316.809"/>
<ellipse fill="none" stroke="#c8b5a3" cx="303.469" cy="-578.344" rx="4" ry="4"/>
<ellipse fill="#c8b5a3" stroke="#c8b5a3" cx="313.283" cy="-312.659" rx="4" ry="4"/>
</g>
<!-- Role&#45;&gt;Requirment -->
<g id="edge15" class="edge"><title>Role&#45;&gt;Requirment</title>
<path fill="none" stroke="#014388" d="M279.619,-574.648C268.895,-546.792 255.923,-513.098 244.779,-484.15"/>
<ellipse fill="none" stroke="#014388" cx="281.153" cy="-578.633" rx="4.00001" ry="4.00001"/>
<polygon fill="#014388" stroke="#014388" points="244.668,-483.862 245.275,-472.913 242.872,-479.196 241.075,-474.53 241.075,-474.53 241.075,-474.53 242.872,-479.196 236.876,-476.146 244.668,-483.862 244.668,-483.862"/>
</g>
<!-- Subproduct&#45;&gt;Modul -->
<g id="edge16" class="edge"><title>Subproduct&#45;&gt;Modul</title>
<path fill="none" stroke="#1389fb" d="M138.76,-782.096C136.441,-756.094 133.766,-726.103 131.429,-699.903"/>
<ellipse fill="none" stroke="#1389fb" cx="139.133" cy="-786.274" rx="4" ry="4"/>
<polygon fill="#1389fb" stroke="#1389fb" points="131.406,-699.648 135,-689.288 130.962,-694.668 130.517,-689.687 130.517,-689.687 130.517,-689.687 130.962,-694.668 126.035,-690.087 131.406,-699.648 131.406,-699.648"/>
</g>
<!-- Subtask -->
<g id="node14" class="node"><title>Subtask</title>
<path fill="none" stroke="black" d="M398,-582.5C398,-582.5 507.011,-582.5 507.011,-582.5 513.011,-582.5 519.011,-588.5 519.011,-594.5 519.011,-594.5 519.011,-670.5 519.011,-670.5 519.011,-676.5 513.011,-682.5 507.011,-682.5 507.011,-682.5 398,-682.5 398,-682.5 392,-682.5 386,-676.5 386,-670.5 386,-670.5 386,-594.5 386,-594.5 386,-588.5 392,-582.5 398,-582.5"/>
<text text-anchor="middle" x="452.505" y="-667.3" font-family="Times,serif" font-size="14.00">Subtask</text>
<polyline fill="none" stroke="black" points="386,-660.5 519.011,-660.5 "/>
<text text-anchor="start" x="394" y="-645.3" font-family="Times,serif" font-size="14.00">id :INTEGER</text>
<text text-anchor="start" x="394" y="-631.3" font-family="Times,serif" font-size="14.00">name :varchar</text>
<text text-anchor="start" x="394" y="-617.3" font-family="Times,serif" font-size="14.00">task_id :integer</text>
<text text-anchor="start" x="394" y="-603.3" font-family="Times,serif" font-size="14.00">created_at :datetime</text>
<text text-anchor="start" x="394" y="-589.3" font-family="Times,serif" font-size="14.00">updated_at :datetime</text>
</g>
<!-- Workpackage -->
<g id="node18" class="node"><title>Workpackage</title>
<path fill="none" stroke="black" d="M355.607,-360.5C355.607,-360.5 465.404,-360.5 465.404,-360.5 471.404,-360.5 477.404,-366.5 477.404,-372.5 477.404,-372.5 477.404,-462.5 477.404,-462.5 477.404,-468.5 471.404,-474.5 465.404,-474.5 465.404,-474.5 355.607,-474.5 355.607,-474.5 349.607,-474.5 343.607,-468.5 343.607,-462.5 343.607,-462.5 343.607,-372.5 343.607,-372.5 343.607,-366.5 349.607,-360.5 355.607,-360.5"/>
<text text-anchor="middle" x="410.505" y="-459.3" font-family="Times,serif" font-size="14.00">Workpackage</text>
<polyline fill="none" stroke="black" points="343.607,-452.5 477.404,-452.5 "/>
<text text-anchor="start" x="351.607" y="-437.3" font-family="Times,serif" font-size="14.00">id :INTEGER</text>
<text text-anchor="start" x="351.607" y="-423.3" font-family="Times,serif" font-size="14.00">name :varchar</text>
<text text-anchor="start" x="351.607" y="-409.3" font-family="Times,serif" font-size="14.00">subtask_id :integer</text>
<text text-anchor="start" x="351.607" y="-395.3" font-family="Times,serif" font-size="14.00">successor_id :integer</text>
<text text-anchor="start" x="351.607" y="-381.3" font-family="Times,serif" font-size="14.00">created_at :datetime</text>
<text text-anchor="start" x="351.607" y="-367.3" font-family="Times,serif" font-size="14.00">updated_at :datetime</text>
</g>
<!-- Subtask&#45;&gt;Workpackage -->
<g id="edge17" class="edge"><title>Subtask&#45;&gt;Workpackage</title>
<path fill="none" stroke="#d03979" d="M441.217,-574.254C435.761,-546.582 429.183,-513.22 423.516,-484.484"/>
<ellipse fill="none" stroke="#d03979" cx="442.043" cy="-578.442" rx="4.00001" ry="4.00001"/>
<polygon fill="#d03979" stroke="#d03979" points="423.488,-484.341 425.968,-473.659 422.521,-479.435 421.553,-474.53 421.553,-474.53 421.553,-474.53 422.521,-479.435 417.138,-475.4 423.488,-484.341 423.488,-484.341"/>
</g>
<!-- Task&#45;&gt;Subtask -->
<g id="edge18" class="edge"><title>Task&#45;&gt;Subtask</title>
<path fill="none" stroke="#a1885d" d="M452.505,-789.106C452.505,-759.385 452.505,-723.133 452.505,-693.098"/>
<ellipse fill="none" stroke="#a1885d" cx="452.505" cy="-793.366" rx="4" ry="4"/>
<polygon fill="#a1885d" stroke="#a1885d" points="452.505,-692.755 457.005,-682.755 452.505,-687.755 452.505,-682.755 452.505,-682.755 452.505,-682.755 452.505,-687.755 448.005,-682.755 452.505,-692.755 452.505,-692.755"/>
</g>
<!-- User&#45;&gt;Response -->
<g id="edge19" class="edge"><title>User&#45;&gt;Response</title>
<path fill="none" stroke="#e1dcb3" d="M863.509,-504.055C856.976,-413.591 847.704,-289.301 838.505,-180 837.769,-171.247 836.967,-162.096 836.148,-152.987"/>
<ellipse fill="none" stroke="#e1dcb3" cx="863.805" cy="-508.163" rx="4" ry="4"/>
<polygon fill="#e1dcb3" stroke="#e1dcb3" points="836.122,-152.702 839.7,-142.336 835.67,-147.722 835.219,-142.742 835.219,-142.742 835.219,-142.742 835.67,-147.722 830.737,-143.149 836.122,-152.702 836.122,-152.702"/>
</g>
<!-- User&#45;&gt;Userquest -->
<g id="edge20" class="edge"><title>User&#45;&gt;Userquest</title>
<path fill="none" stroke="#e28c31" d="M939.052,-504.942C942.841,-497.737 946.563,-490.658 950.145,-483.846"/>
<ellipse fill="none" stroke="#e28c31" cx="937.079" cy="-508.694" rx="4.00002" ry="4.00002"/>
<polygon fill="#e28c31" stroke="#e28c31" points="950.282,-483.585 958.919,-476.828 952.609,-479.159 954.936,-474.734 954.936,-474.734 954.936,-474.734 952.609,-479.159 950.954,-472.639 950.282,-483.585 950.282,-483.585"/>
</g>
<!-- Workpackage&#45;&gt;Allocationitem -->
<g id="edge25" class="edge"><title>Workpackage&#45;&gt;Allocationitem</title>
<path fill="none" stroke="#4b31ba" d="M373.71,-352.98C366.653,-340.797 359.263,-328.039 352.208,-315.86"/>
<ellipse fill="none" stroke="#4b31ba" cx="375.807" cy="-356.599" rx="4.00002" ry="4.00002"/>
<ellipse fill="#4b31ba" stroke="#4b31ba" cx="350.103" cy="-312.227" rx="4.00002" ry="4.00002"/>
</g>
<!-- Workpackage&#45;&gt;Question -->
<g id="edge21" class="edge"><title>Workpackage&#45;&gt;Question</title>
<path fill="none" stroke="#b23597" d="M484.997,-379.703C532.495,-356.24 594.531,-325.596 645.812,-300.264"/>
<ellipse fill="none" stroke="#b23597" cx="481.277" cy="-381.541" rx="4.00002" ry="4.00002"/>
<polygon fill="#b23597" stroke="#b23597" points="645.961,-300.191 656.92,-299.796 650.444,-297.976 654.927,-295.762 654.927,-295.762 654.927,-295.762 650.444,-297.976 652.934,-291.727 645.961,-300.191 645.961,-300.191"/>
</g>
<!-- Workpackage&#45;&gt;Workpackage -->
<g id="edge22" class="edge"><title>Workpackage&#45;&gt;Workpackage</title>
<path fill="none" stroke="#6f9803" d="M485.538,-421.14C491.628,-420.349 495.404,-419.136 495.404,-417.5 495.404,-415.864 491.628,-414.651 485.538,-413.86"/>
<ellipse fill="none" stroke="#6f9803" cx="481.399" cy="-421.514" rx="4" ry="4"/>
<ellipse fill="#6f9803" stroke="#6f9803" cx="481.399" cy="-413.486" rx="4" ry="4"/>
<text text-anchor="middle" x="522.228" y="-413.3" font-family="Times,serif" font-size="14.00">successor</text>
</g>
<!-- Workpackage&#45;&gt;Workpackage -->
<g id="edge23" class="edge"><title>Workpackage&#45;&gt;Workpackage</title>
<path fill="none" stroke="#ce1345" d="M487.605,-426.971C520.049,-427.338 549.052,-424.181 549.052,-417.5 549.052,-410.819 520.049,-407.662 487.605,-408.029"/>
<polygon fill="#ce1345" stroke="#ce1345" points="487.451,-426.968 477.554,-422.245 482.452,-426.856 477.454,-426.744 477.454,-426.744 477.454,-426.744 482.452,-426.856 477.353,-431.243 487.451,-426.968 487.451,-426.968"/>
<polygon fill="#ce1345" stroke="#ce1345" points="487.451,-408.032 477.353,-403.757 482.452,-408.144 477.454,-408.256 477.454,-408.256 477.454,-408.256 482.452,-408.144 477.554,-412.755 487.451,-408.032 487.451,-408.032"/>
<text text-anchor="middle" x="584.814" y="-413.3" font-family="Times,serif" font-size="14.00">predecessors</text>
</g>
<!-- Workpackage&#45;&gt;Workpackage -->
<g id="edge24" class="edge"><title>Workpackage&#45;&gt;Workpackage</title>
<path fill="none" stroke="#831a4e" d="M487.742,-430.478C548.982,-434.164 620.577,-429.839 620.577,-417.5 620.577,-405.161 548.982,-400.836 487.742,-404.522"/>
<polygon fill="#831a4e" stroke="#831a4e" points="487.602,-430.468 477.931,-425.298 482.613,-430.128 477.625,-429.788 477.625,-429.788 477.625,-429.788 482.613,-430.128 477.318,-434.277 487.602,-430.468 487.602,-430.468"/>
<polygon fill="#831a4e" stroke="#831a4e" points="487.602,-404.532 477.318,-400.723 482.613,-404.872 477.625,-405.212 477.625,-405.212 477.625,-405.212 482.613,-404.872 477.931,-409.702 487.602,-404.532 487.602,-404.532"/>
<text text-anchor="middle" x="650.125" y="-413.3" font-family="Times,serif" font-size="14.00">successors</text>
</g>
</g>
</svg>
