<?xml version="1.0" encoding="UTF-8" standalone="no"?>
<!DOCTYPE svg PUBLIC "-//W3C//DTD SVG 1.1//EN"
 "http://www.w3.org/Graphics/SVG/1.1/DTD/svg11.dtd">
<!-- Generated by graphviz version 2.38.0 (20140413.2041)
 -->
<!-- Title: models_diagram Pages: 1 -->
<svg width="659pt" height="446pt"
 viewBox="0.00 0.00 658.61 446.00" xmlns="http://www.w3.org/2000/svg" xmlns:xlink="http://www.w3.org/1999/xlink">
<g id="graph0" class="graph" transform="scale(1 1) rotate(0) translate(4 442)">
<title>models_diagram</title>
<polygon fill="none" stroke="none" points="-4,4 -4,-442 654.61,-442 654.61,4 -4,4"/>
<!-- _diagram_info -->
<g id="node1" class="node"><title>_diagram_info</title>
<text text-anchor="start" x="75.6871" y="-423.6" font-family="Times,serif" font-size="13.00">Models diagram</text>
<text text-anchor="start" x="75.6871" y="-410.6" font-family="Times,serif" font-size="13.00">Date: Jan 08 2016 &#45; 14:22</text>
<text text-anchor="start" x="75.6871" y="-397.6" font-family="Times,serif" font-size="13.00">Migration version: 20160108121704</text>
<text text-anchor="start" x="75.6871" y="-384.6" font-family="Times,serif" font-size="13.00">Generated by RailRoady 1.4.2</text>
<text text-anchor="start" x="75.6871" y="-371.6" font-family="Times,serif" font-size="13.00">http://railroady.prestonlee.com</text>
</g>
<!-- Allocationitem -->
<g id="node2" class="node"><title>Allocationitem</title>
<ellipse fill="none" stroke="black" cx="252.375" cy="-91" rx="63.3097" ry="18"/>
<text text-anchor="middle" x="252.375" y="-86.8" font-family="Times,serif" font-size="14.00">Allocationitem</text>
</g>
<!-- Component -->
<g id="node3" class="node"><title>Component</title>
<ellipse fill="none" stroke="black" cx="51.3749" cy="-164" rx="51.2501" ry="18"/>
<text text-anchor="middle" x="51.3749" y="-159.8" font-family="Times,serif" font-size="14.00">Component</text>
</g>
<!-- Component&#45;&gt;Allocationitem -->
<g id="edge1" class="edge"><title>Component&#45;&gt;Allocationitem</title>
<path fill="none" stroke="#f0465c" d="M94.2086,-147.87C127.203,-136.215 172.731,-120.133 206.472,-108.215"/>
<ellipse fill="none" stroke="#f0465c" cx="90.158" cy="-149.3" rx="4.00001" ry="4.00001"/>
<ellipse fill="#f0465c" stroke="#f0465c" cx="210.575" cy="-106.765" rx="4.00001" ry="4.00001"/>
</g>
<!-- Event -->
<g id="node4" class="node"><title>Event</title>
<ellipse fill="none" stroke="black" cx="431.375" cy="-237" rx="30.9706" ry="18"/>
<text text-anchor="middle" x="431.375" y="-232.8" font-family="Times,serif" font-size="14.00">Event</text>
</g>
<!-- Kind -->
<g id="node5" class="node"><title>Kind</title>
<ellipse fill="none" stroke="black" cx="254.375" cy="-310" rx="27.589" ry="18"/>
<text text-anchor="middle" x="254.375" y="-305.8" font-family="Times,serif" font-size="14.00">Kind</text>
</g>
<!-- Role -->
<g id="node12" class="node"><title>Role</title>
<ellipse fill="none" stroke="black" cx="252.375" cy="-237" rx="27" ry="18"/>
<text text-anchor="middle" x="252.375" y="-232.8" font-family="Times,serif" font-size="14.00">Role</text>
</g>
<!-- Kind&#45;&gt;Role -->
<g id="edge2" class="edge"><title>Kind&#45;&gt;Role</title>
<path fill="none" stroke="#a05b9f" d="M253.665,-283.791C253.497,-277.832 253.317,-271.45 253.147,-265.399"/>
<ellipse fill="none" stroke="#a05b9f" cx="253.778" cy="-287.814" rx="4" ry="4"/>
<polygon fill="#a05b9f" stroke="#a05b9f" points="253.136,-265.025 257.353,-254.902 252.995,-260.027 252.855,-255.029 252.855,-255.029 252.855,-255.029 252.995,-260.027 248.356,-255.156 253.136,-265.025 253.136,-265.025"/>
</g>
<!-- Modul -->
<g id="node6" class="node"><title>Modul</title>
<ellipse fill="none" stroke="black" cx="105.375" cy="-237" rx="33.8857" ry="18"/>
<text text-anchor="middle" x="105.375" y="-232.8" font-family="Times,serif" font-size="14.00">Modul</text>
</g>
<!-- Modul&#45;&gt;Component -->
<g id="edge3" class="edge"><title>Modul&#45;&gt;Component</title>
<path fill="none" stroke="#b80e78" d="M88.1722,-213.382C82.3971,-205.788 75.9302,-197.286 70.0478,-189.551"/>
<ellipse fill="none" stroke="#b80e78" cx="90.7" cy="-216.705" rx="4.00002" ry="4.00002"/>
<polygon fill="#b80e78" stroke="#b80e78" points="70.0083,-189.499 67.5363,-178.816 66.9814,-185.52 63.9546,-181.54 63.9546,-181.54 63.9546,-181.54 66.9814,-185.52 60.3728,-184.264 70.0083,-189.499 70.0083,-189.499"/>
</g>
<!-- Project -->
<g id="node7" class="node"><title>Project</title>
<ellipse fill="none" stroke="black" cx="328.375" cy="-401.5" rx="35.3129" ry="18"/>
<text text-anchor="middle" x="328.375" y="-397.3" font-family="Times,serif" font-size="14.00">Project</text>
</g>
<!-- Project&#45;&gt;Event -->
<g id="edge8" class="edge"><title>Project&#45;&gt;Event</title>
<path fill="none" stroke="#9a37a3" d="M343.33,-376.906C362.673,-346.389 396.205,-293.486 415.831,-262.523"/>
<ellipse fill="none" stroke="#9a37a3" cx="340.959" cy="-380.646" rx="4.00002" ry="4.00002"/>
<polygon fill="#9a37a3" stroke="#9a37a3" points="415.856,-262.484 425.01,-256.447 418.533,-258.261 421.21,-254.037 421.21,-254.037 421.21,-254.037 418.533,-258.261 417.409,-251.628 415.856,-262.484 415.856,-262.484"/>
</g>
<!-- Project&#45;&gt;Kind -->
<g id="edge5" class="edge"><title>Project&#45;&gt;Kind</title>
<path fill="none" stroke="#618a57" d="M309.711,-377.927C298.649,-364.548 284.661,-347.63 273.516,-334.151"/>
<ellipse fill="none" stroke="#618a57" cx="312.596" cy="-381.416" rx="4.00002" ry="4.00002"/>
<polygon fill="#618a57" stroke="#618a57" points="273.368,-333.972 270.464,-323.397 270.182,-330.118 266.996,-326.265 266.996,-326.265 266.996,-326.265 270.182,-330.118 263.528,-329.132 273.368,-333.972 273.368,-333.972"/>
</g>
<!-- Questionary -->
<g id="node9" class="node"><title>Questionary</title>
<ellipse fill="none" stroke="black" cx="464.375" cy="-310" rx="53.1625" ry="18"/>
<text text-anchor="middle" x="464.375" y="-305.8" font-family="Times,serif" font-size="14.00">Questionary</text>
</g>
<!-- Project&#45;&gt;Questionary -->
<g id="edge7" class="edge"><title>Project&#45;&gt;Questionary</title>
<path fill="none" stroke="#20ce16" d="M355.779,-382.466C378.028,-367.824 409.424,-347.162 432.74,-331.819"/>
<ellipse fill="none" stroke="#20ce16" cx="352.372" cy="-384.708" rx="4.00002" ry="4.00002"/>
<polygon fill="#20ce16" stroke="#20ce16" points="432.891,-331.719 443.718,-329.981 437.067,-328.971 441.244,-326.222 441.244,-326.222 441.244,-326.222 437.067,-328.971 438.77,-322.463 432.891,-331.719 432.891,-331.719"/>
</g>
<!-- Subproduct -->
<g id="node13" class="node"><title>Subproduct</title>
<ellipse fill="none" stroke="black" cx="150.375" cy="-310" rx="50.7655" ry="18"/>
<text text-anchor="middle" x="150.375" y="-305.8" font-family="Times,serif" font-size="14.00">Subproduct</text>
</g>
<!-- Project&#45;&gt;Subproduct -->
<g id="edge4" class="edge"><title>Project&#45;&gt;Subproduct</title>
<path fill="none" stroke="#fca8be" d="M305.793,-380.167C299.179,-374.809 291.738,-369.324 284.375,-365 256.733,-348.768 223.293,-335.284 196.733,-325.85"/>
<ellipse fill="none" stroke="#fca8be" cx="309.029" cy="-382.87" rx="4.00002" ry="4.00002"/>
<polygon fill="#fca8be" stroke="#fca8be" points="196.727,-325.848 188.763,-318.311 192.005,-324.204 187.283,-322.56 187.283,-322.56 187.283,-322.56 192.005,-324.204 185.804,-326.81 196.727,-325.848 196.727,-325.848"/>
</g>
<!-- Task -->
<g id="node15" class="node"><title>Task</title>
<ellipse fill="none" stroke="black" cx="328.375" cy="-310" rx="27" ry="18"/>
<text text-anchor="middle" x="328.375" y="-305.8" font-family="Times,serif" font-size="14.00">Task</text>
</g>
<!-- Project&#45;&gt;Task -->
<g id="edge6" class="edge"><title>Project&#45;&gt;Task</title>
<path fill="none" stroke="#992ddd" d="M328.375,-374.903C328.375,-363.441 328.375,-349.914 328.375,-338.263"/>
<ellipse fill="none" stroke="#992ddd" cx="328.375" cy="-379.243" rx="4" ry="4"/>
<polygon fill="#992ddd" stroke="#992ddd" points="328.375,-338.204 332.875,-328.203 328.375,-333.204 328.375,-328.204 328.375,-328.204 328.375,-328.204 328.375,-333.204 323.875,-328.204 328.375,-338.204 328.375,-338.204"/>
</g>
<!-- Question -->
<g id="node8" class="node"><title>Question</title>
<ellipse fill="none" stroke="black" cx="519.375" cy="-91" rx="42.0784" ry="18"/>
<text text-anchor="middle" x="519.375" y="-86.8" font-family="Times,serif" font-size="14.00">Question</text>
</g>
<!-- Response -->
<g id="node11" class="node"><title>Response</title>
<ellipse fill="none" stroke="black" cx="519.375" cy="-18" rx="44.0078" ry="18"/>
<text text-anchor="middle" x="519.375" y="-13.8" font-family="Times,serif" font-size="14.00">Response</text>
</g>
<!-- Question&#45;&gt;Response -->
<g id="edge9" class="edge"><title>Question&#45;&gt;Response</title>
<path fill="none" stroke="#15a850" d="M519.375,-64.791C519.375,-58.832 519.375,-52.4496 519.375,-46.3988"/>
<ellipse fill="none" stroke="#15a850" cx="519.375" cy="-68.8129" rx="4" ry="4"/>
<polygon fill="#15a850" stroke="#15a850" points="519.375,-46.0288 523.875,-36.0288 519.375,-41.0288 519.375,-36.0288 519.375,-36.0288 519.375,-36.0288 519.375,-41.0288 514.875,-36.0289 519.375,-46.0288 519.375,-46.0288"/>
</g>
<!-- Questionary&#45;&gt;Event -->
<g id="edge11" class="edge"><title>Questionary&#45;&gt;Event</title>
<path fill="none" stroke="#d5e05f" d="M453.173,-284.898C450.071,-278.226 446.691,-270.952 443.537,-264.168"/>
<ellipse fill="none" stroke="#d5e05f" cx="454.868" cy="-288.547" rx="4.00002" ry="4.00002"/>
<polygon fill="#d5e05f" stroke="#d5e05f" points="443.354,-263.774 443.22,-252.809 441.247,-259.239 439.139,-254.705 439.139,-254.705 439.139,-254.705 441.247,-259.239 435.059,-256.602 443.354,-263.774 443.354,-263.774"/>
</g>
<!-- Questionary&#45;&gt;Question -->
<g id="edge10" class="edge"><title>Questionary&#45;&gt;Question</title>
<path fill="none" stroke="#bf1960" d="M506.862,-292.88C550.398,-273.79 615.653,-237.416 644.375,-182 651.737,-167.795 653.163,-159.37 644.375,-146 627.606,-120.489 595.946,-106.975 568.686,-99.8455"/>
<ellipse fill="none" stroke="#bf1960" cx="502.945" cy="-294.557" rx="4.00002" ry="4.00002"/>
<polygon fill="#bf1960" stroke="#bf1960" points="568.603,-99.8256 559.925,-93.121 563.74,-98.6615 558.878,-97.4974 558.878,-97.4974 558.878,-97.4974 563.74,-98.6615 557.83,-101.874 568.603,-99.8256 568.603,-99.8256"/>
</g>
<!-- Requirment -->
<g id="node10" class="node"><title>Requirment</title>
<ellipse fill="none" stroke="black" cx="172.375" cy="-164" rx="51.7174" ry="18"/>
<text text-anchor="middle" x="172.375" y="-159.8" font-family="Times,serif" font-size="14.00">Requirment</text>
</g>
<!-- Role&#45;&gt;Allocationitem -->
<g id="edge12" class="edge"><title>Role&#45;&gt;Allocationitem</title>
<path fill="none" stroke="#bad6e3" d="M252.375,-210.838C252.375,-184.601 252.375,-143.706 252.375,-117.387"/>
<ellipse fill="none" stroke="#bad6e3" cx="252.375" cy="-214.916" rx="4" ry="4"/>
<ellipse fill="#bad6e3" stroke="#bad6e3" cx="252.375" cy="-113.062" rx="4" ry="4"/>
</g>
<!-- Role&#45;&gt;Requirment -->
<g id="edge13" class="edge"><title>Role&#45;&gt;Requirment</title>
<path fill="none" stroke="#1ea1ab" d="M230.306,-216.414C220.294,-207.529 208.393,-196.966 197.989,-187.733"/>
<ellipse fill="none" stroke="#1ea1ab" cx="233.578" cy="-219.318" rx="4.00002" ry="4.00002"/>
<polygon fill="#1ea1ab" stroke="#1ea1ab" points="197.861,-187.619 193.368,-177.615 194.121,-184.3 190.381,-180.981 190.381,-180.981 190.381,-180.981 194.121,-184.3 187.394,-184.346 197.861,-187.619 197.861,-187.619"/>
</g>
<!-- Subproduct&#45;&gt;Modul -->
<g id="edge14" class="edge"><title>Subproduct&#45;&gt;Modul</title>
<path fill="none" stroke="#0a521f" d="M135.404,-285.38C130.847,-278.189 125.823,-270.263 121.21,-262.985"/>
<ellipse fill="none" stroke="#0a521f" cx="137.569" cy="-288.795" rx="4.00002" ry="4.00002"/>
<polygon fill="#0a521f" stroke="#0a521f" points="121.006,-262.663 119.454,-251.807 118.33,-258.44 115.653,-254.217 115.653,-254.217 115.653,-254.217 118.33,-258.44 111.852,-256.626 121.006,-262.663 121.006,-262.663"/>
</g>
<!-- Subtask -->
<g id="node14" class="node"><title>Subtask</title>
<ellipse fill="none" stroke="black" cx="336.375" cy="-237" rx="38.2284" ry="18"/>
<text text-anchor="middle" x="336.375" y="-232.8" font-family="Times,serif" font-size="14.00">Subtask</text>
</g>
<!-- Workpackage -->
<g id="node16" class="node"><title>Workpackage</title>
<ellipse fill="none" stroke="black" cx="339.375" cy="-164" rx="58.5081" ry="18"/>
<text text-anchor="middle" x="339.375" y="-159.8" font-family="Times,serif" font-size="14.00">Workpackage</text>
</g>
<!-- Subtask&#45;&gt;Workpackage -->
<g id="edge15" class="edge"><title>Subtask&#45;&gt;Workpackage</title>
<path fill="none" stroke="#f0b37b" d="M337.44,-210.791C337.692,-204.832 337.962,-198.45 338.217,-192.399"/>
<ellipse fill="none" stroke="#f0b37b" cx="337.27" cy="-214.816" rx="4" ry="4"/>
<polygon fill="#f0b37b" stroke="#f0b37b" points="338.233,-192.02 343.151,-182.219 338.444,-187.024 338.655,-182.029 338.655,-182.029 338.655,-182.029 338.444,-187.024 334.159,-181.839 338.233,-192.02 338.233,-192.02"/>
</g>
<!-- Task&#45;&gt;Subtask -->
<g id="edge16" class="edge"><title>Task&#45;&gt;Subtask</title>
<path fill="none" stroke="#c46027" d="M331.215,-283.791C331.887,-277.832 332.606,-271.45 333.288,-265.399"/>
<ellipse fill="none" stroke="#c46027" cx="330.759" cy="-287.838" rx="4.00001" ry="4.00001"/>
<polygon fill="#c46027" stroke="#c46027" points="333.336,-264.966 338.928,-255.533 333.896,-259.997 334.456,-255.029 334.456,-255.029 334.456,-255.029 333.896,-259.997 329.984,-254.525 333.336,-264.966 333.336,-264.966"/>
</g>
<!-- Workpackage&#45;&gt;Allocationitem -->
<g id="edge21" class="edge"><title>Workpackage&#45;&gt;Allocationitem</title>
<path fill="none" stroke="#464dcb" d="M313.409,-141.809C302.413,-132.836 289.622,-122.397 278.599,-113.401"/>
<ellipse fill="none" stroke="#464dcb" cx="316.534" cy="-144.36" rx="4.00002" ry="4.00002"/>
<ellipse fill="#464dcb" stroke="#464dcb" cx="275.439" cy="-110.822" rx="4.00002" ry="4.00002"/>
</g>
<!-- Workpackage&#45;&gt;Question -->
<g id="edge17" class="edge"><title>Workpackage&#45;&gt;Question</title>
<path fill="none" stroke="#81efb7" d="M381.803,-146.264C411.574,-134.521 451.092,-118.934 480.133,-107.479"/>
<ellipse fill="none" stroke="#81efb7" cx="377.802" cy="-147.843" rx="4.00001" ry="4.00001"/>
<polygon fill="#81efb7" stroke="#81efb7" points="480.248,-107.433 491.202,-107.95 484.899,-105.599 489.551,-103.764 489.551,-103.764 489.551,-103.764 484.899,-105.599 487.899,-99.5779 480.248,-107.433 480.248,-107.433"/>
</g>
<!-- Workpackage&#45;&gt;Workpackage -->
<g id="edge18" class="edge"><title>Workpackage&#45;&gt;Workpackage</title>
<path fill="none" stroke="#6ef5de" d="M405.889,-165.795C412.018,-165.424 415.879,-164.825 415.879,-164 415.879,-163.175 412.018,-162.576 405.889,-162.205"/>
<ellipse fill="none" stroke="#6ef5de" cx="401.745" cy="-165.964" rx="4" ry="4"/>
<ellipse fill="#6ef5de" stroke="#6ef5de" cx="401.745" cy="-162.036" rx="4" ry="4"/>
<text text-anchor="middle" x="442.703" y="-159.8" font-family="Times,serif" font-size="14.00">successor</text>
</g>
<!-- Workpackage&#45;&gt;Workpackage -->
<g id="edge19" class="edge"><title>Workpackage&#45;&gt;Workpackage</title>
<path fill="none" stroke="#60ac85" d="M406.573,-168.444C439.054,-168.816 469.527,-167.335 469.527,-164 469.527,-160.665 439.054,-159.184 406.573,-159.556"/>
<polygon fill="#60ac85" stroke="#60ac85" points="406.458,-168.442 396.537,-163.77 401.459,-168.356 396.459,-168.269 396.459,-168.269 396.459,-168.269 401.459,-168.356 396.382,-172.768 406.458,-168.442 406.458,-168.442"/>
<polygon fill="#60ac85" stroke="#60ac85" points="406.458,-159.558 396.382,-155.232 401.459,-159.644 396.459,-159.731 396.459,-159.731 396.459,-159.731 401.459,-159.644 396.537,-164.23 406.458,-159.558 406.458,-159.558"/>
<text text-anchor="middle" x="505.29" y="-159.8" font-family="Times,serif" font-size="14.00">predecessors</text>
</g>
<!-- Workpackage&#45;&gt;Workpackage -->
<g id="edge20" class="edge"><title>Workpackage&#45;&gt;Workpackage</title>
<path fill="none" stroke="#51e0ed" d="M405.401,-169.898C465.673,-172.065 541.052,-170.098 541.052,-164 541.052,-157.902 465.673,-155.935 405.401,-158.102"/>
<polygon fill="#51e0ed" stroke="#51e0ed" points="405.101,-169.886 395.292,-164.985 400.105,-169.684 395.109,-169.481 395.109,-169.481 395.109,-169.481 400.105,-169.684 394.927,-173.977 405.101,-169.886 405.101,-169.886"/>
<polygon fill="#51e0ed" stroke="#51e0ed" points="405.101,-158.114 394.927,-154.023 400.105,-158.316 395.109,-158.519 395.109,-158.519 395.109,-158.519 400.105,-158.316 395.292,-163.015 405.101,-158.114 405.101,-158.114"/>
<text text-anchor="middle" x="570.6" y="-159.8" font-family="Times,serif" font-size="14.00">successors</text>
</g>
</g>
</svg>
