<?xml version="1.0" encoding="UTF-8" standalone="no"?>
<!DOCTYPE svg PUBLIC "-//W3C//DTD SVG 1.1//EN"
 "http://www.w3.org/Graphics/SVG/1.1/DTD/svg11.dtd">
<!-- Generated by graphviz version 2.38.0 (20140413.2041)
 -->
<!-- Title: models_diagram Pages: 1 -->
<svg width="672pt" height="864pt"
 viewBox="0.00 0.00 672.19 864.00" xmlns="http://www.w3.org/2000/svg" xmlns:xlink="http://www.w3.org/1999/xlink">
<g id="graph0" class="graph" transform="scale(1 1) rotate(0) translate(4 860)">
<title>models_diagram</title>
<polygon fill="none" stroke="none" points="-4,4 -4,-860 668.193,-860 668.193,4 -4,4"/>
<!-- _diagram_info -->
<g id="node1" class="node"><title>_diagram_info</title>
<text text-anchor="start" x="8" y="-827.6" font-family="Times,serif" font-size="13.00">Models diagram</text>
<text text-anchor="start" x="8" y="-814.6" font-family="Times,serif" font-size="13.00">Date: Jan 08 2016 &#45; 11:38</text>
<text text-anchor="start" x="8" y="-801.6" font-family="Times,serif" font-size="13.00">Migration version: 20151223074143</text>
<text text-anchor="start" x="8" y="-788.6" font-family="Times,serif" font-size="13.00">Generated by RailRoady 1.4.2</text>
<text text-anchor="start" x="8" y="-775.6" font-family="Times,serif" font-size="13.00">http://railroady.prestonlee.com</text>
</g>
<!-- Component -->
<g id="node2" class="node"><title>Component</title>
<path fill="none" stroke="black" d="M387.182,-302.5C387.182,-302.5 496.193,-302.5 496.193,-302.5 502.193,-302.5 508.193,-308.5 508.193,-314.5 508.193,-314.5 508.193,-404.5 508.193,-404.5 508.193,-410.5 502.193,-416.5 496.193,-416.5 496.193,-416.5 387.182,-416.5 387.182,-416.5 381.182,-416.5 375.182,-410.5 375.182,-404.5 375.182,-404.5 375.182,-314.5 375.182,-314.5 375.182,-308.5 381.182,-302.5 387.182,-302.5"/>
<text text-anchor="middle" x="441.688" y="-401.3" font-family="Times,serif" font-size="14.00">Component</text>
<polyline fill="none" stroke="black" points="375.182,-394.5 508.193,-394.5 "/>
<text text-anchor="start" x="383.182" y="-379.3" font-family="Times,serif" font-size="14.00">id :INTEGER</text>
<text text-anchor="start" x="383.182" y="-365.3" font-family="Times,serif" font-size="14.00">name :varchar</text>
<text text-anchor="start" x="383.182" y="-351.3" font-family="Times,serif" font-size="14.00">description :varchar</text>
<text text-anchor="start" x="383.182" y="-337.3" font-family="Times,serif" font-size="14.00">modul_id :integer</text>
<text text-anchor="start" x="383.182" y="-323.3" font-family="Times,serif" font-size="14.00">created_at :datetime</text>
<text text-anchor="start" x="383.182" y="-309.3" font-family="Times,serif" font-size="14.00">updated_at :datetime</text>
</g>
<!-- Event -->
<g id="node3" class="node"><title>Event</title>
<path fill="none" stroke="black" d="M176.231,-453.5C176.231,-453.5 303.145,-453.5 303.145,-453.5 309.145,-453.5 315.145,-459.5 315.145,-465.5 315.145,-465.5 315.145,-555.5 315.145,-555.5 315.145,-561.5 309.145,-567.5 303.145,-567.5 303.145,-567.5 176.231,-567.5 176.231,-567.5 170.231,-567.5 164.231,-561.5 164.231,-555.5 164.231,-555.5 164.231,-465.5 164.231,-465.5 164.231,-459.5 170.231,-453.5 176.231,-453.5"/>
<text text-anchor="middle" x="239.688" y="-552.3" font-family="Times,serif" font-size="14.00">Event</text>
<polyline fill="none" stroke="black" points="164.231,-545.5 315.145,-545.5 "/>
<text text-anchor="start" x="172.231" y="-530.3" font-family="Times,serif" font-size="14.00">id :INTEGER</text>
<text text-anchor="start" x="172.231" y="-516.3" font-family="Times,serif" font-size="14.00">startDate :date</text>
<text text-anchor="start" x="172.231" y="-502.3" font-family="Times,serif" font-size="14.00">questionarys_id :integer</text>
<text text-anchor="start" x="172.231" y="-488.3" font-family="Times,serif" font-size="14.00">project_id :integer</text>
<text text-anchor="start" x="172.231" y="-474.3" font-family="Times,serif" font-size="14.00">created_at :datetime</text>
<text text-anchor="start" x="172.231" y="-460.3" font-family="Times,serif" font-size="14.00">updated_at :datetime</text>
</g>
<!-- Kind -->
<g id="node4" class="node"><title>Kind</title>
<path fill="none" stroke="black" d="M37.1824,-611.5C37.1824,-611.5 146.193,-611.5 146.193,-611.5 152.193,-611.5 158.193,-617.5 158.193,-623.5 158.193,-623.5 158.193,-699.5 158.193,-699.5 158.193,-705.5 152.193,-711.5 146.193,-711.5 146.193,-711.5 37.1824,-711.5 37.1824,-711.5 31.1824,-711.5 25.1824,-705.5 25.1824,-699.5 25.1824,-699.5 25.1824,-623.5 25.1824,-623.5 25.1824,-617.5 31.1824,-611.5 37.1824,-611.5"/>
<text text-anchor="middle" x="91.6877" y="-696.3" font-family="Times,serif" font-size="14.00">Kind</text>
<polyline fill="none" stroke="black" points="25.1824,-689.5 158.193,-689.5 "/>
<text text-anchor="start" x="33.1824" y="-674.3" font-family="Times,serif" font-size="14.00">id :INTEGER</text>
<text text-anchor="start" x="33.1824" y="-660.3" font-family="Times,serif" font-size="14.00">name :varchar</text>
<text text-anchor="start" x="33.1824" y="-646.3" font-family="Times,serif" font-size="14.00">project_id :integer</text>
<text text-anchor="start" x="33.1824" y="-632.3" font-family="Times,serif" font-size="14.00">created_at :datetime</text>
<text text-anchor="start" x="33.1824" y="-618.3" font-family="Times,serif" font-size="14.00">updated_at :datetime</text>
</g>
<!-- Role -->
<g id="node11" class="node"><title>Role</title>
<path fill="none" stroke="black" d="M25.1824,-460.5C25.1824,-460.5 134.193,-460.5 134.193,-460.5 140.193,-460.5 146.193,-466.5 146.193,-472.5 146.193,-472.5 146.193,-548.5 146.193,-548.5 146.193,-554.5 140.193,-560.5 134.193,-560.5 134.193,-560.5 25.1824,-560.5 25.1824,-560.5 19.1824,-560.5 13.1824,-554.5 13.1824,-548.5 13.1824,-548.5 13.1824,-472.5 13.1824,-472.5 13.1824,-466.5 19.1824,-460.5 25.1824,-460.5"/>
<text text-anchor="middle" x="79.6877" y="-545.3" font-family="Times,serif" font-size="14.00">Role</text>
<polyline fill="none" stroke="black" points="13.1824,-538.5 146.193,-538.5 "/>
<text text-anchor="start" x="21.1824" y="-523.3" font-family="Times,serif" font-size="14.00">id :INTEGER</text>
<text text-anchor="start" x="21.1824" y="-509.3" font-family="Times,serif" font-size="14.00">name :varchar</text>
<text text-anchor="start" x="21.1824" y="-495.3" font-family="Times,serif" font-size="14.00">kind_id :integer</text>
<text text-anchor="start" x="21.1824" y="-481.3" font-family="Times,serif" font-size="14.00">created_at :datetime</text>
<text text-anchor="start" x="21.1824" y="-467.3" font-family="Times,serif" font-size="14.00">updated_at :datetime</text>
</g>
<!-- Kind&#45;&gt;Role -->
<g id="edge1" class="edge"><title>Kind&#45;&gt;Role</title>
<path fill="none" stroke="#0ea302" d="M87.0695,-603.157C86.2136,-592.529 85.318,-581.409 84.4577,-570.727"/>
<ellipse fill="none" stroke="#0ea302" cx="87.4041" cy="-607.312" rx="4" ry="4"/>
<polygon fill="#0ea302" stroke="#0ea302" points="84.449,-570.617 88.1316,-560.288 84.0475,-565.633 83.6461,-560.649 83.6461,-560.649 83.6461,-560.649 84.0475,-565.633 79.1606,-561.011 84.449,-570.617 84.449,-570.617"/>
</g>
<!-- Modul -->
<g id="node5" class="node"><title>Modul</title>
<path fill="none" stroke="black" d="M382.507,-453.5C382.507,-453.5 500.869,-453.5 500.869,-453.5 506.869,-453.5 512.869,-459.5 512.869,-465.5 512.869,-465.5 512.869,-555.5 512.869,-555.5 512.869,-561.5 506.869,-567.5 500.869,-567.5 500.869,-567.5 382.507,-567.5 382.507,-567.5 376.507,-567.5 370.507,-561.5 370.507,-555.5 370.507,-555.5 370.507,-465.5 370.507,-465.5 370.507,-459.5 376.507,-453.5 382.507,-453.5"/>
<text text-anchor="middle" x="441.688" y="-552.3" font-family="Times,serif" font-size="14.00">Modul</text>
<polyline fill="none" stroke="black" points="370.507,-545.5 512.869,-545.5 "/>
<text text-anchor="start" x="378.507" y="-530.3" font-family="Times,serif" font-size="14.00">id :INTEGER</text>
<text text-anchor="start" x="378.507" y="-516.3" font-family="Times,serif" font-size="14.00">name :varchar</text>
<text text-anchor="start" x="378.507" y="-502.3" font-family="Times,serif" font-size="14.00">description :varchar</text>
<text text-anchor="start" x="378.507" y="-488.3" font-family="Times,serif" font-size="14.00">subproduct_id :integer</text>
<text text-anchor="start" x="378.507" y="-474.3" font-family="Times,serif" font-size="14.00">created_at :datetime</text>
<text text-anchor="start" x="378.507" y="-460.3" font-family="Times,serif" font-size="14.00">updated_at :datetime</text>
</g>
<!-- Modul&#45;&gt;Component -->
<g id="edge2" class="edge"><title>Modul&#45;&gt;Component</title>
<path fill="none" stroke="#2f8f98" d="M441.688,-445.018C441.688,-439.024 441.688,-432.942 441.688,-426.931"/>
<ellipse fill="none" stroke="#2f8f98" cx="441.688" cy="-449.169" rx="4" ry="4"/>
<polygon fill="#2f8f98" stroke="#2f8f98" points="441.688,-426.91 446.188,-416.91 441.688,-421.91 441.688,-416.91 441.688,-416.91 441.688,-416.91 441.688,-421.91 437.188,-416.91 441.688,-426.91 441.688,-426.91"/>
</g>
<!-- Project -->
<g id="node6" class="node"><title>Project</title>
<path fill="none" stroke="black" d="M237.182,-755.5C237.182,-755.5 346.193,-755.5 346.193,-755.5 352.193,-755.5 358.193,-761.5 358.193,-767.5 358.193,-767.5 358.193,-843.5 358.193,-843.5 358.193,-849.5 352.193,-855.5 346.193,-855.5 346.193,-855.5 237.182,-855.5 237.182,-855.5 231.182,-855.5 225.182,-849.5 225.182,-843.5 225.182,-843.5 225.182,-767.5 225.182,-767.5 225.182,-761.5 231.182,-755.5 237.182,-755.5"/>
<text text-anchor="middle" x="291.688" y="-840.3" font-family="Times,serif" font-size="14.00">Project</text>
<polyline fill="none" stroke="black" points="225.182,-833.5 358.193,-833.5 "/>
<text text-anchor="start" x="233.182" y="-818.3" font-family="Times,serif" font-size="14.00">id :INTEGER</text>
<text text-anchor="start" x="233.182" y="-804.3" font-family="Times,serif" font-size="14.00">title :varchar</text>
<text text-anchor="start" x="233.182" y="-790.3" font-family="Times,serif" font-size="14.00">description :varchar</text>
<text text-anchor="start" x="233.182" y="-776.3" font-family="Times,serif" font-size="14.00">created_at :datetime</text>
<text text-anchor="start" x="233.182" y="-762.3" font-family="Times,serif" font-size="14.00">updated_at :datetime</text>
</g>
<!-- Project&#45;&gt;Event -->
<g id="edge7" class="edge"><title>Project&#45;&gt;Event</title>
<path fill="none" stroke="#0d5323" d="M232.363,-748.681C225.569,-739.451 219.663,-729.457 215.688,-719 198.507,-673.811 205.728,-619.416 216.596,-577.658"/>
<ellipse fill="none" stroke="#0d5323" cx="235.005" cy="-752.097" rx="4.00002" ry="4.00002"/>
<polygon fill="#0d5323" stroke="#0d5323" points="216.635,-577.516 223.611,-569.055 217.952,-572.693 219.27,-567.869 219.27,-567.869 219.27,-567.869 217.952,-572.693 214.929,-566.684 216.635,-577.516 216.635,-577.516"/>
</g>
<!-- Project&#45;&gt;Kind -->
<g id="edge4" class="edge"><title>Project&#45;&gt;Kind</title>
<path fill="none" stroke="#6b8aed" d="M218.48,-752.522C201.571,-740.517 183.558,-727.728 166.578,-715.672"/>
<ellipse fill="none" stroke="#6b8aed" cx="221.829" cy="-754.9" rx="4.00002" ry="4.00002"/>
<polygon fill="#6b8aed" stroke="#6b8aed" points="166.489,-715.609 160.94,-706.15 162.412,-712.714 158.335,-709.819 158.335,-709.819 158.335,-709.819 162.412,-712.714 155.73,-713.489 166.489,-715.609 166.489,-715.609"/>
</g>
<!-- Questionary -->
<g id="node8" class="node"><title>Questionary</title>
<path fill="none" stroke="black" d="M237.182,-604.5C237.182,-604.5 346.193,-604.5 346.193,-604.5 352.193,-604.5 358.193,-610.5 358.193,-616.5 358.193,-616.5 358.193,-706.5 358.193,-706.5 358.193,-712.5 352.193,-718.5 346.193,-718.5 346.193,-718.5 237.182,-718.5 237.182,-718.5 231.182,-718.5 225.182,-712.5 225.182,-706.5 225.182,-706.5 225.182,-616.5 225.182,-616.5 225.182,-610.5 231.182,-604.5 237.182,-604.5"/>
<text text-anchor="middle" x="291.688" y="-703.3" font-family="Times,serif" font-size="14.00">Questionary</text>
<polyline fill="none" stroke="black" points="225.182,-696.5 358.193,-696.5 "/>
<text text-anchor="start" x="233.182" y="-681.3" font-family="Times,serif" font-size="14.00">id :INTEGER</text>
<text text-anchor="start" x="233.182" y="-667.3" font-family="Times,serif" font-size="14.00">name :varchar</text>
<text text-anchor="start" x="233.182" y="-653.3" font-family="Times,serif" font-size="14.00">description :varchar</text>
<text text-anchor="start" x="233.182" y="-639.3" font-family="Times,serif" font-size="14.00">project_id :integer</text>
<text text-anchor="start" x="233.182" y="-625.3" font-family="Times,serif" font-size="14.00">created_at :datetime</text>
<text text-anchor="start" x="233.182" y="-611.3" font-family="Times,serif" font-size="14.00">updated_at :datetime</text>
</g>
<!-- Project&#45;&gt;Questionary -->
<g id="edge6" class="edge"><title>Project&#45;&gt;Questionary</title>
<path fill="none" stroke="#bde009" d="M291.688,-747.168C291.688,-741.214 291.688,-735.127 291.688,-729.084"/>
<ellipse fill="none" stroke="#bde009" cx="291.688" cy="-751.234" rx="4" ry="4"/>
<polygon fill="#bde009" stroke="#bde009" points="291.688,-728.984 296.188,-718.984 291.688,-723.984 291.688,-718.984 291.688,-718.984 291.688,-718.984 291.688,-723.984 287.188,-718.984 291.688,-728.984 291.688,-728.984"/>
</g>
<!-- Subproduct -->
<g id="node12" class="node"><title>Subproduct</title>
<path fill="none" stroke="black" d="M388.182,-604.5C388.182,-604.5 497.193,-604.5 497.193,-604.5 503.193,-604.5 509.193,-610.5 509.193,-616.5 509.193,-616.5 509.193,-706.5 509.193,-706.5 509.193,-712.5 503.193,-718.5 497.193,-718.5 497.193,-718.5 388.182,-718.5 388.182,-718.5 382.182,-718.5 376.182,-712.5 376.182,-706.5 376.182,-706.5 376.182,-616.5 376.182,-616.5 376.182,-610.5 382.182,-604.5 388.182,-604.5"/>
<text text-anchor="middle" x="442.688" y="-703.3" font-family="Times,serif" font-size="14.00">Subproduct</text>
<polyline fill="none" stroke="black" points="376.182,-696.5 509.193,-696.5 "/>
<text text-anchor="start" x="384.182" y="-681.3" font-family="Times,serif" font-size="14.00">id :INTEGER</text>
<text text-anchor="start" x="384.182" y="-667.3" font-family="Times,serif" font-size="14.00">name :varchar</text>
<text text-anchor="start" x="384.182" y="-653.3" font-family="Times,serif" font-size="14.00">description :varchar</text>
<text text-anchor="start" x="384.182" y="-639.3" font-family="Times,serif" font-size="14.00">project_id :integer</text>
<text text-anchor="start" x="384.182" y="-625.3" font-family="Times,serif" font-size="14.00">created_at :datetime</text>
<text text-anchor="start" x="384.182" y="-611.3" font-family="Times,serif" font-size="14.00">updated_at :datetime</text>
</g>
<!-- Project&#45;&gt;Subproduct -->
<g id="edge3" class="edge"><title>Project&#45;&gt;Subproduct</title>
<path fill="none" stroke="#9e0a67" d="M350.009,-749.655C358.346,-741.814 366.979,-733.696 375.471,-725.711"/>
<ellipse fill="none" stroke="#9e0a67" cx="346.99" cy="-752.494" rx="4.00002" ry="4.00002"/>
<polygon fill="#9e0a67" stroke="#9e0a67" points="375.601,-725.588 385.969,-722.016 379.243,-722.163 382.886,-718.738 382.886,-718.738 382.886,-718.738 379.243,-722.163 379.803,-715.459 375.601,-725.588 375.601,-725.588"/>
</g>
<!-- Task -->
<g id="node14" class="node"><title>Task</title>
<path fill="none" stroke="black" d="M541.182,-611.5C541.182,-611.5 650.193,-611.5 650.193,-611.5 656.193,-611.5 662.193,-617.5 662.193,-623.5 662.193,-623.5 662.193,-699.5 662.193,-699.5 662.193,-705.5 656.193,-711.5 650.193,-711.5 650.193,-711.5 541.182,-711.5 541.182,-711.5 535.182,-711.5 529.182,-705.5 529.182,-699.5 529.182,-699.5 529.182,-623.5 529.182,-623.5 529.182,-617.5 535.182,-611.5 541.182,-611.5"/>
<text text-anchor="middle" x="595.688" y="-696.3" font-family="Times,serif" font-size="14.00">Task</text>
<polyline fill="none" stroke="black" points="529.182,-689.5 662.193,-689.5 "/>
<text text-anchor="start" x="537.182" y="-674.3" font-family="Times,serif" font-size="14.00">id :INTEGER</text>
<text text-anchor="start" x="537.182" y="-660.3" font-family="Times,serif" font-size="14.00">name :varchar</text>
<text text-anchor="start" x="537.182" y="-646.3" font-family="Times,serif" font-size="14.00">project_id :integer</text>
<text text-anchor="start" x="537.182" y="-632.3" font-family="Times,serif" font-size="14.00">created_at :datetime</text>
<text text-anchor="start" x="537.182" y="-618.3" font-family="Times,serif" font-size="14.00">updated_at :datetime</text>
</g>
<!-- Project&#45;&gt;Task -->
<g id="edge5" class="edge"><title>Project&#45;&gt;Task</title>
<path fill="none" stroke="#d75fc1" d="M366.093,-782.19C411.526,-767.19 470.037,-745.365 518.688,-719 520.009,-718.284 521.333,-717.548 522.658,-716.794"/>
<ellipse fill="none" stroke="#d75fc1" cx="362.145" cy="-783.481" rx="4.00001" ry="4.00001"/>
<polygon fill="#d75fc1" stroke="#d75fc1" points="522.81,-716.704 533.704,-715.451 527.105,-714.144 531.4,-711.585 531.4,-711.585 531.4,-711.585 527.105,-714.144 529.097,-707.719 522.81,-716.704 522.81,-716.704"/>
</g>
<!-- Question -->
<g id="node7" class="node"><title>Question</title>
<path fill="none" stroke="black" d="M399.806,-137.5C399.806,-137.5 537.569,-137.5 537.569,-137.5 543.569,-137.5 549.569,-143.5 549.569,-149.5 549.569,-149.5 549.569,-253.5 549.569,-253.5 549.569,-259.5 543.569,-265.5 537.569,-265.5 537.569,-265.5 399.806,-265.5 399.806,-265.5 393.806,-265.5 387.806,-259.5 387.806,-253.5 387.806,-253.5 387.806,-149.5 387.806,-149.5 387.806,-143.5 393.806,-137.5 399.806,-137.5"/>
<text text-anchor="middle" x="468.688" y="-250.3" font-family="Times,serif" font-size="14.00">Question</text>
<polyline fill="none" stroke="black" points="387.806,-243.5 549.569,-243.5 "/>
<text text-anchor="start" x="395.806" y="-228.3" font-family="Times,serif" font-size="14.00">id :INTEGER</text>
<text text-anchor="start" x="395.806" y="-214.3" font-family="Times,serif" font-size="14.00">frage :varchar</text>
<text text-anchor="start" x="395.806" y="-200.3" font-family="Times,serif" font-size="14.00">response_average :integer</text>
<text text-anchor="start" x="395.806" y="-186.3" font-family="Times,serif" font-size="14.00">questionary_id :integer</text>
<text text-anchor="start" x="395.806" y="-172.3" font-family="Times,serif" font-size="14.00">workpackage_id :integer</text>
<text text-anchor="start" x="395.806" y="-158.3" font-family="Times,serif" font-size="14.00">created_at :datetime</text>
<text text-anchor="start" x="395.806" y="-144.3" font-family="Times,serif" font-size="14.00">updated_at :datetime</text>
</g>
<!-- Response -->
<g id="node10" class="node"><title>Response</title>
<path fill="none" stroke="black" d="M414.182,-0.5C414.182,-0.5 523.193,-0.5 523.193,-0.5 529.193,-0.5 535.193,-6.5 535.193,-12.5 535.193,-12.5 535.193,-88.5 535.193,-88.5 535.193,-94.5 529.193,-100.5 523.193,-100.5 523.193,-100.5 414.182,-100.5 414.182,-100.5 408.182,-100.5 402.182,-94.5 402.182,-88.5 402.182,-88.5 402.182,-12.5 402.182,-12.5 402.182,-6.5 408.182,-0.5 414.182,-0.5"/>
<text text-anchor="middle" x="468.688" y="-85.3" font-family="Times,serif" font-size="14.00">Response</text>
<polyline fill="none" stroke="black" points="402.182,-78.5 535.193,-78.5 "/>
<text text-anchor="start" x="410.182" y="-63.3" font-family="Times,serif" font-size="14.00">id :INTEGER</text>
<text text-anchor="start" x="410.182" y="-49.3" font-family="Times,serif" font-size="14.00">antwort :varchar</text>
<text text-anchor="start" x="410.182" y="-35.3" font-family="Times,serif" font-size="14.00">question_id :integer</text>
<text text-anchor="start" x="410.182" y="-21.3" font-family="Times,serif" font-size="14.00">created_at :datetime</text>
<text text-anchor="start" x="410.182" y="-7.3" font-family="Times,serif" font-size="14.00">updated_at :datetime</text>
</g>
<!-- Question&#45;&gt;Response -->
<g id="edge8" class="edge"><title>Question&#45;&gt;Response</title>
<path fill="none" stroke="#846a37" d="M468.688,-129.249C468.688,-123.077 468.688,-116.876 468.688,-110.814"/>
<ellipse fill="none" stroke="#846a37" cx="468.688" cy="-133.311" rx="4" ry="4"/>
<polygon fill="#846a37" stroke="#846a37" points="468.688,-110.775 473.188,-100.775 468.688,-105.775 468.688,-100.775 468.688,-100.775 468.688,-100.775 468.688,-105.775 464.188,-100.775 468.688,-110.775 468.688,-110.775"/>
</g>
<!-- Questionary&#45;&gt;Event -->
<g id="edge10" class="edge"><title>Questionary&#45;&gt;Event</title>
<path fill="none" stroke="#dd00b6" d="M269.382,-596.585C267.198,-590.327 264.978,-583.967 262.787,-577.687"/>
<ellipse fill="none" stroke="#dd00b6" cx="270.711" cy="-600.393" rx="4.00001" ry="4.00001"/>
<polygon fill="#dd00b6" stroke="#dd00b6" points="262.67,-577.352 263.623,-566.427 261.022,-572.631 259.375,-567.91 259.375,-567.91 259.375,-567.91 261.022,-572.631 255.126,-569.393 262.67,-577.352 262.67,-577.352"/>
</g>
<!-- Questionary&#45;&gt;Question -->
<g id="edge9" class="edge"><title>Questionary&#45;&gt;Question</title>
<path fill="none" stroke="#c5912b" d="M315.5,-596.373C318.527,-586.937 321.371,-577.273 323.688,-568 352.699,-451.882 310.457,-408.181 365.688,-302 370.879,-292.02 377.453,-282.459 384.758,-273.482"/>
<ellipse fill="none" stroke="#c5912b" cx="314.169" cy="-600.43" rx="4.00001" ry="4.00001"/>
<polygon fill="#c5912b" stroke="#c5912b" points="384.864,-273.358 394.775,-268.666 388.107,-269.553 391.35,-265.747 391.35,-265.747 391.35,-265.747 388.107,-269.553 387.925,-262.828 384.864,-273.358 384.864,-273.358"/>
</g>
<!-- Requirment -->
<g id="node9" class="node"><title>Requirment</title>
<path fill="none" stroke="black" d="M23.6238,-302.5C23.6238,-302.5 135.752,-302.5 135.752,-302.5 141.752,-302.5 147.752,-308.5 147.752,-314.5 147.752,-314.5 147.752,-404.5 147.752,-404.5 147.752,-410.5 141.752,-416.5 135.752,-416.5 135.752,-416.5 23.6238,-416.5 23.6238,-416.5 17.6238,-416.5 11.6238,-410.5 11.6238,-404.5 11.6238,-404.5 11.6238,-314.5 11.6238,-314.5 11.6238,-308.5 17.6238,-302.5 23.6238,-302.5"/>
<text text-anchor="middle" x="79.6877" y="-401.3" font-family="Times,serif" font-size="14.00">Requirment</text>
<polyline fill="none" stroke="black" points="11.6238,-394.5 147.752,-394.5 "/>
<text text-anchor="start" x="19.6238" y="-379.3" font-family="Times,serif" font-size="14.00">id :INTEGER</text>
<text text-anchor="start" x="19.6238" y="-365.3" font-family="Times,serif" font-size="14.00">qualifikation :varchar</text>
<text text-anchor="start" x="19.6238" y="-351.3" font-family="Times,serif" font-size="14.00">experience :varchar</text>
<text text-anchor="start" x="19.6238" y="-337.3" font-family="Times,serif" font-size="14.00">role_id :integer</text>
<text text-anchor="start" x="19.6238" y="-323.3" font-family="Times,serif" font-size="14.00">created_at :datetime</text>
<text text-anchor="start" x="19.6238" y="-309.3" font-family="Times,serif" font-size="14.00">updated_at :datetime</text>
</g>
<!-- Role&#45;&gt;Requirment -->
<g id="edge11" class="edge"><title>Role&#45;&gt;Requirment</title>
<path fill="none" stroke="#ac36da" d="M79.6877,-451.967C79.6877,-443.714 79.6877,-435.168 79.6877,-426.764"/>
<ellipse fill="none" stroke="#ac36da" cx="79.6878" cy="-456.299" rx="4" ry="4"/>
<polygon fill="#ac36da" stroke="#ac36da" points="79.6878,-426.612 84.1877,-416.612 79.6878,-421.612 79.6877,-416.612 79.6877,-416.612 79.6877,-416.612 79.6878,-421.612 75.1877,-416.612 79.6878,-426.612 79.6878,-426.612"/>
</g>
<!-- Subproduct&#45;&gt;Modul -->
<g id="edge12" class="edge"><title>Subproduct&#45;&gt;Modul</title>
<path fill="none" stroke="#7e7f98" d="M442.255,-596.018C442.215,-590.024 442.174,-583.942 442.134,-577.931"/>
<ellipse fill="none" stroke="#7e7f98" cx="442.283" cy="-600.17" rx="4" ry="4"/>
<polygon fill="#7e7f98" stroke="#7e7f98" points="442.134,-577.91 446.566,-567.88 442.1,-572.91 442.066,-567.91 442.066,-567.91 442.066,-567.91 442.1,-572.91 437.566,-567.94 442.134,-577.91 442.134,-577.91"/>
</g>
<!-- Subtask -->
<g id="node13" class="node"><title>Subtask</title>
<path fill="none" stroke="black" d="M543.182,-460.5C543.182,-460.5 652.193,-460.5 652.193,-460.5 658.193,-460.5 664.193,-466.5 664.193,-472.5 664.193,-472.5 664.193,-548.5 664.193,-548.5 664.193,-554.5 658.193,-560.5 652.193,-560.5 652.193,-560.5 543.182,-560.5 543.182,-560.5 537.182,-560.5 531.182,-554.5 531.182,-548.5 531.182,-548.5 531.182,-472.5 531.182,-472.5 531.182,-466.5 537.182,-460.5 543.182,-460.5"/>
<text text-anchor="middle" x="597.688" y="-545.3" font-family="Times,serif" font-size="14.00">Subtask</text>
<polyline fill="none" stroke="black" points="531.182,-538.5 664.193,-538.5 "/>
<text text-anchor="start" x="539.182" y="-523.3" font-family="Times,serif" font-size="14.00">id :INTEGER</text>
<text text-anchor="start" x="539.182" y="-509.3" font-family="Times,serif" font-size="14.00">name :varchar</text>
<text text-anchor="start" x="539.182" y="-495.3" font-family="Times,serif" font-size="14.00">task_id :integer</text>
<text text-anchor="start" x="539.182" y="-481.3" font-family="Times,serif" font-size="14.00">created_at :datetime</text>
<text text-anchor="start" x="539.182" y="-467.3" font-family="Times,serif" font-size="14.00">updated_at :datetime</text>
</g>
<!-- Workpackage -->
<g id="node15" class="node"><title>Workpackage</title>
<path fill="none" stroke="black" d="M540.182,-309.5C540.182,-309.5 649.193,-309.5 649.193,-309.5 655.193,-309.5 661.193,-315.5 661.193,-321.5 661.193,-321.5 661.193,-397.5 661.193,-397.5 661.193,-403.5 655.193,-409.5 649.193,-409.5 649.193,-409.5 540.182,-409.5 540.182,-409.5 534.182,-409.5 528.182,-403.5 528.182,-397.5 528.182,-397.5 528.182,-321.5 528.182,-321.5 528.182,-315.5 534.182,-309.5 540.182,-309.5"/>
<text text-anchor="middle" x="594.688" y="-394.3" font-family="Times,serif" font-size="14.00">Workpackage</text>
<polyline fill="none" stroke="black" points="528.182,-387.5 661.193,-387.5 "/>
<text text-anchor="start" x="536.182" y="-372.3" font-family="Times,serif" font-size="14.00">id :INTEGER</text>
<text text-anchor="start" x="536.182" y="-358.3" font-family="Times,serif" font-size="14.00">name :varchar</text>
<text text-anchor="start" x="536.182" y="-344.3" font-family="Times,serif" font-size="14.00">subtask_id :integer</text>
<text text-anchor="start" x="536.182" y="-330.3" font-family="Times,serif" font-size="14.00">created_at :datetime</text>
<text text-anchor="start" x="536.182" y="-316.3" font-family="Times,serif" font-size="14.00">updated_at :datetime</text>
</g>
<!-- Subtask&#45;&gt;Workpackage -->
<g id="edge13" class="edge"><title>Subtask&#45;&gt;Workpackage</title>
<path fill="none" stroke="#90ed08" d="M596.533,-452.157C596.319,-441.529 596.095,-430.409 595.88,-419.727"/>
<ellipse fill="none" stroke="#90ed08" cx="596.617" cy="-456.3" rx="4" ry="4"/>
<polygon fill="#90ed08" stroke="#90ed08" points="595.879,-419.647 600.176,-409.559 595.778,-414.648 595.677,-409.649 595.677,-409.649 595.677,-409.649 595.778,-414.648 591.178,-409.74 595.879,-419.647 595.879,-419.647"/>
</g>
<!-- Task&#45;&gt;Subtask -->
<g id="edge14" class="edge"><title>Task&#45;&gt;Subtask</title>
<path fill="none" stroke="#9394b0" d="M596.457,-603.157C596.6,-592.529 596.749,-581.409 596.893,-570.727"/>
<ellipse fill="none" stroke="#9394b0" cx="596.402" cy="-607.299" rx="4" ry="4"/>
<polygon fill="#9394b0" stroke="#9394b0" points="596.894,-570.649 601.528,-560.71 596.961,-565.649 597.028,-560.649 597.028,-560.649 597.028,-560.649 596.961,-565.649 592.528,-560.589 596.894,-570.649 596.894,-570.649"/>
</g>
<!-- Workpackage&#45;&gt;Question -->
<g id="edge15" class="edge"><title>Workpackage&#45;&gt;Question</title>
<path fill="none" stroke="#e10ff6" d="M549.775,-302.894C542.066,-293.35 533.963,-283.317 525.983,-273.437"/>
<ellipse fill="none" stroke="#e10ff6" cx="552.307" cy="-306.029" rx="4.00002" ry="4.00002"/>
<polygon fill="#e10ff6" stroke="#e10ff6" points="525.902,-273.337 523.12,-262.73 522.761,-269.447 519.619,-265.558 519.619,-265.558 519.619,-265.558 522.761,-269.447 516.118,-268.385 525.902,-273.337 525.902,-273.337"/>
</g>
</g>
</svg>
