<?xml version="1.0" encoding="UTF-8" standalone="no"?>
<!DOCTYPE svg PUBLIC "-//W3C//DTD SVG 1.1//EN"
 "http://www.w3.org/Graphics/SVG/1.1/DTD/svg11.dtd">
<!-- Generated by graphviz version 2.38.0 (20140413.2041)
 -->
<!-- Title: models_diagram Pages: 1 -->
<svg width="500pt" height="441pt"
 viewBox="0.00 0.00 500.22 441.00" xmlns="http://www.w3.org/2000/svg" xmlns:xlink="http://www.w3.org/1999/xlink">
<g id="graph0" class="graph" transform="scale(1 1) rotate(0) translate(4 437)">
<title>models_diagram</title>
<polygon fill="none" stroke="none" points="-4,4 -4,-437 496.224,-437 496.224,4 -4,4"/>
<!-- _diagram_info -->
<g id="node1" class="node"><title>_diagram_info</title>
<text text-anchor="start" x="8" y="-418.6" font-family="Times,serif" font-size="13.00">Models diagram</text>
<text text-anchor="start" x="8" y="-405.6" font-family="Times,serif" font-size="13.00">Date: Dec 26 2015 &#45; 13:34</text>
<text text-anchor="start" x="8" y="-392.6" font-family="Times,serif" font-size="13.00">Migration version: 0</text>
<text text-anchor="start" x="8" y="-379.6" font-family="Times,serif" font-size="13.00">Generated by RailRoady 1.4.2</text>
<text text-anchor="start" x="8" y="-366.6" font-family="Times,serif" font-size="13.00">http://railroady.prestonlee.com</text>
</g>
<!-- Component -->
<g id="node2" class="node"><title>Component</title>
<ellipse fill="none" stroke="black" cx="305.72" cy="-162" rx="51.2501" ry="18"/>
<text text-anchor="middle" x="305.72" y="-157.8" font-family="Times,serif" font-size="14.00">Component</text>
</g>
<!-- Event -->
<g id="node3" class="node"><title>Event</title>
<ellipse fill="none" stroke="black" cx="95.7202" cy="-306" rx="30.9706" ry="18"/>
<text text-anchor="middle" x="95.7202" y="-301.8" font-family="Times,serif" font-size="14.00">Event</text>
</g>
<!-- Kind -->
<g id="node4" class="node"><title>Kind</title>
<ellipse fill="none" stroke="black" cx="172.72" cy="-306" rx="27.589" ry="18"/>
<text text-anchor="middle" x="172.72" y="-301.8" font-family="Times,serif" font-size="14.00">Kind</text>
</g>
<!-- Role -->
<g id="node11" class="node"><title>Role</title>
<ellipse fill="none" stroke="black" cx="128.72" cy="-234" rx="27" ry="18"/>
<text text-anchor="middle" x="128.72" y="-229.8" font-family="Times,serif" font-size="14.00">Role</text>
</g>
<!-- Kind&#45;&gt;Role -->
<g id="edge1" class="edge"><title>Kind&#45;&gt;Role</title>
<path fill="none" stroke="#c3f23d" d="M158.457,-282.308C153.912,-275.078 148.862,-267.044 144.234,-259.68"/>
<ellipse fill="none" stroke="#c3f23d" cx="160.607" cy="-285.729" rx="4.00002" ry="4.00002"/>
<polygon fill="#c3f23d" stroke="#c3f23d" points="143.987,-259.288 142.475,-248.426 141.326,-255.054 138.665,-250.821 138.665,-250.821 138.665,-250.821 141.326,-255.054 134.855,-253.216 143.987,-259.288 143.987,-259.288"/>
</g>
<!-- Modul -->
<g id="node5" class="node"><title>Modul</title>
<ellipse fill="none" stroke="black" cx="331.72" cy="-234" rx="33.8857" ry="18"/>
<text text-anchor="middle" x="331.72" y="-229.8" font-family="Times,serif" font-size="14.00">Modul</text>
</g>
<!-- Modul&#45;&gt;Component -->
<g id="edge2" class="edge"><title>Modul&#45;&gt;Component</title>
<path fill="none" stroke="#fd0c9a" d="M322.638,-208.548C320.419,-202.574 318.032,-196.148 315.771,-190.061"/>
<ellipse fill="none" stroke="#fd0c9a" cx="324.034" cy="-212.305" rx="4.00001" ry="4.00001"/>
<polygon fill="#fd0c9a" stroke="#fd0c9a" points="315.619,-189.65 316.355,-178.708 313.878,-184.962 312.137,-180.275 312.137,-180.275 312.137,-180.275 313.878,-184.962 307.918,-181.842 315.619,-189.65 315.619,-189.65"/>
</g>
<!-- Project -->
<g id="node6" class="node"><title>Project</title>
<ellipse fill="none" stroke="black" cx="228.72" cy="-396.5" rx="35.3129" ry="18"/>
<text text-anchor="middle" x="228.72" y="-392.3" font-family="Times,serif" font-size="14.00">Project</text>
</g>
<!-- Project&#45;&gt;Event -->
<g id="edge7" class="edge"><title>Project&#45;&gt;Event</title>
<path fill="none" stroke="#f1f003" d="M205.332,-375.614C198.803,-370.345 191.608,-364.794 184.72,-360 166.039,-346.999 144.076,-333.899 126.642,-323.975"/>
<ellipse fill="none" stroke="#f1f003" cx="208.508" cy="-378.215" rx="4.00002" ry="4.00002"/>
<polygon fill="#f1f003" stroke="#f1f003" points="126.185,-323.718 119.681,-314.889 121.829,-321.264 117.472,-318.81 117.472,-318.81 117.472,-318.81 121.829,-321.264 115.264,-322.73 126.185,-323.718 126.185,-323.718"/>
</g>
<!-- Project&#45;&gt;Kind -->
<g id="edge4" class="edge"><title>Project&#45;&gt;Kind</title>
<path fill="none" stroke="#e44222" d="M214.143,-372.462C206.197,-359.905 196.363,-344.364 188.271,-331.575"/>
<ellipse fill="none" stroke="#e44222" cx="216.31" cy="-375.888" rx="4.00002" ry="4.00002"/>
<polygon fill="#e44222" stroke="#e44222" points="188.085,-331.282 186.541,-320.425 185.412,-327.057 182.738,-322.832 182.738,-322.832 182.738,-322.832 185.412,-327.057 178.935,-325.238 188.085,-331.282 188.085,-331.282"/>
</g>
<!-- Questionary -->
<g id="node8" class="node"><title>Questionary</title>
<ellipse fill="none" stroke="black" cx="226.72" cy="-234" rx="53.1625" ry="18"/>
<text text-anchor="middle" x="226.72" y="-229.8" font-family="Times,serif" font-size="14.00">Questionary</text>
</g>
<!-- Project&#45;&gt;Questionary -->
<g id="edge6" class="edge"><title>Project&#45;&gt;Questionary</title>
<path fill="none" stroke="#78ed63" d="M228.403,-370.079C228.037,-340.675 227.436,-292.455 227.06,-262.284"/>
<ellipse fill="none" stroke="#78ed63" cx="228.456" cy="-374.324" rx="4" ry="4"/>
<polygon fill="#78ed63" stroke="#78ed63" points="227.057,-262.052 231.432,-251.997 226.995,-257.052 226.933,-252.053 226.933,-252.053 226.933,-252.053 226.995,-257.052 222.433,-252.109 227.057,-262.052 227.057,-262.052"/>
</g>
<!-- Subproduct -->
<g id="node12" class="node"><title>Subproduct</title>
<ellipse fill="none" stroke="black" cx="315.72" cy="-306" rx="50.7655" ry="18"/>
<text text-anchor="middle" x="315.72" y="-301.8" font-family="Times,serif" font-size="14.00">Subproduct</text>
</g>
<!-- Project&#45;&gt;Subproduct -->
<g id="edge3" class="edge"><title>Project&#45;&gt;Subproduct</title>
<path fill="none" stroke="#4b4612" d="M249.716,-374.142C262.736,-360.897 279.468,-343.877 292.828,-330.287"/>
<ellipse fill="none" stroke="#4b4612" cx="246.679" cy="-377.232" rx="4.00002" ry="4.00002"/>
<polygon fill="#4b4612" stroke="#4b4612" points="292.848,-330.267 303.067,-326.29 296.353,-326.701 299.858,-323.136 299.858,-323.136 299.858,-323.136 296.353,-326.701 296.649,-319.981 292.848,-330.267 292.848,-330.267"/>
</g>
<!-- Task -->
<g id="node14" class="node"><title>Task</title>
<ellipse fill="none" stroke="black" cx="427.72" cy="-306" rx="27" ry="18"/>
<text text-anchor="middle" x="427.72" y="-301.8" font-family="Times,serif" font-size="14.00">Task</text>
</g>
<!-- Project&#45;&gt;Task -->
<g id="edge5" class="edge"><title>Project&#45;&gt;Task</title>
<path fill="none" stroke="#e1cb50" d="M261.873,-380.756C299.39,-364.071 360.03,-337.103 396.661,-320.813"/>
<ellipse fill="none" stroke="#e1cb50" cx="257.983" cy="-382.486" rx="4.00002" ry="4.00002"/>
<polygon fill="#e1cb50" stroke="#e1cb50" points="396.735,-320.78 407.701,-320.828 401.304,-318.748 405.872,-316.716 405.872,-316.716 405.872,-316.716 401.304,-318.748 404.044,-312.605 396.735,-320.78 396.735,-320.78"/>
</g>
<!-- Question -->
<g id="node7" class="node"><title>Question</title>
<ellipse fill="none" stroke="black" cx="329.72" cy="-90" rx="42.0784" ry="18"/>
<text text-anchor="middle" x="329.72" y="-85.8" font-family="Times,serif" font-size="14.00">Question</text>
</g>
<!-- Response -->
<g id="node10" class="node"><title>Response</title>
<ellipse fill="none" stroke="black" cx="329.72" cy="-18" rx="44.0078" ry="18"/>
<text text-anchor="middle" x="329.72" y="-13.8" font-family="Times,serif" font-size="14.00">Response</text>
</g>
<!-- Question&#45;&gt;Response -->
<g id="edge8" class="edge"><title>Question&#45;&gt;Response</title>
<path fill="none" stroke="#06a7ed" d="M329.72,-63.6398C329.72,-58.0629 329.72,-52.1319 329.72,-46.4761"/>
<ellipse fill="none" stroke="#06a7ed" cx="329.72" cy="-67.6966" rx="4" ry="4"/>
<polygon fill="#06a7ed" stroke="#06a7ed" points="329.72,-46.1043 334.22,-36.1043 329.72,-41.1043 329.72,-36.1043 329.72,-36.1043 329.72,-36.1043 329.72,-41.1043 325.22,-36.1044 329.72,-46.1043 329.72,-46.1043"/>
</g>
<!-- Questionary&#45;&gt;Question -->
<g id="edge9" class="edge"><title>Questionary&#45;&gt;Question</title>
<path fill="none" stroke="#fc83ce" d="M226.975,-207.496C228.321,-188.47 232.707,-162.653 245.72,-144 256.772,-128.158 274.234,-116.033 290.382,-107.404"/>
<ellipse fill="none" stroke="#fc83ce" cx="226.757" cy="-211.715" rx="4" ry="4"/>
<polygon fill="#fc83ce" stroke="#fc83ce" points="290.746,-107.221 301.701,-106.746 295.212,-104.974 299.679,-102.726 299.679,-102.726 299.679,-102.726 295.212,-104.974 297.656,-98.7065 290.746,-107.221 290.746,-107.221"/>
</g>
<!-- Requirment -->
<g id="node9" class="node"><title>Requirment</title>
<ellipse fill="none" stroke="black" cx="128.72" cy="-162" rx="51.7174" ry="18"/>
<text text-anchor="middle" x="128.72" y="-157.8" font-family="Times,serif" font-size="14.00">Requirment</text>
</g>
<!-- Role&#45;&gt;Requirment -->
<g id="edge10" class="edge"><title>Role&#45;&gt;Requirment</title>
<path fill="none" stroke="#4104b9" d="M128.72,-207.64C128.72,-202.063 128.72,-196.132 128.72,-190.476"/>
<ellipse fill="none" stroke="#4104b9" cx="128.72" cy="-211.697" rx="4" ry="4"/>
<polygon fill="#4104b9" stroke="#4104b9" points="128.72,-190.104 133.22,-180.104 128.72,-185.104 128.72,-180.104 128.72,-180.104 128.72,-180.104 128.72,-185.104 124.22,-180.104 128.72,-190.104 128.72,-190.104"/>
</g>
<!-- Subproduct&#45;&gt;Modul -->
<g id="edge11" class="edge"><title>Subproduct&#45;&gt;Modul</title>
<path fill="none" stroke="#38874e" d="M321.517,-279.64C322.824,-273.92 324.217,-267.828 325.539,-262.042"/>
<ellipse fill="none" stroke="#38874e" cx="320.567" cy="-283.797" rx="4.00001" ry="4.00001"/>
<polygon fill="#38874e" stroke="#38874e" points="325.582,-261.853 332.198,-253.107 326.696,-256.979 327.811,-252.104 327.811,-252.104 327.811,-252.104 326.696,-256.979 323.424,-251.102 325.582,-261.853 325.582,-261.853"/>
</g>
<!-- Subtask -->
<g id="node13" class="node"><title>Subtask</title>
<ellipse fill="none" stroke="black" cx="429.72" cy="-234" rx="38.2284" ry="18"/>
<text text-anchor="middle" x="429.72" y="-229.8" font-family="Times,serif" font-size="14.00">Subtask</text>
</g>
<!-- Workpackage -->
<g id="node15" class="node"><title>Workpackage</title>
<ellipse fill="none" stroke="black" cx="433.72" cy="-162" rx="58.5081" ry="18"/>
<text text-anchor="middle" x="433.72" y="-157.8" font-family="Times,serif" font-size="14.00">Workpackage</text>
</g>
<!-- Subtask&#45;&gt;Workpackage -->
<g id="edge12" class="edge"><title>Subtask&#45;&gt;Workpackage</title>
<path fill="none" stroke="#57ca3c" d="M431.169,-207.64C431.488,-202.063 431.827,-196.132 432.15,-190.476"/>
<ellipse fill="none" stroke="#57ca3c" cx="430.937" cy="-211.703" rx="4" ry="4"/>
<polygon fill="#57ca3c" stroke="#57ca3c" points="432.172,-190.088 437.235,-180.361 432.458,-185.096 432.743,-180.104 432.743,-180.104 432.743,-180.104 432.458,-185.096 428.25,-179.848 432.172,-190.088 432.172,-190.088"/>
</g>
<!-- Task&#45;&gt;Subtask -->
<g id="edge13" class="edge"><title>Task&#45;&gt;Subtask</title>
<path fill="none" stroke="#7c0c19" d="M428.445,-279.64C428.604,-274.063 428.774,-268.132 428.935,-262.476"/>
<ellipse fill="none" stroke="#7c0c19" cx="428.329" cy="-283.698" rx="4" ry="4"/>
<polygon fill="#7c0c19" stroke="#7c0c19" points="428.946,-262.1 433.73,-252.233 429.089,-257.102 429.232,-252.104 429.232,-252.104 429.232,-252.104 429.089,-257.102 424.733,-251.976 428.946,-262.1 428.946,-262.1"/>
</g>
<!-- Workpackage&#45;&gt;Question -->
<g id="edge14" class="edge"><title>Workpackage&#45;&gt;Question</title>
<path fill="none" stroke="#47d1f5" d="M403.505,-140.663C389.87,-131.485 373.796,-120.667 360.138,-111.473"/>
<ellipse fill="none" stroke="#47d1f5" cx="407.062" cy="-143.057" rx="4.00002" ry="4.00002"/>
<polygon fill="#47d1f5" stroke="#47d1f5" points="359.857,-111.284 354.073,-101.967 355.709,-108.492 351.561,-105.7 351.561,-105.7 351.561,-105.7 355.709,-108.492 349.048,-109.433 359.857,-111.284 359.857,-111.284"/>
</g>
</g>
</svg>
